<svg width="119" height="119" viewBox="0 0 119 119" fill="none" xmlns="http://www.w3.org/2000/svg">
<path d="M108.5 59.8889C108.5 87.0427 86.4872 109.056 59.3334 109.056C32.1794 109.056 10.1667 87.0427 10.1667 59.8889C10.1667 32.7349 32.1794 10.7222 59.3334 10.7222C86.4872 10.7222 108.5 32.7349 108.5 59.8889Z" stroke="black" stroke-width="8.5"/>
<path d="M72.8544 47.5972C72.8544 55.0647 66.801 61.1181 59.3336 61.1181C51.8661 61.1181 45.8127 55.0647 45.8127 47.5972C45.8127 40.1299 51.8661 34.0764 59.3336 34.0764C66.801 34.0764 72.8544 40.1299 72.8544 47.5972Z" stroke="black" stroke-width="8.5"/>
<path d="M27.3752 94.306L30.1305 89.4843C34.5074 81.8251 42.6529 77.0977 51.4751 77.0977H67.1922C76.0142 77.0977 84.1596 81.8251 88.5364 89.4843L91.2917 94.306" stroke="black" stroke-width="8.5" stroke-linecap="round" stroke-linejoin="round"/>
</svg>
