<svg viewBox="0 0 3400 3331" fill="none" xmlns="http://www.w3.org/2000/svg">
<path fill-rule="evenodd" clip-rule="evenodd" d="M1726.1 0.875C2396.34 0.875 3153.92 419.257 3165.78 1670.85C3173.06 2456.4 2404.24 3205.43 1665.17 3222.16C911.12 3238.9 186.393 2507.62 166.014 1728.16C141.059 766.134 787.802 0.875 1726.1 0.875Z" fill="#FFF2DC"/>
<path fill-rule="evenodd" clip-rule="evenodd" d="M1704.58 2054.73C2345.71 2054.73 3070.39 2218.84 3081.73 2709.78C3088.69 3017.91 2353.27 3311.72 1646.3 3318.29C925.001 3324.85 231.752 3038.01 212.257 2732.26C188.386 2354.9 807.039 2054.73 1704.58 2054.73Z" fill="#E2F2E7"/>
<path fill-rule="evenodd" clip-rule="evenodd" d="M2770.08 1770.33C2747.42 1843.22 2361.66 1871.97 2308.16 1761.46C2283.75 1711.08 2785.72 1720 2770.08 1770.33Z" fill="#7D522E"/>
<path fill-rule="evenodd" clip-rule="evenodd" d="M2158.19 1234.6C2199.36 1301.69 2263.78 1370 2309.19 1438.22C2333.6 1474.81 2362.3 1547.51 2362.64 1547.75C2367.17 1485.48 2379.94 1436.71 2379.94 1355.04C2379.94 1351.39 2392.02 1287.32 2391.24 1228.8C2390.61 1182.95 2374.82 1137.92 2386.37 1147.38C2407.37 1164.58 2391.97 1297.35 2391.97 1345.88C2391.97 1467.6 2373.85 1451.62 2376.96 1595.99C2377.69 1629.37 2423.59 1676.92 2439.53 1721.8C2448.93 1748.16 2522.65 1805.41 2531.23 1857.3C2534.88 1879.42 2526.16 1861.2 2472.32 1876.5C2471.78 1876.65 2422.13 1781.34 2416.04 1772.96C2384.03 1728.77 2354.06 1684.96 2352.6 1630.15C2351.87 1603.2 2321.03 1451.47 2297.3 1436.56C2280 1425.7 2191.27 1408.4 2179.58 1405.08C2206.67 1395.68 2250.82 1411.71 2293.45 1425.35C2281.95 1415.46 2162.82 1263.54 2161.79 1240.05C2161.7 1237.18 2160.19 1237.81 2158.19 1234.6Z" fill="#53875F"/>
<path fill-rule="evenodd" clip-rule="evenodd" d="M2226.35 1636.18C2227.47 1627.17 2371.55 1594.28 2453.8 1637.3C2487.42 1654.89 2517.39 1663.18 2540.78 1697.48C2534.73 1687.93 2543.99 1644.9 2518.99 1608.46C2502.43 1584.29 2509.35 1544.29 2529.96 1590.33C2538.19 1608.7 2549.35 1686.86 2557.54 1714.24C2562.9 1732.32 2567.23 1724.96 2602.02 1777.73C2610.84 1754 2621.27 1707.52 2645.58 1662.98C2667.17 1623.47 2726.08 1537.27 2733.53 1472.22C2734.36 1465.21 2743.23 1363.22 2743.86 1363.17C2783.38 1358.84 2748.49 1346.75 2748.59 1438.02C2748.69 1519.63 2686.9 1612.55 2656.16 1675.55C2644.56 1699.28 2638.47 1724.72 2640.18 1735.04C2650.7 1735.78 2717.5 1693.58 2762.52 1657.13C2782.84 1640.71 2794.98 1622.39 2802.04 1615.03C2824.99 1591.31 2837.12 1568.7 2815.64 1613.57C2790.64 1665.81 2704.3 1708.49 2660.1 1743.42C2628.33 1768.52 2633.5 1776.12 2627.99 1843.46C2626.39 1862.75 2597.83 1851.84 2597.64 1851.74C2592.23 1774.37 2541.56 1729 2492.64 1675.06C2450.68 1628.82 2327.75 1604.41 2226.35 1636.18Z" fill="#41704C"/>
<path fill-rule="evenodd" clip-rule="evenodd" d="M2308.16 1761.46C2324.68 1798.93 2343.19 1858.57 2343.1 1874.99C2342.95 1900.82 2363.76 2131.09 2371.79 2219.09H2706.73C2716.67 2081.25 2726.03 1956.07 2734.75 1875.19C2734.94 1874.84 2751.51 1833.67 2771.44 1767.45C2723.64 1787.24 2642.22 1826.46 2547.06 1828.8C2436.5 1831.58 2322.83 1776.81 2308.16 1761.46Z" fill="#D68127"/>
<path fill-rule="evenodd" clip-rule="evenodd" d="M2298.18 1642.37C2291.65 1602.51 2293.5 1592.04 2239.9 1599.25C2168.91 1608.89 2112.48 1666 2090.36 1708.73C2074.72 1738.99 2057.23 1806.57 2089.34 1859.34C2095.33 1859 2093.09 1842.78 2105.81 1822.41C2133.39 1778.41 2133.19 1824.41 2133.19 1753.22C2133.19 1752.93 2146.64 1649.19 2158.38 1709.03C2159.85 1716.53 2151.66 1788.74 2155.36 1784.36C2163.16 1775.24 2406.44 1778.41 2311.04 1660.69C2304.36 1652.46 2298.62 1645 2298.18 1642.37Z" fill="#558373"/>
<path fill-rule="evenodd" clip-rule="evenodd" d="M2070.72 1384.57C2032.28 1423.99 2059.71 1375.46 2139.18 1448.45C2163.16 1470.47 2038.95 1414.78 2034.03 1440.17C2031.45 1453.52 2009.67 1533.13 2017.18 1532.55C2027.12 1531.72 2177.63 1433.59 2054.99 1552.72C2037.54 1569.63 2016.54 1579.96 2013.72 1591.9C2007.77 1617.23 2017.18 1646.08 2021.46 1692.22C2021.51 1692.9 2141.28 1608.61 2141.77 1593.7C2142.01 1585.85 2139.33 1447.72 2159.7 1478.95C2184.84 1517.59 2177.19 1545.51 2186.45 1550.38C2196.09 1555.45 2222.99 1535.81 2264.7 1488.55C2302.46 1445.62 2249.4 1404.94 2216.56 1403.52C2202.04 1305.49 2125.44 1328.49 2070.72 1384.57Z" fill="#558373"/>
<path fill-rule="evenodd" clip-rule="evenodd" d="M2125.83 1213.49C2094.79 1202.38 2061.17 1202.38 2029.89 1230.06C2025.45 1233.96 2031.5 1271.77 2019.07 1288.92C2018.39 1289.85 1988.23 1335.36 1988.08 1335.65C1990.32 1338.72 2003.53 1319.67 2027.45 1319.67C2043.14 1319.67 2093.62 1324.78 2104.15 1316.5C2139.08 1289.16 2114.08 1269.67 2180.79 1274.89C2195.6 1276.06 2171.82 1229.96 2125.83 1213.49Z" fill="#699C75"/>
<path fill-rule="evenodd" clip-rule="evenodd" d="M2344.02 1138.51C2326.04 1059.23 2401.81 1047.93 2422.37 1033.89C2423.3 1033.26 2469.63 1004.37 2469.93 1004.22C2472.9 1006.56 2453.51 1019.23 2452.87 1043.15C2452.43 1058.79 2466.13 1110 2453.26 1143.52C2437.43 1184.89 2414.14 1162.14 2403.81 1195.17C2399.42 1209.3 2354.79 1186.11 2344.02 1138.51Z" fill="#699C75"/>
<path fill-rule="evenodd" clip-rule="evenodd" d="M2576.54 1612.06C2593.06 1503.6 2506.62 1515.2 2478.16 1494.98C2476.12 1497.32 2494.34 1510.81 2494.78 1534.74C2495.07 1550.43 2494.44 1583.56 2503.06 1617.08C2513.73 1658.45 2541.41 1650.26 2548.38 1683.35C2551.35 1697.48 2569.33 1659.67 2576.54 1612.06Z" fill="#699C75"/>
<path fill-rule="evenodd" clip-rule="evenodd" d="M2727.54 1262.08C2657.86 1170.18 2497.7 1235.38 2498.14 1404.21C2537.66 1378.77 2525.04 1357.92 2600.56 1357.92C2663.47 1357.92 2664.78 1370.39 2667.9 1371.66C2676.53 1375.07 2538 1378.29 2527.18 1451.47C2526.35 1457.08 2603.05 1546.73 2603.68 1530.85C2604.95 1497.67 2642.76 1438.9 2678.33 1433.45C2669.85 1451.77 2640.96 1490.89 2638.08 1548.05C2679.64 1566.61 2704.74 1604.28 2705.27 1604.91C2705.76 1605.45 2707.12 1576.94 2748.93 1527.24C2757.46 1517.11 2789.96 1492.6 2802.38 1495.47C2802.38 1449.23 2704.49 1336.43 2821.58 1429.55C2839.95 1444.17 2830.01 1475.89 2896.23 1406.89C2960.93 1339.55 2767.25 1355.92 2785.62 1352.37C2799.8 1349.59 2832.1 1302.72 2918.88 1334.05C2935.06 1315.48 2953.38 1128.23 2727.54 1262.08Z" fill="#53875F"/>
<path fill-rule="evenodd" clip-rule="evenodd" d="M2795.56 1636.14C2722.57 1583.81 2811.69 1481.05 2880.63 1481.05C2884.43 1481.05 2925.27 1482.9 2956.6 1502.53C2896.47 1535.33 2873.23 1587.85 2898.56 1564.12C2907.92 1555.35 2953.67 1516.71 2998.65 1525.78C3025.88 1531.23 3035.78 1543.66 3052.24 1605.25C3052.83 1607.44 2975.7 1576.26 2959.81 1590.73C2955.13 1595.01 2962.83 1598.33 2999.28 1598.33C3102.14 1598.33 3085.96 1708.45 3084.26 1704.99C3082.65 1701.72 3042.79 1648.17 2964.88 1648.17C2972.53 1648.17 3041.23 1663.38 3074.85 1726.57C3089.13 1753.37 3094.59 1868.02 3073.05 1913.63C3069.3 1921.52 3025.64 1879.18 3003.81 1871.34C3028.03 1792.25 2985.73 1740.02 2980.67 1728.42C2976.62 1731.1 3009.32 1825.87 2974.48 1846.29C2941.05 1794.25 2886.97 1815.06 2882.87 1804.09C2877.42 1789.53 2879.12 1754.05 2852.62 1710.35C2834.39 1680.33 2837.51 1651.78 2839.27 1729.2C2840.97 1804.87 2875.61 1804.53 2794.63 1787.28C2672.19 1761.22 2709.85 1636.14 2795.56 1636.14ZM2925.56 1720.82C2924.44 1738.8 2898.86 1792.35 2934.43 1793.03C2954.36 1793.42 2928.97 1721.75 2925.56 1720.82ZM3013.22 1707.47C3034.41 1765.9 3021.74 1849.07 3057.31 1849.75C3077.24 1850.14 3072.08 1735.49 3013.22 1707.47Z" fill="#558373"/>
<path fill-rule="evenodd" clip-rule="evenodd" d="M1961.67 2003.02C1957.42 2016.6 2005.39 2290.97 2026.14 2303.75C2037.5 2310.73 2064.98 2315.45 2071.63 2300.06C2112.22 2206.26 2143.82 2124.85 2143.82 2010.77C2114.24 2009.7 1976.71 2016.82 1961.67 2003.02Z" fill="#D68127"/>
<path fill-rule="evenodd" clip-rule="evenodd" d="M41.0182 2252.26C36.7744 2265.85 84.7452 2540.21 105.495 2553.03C116.856 2560.02 144.335 2564.69 150.979 2549.3C191.577 2455.5 223.172 2374.09 223.172 2260.06C193.591 2258.94 56.0656 2266.06 41.0182 2252.26Z" fill="#D68127"/>
<path fill-rule="evenodd" clip-rule="evenodd" d="M355.6 2428.41C351.356 2442 399.327 2716.37 420.119 2729.19C431.437 2736.18 458.96 2740.85 465.604 2725.46C506.202 2631.66 537.754 2550.25 537.754 2436.22C508.216 2435.1 370.69 2442.22 355.6 2428.41Z" fill="#D68127"/>
<path fill-rule="evenodd" clip-rule="evenodd" d="M2003.55 1868.96C1977.57 1799.17 1687.26 1644.07 1685.03 1623.92C1683.49 1609.6 1703.98 1591.81 1773.21 1569.82C1773.21 1569.82 2009.72 1662.12 2098.81 1817.74C2153.51 1913.29 2149.74 2036.24 2150.12 2121.25C2150.17 2127.17 2139.53 2182.73 2048.82 2188.86C2033.39 2189.89 2049.64 1879.38 2003.55 1868.96Z" fill="#89AB76"/>
<path fill-rule="evenodd" clip-rule="evenodd" d="M1685.03 1623.92C1666.85 1744 1672.21 1918.9 1706.72 1991.35C1731.16 2042.63 1833.44 2090 1894.41 2112.72C2065.88 2176.55 2078.4 2260.79 2075.27 2027.71C2070.99 1706.36 1686.32 1615.69 1685.03 1623.92Z" fill="#41704C"/>
<path fill-rule="evenodd" clip-rule="evenodd" d="M206.199 2109.42C518.119 1986.68 1744.19 1777.39 2045.52 1946.21C2069.14 1959.46 2127.57 2169.82 2036.43 2193.66C1760.27 2265.98 554.729 2627.2 488.581 2560.15C427.064 2497.77 183.179 2210.16 206.199 2109.42Z" fill="#41704C"/>
<path fill-rule="evenodd" clip-rule="evenodd" d="M132.119 2052.78C372.704 1958.13 1547.33 1617.87 1767.98 1759.39C1832.03 1800.46 1929.3 1866.26 2025.2 1919.98C2048.78 1933.18 2080.46 2006.44 1989.32 2030.32C1713.15 2102.6 507.571 2463.86 441.467 2396.77C379.948 2334.4 109.098 2153.53 132.119 2052.78Z" fill="#53875F"/>
<path fill-rule="evenodd" clip-rule="evenodd" d="M115.785 1654.75C356.37 1560.09 1517.54 1333.82 1657.38 1394.87C1658.41 1395.34 1802.41 1763.46 1740.63 1781.9C1467.42 1863.52 247.78 2162.11 181.675 2095.06C120.157 2032.68 92.7642 1755.49 115.785 1654.75Z" fill="#699C75"/>
<path fill-rule="evenodd" clip-rule="evenodd" d="M115.782 1654.92C131.901 1673.1 216.911 2039.25 210.525 2181.83C210.439 2183.76 107.209 2156.84 99.0211 2135.32C57.9086 2027.11 86.0737 1613.08 115.782 1654.92Z" fill="#53875F"/>
<path fill-rule="evenodd" clip-rule="evenodd" d="M361.64 2224.01C333.089 2140.37 14.1385 1955.31 11.6951 1931.17C9.98027 1913.98 32.53 1892.54 108.538 1865.92C108.538 1865.92 368.457 1975.8 466.328 2162.19C504.31 2234.52 516.614 2320.08 520.644 2399.01C526.731 2518.65 560.941 2589.6 420.5 2588.92C403.052 2588.83 412.269 2236.36 361.64 2224.01Z" fill="#89AB76"/>
<path fill-rule="evenodd" clip-rule="evenodd" d="M11.7006 1931.17C-8.27635 2075.34 -2.36048 2285.18 35.5363 2372C62.3727 2433.47 173.448 2494.56 241.74 2516.94C442.498 2582.74 463.676 2677.74 440.484 2414.22C406.573 2029.3 13.0721 1921.27 11.7006 1931.17Z" fill="#53875F"/>
<path fill-rule="evenodd" clip-rule="evenodd" d="M459.77 1585.12C528.404 1628.72 622.631 1967.56 603.897 2024.92C602.439 2029.38 579.205 1879.8 540.407 1762.81C507.441 1663.53 477.818 1613.03 459.77 1585.12Z" fill="#53875F"/>
<path fill-rule="evenodd" clip-rule="evenodd" d="M860.43 1517.09C926.406 1559.01 1016.95 1884.61 998.942 1939.74C997.527 1944.02 975.192 1800.28 937.895 1687.84C906.258 1592.45 877.792 1543.92 860.43 1517.09Z" fill="#53875F"/>
<path fill-rule="evenodd" clip-rule="evenodd" d="M1254.4 1427.28C1320.34 1469.21 1410.88 1794.85 1392.87 1849.98C1391.46 1854.22 1369.12 1710.48 1331.83 1598.07C1300.19 1502.65 1271.72 1454.12 1254.4 1427.28Z" fill="#53875F"/>
<path fill-rule="evenodd" clip-rule="evenodd" d="M1214.79 1503.09C1244.31 1491.02 1341.5 1529.92 1444.21 1532.41C1570.42 1535.49 1702.94 1503.99 1703.93 1505.28C1704.38 1505.82 1685.45 1604.01 1686.79 1718.79C1688.13 1831.59 1710.04 1960.93 1667.96 1960.93C1595.56 1960.93 1506.52 1927.59 1423.58 1927.59C1344.33 1927.59 1271.24 1960.93 1202.02 1960.93C1202.02 1872.53 1216.43 1778.62 1220.11 1683.56C1222.54 1620.51 1214.79 1551.49 1214.79 1503.09Z" fill="#9F704B"/>
<path fill-rule="evenodd" clip-rule="evenodd" d="M1703.93 1503.29C1704.48 1502.84 1685.45 1602.07 1686.79 1716.81C1688.13 1829.6 1710.04 1958.94 1667.96 1958.94C1595.56 1958.94 1506.52 1925.6 1423.58 1925.6C1344.33 1925.6 1271.24 1958.94 1202.02 1958.94C1382.44 1833.13 1505.92 1946.57 1589 1878.39C1727.63 1764.61 1574.34 1608.58 1703.93 1503.29Z" fill="#8E623F"/>
<path fill-rule="evenodd" clip-rule="evenodd" d="M1382.1 1527.03C1371.71 1535.73 1353.87 1555.85 1349.8 1569.17C1359.29 1554.86 1399.04 1528.72 1394.86 1528.72C1390.24 1528.72 1388.41 1527.88 1382.1 1527.03Z" fill="#8E623F"/>
<path fill-rule="evenodd" clip-rule="evenodd" d="M1424.53 1531.51C1395.41 1545.08 1377.82 1596.9 1376.43 1610.77C1379.96 1602.07 1392.08 1574.14 1408.38 1555.46C1421.99 1539.86 1440.68 1532.36 1438.79 1532.26C1434.27 1532.06 1430.84 1531.11 1424.53 1531.51Z" fill="#8E623F"/>
<path fill-rule="evenodd" clip-rule="evenodd" d="M1568.13 1526.25C1578.56 1534.55 1596.35 1553.68 1600.48 1566.35C1590.99 1552.73 1551.19 1527.84 1555.41 1527.84C1559.98 1527.84 1561.87 1527.09 1568.13 1526.25Z" fill="#8E623F"/>
<path fill-rule="evenodd" clip-rule="evenodd" d="M1525.74 1530.51C1554.86 1543.38 1572.4 1592.72 1573.84 1605.89C1570.31 1597.64 1558.14 1571.06 1541.84 1553.27C1528.28 1538.46 1509.54 1531.3 1511.48 1531.2C1516 1531.06 1519.43 1530.16 1525.74 1530.51Z" fill="#8E623F"/>
<path fill-rule="evenodd" clip-rule="evenodd" d="M1489.97 1532.16C1493.4 1540.45 1492.55 1558.09 1485.94 1570.76C1487.98 1557.1 1481.07 1537.82 1479.63 1532.45C1484.25 1532.45 1483.01 1532.95 1489.97 1532.16Z" fill="#8E623F"/>
<path fill-rule="evenodd" clip-rule="evenodd" d="M1295.74 1698.47C1298.92 1697.67 1315.91 1726.25 1323.96 1737.13C1320.53 1739.81 1299.51 1769.42 1295.24 1764.9C1283.02 1751.98 1277.55 1742.99 1270.39 1733.3C1283.51 1717.85 1295.74 1698.47 1295.74 1698.47Z" fill="#DBB070"/>
<path fill-rule="evenodd" clip-rule="evenodd" d="M1379.01 1698.47C1382.19 1697.67 1399.14 1726.25 1407.24 1737.13C1403.76 1739.81 1382.79 1769.42 1378.52 1764.9C1366.29 1751.98 1360.78 1742.99 1353.62 1733.3C1366.79 1717.85 1379.01 1698.47 1379.01 1698.47Z" fill="#DBB070"/>
<path fill-rule="evenodd" clip-rule="evenodd" d="M1457.87 1699.31C1461.05 1698.57 1478.04 1727.14 1486.14 1737.97C1482.66 1740.65 1461.65 1770.32 1457.37 1765.79C1445.15 1752.88 1439.68 1743.83 1432.53 1734.19C1445.69 1718.74 1457.87 1699.31 1457.87 1699.31Z" fill="#DBB070"/>
<path fill-rule="evenodd" clip-rule="evenodd" d="M1538.52 1700.21C1541.7 1699.46 1558.69 1727.99 1566.74 1738.87C1563.31 1741.55 1542.29 1771.17 1538.02 1766.64C1525.8 1753.72 1520.33 1744.73 1513.18 1735.09C1526.29 1719.59 1538.52 1700.21 1538.52 1700.21Z" fill="#DBB070"/>
<path fill-rule="evenodd" clip-rule="evenodd" d="M1605.99 1696.69C1609.17 1695.94 1626.17 1724.51 1634.22 1735.39C1630.79 1738.03 1609.77 1767.69 1605.5 1763.17C1593.27 1750.25 1587.81 1741.21 1580.65 1731.57C1593.77 1716.11 1605.99 1696.69 1605.99 1696.69Z" fill="#DBB070"/>
<path fill-rule="evenodd" clip-rule="evenodd" d="M1556.9 1652.66C1580.31 1643.07 1657.47 1673.98 1739.01 1675.97C1839.19 1678.4 1944.38 1653.41 1945.22 1654.4C1945.52 1654.85 1930.51 1732.81 1931.61 1823.89C1932.65 1913.43 1950.04 2016.09 1916.65 2016.09C1859.16 2016.09 1788.5 1989.65 1722.67 1989.65C1659.76 1989.65 1601.72 2016.09 1546.77 2016.09C1546.77 1945.93 1558.19 1871.39 1561.13 1795.92C1563.06 1745.88 1556.9 1691.07 1556.9 1652.66Z" fill="#F28454"/>
<path fill-rule="evenodd" clip-rule="evenodd" d="M1945.22 1652.86C1945.62 1652.51 1930.51 1731.27 1931.61 1822.35C1932.65 1911.89 1950.04 2014.55 1916.65 2014.55C1859.16 2014.55 1788.5 1988.11 1722.67 1988.11C1659.76 1988.11 1601.72 2014.55 1546.77 2014.55C1689.97 1914.67 1788.01 2004.71 1853.94 1950.6C1964.01 1860.31 1842.32 1736.44 1945.22 1652.86Z" fill="#ED7839"/>
<path fill-rule="evenodd" clip-rule="evenodd" d="M1689.72 1671.69C1681.47 1678.59 1667.31 1694.54 1664.08 1705.13C1671.58 1693.75 1703.18 1673.03 1699.85 1673.03C1696.18 1673.03 1694.69 1672.38 1689.72 1671.69Z" fill="#ED7839"/>
<path fill-rule="evenodd" clip-rule="evenodd" d="M1723.41 1675.27C1700.31 1686 1686.34 1727.14 1685.2 1738.12C1688.03 1731.27 1697.67 1709.11 1710.59 1694.25C1721.37 1681.88 1736.23 1675.91 1734.74 1675.86C1731.11 1675.71 1728.38 1674.92 1723.41 1675.27Z" fill="#ED7839"/>
<path fill-rule="evenodd" clip-rule="evenodd" d="M1837.4 1671.09C1845.7 1677.64 1859.81 1692.8 1863.04 1702.89C1855.53 1692.06 1823.93 1672.33 1827.26 1672.33C1830.94 1672.33 1832.43 1671.73 1837.4 1671.09Z" fill="#ED7839"/>
<path fill-rule="evenodd" clip-rule="evenodd" d="M1803.76 1674.46C1826.86 1684.65 1840.77 1723.81 1841.92 1734.29C1839.08 1727.73 1829.45 1706.66 1816.53 1692.55C1805.74 1680.77 1790.89 1675.06 1792.43 1675.01C1796.01 1674.86 1798.74 1674.17 1803.76 1674.46Z" fill="#ED7839"/>
<path fill-rule="evenodd" clip-rule="evenodd" d="M1775.33 1675.76C1778.06 1682.32 1777.37 1696.33 1772.15 1706.37C1773.74 1695.58 1768.28 1680.23 1767.13 1675.96C1770.81 1675.96 1769.82 1676.4 1775.33 1675.76Z" fill="#ED7839"/>
<path fill-rule="evenodd" clip-rule="evenodd" d="M1592.38 1805.09C1595.56 1804.3 1612.5 1832.87 1620.6 1843.75C1617.12 1846.44 1596.15 1876.05 1591.83 1871.53C1579.66 1858.61 1574.14 1849.62 1566.98 1839.93C1580.15 1824.47 1592.38 1805.09 1592.38 1805.09Z" fill="#FAA064"/>
<path fill-rule="evenodd" clip-rule="evenodd" d="M1675.61 1805.09C1678.79 1804.3 1695.78 1832.87 1703.88 1843.75C1700.4 1846.44 1679.38 1876.05 1675.11 1871.53C1662.89 1858.61 1657.42 1849.62 1650.27 1839.93C1663.43 1824.47 1675.61 1805.09 1675.61 1805.09Z" fill="#FAA064"/>
<path fill-rule="evenodd" clip-rule="evenodd" d="M1754.51 1805.94C1757.69 1805.2 1774.64 1833.77 1782.74 1844.6C1779.26 1847.29 1758.29 1876.95 1754.02 1872.43C1741.79 1859.51 1736.28 1850.47 1729.12 1840.82C1742.29 1825.37 1754.51 1805.94 1754.51 1805.94Z" fill="#FAA064"/>
<path fill-rule="evenodd" clip-rule="evenodd" d="M1835.11 1806.83C1838.34 1806.09 1855.29 1834.61 1863.38 1845.49C1859.91 1848.18 1838.94 1877.79 1834.61 1873.27C1822.39 1860.35 1816.93 1851.36 1809.77 1841.72C1822.94 1826.21 1835.11 1806.83 1835.11 1806.83Z" fill="#FAA064"/>
<path fill-rule="evenodd" clip-rule="evenodd" d="M1902.58 1803.3C1905.76 1802.56 1922.76 1831.13 1930.86 1842.01C1927.38 1844.64 1906.41 1874.31 1902.09 1869.79C1889.86 1856.87 1884.4 1847.82 1877.24 1838.18C1890.41 1822.73 1902.58 1803.3 1902.58 1803.3Z" fill="#F59251"/>
<path fill-rule="evenodd" clip-rule="evenodd" d="M3359.55 2161.72C3363.19 2175.65 3341.08 2452.71 3326.8 2464.92C3319.01 2471.61 3299.56 2475.33 3294.12 2459.44C3260.93 2362.57 3234.71 2278.66 3229.66 2162.78C3250.75 2162.78 3349.42 2175.18 3359.55 2161.72Z" fill="#8E623F"/>
<path fill-rule="evenodd" clip-rule="evenodd" d="M2443.07 2200.12C2446.71 2214.05 2424.6 2491.1 2410.31 2503.32C2402.53 2509.97 2383.08 2513.73 2377.64 2497.84C2344.45 2400.97 2318.22 2317.06 2313.18 2201.14C2334.23 2201.14 2432.9 2213.54 2443.07 2200.12Z" fill="#8E623F"/>
<path fill-rule="evenodd" clip-rule="evenodd" d="M3029.94 2271.31C3034.63 2288.22 3004.81 2624.22 2986.18 2639.05C2976.01 2647.15 2950.68 2651.69 2943.68 2632.39C2900.86 2514.94 2867.13 2413.15 2860.98 2272.56C2888.38 2272.56 3016.67 2287.63 3029.94 2271.31Z" fill="#8E623F"/>
<path fill-rule="evenodd" clip-rule="evenodd" d="M3399.86 1786.48C3400.14 1718.89 3329.73 1577.09 3173.69 1539.95C2982.42 1494.44 2778.71 1531.58 2755.86 1636.03C2723.29 1784.83 2464.71 1891.44 2399.39 1973.4C2333.84 2055.55 2336.07 2109.32 2341.12 2225.33C2367.77 2227.63 2427.22 2117.46 2642.67 2117.46C2815.19 2117.46 3066.02 2026.23 3229.81 2087.33C3331.37 2125.21 3390.51 1913.56 3399.86 1786.48Z" fill="#ED7839"/>
<path fill-rule="evenodd" clip-rule="evenodd" d="M2955.73 2473.41C3078.66 2453.77 3323.19 2323.2 3246.48 2162.19C3160.3 1981.14 2482.17 2055.03 2358.14 2209C2340.53 2230.84 2333.84 2298.47 2341.82 2320.93C2364.91 2386.06 2771.28 2452.08 2929.24 2477.13C2941.84 2479.13 2944.77 2475.17 2955.73 2473.41Z" fill="#ED7839"/>
<path fill-rule="evenodd" clip-rule="evenodd" d="M2969.43 2407.04C3092.36 2387.36 3336.86 2256.83 3260.19 2095.78C3161.76 1889.06 2291.3 2073.47 2355.52 2254.56C2378.61 2319.65 2784.98 2385.71 2942.94 2410.72C2955.54 2412.72 2958.47 2408.8 2969.43 2407.04Z" fill="#FAA064"/>
<path fill-rule="evenodd" clip-rule="evenodd" d="M3396.66 1831.09C3402.53 1886.32 3387.58 2264.97 3340.49 2296.79C3311.22 2316.51 3034.4 2487.7 2942.74 2476.78C2933.11 2027.76 3271.85 2093.31 3396.66 1831.09Z" fill="#F28454"/>
<path fill-rule="evenodd" clip-rule="evenodd" d="M3230.4 1559.44C3343.82 1610.24 3415.91 1742.88 3396.66 1831.09C3309.22 2038.37 3016.59 2071 2956.99 2337.49C2952.29 2358.51 2944.3 2452.67 2942.74 2476.78C2923.17 2481.75 2902.23 2472.28 2889.04 2470.72C2880.71 2081.89 3103.16 2051.83 3301.83 1827.18C3354.11 1768.04 3292.9 1598.07 3169.07 1564.22C3086.96 1541.79 2967.83 1535.1 2875.97 1567.11C2792.69 1596.15 2780.71 1676.23 2731.67 1745.66C2673.9 1827.37 2518.88 1885.3 2444.36 1980.87C2353.6 2097.23 2344.88 2323.32 2341.82 2320.94C2257.8 2256.28 2325.07 2077.19 2365.38 2007.68C2420.1 1913.36 2550.66 1852.89 2640.52 1765.19C2697.23 1709.81 2741.73 1634.47 2783.06 1587.85C2866.85 1493.3 3126.37 1512.83 3230.4 1559.44Z" fill="#FFB17D"/>
<path fill-rule="evenodd" clip-rule="evenodd" d="M636.98 774.851C641.924 758.521 684.379 716.189 728.625 661.873C779.635 599.277 826.329 539.681 839.965 523.244C840.073 523.107 857.779 503.363 855.254 514.137C853.724 520.672 792.736 589.038 736.17 659.316C689 717.903 669.196 745.267 636.98 774.851Z" fill="#EBC890"/>
<path fill-rule="evenodd" clip-rule="evenodd" d="M1072.29 776.81C1067.36 760.48 1024.9 718.132 980.643 663.816C929.648 601.236 882.953 541.624 869.317 525.202C869.21 525.065 851.503 505.307 854.028 516.097C855.558 522.632 916.547 590.982 973.112 661.275C1020.27 719.862 1040.07 747.226 1072.29 776.81Z" fill="#EBC890"/>
<path fill-rule="evenodd" clip-rule="evenodd" d="M852.485 510.172C845.888 512.176 841.971 520.947 845.307 525.66C857.658 543.122 878.258 510.172 852.485 510.172Z" fill="#9A7D65"/>
<path fill-rule="evenodd" clip-rule="evenodd" d="M852.759 659.893C854.856 608.485 855.698 543.196 845.535 559.801C839.596 569.504 837.668 619.137 838.081 660.321C836.673 660.397 835.266 660.458 833.872 660.535C831.24 620.162 825.669 572.304 819.027 563.963C807.732 549.73 813.119 611.943 818.935 661.744C815.66 662.066 812.415 662.448 809.217 662.861C796.56 593.592 776.19 491.434 770.587 517.315C767.297 532.543 782.234 609.004 795.351 664.943C792.687 665.387 790.04 665.876 787.423 666.397C774.154 618.999 756.676 563.55 751.733 580.432C748.886 590.165 760.396 632.575 772.501 669.718C771.001 670.085 769.516 670.483 768.047 670.882C753.187 633.982 734.301 592.981 725.623 586.584C710.701 575.581 732.984 629.529 753.554 675.121C751.795 675.688 750.019 676.269 748.274 676.866C730.139 642.477 708.008 605.195 699.07 600.343C683.827 592.078 709.539 640.349 733.781 682.283C728.715 684.334 723.772 686.522 718.967 688.818C684.073 627.692 628.608 533.844 631.991 560.643C633.996 576.484 675.38 646.502 706.647 695.079C701.199 698.047 695.903 701.155 690.792 704.429C664.132 662.708 630.906 614.209 631.288 632.1C631.518 642.492 655.545 680.631 678.272 712.969C676.818 714.025 675.38 715.097 673.957 716.183C642.629 676.697 603.923 630.891 606.908 649.425C608.607 660.046 636.354 695.506 662.31 725.565C661.132 726.575 659.983 727.6 658.836 728.61C631.471 701 599.377 671.723 589.49 669.826C572.518 666.535 612.08 705.991 647.694 739.14C645.015 741.833 642.414 744.588 639.889 747.374C588.266 699.746 514.437 633.998 525.242 657.49C531.594 671.341 586.966 721.463 630.614 758.133C628.884 760.261 627.185 762.402 625.533 764.576C587.027 735.161 542.001 703.205 548.046 719.305C551.551 728.626 585.082 754.873 616.611 777.065C615.723 778.365 614.851 779.681 614.009 780.998C580.293 760.674 541.496 739.798 530.859 739.889C512.34 740.058 562.417 769.748 606.204 793.838C605.301 795.445 604.399 797.052 603.526 798.659C568.294 781.992 527.982 765.34 517.881 766.841C500.511 769.412 551.613 793.18 596.623 812.28C595.291 815.096 594.021 817.927 592.781 820.774C541.465 797.404 475.456 770.207 460.595 770.375C435.19 770.666 522.61 807.918 587.44 834.134C586.66 836.246 585.91 838.358 585.175 840.485C540.332 825.38 491.236 810.917 502.01 823.849C508.162 831.241 545.046 844.51 580.553 855.254C580.018 857.183 579.481 859.096 578.991 861.008C531.976 850.372 480.66 840.699 493.714 852.591C501.075 859.28 539.046 868.723 575.578 875.9C575.225 877.644 574.889 879.389 574.567 881.134C538.51 877.215 501.044 875.088 492.81 879.389C478.469 886.888 526.235 892.811 572.195 896.591C571.965 898.427 571.751 900.249 571.568 902.07C571.384 903.891 571.231 905.713 571.078 907.534C502.222 907.213 415.415 908.636 437.882 918.201C450.83 923.711 515.584 924.018 570.283 922.288C570.191 925.273 570.16 928.257 570.175 931.241C526.006 935.405 482.495 941.496 496.331 948.597C504.029 952.545 537.102 950.709 570.726 947.02C570.863 949.041 571.016 951.061 571.201 953.066C537.332 960.289 504.228 969.12 497.463 975.395C485.388 986.568 529.021 978.578 572.991 968.523C573.312 970.772 573.665 973.023 574.047 975.257C542.061 985.603 511.482 997.341 505.973 1004.06C496.254 1015.94 536.153 1004.61 577.185 990.791C577.905 993.944 578.685 997.066 579.527 1000.17C515.615 1022.5 439.888 1050.92 463.488 1052.42C477.001 1053.28 534.103 1033.66 583.827 1014.53C584.838 1017.59 585.894 1020.63 587.01 1023.65C541.036 1046.22 484.47 1076.04 503.738 1077.05C514.773 1077.63 557.12 1056.94 592.551 1037.44C594.173 1041.17 595.872 1044.88 597.648 1048.54C551.948 1071.02 496.76 1100.22 515.83 1101.21C526.849 1101.8 569.12 1081.17 604.52 1061.68C605.469 1063.4 606.433 1065.09 607.428 1066.78C561.361 1089.38 504.307 1119.4 523.651 1120.42C534.976 1121.02 579.283 1099.21 615.248 1079.28C617.1 1082.07 618.998 1084.84 620.957 1087.56C556.968 1116.5 455.33 1164.25 482.695 1163.37C499.255 1162.83 577.95 1125.46 629.298 1098.54C631.547 1101.35 633.874 1104.12 636.246 1106.86C593.975 1128.4 548.964 1153.51 565.799 1154.87C575.763 1155.67 613.534 1137.17 647.067 1118.56C648.429 1119.93 649.776 1121.31 651.153 1122.66C609.31 1149.5 562.203 1181.96 580.538 1180.89C591.359 1180.26 629.864 1155.99 662.525 1133.1C663.704 1134.11 664.897 1135.1 666.091 1136.1C635.421 1160.75 602.026 1190.49 599.073 1200.3C593.885 1217.5 640.854 1178.61 678.243 1145.66C680.922 1147.64 683.631 1149.58 686.401 1151.46C636.707 1201.35 563.857 1276.88 588.375 1266.69C603.129 1260.57 659.694 1202.12 698.261 1159.1C700.526 1160.48 702.822 1161.81 705.133 1163.12C672.932 1201.83 633.599 1251.98 650.985 1246.18C661.438 1242.69 693.914 1203.28 718.478 1170.19C719.687 1170.79 720.897 1171.37 722.105 1171.95C698.673 1206.83 671.263 1252.32 670.926 1264.12C670.36 1284.53 708.79 1222.86 735.374 1177.8C736.843 1178.41 738.297 1179.02 739.782 1179.61C719.81 1216.63 696.103 1266.52 697.372 1278.09C699.561 1297.77 731.915 1231.35 753.387 1184.47C759.631 1186.54 765.998 1188.42 772.518 1190.06C745.536 1237.69 715.662 1295.17 714.514 1309.2C712.51 1333.91 755.469 1254.95 787.394 1193.39C789.751 1193.87 792.139 1194.3 794.526 1194.7C775.809 1237.1 758.04 1282.24 771.6 1272.93C779.575 1267.45 796.364 1231.55 810.428 1196.99C812.417 1197.24 814.407 1197.47 816.411 1197.67C801.214 1244.04 786.2 1295.92 799.439 1283.85C807.198 1276.79 821.126 1236.16 831.931 1198.75C833.568 1198.83 835.19 1198.91 836.828 1198.97C828.901 1236.49 822.304 1278.07 826.054 1287.24C832.681 1303.4 844.158 1247.37 852.408 1199.09C855.79 1199.04 859.203 1198.94 862.632 1198.78C855.576 1268.72 847.236 1368.4 859.586 1345.54C866.963 1331.89 873.865 1255.1 876.865 1197.83C879.543 1197.6 882.236 1197.36 884.931 1197.07C884.472 1246.41 885.803 1305.06 895.276 1290.15C900.893 1281.33 901.521 1234.98 900.067 1195.09C901.505 1194.88 902.928 1194.68 904.367 1194.45C908.3 1235.01 915.264 1282.65 922.059 1291.51C933.874 1306.92 926.314 1242.61 918.891 1191.79C920.559 1191.46 922.212 1191.13 923.88 1190.78C931.793 1230.69 943.669 1278.06 951.413 1285.69C964.667 1298.78 950.663 1235.92 938.252 1186.87C941.191 1185.88 944.235 1184.75 947.343 1183.49C959.433 1239.83 979.054 1316.85 988.665 1329.36C1005.1 1350.69 978.533 1245.75 960.214 1177.78C962.021 1176.91 963.857 1176.01 965.693 1175.06C981.197 1222.95 1002.29 1282.05 1006.51 1264.13C1009.04 1253.43 993.578 1206.05 978.932 1167.8C980.386 1166.98 981.824 1166.1 983.293 1165.23C1004.08 1212.57 1032.62 1273.08 1034.47 1253.48C1035.56 1241.89 1014.5 1194.62 995.674 1157.4C996.807 1156.65 997.923 1155.9 999.056 1155.13C1019.38 1190.82 1046.56 1233.4 1056.43 1238.1C1073.31 1246.13 1038.71 1189.2 1011.15 1146.55C1013.66 1144.68 1016.18 1142.78 1018.71 1140.81C1060.43 1197.45 1126.97 1285.01 1120.47 1258.68C1116.58 1243 1066.2 1176.87 1029.36 1132.21C1031.33 1130.55 1033.31 1128.87 1035.28 1127.16C1068.74 1164.91 1112.77 1211.84 1109.63 1193.7C1107.8 1183.05 1074.97 1146.2 1046.32 1117.15C1047.33 1116.21 1048.32 1115.27 1049.32 1114.3C1079.94 1142.28 1119.04 1174.63 1130.37 1176.7C1149.68 1180.2 1099.55 1136.71 1059.66 1103.96C1060.83 1102.75 1061.97 1101.52 1063.12 1100.28C1095.96 1124.66 1137.23 1152.2 1148.18 1152.65C1166.63 1153.42 1115.11 1116.99 1073.15 1089.13C1076.67 1085.02 1080.11 1080.81 1083.45 1076.53C1140.84 1115.71 1241.4 1182.44 1225.87 1158.81C1216.6 1144.7 1141.13 1095.54 1091.36 1065.91C1094.94 1060.87 1098.37 1055.75 1101.61 1050.51C1145.12 1077.28 1203.83 1111.27 1195.08 1094.33C1189.92 1084.34 1145.51 1057.48 1109.01 1037.84C1109.79 1036.42 1110.57 1034.98 1111.32 1033.52C1158.12 1056.07 1220.87 1084.34 1209.36 1068.04C1202.67 1058.56 1156.13 1036.48 1117.67 1020.47C1118.22 1019.23 1118.77 1017.99 1119.31 1016.73C1157.83 1030.51 1205.55 1044.91 1216.03 1042.06C1233.75 1037.26 1172.98 1017.22 1124.68 1002.82C1125.92 999.256 1127.07 995.66 1128.11 992.017C1195.52 1012.27 1300.05 1041.92 1279.15 1024.88C1266.71 1014.71 1187.63 992.293 1131.43 978.672C1131.96 976.116 1132.44 973.545 1132.87 970.973C1182.18 981.059 1244.8 991.956 1231.47 979.39C1223.61 971.968 1175.14 962.203 1134.78 956.174C1134.9 954.811 1135.01 953.45 1135.12 952.072C1176.48 956.082 1227.52 958.516 1237.86 953.342C1255.61 944.451 1187.58 939.767 1135.77 937.548C1135.79 935.91 1135.79 934.258 1135.77 932.62C1177.11 932.512 1228.44 929.773 1237.66 923.438C1253.31 912.679 1186.13 914.882 1135.22 917.928C1134.99 914.698 1134.7 911.469 1134.35 908.24C1192.11 907.03 1273.28 902.24 1287.55 895.047C1311.68 882.88 1202.7 889.324 1132.53 894.543C1132.21 892.553 1131.86 890.579 1131.49 888.604C1181.47 882.391 1243.69 872.794 1226.85 865.249C1216.93 860.811 1168.46 866.886 1128.4 873.973C1128 872.335 1127.57 870.697 1127.14 869.044C1177.26 857.551 1240.33 841.235 1221.65 835.787C1210.77 832.634 1162.63 843.746 1123.07 854.933C1122.66 853.587 1122.2 852.255 1121.75 850.923C1159.94 837.762 1204.37 819.886 1210.67 811.315C1221.39 796.714 1163.11 818.125 1116.66 836.797C1115.46 833.766 1114.21 830.735 1112.92 827.737C1176.42 797.311 1269.34 750.908 1242.94 752.315C1227.37 753.141 1157.6 787.622 1107.09 814.987C1105.91 812.585 1104.72 810.182 1103.48 807.794C1145.74 782.527 1194.67 751.045 1177.07 750.724C1166.9 750.54 1128.83 772.915 1096.12 794.434C1095.35 793.117 1094.56 791.802 1093.78 790.501C1125.55 766.426 1160.37 737.241 1164.27 727.155C1170.99 709.785 1124.36 745.872 1085.68 777.813C1084.66 776.298 1083.61 774.782 1082.56 773.283C1111.13 746.637 1141.66 715.11 1144.01 705.147C1148 688.158 1107.61 726.298 1073.39 760.902C1071.36 758.3 1069.27 755.728 1067.16 753.203C1091.76 729.497 1114.74 704.887 1116.77 696.301C1120.35 681.042 1088.15 710.227 1056.76 741.403C1054.46 738.939 1052.12 736.52 1049.73 734.133C1095.61 702.896 1150.01 662.875 1157.38 650.494C1170.21 628.929 1094.96 682.465 1038.99 723.925C1037.26 722.365 1035.51 720.834 1033.75 719.318C1069.66 689.153 1106.65 655.529 1090.17 657.962C1080.55 659.37 1049.41 684.485 1021.48 709.446C1019.9 708.253 1018.33 707.074 1016.73 705.926C1050.8 670.939 1087.18 630.873 1069.96 635.908C1059.98 638.816 1030.02 668.69 1004.02 697.31C1002.62 696.422 1001.23 695.55 999.822 694.692C1023.21 664.726 1046.91 630.919 1047.56 621.154C1048.7 603.967 1014.73 647.739 986.323 687.056C983.263 685.464 980.187 683.934 977.064 682.464C1014.06 622.869 1063.99 539.122 1043.07 554.059C1030.66 562.92 991.696 626.97 963.888 676.787C961.347 675.776 958.776 674.812 956.19 673.894C977.999 630.277 1001.48 579.036 986.661 588.097C977.922 593.439 957.582 633.338 941.482 669.272C940.043 668.874 938.589 668.492 937.119 668.125C951.199 630.368 965.372 585.863 963.214 575.088C959.419 556.187 938.191 616.257 922.535 664.972C920.852 664.666 919.137 664.375 917.438 664.115C927.83 624.92 937.87 577.613 934.304 567.406C928.136 549.775 913 612.722 902.562 662.293C899.317 661.957 896.087 661.666 892.889 661.391C906.831 605.453 923.192 527.292 920.039 511.804C914.667 485.42 892.368 591.342 878.915 660.442C876.88 660.335 874.859 660.259 872.839 660.182C879.971 610.412 886.98 548.321 875.318 562.54C868.431 570.942 861.545 619.351 857.84 659.877C856.14 659.878 854.442 659.878 852.759 659.893Z" fill="#E69845"/>
<path fill-rule="evenodd" clip-rule="evenodd" d="M921.695 1180.48C980.403 1167.7 1101.03 1078.92 1117.85 971.665C1137.64 845.387 1039.52 697.82 907.476 681.95C696.993 656.636 599.166 788.882 586.893 907.829C570.425 1067.43 706.88 1227.22 921.695 1180.48Z" fill="#9F704B"/>
<path fill-rule="evenodd" clip-rule="evenodd" d="M916.7 1167.68C972.363 1155.56 1086.75 1071.38 1102.68 969.699C1121.44 849.972 1028.42 710.057 903.216 695.013C703.66 671.015 610.914 796.391 599.268 909.169C583.658 1060.49 713.028 1211.99 916.7 1167.68Z" fill="#EBEBEB"/>
<path fill-rule="evenodd" clip-rule="evenodd" d="M2376.29 2703.73C2377.6 2716.64 2397.38 2918.88 2442.19 2877.44C2460.34 2860.6 2509.39 2704.85 2482.68 2704.85C2464.65 2704.85 2389.33 2695.49 2376.29 2703.73Z" fill="#9F704B"/>
<path fill-rule="evenodd" clip-rule="evenodd" d="M983.867 2755.21C985.24 2768.12 1004.96 2970.36 1049.76 2928.86C1067.98 2912.01 1116.96 2756.27 1090.26 2756.27C1072.29 2756.27 996.909 2746.91 983.867 2755.21Z" fill="#9F704B"/>
<path fill-rule="evenodd" clip-rule="evenodd" d="M1269.4 3151.62C1270.77 3164.54 1290.49 3366.77 1335.3 3325.27C1353.52 3308.43 1402.56 3152.68 1375.79 3152.68C1357.82 3152.68 1282.44 3143.32 1269.4 3151.62Z" fill="#9F704B"/>
<path fill-rule="evenodd" clip-rule="evenodd" d="M1668.26 2496.5C1456.16 2489.26 1291.06 2574 1045.58 2658.42C1023.68 2665.91 972.137 2664.29 953.667 2686.06C931.827 2711.83 945.181 2762.44 950.235 2786.96C964.587 2856.91 1075.84 2915.07 1148.6 2963.67C1212.56 3006.48 1181.17 3134.9 1267.34 3163.6C1648.6 3290.58 2326.06 3171.21 2376.17 2967.04C2395.7 2887.36 2312.52 2801.38 2404.44 2793.89C2436.32 2791.27 2522.37 2794.58 2521.68 2693.99C2521.06 2604.01 2425.15 2525.32 2200.45 2570.06C2015.69 2606.94 1851.71 2502.8 1668.26 2496.5Z" fill="#DE9342"/>
<path fill-rule="evenodd" clip-rule="evenodd" d="M1669.38 2408.46C1457.28 2401.22 1292.11 2485.96 1046.64 2570.38C998.903 2586.79 942.058 2653.62 951.292 2698.92C965.644 2768.87 1076.96 2827.03 1149.66 2875.63C1213.68 2918.44 1182.29 3046.86 1268.46 3075.56C1649.66 3202.54 2287.56 3094.22 2337.6 2889.99C2357.13 2810.3 2296.05 2752.96 2387.96 2745.47C2419.84 2742.85 2514.69 2739.36 2522.8 2678.39C2534.72 2589.16 2426.21 2437.28 2201.51 2482.02C2016.75 2518.84 1852.83 2414.76 1669.38 2408.46Z" fill="#FACE87"/>
<path fill-rule="evenodd" clip-rule="evenodd" d="M2238.76 2612.82C2198.08 2649.57 2338.1 2671.1 2315.26 2621.43C2308.84 2607.45 2261.85 2609.51 2245.94 2611.75L2238.76 2612.82ZM2245.5 2616C2212.37 2645.95 2326.43 2663.48 2307.77 2622.99C2302.6 2611.63 2264.28 2613.31 2251.37 2615.19L2245.5 2616Z" fill="#FFD99C"/>
<path fill-rule="evenodd" clip-rule="evenodd" d="M2214.37 2601.2C2146.29 2662.66 2380.41 2698.66 2342.16 2615.55C2331.43 2592.27 2252.87 2595.71 2226.35 2599.51L2214.37 2601.2ZM2225.6 2606.56C2170.19 2656.61 2360.94 2685.93 2329.74 2618.23C2321.01 2599.26 2256.99 2602.07 2235.4 2605.13L2225.6 2606.56Z" fill="#FFD99C"/>
<path fill-rule="evenodd" clip-rule="evenodd" d="M2192.84 2590.97C2100.68 2674.21 2417.72 2722.95 2365.87 2610.44C2351.39 2578.93 2245 2583.55 2209.06 2588.66L2192.84 2590.97ZM2208.13 2598.21C2133 2666.04 2391.27 2705.72 2349.09 2614.06C2337.23 2588.35 2250.56 2592.16 2221.29 2596.34L2208.13 2598.21Z" fill="#FFD99C"/>
<path fill-rule="evenodd" clip-rule="evenodd" d="M2149.85 2570.56C2009.51 2697.29 2492.23 2771.49 2413.36 2600.2C2391.2 2552.15 2229.22 2559.2 2174.56 2567.07L2149.85 2570.56ZM2173.06 2581.61C2058.74 2684.81 2451.98 2745.28 2387.71 2605.69C2369.68 2566.57 2237.77 2572.31 2193.15 2578.74L2173.06 2581.61Z" fill="#FFD99C"/>
<path fill-rule="evenodd" clip-rule="evenodd" d="M2104.3 2548.98C1912.92 2721.7 2571.1 2822.91 2463.59 2589.35C2433.39 2523.83 2212.56 2533.44 2137.93 2544.11L2104.3 2548.98ZM2135.93 2564.02C1980.06 2704.73 2516.32 2787.22 2428.65 2596.9C2404.06 2543.55 2224.17 2551.35 2163.39 2560.09L2135.93 2564.02Z" fill="#FFD99C"/>
<path fill-rule="evenodd" clip-rule="evenodd" d="M1371.92 2711.59C1336.23 2764.69 1513.19 2767.56 1467.33 2709.22C1454.47 2692.87 1398.5 2703.48 1380.16 2709.09L1371.92 2711.59ZM1381.22 2714.46C1352.14 2757.7 1496.28 2760.07 1458.97 2712.52C1448.48 2699.17 1402.87 2707.84 1387.96 2712.4L1381.22 2714.46Z" fill="#FFD99C"/>
<path fill-rule="evenodd" clip-rule="evenodd" d="M1338.17 2701.29C1278.52 2790.02 1574.35 2794.82 1497.72 2697.29C1476.26 2669.96 1382.66 2687.74 1352.02 2697.04L1338.17 2701.29ZM1353.71 2706.03C1305.16 2778.35 1546.14 2782.28 1483.68 2702.78C1466.21 2680.51 1389.96 2694.98 1365 2702.6L1353.71 2706.03Z" fill="#FFD99C"/>
<path fill-rule="evenodd" clip-rule="evenodd" d="M1308.46 2692.18C1227.72 2812.3 1628.19 2818.85 1524.49 2686.75C1495.41 2649.75 1368.68 2673.84 1327.18 2686.5L1308.46 2692.18ZM1329.55 2698.67C1263.72 2796.51 1590.01 2801.82 1505.52 2694.24C1481.81 2664.04 1378.6 2683.7 1344.78 2693.99L1329.55 2698.67Z" fill="#FFD99C"/>
<path fill-rule="evenodd" clip-rule="evenodd" d="M1262.85 2678.51C1148.91 2847.92 1713.81 2857.09 1567.48 2670.9C1526.42 2618.67 1347.78 2652.61 1289.25 2670.46L1262.85 2678.51ZM1292.55 2687.62C1199.77 2825.58 1659.9 2833.13 1540.71 2681.38C1507.27 2638.82 1361.76 2666.53 1314.08 2681.07L1292.55 2687.62Z" fill="#FFD99C"/>
<path fill-rule="evenodd" clip-rule="evenodd" d="M1921.72 2900.1C1983.8 2956.13 1770.28 2988.95 1805.22 2913.14C1814.95 2891.92 1886.59 2895.04 1910.8 2898.47L1921.72 2900.1ZM1911.48 2904.96C1962.03 2950.58 1788.12 2977.35 1816.51 2915.63C1824.5 2898.29 1882.84 2900.84 1902.56 2903.65L1911.48 2904.96Z" fill="#FFD99C"/>
<path fill-rule="evenodd" clip-rule="evenodd" d="M1958.97 2882.37C2062.74 2976.09 1705.82 3030.94 1764.16 2904.27C1780.51 2868.77 1900.25 2873.95 1940.69 2879.75L1958.97 2882.37ZM1941.81 2890.55C2026.3 2966.86 1735.52 3011.6 1783.07 2908.39C1796.42 2879.44 1893.95 2883.68 1926.9 2888.42L1941.81 2890.55Z" fill="#FFD99C"/>
<path fill-rule="evenodd" clip-rule="evenodd" d="M1991.73 2866.82C2132.25 2993.68 1648.97 3067.93 1727.97 2896.46C1750.12 2848.35 1912.23 2855.41 1967.02 2863.27L1991.73 2866.82ZM1968.52 2877.87C2082.95 2981.2 1689.28 3041.73 1753.61 2902.02C1771.65 2862.83 1903.75 2868.57 1948.36 2874.94L1968.52 2877.87Z" fill="#FFD99C"/>
<path fill-rule="evenodd" clip-rule="evenodd" d="M2057.31 2835.7C2271.21 3028.82 1535.41 3141.95 1655.65 2880.81C1689.41 2807.62 1936.26 2818.35 2019.69 2830.33L2057.31 2835.7ZM2021.93 2852.49C2196.21 3009.85 1596.75 3102.02 1694.71 2889.3C1722.17 2829.65 1923.28 2838.38 1991.23 2848.12L2021.93 2852.49Z" fill="#FFD99C"/>
<path fill-rule="evenodd" clip-rule="evenodd" d="M2126.76 2802.76C2418.41 3066.08 1415.17 3220.39 1579.09 2864.28C1625.07 2764.44 1961.71 2779.11 2075.4 2795.39L2126.76 2802.76ZM2078.46 2825.65C2316.08 3040.18 1498.72 3165.85 1632.31 2875.76C1669.75 2794.46 1943.99 2806.37 2036.66 2819.66L2078.46 2825.65Z" fill="#FFD99C"/>
<path fill-rule="evenodd" clip-rule="evenodd" d="M1326 2813.86C1407.24 2839.32 1653.84 2830.64 1630.75 2698.48C1595.94 2499.68 920.658 2686.57 1326 2813.86ZM1329.74 2810.05C1407.62 2834.45 1643.98 2826.15 1621.83 2699.42C1588.51 2508.92 941.188 2688.06 1329.74 2810.05Z" fill="#FFD99C"/>
<path fill-rule="evenodd" clip-rule="evenodd" d="M1308.21 2833.07C1405.81 2863.7 1702.07 2853.28 1674.31 2694.42C1632.5 2455.62 821.193 2680.19 1308.21 2833.07ZM1312.64 2828.51C1406.18 2857.84 1690.22 2847.86 1663.57 2695.6C1623.52 2466.66 845.778 2681.94 1312.64 2828.51Z" fill="#FFD99C"/>
<path fill-rule="evenodd" clip-rule="evenodd" d="M1278.45 2865.08C1403.31 2904.27 1782.38 2890.92 1746.81 2687.75C1693.34 2382.24 655.461 2669.53 1278.45 2865.08ZM1284.19 2859.22C1403.87 2896.85 1767.22 2884.05 1733.15 2689.25C1681.86 2396.41 686.972 2671.77 1284.19 2859.22Z" fill="#FFD99C"/>
<path fill-rule="evenodd" clip-rule="evenodd" d="M1249.81 2895.98C1400.94 2943.4 1859.76 2927.3 1816.77 2681.33C1752.06 2311.49 495.661 2659.24 1249.81 2895.98ZM1256.74 2888.93C1401.63 2934.42 1841.41 2918.88 1800.17 2683.14C1738.14 2328.59 533.786 2661.98 1256.74 2888.93Z" fill="#FFD99C"/>
<path fill-rule="evenodd" clip-rule="evenodd" d="M1625.9 2647.27C1621.14 2633.63 1670.42 2619.03 1713.45 2605.39C1821.24 2571.15 1865.02 2553.14 1893.15 2549.46C1913.25 2549.87 1924.57 2556.83 1969.09 2575.11C2008.84 2591.34 2183.93 2650.68 2196.29 2659.96C2168.3 2678.78 1921.29 2779.19 1921.29 2779.19C1901.64 2773.46 1895.09 2762 1857.57 2752.04C1845.81 2749.04 1631.41 2663.1 1625.9 2647.27Z" fill="#978C86"/>
<path fill-rule="evenodd" clip-rule="evenodd" d="M1931.72 2713.85C1897.92 2724.89 1904.32 2788.19 1925.46 2775.78C1991.42 2736.63 2113.21 2699.25 2167.41 2667.87C2168.89 2667.05 2148.05 2653.55 2165.02 2627.77C2114.25 2639.77 1980.7 2706.89 1935.44 2713.44C1933.95 2713.57 1934.99 2712.89 1931.72 2713.85Z" fill="#FEE3B4"/>
<path fill-rule="evenodd" clip-rule="evenodd" d="M1634.39 2597.89C1613.4 2606.48 1610.87 2644.41 1630.52 2660.1C1672.8 2693.79 1920.7 2778.37 1921.29 2779.19C1916.68 2779.19 1908.34 2746.31 1929.04 2728.71C1933.5 2724.89 1853.85 2689.7 1845.66 2685.74C1818.71 2672.92 1651.07 2601.17 1634.39 2597.89Z" fill="#809689"/>
<path fill-rule="evenodd" clip-rule="evenodd" d="M1634.39 2597.89C1707.79 2567.47 1794.74 2514.81 1875.14 2504.3C1907.15 2504.99 2163.98 2611.66 2182.15 2626.13C2154.9 2644.81 1929.04 2728.71 1929.04 2728.71C1909.98 2722.98 1896.43 2712.61 1859.8 2702.79C1848.49 2699.66 1639.75 2613.85 1634.39 2597.89Z" fill="#9ACBC8"/>
<path fill-rule="evenodd" clip-rule="evenodd" d="M1662.68 2581.93C1658.51 2569.92 1701.84 2557.24 1739.65 2545.09C1834.49 2514.95 1873.2 2499.12 1897.77 2495.98C1915.49 2496.26 1925.46 2502.4 1964.77 2518.49C1999.61 2532.82 2153.71 2584.93 2164.58 2593.11C2140.01 2609.62 1922.63 2698.02 1922.63 2698.02C1905.36 2692.97 1899.56 2682.88 1866.5 2674.15C1856.23 2671.55 1667.44 2595.98 1662.68 2581.93Z" fill="#F86E56"/>
<path fill-rule="evenodd" clip-rule="evenodd" d="M1931.87 2640.59C1902.09 2650.27 1907.75 2706.07 1926.21 2695.02C1984.28 2660.5 2091.62 2627.76 2139.12 2600.07C2140.46 2599.39 2122.14 2587.52 2137.03 2564.88C2092.37 2575.38 1974.9 2634.45 1935.14 2640.18C1933.66 2640.31 1934.7 2639.63 1931.87 2640.59Z" fill="#FEE3B4"/>
<path fill-rule="evenodd" clip-rule="evenodd" d="M1670.12 2538.55C1651.66 2546.05 1649.58 2579.47 1666.7 2593.25C1704.07 2622.99 1922.19 2697.34 1922.64 2698.02C1918.47 2698.02 1911.17 2669.1 1929.49 2653.68C1933.36 2650.27 1863.23 2619.31 1856.08 2615.9C1832.41 2604.57 1684.86 2541.41 1670.12 2538.55Z" fill="#E75637"/>
<path fill-rule="evenodd" clip-rule="evenodd" d="M1670.12 2538.54C1681.44 2527.49 1708.24 2513.72 1745.01 2501.71C1837.32 2471.56 1858.02 2459.29 1882.14 2456.15C1910.28 2456.69 2136.14 2550.69 2152.22 2563.24C2128.25 2579.74 1929.49 2653.68 1929.49 2653.68C1912.66 2648.63 1900.75 2639.49 1868.59 2630.76C1858.47 2628.03 1674.89 2552.6 1670.12 2538.54Z" fill="#F86E56"/>
<path fill-rule="evenodd" clip-rule="evenodd" d="M1855.93 2462.83C1861.59 2466.65 1870.23 2469.78 1877.97 2469.65C1889.28 2469.51 1902.24 2463.65 1902.53 2460.78C1890.92 2456.01 1882.73 2454.78 1879.16 2455.05C1872.91 2455.6 1867.55 2457.92 1855.93 2462.83Z" fill="#EEC562"/>
<path fill-rule="evenodd" clip-rule="evenodd" d="M2119.47 2578.79C2097.13 2563.1 2124.53 2548.91 2125.42 2549.59C2140.01 2556.55 2155.05 2561.33 2152.22 2563.24C2147.16 2566.78 2131.67 2575.38 2119.47 2578.79Z" fill="#EEC562"/>
<path fill-rule="evenodd" clip-rule="evenodd" d="M1770.47 2533.23C1775.68 2531.32 1856.08 2501.44 1866.36 2494.62C1873.5 2489.85 1890.47 2495.85 1865.31 2505.26C1847 2511.95 1785.51 2545.64 1767.79 2543.05C1763.62 2542.37 1765.41 2535 1770.47 2533.23Z" fill="#FE8D7D"/>
<path fill-rule="evenodd" clip-rule="evenodd" d="M1821.84 2535.13C1825.12 2533.9 1875.89 2515.08 1882.29 2510.85C1886.9 2507.71 1897.62 2511.53 1881.69 2517.53C1870.08 2521.76 1831.37 2543.04 1820.2 2541.41C1817.37 2541 1818.57 2536.36 1821.84 2535.13Z" fill="#FE8D7D"/>
<path fill-rule="evenodd" clip-rule="evenodd" d="M1324.08 2583.68C1321.84 2599.64 1327.05 2611.51 1336.73 2619.83H1456.44C1463.58 2612.19 1465.52 2600.32 1465.22 2582.04C1455.69 2571.95 1436.49 2567.58 1424.57 2566.49C1409.39 2565.12 1331.97 2562.67 1324.08 2583.68Z" fill="#809689"/>
<path fill-rule="evenodd" clip-rule="evenodd" d="M1321.1 2564.84C1302.19 2603.31 1419.22 2607.4 1452.42 2591.3C1491.28 2572.48 1446.61 2550.92 1422.64 2549.29C1407.6 2548.2 1329.14 2548.74 1321.1 2564.84Z" fill="#9AB3B1"/>
<path fill-rule="evenodd" clip-rule="evenodd" d="M1343.58 2567.85C1330.48 2594.32 1411.18 2597.18 1434.1 2586.13C1460.9 2573.17 1430.09 2558.3 1413.56 2557.07C1403.14 2556.39 1349.09 2556.8 1343.58 2567.85Z" fill="#809689"/>
<path fill-rule="evenodd" clip-rule="evenodd" d="M1367.1 2363.63C1369.19 2380.82 1370.08 2590.35 1370.08 2590.35C1370.38 2590.35 1405.96 2595.95 1425.47 2587.63C1421 2574.26 1414.45 2368.67 1410.43 2357.63C1407.9 2350.8 1394.2 2349.03 1386.61 2349.58C1375.14 2350.53 1366.66 2360.35 1367.1 2363.63Z" fill="#F08478"/>
<path fill-rule="evenodd" clip-rule="evenodd" d="M1386.47 2349.99C1369.05 2352.17 1366.07 2360.36 1367.26 2364.59C1369.34 2372.22 1412.37 2373.04 1410.88 2359.95C1410.44 2356.13 1399.42 2348.35 1386.47 2349.99Z" fill="#FCE085"/>
<path fill-rule="evenodd" clip-rule="evenodd" d="M1380.96 2292.56C1384.98 2281.65 1391.08 2268.15 1392.87 2268.42C1394.8 2268.83 1392.57 2284.52 1398.82 2298.16C1407.16 2316.71 1402.99 2322.71 1392.87 2338.67C1373.81 2330.76 1374.7 2308.93 1380.96 2292.56Z" fill="#EEC562"/>
<path fill-rule="evenodd" clip-rule="evenodd" d="M1387.21 2327.06C1389.74 2331.02 1386.31 2358.44 1388.55 2358.44C1394.2 2358.44 1392.57 2359.39 1393.31 2348.07C1393.46 2346.16 1394.95 2328.84 1393.46 2328.15C1391.23 2327.34 1387.65 2327.75 1387.21 2327.06Z" fill="#51301D"/>
<path fill-rule="evenodd" clip-rule="evenodd" d="M1706.75 2261.49C1715.83 2256.44 1728.78 2268.04 1741.14 2263.13C1745.16 2261.49 1761.24 2260.13 1762.73 2262.99C1764.22 2265.58 1762.58 2266.13 1758.56 2269.4C1752.01 2274.72 1766.45 2274.04 1760.64 2278.95C1757.07 2281.95 1756.03 2282.23 1755.14 2282.77C1754.39 2283.32 1753.5 2283.04 1753.65 2289.05C1753.65 2294.64 1735.04 2290.82 1728.34 2285.91C1714.04 2275.4 1708.09 2264.49 1707.34 2262.99C1706.75 2262.04 1706.6 2261.63 1706.75 2261.49Z" fill="#F08478"/>
<path fill-rule="evenodd" clip-rule="evenodd" d="M1691.57 2261.35C1675.79 2249.75 1668.94 2219.2 1651.52 2202.42C1645.86 2196.82 1642.58 2178.68 1647.5 2174.86C1652.26 2171.31 1658.52 2174.32 1669.83 2177.32C1686.21 2181.68 1684.12 2162.45 1697.67 2169.27C1705.86 2173.36 1707.05 2174.72 1708.84 2175.82C1710.18 2176.63 1710.33 2178.27 1722.83 2175.13C1734.45 2172.27 1718.81 2205.15 1717.32 2209.1C1715.39 2213.74 1697.08 2257.8 1694.55 2259.85C1692.76 2261.21 1692.02 2261.62 1691.57 2261.35Z" fill="#F08478"/>
<path fill-rule="evenodd" clip-rule="evenodd" d="M1694.54 2262.72C1714.34 2259.04 1735.78 2234.75 1759.46 2227.11C1767.35 2224.52 1779.41 2209.79 1776.88 2204.33C1774.49 2199.29 1767.35 2199.15 1755.88 2197.1C1739.21 2194.1 1750.52 2178 1735.04 2178.28C1718.81 2178.69 1727.3 2193.01 1705.11 2174.46C1696.18 2166.95 1698.41 2201.33 1697.82 2205.42C1697.07 2210.34 1691.41 2257.4 1692.61 2260.13C1693.5 2262.04 1694.09 2262.86 1694.54 2262.72Z" fill="#F86E56"/>
<path fill-rule="evenodd" clip-rule="evenodd" d="M1694.1 2268.58C1690.82 2267.63 1688.88 2260.94 1685.76 2259.72C1673.7 2254.53 1660.89 2252.49 1653 2243.07C1643.77 2231.89 1632.75 2214.29 1640.94 2201.06C1645.41 2193.96 1657.02 2211.29 1672.95 2185.92C1677.42 2178.96 1690.67 2178.82 1690.67 2199.97C1690.67 2224.52 1688.29 2232.03 1698.71 2255.76C1700.95 2260.67 1698.41 2265.17 1694.99 2268.45L1694.1 2268.58Z" fill="#F1AB9A"/>
<path fill-rule="evenodd" clip-rule="evenodd" d="M1700.8 2272.67C1703.48 2270.07 1704.52 2265.16 1707.79 2265.16C1729.98 2264.89 1738.17 2250.29 1752.16 2246.75C1770.77 2241.84 1780.15 2226.96 1771.96 2213.73C1767.65 2206.64 1756.93 2218.92 1740.99 2193.54C1736.68 2186.59 1719.41 2196.41 1719.41 2217.55C1719.41 2242.11 1709.28 2232.01 1698.71 2255.75C1696.63 2260.66 1696.33 2269.26 1699.75 2272.53L1700.8 2272.67Z" fill="#F1AB9A"/>
<path fill-rule="evenodd" clip-rule="evenodd" d="M1675.93 2206.93C1669.38 2190.28 1685.16 2180.19 1698.86 2187.42C1704.51 2190.56 1710.62 2199.97 1718.21 2195.33C1734.89 2184.69 1724.61 2210.75 1724.61 2216.75C1724.61 2248.54 1718.21 2239.8 1699.3 2266.68C1693.94 2236.66 1685.9 2232.3 1675.93 2206.93Z" fill="#FE8D7D"/>
<path fill-rule="evenodd" clip-rule="evenodd" d="M1614.89 2429.41C1634.39 2438.42 1633.8 2435.83 1631.12 2469.93C1627.99 2510.04 1591.22 2553.55 1582.88 2594.75C1567.99 2668.69 1578.26 2705.11 1583.77 2782.6H1693.65C1693.5 2714.8 1691.27 2634.59 1677.27 2569.51C1667.89 2525.59 1662.83 2491.48 1666.41 2440.87C1666.85 2435.82 1686.21 2432.69 1686.5 2427.09C1687.4 2411.68 1633.5 2411.82 1621.74 2414.95C1611.02 2417.82 1605.06 2424.91 1614.89 2429.41Z" fill="#547241"/>
<path fill-rule="evenodd" clip-rule="evenodd" d="M1636.62 2425.87C1637.82 2429.55 1662.53 2431.87 1662.08 2425.05C1661.64 2419.45 1633.94 2417.13 1636.62 2425.87Z" fill="#9ACBC8"/>
<path fill-rule="evenodd" clip-rule="evenodd" d="M1688.14 2261.08C1689.33 2260.53 1693.95 2263.4 1698.86 2263.8C1701.99 2264.08 1706.9 2263.8 1707.79 2265.17C1708.84 2266.53 1705.71 2269.67 1699.9 2276.36C1693.35 2283.72 1701.84 2313.33 1693.05 2349.2C1689.33 2363.94 1679.5 2383.44 1669.53 2396.95C1665.06 2402.95 1662.38 2423.14 1654.79 2429.28C1649.43 2429.42 1649.13 2429.83 1644.22 2429.14C1650.32 2424.51 1651.07 2414.41 1678.31 2368.44C1694.99 2340.2 1691.12 2282.9 1691.12 2273.9C1691.12 2270.9 1685.91 2262.3 1688.14 2261.08Z" fill="#A1B24A"/>
<path fill-rule="evenodd" clip-rule="evenodd" d="M1674.59 2380.31C1667.89 2361.34 1683.08 2338.56 1651.21 2323.56C1622.78 2310.32 1593.15 2329.97 1565.9 2312.51C1562.78 2310.6 1551.61 2361.34 1638.41 2361.34C1649.13 2361.34 1677.27 2388.08 1674.59 2380.31Z" fill="#CCDA6A"/>
<path fill-rule="evenodd" clip-rule="evenodd" d="M1666.7 2403.08C1684.87 2392.31 1688.89 2365.84 1723.87 2372.66C1755.14 2378.67 1744.87 2435.01 1778.07 2437.33C1781.79 2437.6 1722.83 2464.47 1707.79 2409.36C1705.26 2399.81 1659.26 2407.45 1666.7 2403.08Z" fill="#CCDA6A"/>
<path fill-rule="evenodd" clip-rule="evenodd" d="M1694.39 2330.65C1701.39 2317.83 1693.35 2300.23 1717.62 2292.72C1739.36 2285.9 1755.44 2324.24 1776.88 2314.55C1779.26 2313.46 1753.65 2349.75 1722.39 2320.69C1716.88 2315.64 1691.71 2335.83 1694.39 2330.65Z" fill="#CCDA6A"/>
<path fill-rule="evenodd" clip-rule="evenodd" d="M1669.08 2791.33C1675.63 2783.55 1692.16 2790.37 1701.83 2781.64C1704.96 2778.78 1719.4 2772.36 1721.93 2774.55C1724.32 2776.46 1723.13 2777.55 1720.59 2781.91C1716.57 2789.01 1729.83 2783.55 1726.1 2790.1C1724.02 2794.05 1723.13 2794.6 1722.53 2795.56C1722.08 2796.24 1721.04 2796.37 1723.57 2801.83C1725.81 2807.15 1706.9 2809.61 1698.71 2807.15C1681.29 2801.97 1671.46 2793.64 1670.12 2792.55C1669.23 2791.87 1668.93 2791.46 1669.08 2791.33Z" fill="#F08478"/>
<path fill-rule="evenodd" clip-rule="evenodd" d="M1558.31 2807.57C1558.31 2807.43 1543.12 2811.93 1529.58 2807.57C1516.92 2803.48 1505.6 2790.65 1505.46 2790.79C1503.07 2792.84 1504.41 2793.79 1506.8 2798.16C1510.96 2805.25 1497.71 2799.79 1501.29 2806.34C1503.52 2810.3 1504.41 2810.84 1505.01 2811.8C1505.46 2812.48 1506.35 2812.62 1503.97 2818.07C1501.73 2823.4 1520.64 2825.85 1528.83 2823.4C1546.25 2818.21 1555.93 2809.89 1557.27 2808.8C1558.16 2808.12 1558.46 2807.71 1558.31 2807.57Z" fill="#F1AB9A"/>
<path fill-rule="evenodd" clip-rule="evenodd" d="M1559.24 2822.84C1562.99 2810.75 1523.07 2797.93 1488.13 2785.83C1400.57 2755.36 1364.9 2739.4 1342.16 2736.24C1325.84 2736.62 1316.63 2742.79 1280.37 2758.99C1248.2 2773.37 1105.85 2825.86 1095.93 2834.2C1118.67 2850.77 1319.18 2939.78 1319.29 2939.78C1335.15 2934.71 1340.46 2924.55 1370.94 2915.83C1380.5 2913.05 1554.77 2836.99 1559.24 2822.84Z" fill="#89AB76"/>
<path fill-rule="evenodd" clip-rule="evenodd" d="M1310.71 2881.98C1338.29 2891.65 1332.96 2947.89 1315.92 2936.76C1262.34 2902.06 1163.29 2869.04 1119.4 2841.23C1118.18 2840.38 1135.12 2828.41 1121.33 2805.66C1162.56 2816.32 1271.04 2875.69 1307.69 2881.49C1309.01 2881.75 1308.05 2881.02 1310.71 2881.98Z" fill="#FEE3B4"/>
<path fill-rule="evenodd" clip-rule="evenodd" d="M1552.34 2779.18C1569.4 2786.68 1571.34 2820.41 1555.48 2834.2C1521.02 2864.2 1319.67 2939.18 1319.29 2939.77C1323.06 2939.77 1329.83 2910.76 1312.9 2895.15C1309.27 2891.64 1373.96 2860.45 1380.74 2857.06C1402.62 2845.56 1538.67 2782.08 1552.34 2779.18Z" fill="#699C75"/>
<path fill-rule="evenodd" clip-rule="evenodd" d="M1552.34 2779.18C1492.73 2752.21 1421.97 2705.52 1356.67 2696.09C1330.67 2696.7 1122.17 2791.39 1107.29 2804.1C1129.43 2820.67 1312.9 2895.15 1312.9 2895.15C1328.37 2890.08 1339.37 2880.75 1369.12 2872.05C1378.43 2869.39 1547.98 2793.21 1552.34 2779.18Z" fill="#89AB76"/>
<path fill-rule="evenodd" clip-rule="evenodd" d="M1529.24 2764.9C1532.63 2754.26 1497.44 2743.02 1466.73 2732.37C1389.68 2705.64 1358.37 2691.49 1338.29 2688.71C1323.89 2689.07 1315.92 2694.51 1283.98 2708.67C1255.57 2721.36 1130.41 2767.56 1121.69 2774.94C1141.65 2789.57 1318.09 2867.81 1318.21 2867.81C1332.11 2863.35 1336.83 2854.39 1363.68 2846.78C1372.02 2844.35 1525.37 2777.36 1529.24 2764.9Z" fill="#E69845"/>
<path fill-rule="evenodd" clip-rule="evenodd" d="M1310.71 2816.92C1334.89 2825.51 1330.3 2874.96 1315.19 2865.18C1268.02 2834.7 1180.95 2805.54 1142.24 2781.12C1141.16 2780.39 1156.15 2769.88 1143.94 2749.8C1180.22 2759.11 1275.77 2811.48 1307.93 2816.55C1309.13 2816.81 1308.42 2816.2 1310.71 2816.92Z" fill="#FEE3B4"/>
<path fill-rule="evenodd" clip-rule="evenodd" d="M1523.2 2726.45C1538.32 2733.1 1540.01 2762.73 1525.99 2774.94C1495.75 2801.31 1318.58 2867.34 1318.21 2867.82C1321.48 2867.82 1327.4 2842.31 1312.65 2828.52C1309.39 2825.5 1366.34 2798.04 1372.26 2795.02C1391.49 2784.98 1511.35 2729.12 1523.2 2726.45Z" fill="#E69845"/>
<path fill-rule="evenodd" clip-rule="evenodd" d="M1523.2 2726.45C1514.01 2716.79 1492.23 2704.56 1462.37 2693.92C1387.39 2667.08 1370.58 2656.19 1351.11 2653.41C1328.25 2654.02 1144.67 2737.22 1131.73 2748.47C1151.08 2763.09 1312.52 2828.52 1312.64 2828.52C1326.19 2824.04 1335.86 2815.93 1362.1 2808.32C1370.22 2805.91 1519.45 2738.9 1523.2 2726.45Z" fill="#E8AB74"/>
<path fill-rule="evenodd" clip-rule="evenodd" d="M1372.26 2659.33C1367.68 2662.72 1360.78 2665.62 1354.49 2665.51C1345.31 2665.27 1334.78 2660.06 1334.43 2657.65C1343.85 2653.29 1350.5 2652.33 1353.4 2652.56C1358.49 2653.06 1362.83 2654.99 1372.26 2659.33Z" fill="#FACE87"/>
<path fill-rule="evenodd" clip-rule="evenodd" d="M1441.68 2721.74C1437.45 2720.04 1372.26 2693.55 1363.79 2687.51C1357.99 2683.27 1344.21 2688.6 1364.64 2696.94C1379.52 2703 1429.46 2732.87 1443.86 2730.44C1447.37 2729.96 1445.92 2723.3 1441.68 2721.74Z" fill="#E69845"/>
<path fill-rule="evenodd" clip-rule="evenodd" d="M1399.95 2723.56C1397.31 2722.47 1356.18 2705.78 1350.87 2701.9C1347.12 2699.24 1338.41 2702.63 1351.35 2707.83C1360.77 2711.7 1392.34 2730.44 1401.41 2729C1403.58 2728.63 1402.62 2724.52 1399.95 2723.56Z" fill="#E69845"/>
<path fill-rule="evenodd" clip-rule="evenodd" d="M1297.6 2834.6C1290.2 2830.22 1267.83 2822.55 1251.08 2814.63C1213.82 2846.72 1222.47 2842.29 1210.03 2886.98C1204.69 2906.2 1200.01 2912.56 1189.65 2916.19C1199.28 2921.89 1207.64 2913.68 1211.81 2913.43C1214.65 2913.26 1213.7 2915.85 1204.3 2929.25C1224.91 2931.73 1237.92 2916.58 1240.7 2902.38C1245.99 2875.38 1249.06 2866.68 1258.34 2857.56C1274.48 2841.65 1297.46 2838.36 1297.6 2834.6Z" fill="#B6C1D9"/>
<path fill-rule="evenodd" clip-rule="evenodd" d="M1158.53 2762.81C1176.66 2748.77 1154.41 2736.2 1153.68 2736.79C1141.83 2742.97 1129.62 2747.21 1132.04 2749.02C1136.03 2752.04 1148.61 2759.66 1158.53 2762.81Z" fill="#FACE87"/>
<path fill-rule="evenodd" clip-rule="evenodd" d="M2679.68 1753.45C2700.89 1744.81 2770.63 1772.75 2844.34 1774.54C2934.94 1776.72 3030.06 1754.13 3030.77 1755.04C3031.09 1755.42 3017.5 1825.93 3018.47 1908.29C3019.41 1989.24 3035.18 2082.07 3004.97 2082.07C2953 2082.07 2889.08 2058.16 2829.57 2058.16C2772.69 2058.16 2720.21 2082.07 2670.53 2082.07C2670.53 2018.62 2680.89 1951.23 2683.53 1882.99C2685.27 1837.75 2679.68 1788.19 2679.68 1753.45Z" fill="#699C75"/>
<path fill-rule="evenodd" clip-rule="evenodd" d="M3030.77 1753.63C3031.18 1753.31 3017.5 1824.52 3018.47 1906.88C3019.41 1987.83 3035.18 2080.66 3004.97 2080.66C2953 2080.66 2889.08 2056.75 2829.57 2056.75C2772.69 2056.75 2720.21 2080.66 2670.53 2080.66C2800.01 1990.36 2888.67 2071.78 2948.26 2022.86C3047.77 1941.18 2937.76 1829.2 3030.77 1753.63Z" fill="#53875F"/>
<path fill-rule="evenodd" clip-rule="evenodd" d="M2799.81 1770.66C2792.31 1776.93 2779.55 1791.34 2776.61 1800.9C2783.4 1790.64 2811.96 1771.87 2808.93 1771.87C2805.64 1771.87 2804.31 1771.28 2799.81 1770.66Z" fill="#53875F"/>
<path fill-rule="evenodd" clip-rule="evenodd" d="M2830.23 1773.9C2809.34 1783.61 2796.72 1820.82 2795.72 1830.76C2798.25 1824.52 2806.96 1804.49 2818.67 1791.08C2828.4 1779.9 2841.84 1774.49 2840.46 1774.43C2837.23 1774.28 2834.76 1773.61 2830.23 1773.9Z" fill="#53875F"/>
<path fill-rule="evenodd" clip-rule="evenodd" d="M2933.32 1770.1C2940.79 1776.07 2953.56 1789.78 2956.5 1798.87C2949.7 1789.1 2921.17 1771.25 2924.17 1771.25C2927.47 1771.25 2928.82 1770.69 2933.32 1770.1Z" fill="#53875F"/>
<path fill-rule="evenodd" clip-rule="evenodd" d="M2902.87 1773.16C2923.76 1782.4 2936.38 1817.81 2937.41 1827.26C2934.85 1821.35 2926.14 1802.28 2914.43 1789.52C2904.7 1778.87 2891.26 1773.72 2892.64 1773.69C2895.87 1773.55 2898.35 1772.9 2902.87 1773.16Z" fill="#53875F"/>
<path fill-rule="evenodd" clip-rule="evenodd" d="M2877.2 1774.34C2879.67 1780.28 2879.05 1792.96 2874.31 1802.04C2875.79 1792.25 2870.84 1778.4 2869.79 1774.54C2873.11 1774.54 2872.2 1774.92 2877.2 1774.34Z" fill="#53875F"/>
<path fill-rule="evenodd" clip-rule="evenodd" d="M2851.4 1985.69C2856.08 1987.95 2872.73 2015.1 2880.88 2025.78C2877.17 2028.57 2854.76 2059.4 2850.2 2054.69C2837.14 2041.25 2831.31 2031.87 2823.66 2021.84C2836.72 2006.86 2848.9 1988.33 2850.55 1985.83C2850.02 1985.83 2849.61 1985.69 2849.26 1985.33C2836.22 1971.89 2830.37 1962.51 2822.75 1952.48C2836.78 1936.39 2849.81 1916.18 2849.81 1916.18C2842.37 1913.24 2824.93 1889.5 2821.69 1887.09C2829.84 1876.38 2846.49 1849.26 2851.14 1846.97C2843.96 1844.82 2825.9 1820.2 2822.64 1817.73C2831.25 1806.44 2849.37 1776.7 2852.76 1777.49C2852.76 1777.49 2865.79 1797.67 2879.82 1813.76C2872.2 1823.82 2866.34 1833.2 2853.31 1846.65C2852.96 1847 2852.55 1847.14 2852.02 1847.12C2853.67 1849.65 2865.85 1868.15 2878.9 1883.12C2871.26 1893.18 2865.4 1902.56 2852.37 1916C2851.96 1916.42 2851.4 1916.56 2850.7 1916.45C2855.64 1919.39 2871.9 1945.89 2879.93 1956.42C2876.67 1958.89 2858.61 1983.51 2851.4 1985.69ZM2865.11 1849.59L2865.7 1848.91C2874.17 1839.61 2882.64 1830.26 2891.35 1821.17L2898.08 1829.73C2895.38 1832.76 2889.94 1838.44 2884.55 1844.38C2882.58 1846.53 2880.64 1848.73 2878.79 1850.79C2880.55 1853 2882.44 1855.32 2884.29 1857.62C2889.7 1864.29 2895.14 1870.68 2897.82 1874.06L2891.08 1881.74C2885.49 1875.15 2870.55 1856.94 2864.85 1849.88L2865.11 1849.59ZM2832.28 1850.82L2831.67 1850.17C2823.2 1840.88 2814.72 1831.5 2806.05 1822.44L2799.31 1830.97C2801.99 1834 2807.43 1839.67 2812.84 1845.65C2814.78 1847.79 2816.75 1849.97 2818.61 1852.03C2816.81 1854.23 2814.96 1856.59 2813.08 1858.88C2807.69 1865.53 2802.25 1871.94 2799.58 1875.32L2806.28 1882.97C2811.9 1876.38 2826.81 1858.2 2832.52 1851.15L2832.25 1850.82L2832.28 1850.82ZM2834.43 1986.42L2833.75 1985.66C2824.02 1975.01 2814.31 1964.24 2804.31 1953.83L2796.61 1963.65C2799.69 1967.12 2805.93 1973.63 2812.14 1980.45C2814.37 1982.92 2816.61 1985.45 2818.75 1987.8C2816.7 1990.33 2814.58 1993.01 2812.43 1995.66C2806.22 2003.3 2799.99 2010.63 2796.9 2014.51L2804.61 2023.31C2811.05 2015.75 2828.2 1994.89 2834.73 1986.77L2834.43 1986.42ZM2869.32 1985.57L2869.99 1984.8C2879.73 1974.13 2889.44 1963.39 2899.44 1952.98L2907.14 1962.77C2904.05 1966.24 2897.82 1972.77 2891.61 1979.6C2889.38 1982.07 2887.14 1984.6 2884.99 1986.95C2887.05 1989.48 2889.2 1992.16 2891.32 1994.8C2897.52 2002.45 2903.79 2009.78 2906.85 2013.66L2899.14 2022.45C2892.7 2014.89 2875.55 1994.01 2869.02 1985.92L2869.32 1985.57Z" fill="#89AB76"/>
<path fill-rule="evenodd" clip-rule="evenodd" d="M3074.24 2336.99C3027.68 2560.86 2919.7 2503.12 2954.27 2844.53C2974.81 2856.52 3270.67 2860.39 3270.67 2822.56C3270.67 2687.14 3206.62 2536.26 3129.55 2426.46C3114.71 2405.31 3124.88 2355.49 3127.11 2347.36C3133.62 2347.97 3145.41 2342.48 3138.5 2334.14C3128.74 2322.14 3067.94 2313.6 3065.91 2329.46C3065.5 2331.9 3068.96 2336.38 3074.24 2336.99Z" fill="#FACE87"/>
<path fill-rule="evenodd" clip-rule="evenodd" d="M3103.93 2329.05C3125.28 2331.49 3116.54 2339.83 3113.69 2339.63C3090.31 2337.39 3088.07 2333.73 3089.29 2331.49C3090.51 2329.46 3091.53 2327.63 3103.93 2329.05Z" fill="#526138"/>
<path fill-rule="evenodd" clip-rule="evenodd" d="M3107.18 2299.77C3098.85 2297.12 3126.91 2250.36 3131.58 2236.12C3150.7 2178.17 3189.54 2185.29 3220.04 2116.15C3222.27 2111.27 3246.67 2176.34 3229.8 2210.5C3215.56 2239.17 3153.34 2230.02 3137.89 2250.76C3135.45 2254.02 3109.22 2295.9 3107.18 2299.77Z" fill="#89AB76"/>
<path fill-rule="evenodd" clip-rule="evenodd" d="M3162.69 2088.9C3155.57 2109.44 3128.53 2122.66 3117.14 2148.08C3093.96 2199.52 3111.65 2280.25 3096.4 2337.19C3096.4 2337.39 3109.62 2339.22 3109.62 2339.22C3112.47 2311.77 3111.04 2265.41 3113.08 2221.28C3114.3 2191.8 3115.11 2161.7 3127.11 2145.23C3138.09 2129.98 3152.32 2122.46 3158.22 2113.71C3183.64 2076.3 3164.12 2085.24 3162.69 2088.9Z" fill="#A1B24A"/>
<path fill-rule="evenodd" clip-rule="evenodd" d="M3159.44 2099.28C3182.82 2026.89 3191.36 2052.92 3226.13 1996.19C3228.17 1992.93 3233.05 2025.47 3218 2047.63C3203.77 2068.37 3176.52 2075.49 3159.44 2099.28Z" fill="#CCDA6A"/>
<path fill-rule="evenodd" clip-rule="evenodd" d="M3112.07 2177.56C3188.93 2101.92 3182.83 2140.14 3263.76 2091.75C3268.44 2088.9 3253.19 2133.03 3219.63 2150.92C3188.12 2167.8 3149.28 2158.85 3112.07 2177.56Z" fill="#CCDA6A"/>
<path fill-rule="evenodd" clip-rule="evenodd" d="M3103.93 2242.23C3112.27 2239.99 3092.75 2204 3088.88 2189.36C3072.82 2130.6 3067.33 2107.82 3040.49 2037.06C3038.45 2031.98 3010.6 2095.83 3025.64 2130.6C3038.45 2160.08 3066.51 2163.34 3085.22 2193.84C3087.46 2197.29 3102.1 2238.37 3103.93 2242.23Z" fill="#CCDA6A"/>
<path fill-rule="evenodd" clip-rule="evenodd" d="M3103.12 2338.2C3099.46 2330.27 3141.75 2281.88 3155.58 2275.98C3211.7 2252.19 3300.56 2232.06 3293.24 2393.51C3293.04 2399 3270.67 2354.88 3248.71 2352.03C3216.99 2347.96 3214.96 2290.01 3148.87 2290.42C3144.8 2290.42 3107.18 2337.19 3103.12 2338.2Z" fill="#89AB76"/>
<path fill-rule="evenodd" clip-rule="evenodd" d="M3103.73 2333.94C3107.79 2326.21 3088.68 2284.12 3065.7 2280.05C3015.07 2271.31 2985.58 2277.61 2963.22 2357.12C2957.52 2377.65 2959.35 2394.33 2952.85 2422.8C3062.86 2420.76 3002.46 2293.47 3076.28 2297.74C3080.34 2297.94 3099.66 2332.72 3103.73 2333.94Z" fill="#89AB76"/>
<path fill-rule="evenodd" clip-rule="evenodd" d="M2191.46 460.176C2195.51 455.944 2230.3 444.95 2266.58 430.843C2308.38 414.598 2346.66 399.123 2357.84 394.859C2357.92 394.815 2372.43 389.693 2370.37 392.493C2369.11 394.186 2319.13 411.939 2272.76 430.182C2234.1 445.395 2217.87 452.492 2191.46 460.176Z" fill="#EBC890"/>
<path fill-rule="evenodd" clip-rule="evenodd" d="M2548.27 460.689C2544.22 456.446 2509.43 445.454 2473.15 431.357C2431.35 415.111 2393.07 399.636 2381.9 395.361C2381.81 395.328 2367.29 390.206 2369.36 392.995C2370.62 394.699 2420.6 412.442 2466.98 430.695C2505.63 445.908 2521.87 453.006 2548.27 460.689Z" fill="#EBC890"/>
<path fill-rule="evenodd" clip-rule="evenodd" d="M2368.09 391.461C2362.69 393.088 2359.48 400.273 2362.22 404.136C2372.34 418.417 2389.22 391.461 2368.09 391.461Z" fill="#9A7D65"/>
<path fill-rule="evenodd" clip-rule="evenodd" d="M2173.23 430.566C2247.66 426.551 2409.91 430.978 2560.97 429.361C2560.97 578.423 2566.52 708.299 2563.48 869.85C2484.77 874.462 2176.4 870.49 2176.57 866.063C2176.88 857.761 2172.91 430.847 2173.23 430.566Z" fill="#8E623F"/>
<path fill-rule="evenodd" clip-rule="evenodd" d="M2202.4 455.563C2265.72 452.004 2403.78 455.932 2532.31 454.499C2532.31 586.609 2537.03 701.716 2534.45 844.896C2467.47 848.988 2205.1 845.471 2205.24 841.543C2205.51 834.185 2202.12 455.811 2202.4 455.563Z" fill="#FFEFD6"/>
<path fill-rule="evenodd" clip-rule="evenodd" d="M2239.44 498.932C2288.67 496.165 2396 499.215 2495.92 498.097C2495.92 600.811 2499.58 690.295 2497.58 801.603C2445.51 804.783 2241.54 802.048 2241.65 798.998C2241.85 793.268 2239.23 499.127 2239.44 498.932Z" fill="#FEFEFE"/>
<path fill-rule="evenodd" clip-rule="evenodd" d="M2286 715.489C2288.33 652.874 2299.17 581.761 2371.12 577.366C2397.62 575.739 2425.65 577.105 2442.2 618.777C2444.83 625.397 2460.82 693.405 2456.47 715.489H2430.99C2428.09 706.982 2433.93 688.664 2417.71 650.411C2398.1 604.215 2351.28 592.7 2331.42 658.333C2329.22 665.626 2323.4 696.857 2317.26 715.49H2286V715.489Z" fill="#B6C1D9"/>
<path fill-rule="evenodd" clip-rule="evenodd" d="M2304.47 715.497C2306.51 659.708 2315.68 597.646 2371.2 593.739C2392.01 592.274 2414.02 593.511 2427.01 631.114C2428.98 636.821 2440.52 693.1 2438.58 715.498H2417.67C2416.73 706.817 2419.1 690.344 2407.77 659.665C2392.38 617.972 2355.63 607.586 2340.03 666.816C2338.4 673.034 2334.24 698.514 2329.72 715.497H2304.47Z" fill="#E69845"/>
<path fill-rule="evenodd" clip-rule="evenodd" d="M2322.48 715.484C2324.24 667.323 2331.69 615.408 2371.27 612.055C2386.53 610.764 2402.68 611.86 2412.2 645.077C2413.55 649.797 2421.06 693.672 2420.84 715.484H2405.16C2404.97 707.085 2405.1 693.151 2398.1 670.297C2386.81 633.466 2359.85 624.285 2348.42 676.613C2347.32 681.615 2344.69 700.78 2341.72 715.484H2322.48Z" fill="#E4B2AB"/>
<path fill-rule="evenodd" clip-rule="evenodd" d="M1424.55 380.679C1431.26 373.202 1489.07 353.783 1549.32 328.863C1618.75 300.166 1682.34 272.83 1700.89 265.297C1701.05 265.221 1725.14 256.173 1721.71 261.118C1719.64 264.109 1636.6 295.47 1559.58 327.695C1495.38 354.57 1468.41 367.126 1424.55 380.679Z" fill="#EBC890"/>
<path fill-rule="evenodd" clip-rule="evenodd" d="M2017.21 381.587C2010.5 374.111 1952.7 354.673 1892.43 329.772C1823 301.075 1759.43 273.739 1740.86 266.186C1740.71 266.128 1716.61 257.08 1720.04 262.007C1722.13 265.017 1805.15 296.359 1882.18 328.602C1946.39 355.478 1973.35 368.015 2017.21 381.587Z" fill="#EBC890"/>
<path fill-rule="evenodd" clip-rule="evenodd" d="M1717.94 259.297C1708.97 262.172 1703.64 274.863 1708.18 281.687C1724.99 306.914 1753.04 259.297 1717.94 259.297Z" fill="#9A7D65"/>
<path fill-rule="evenodd" clip-rule="evenodd" d="M1407.23 328.39C1525.93 321.297 1784.68 329.118 2025.56 326.262C2025.56 589.575 2034.4 818.995 2029.57 1104.37C1904.05 1112.52 1412.29 1105.5 1412.56 1097.68C1413.06 1083.02 1406.73 328.888 1407.23 328.39Z" fill="#8E623F"/>
<path fill-rule="evenodd" clip-rule="evenodd" d="M1442.7 372.539C1547.9 366.252 1777.23 373.191 1990.72 370.661C1990.72 604.031 1998.56 807.362 1994.27 1060.28C1883.02 1067.51 1447.19 1061.3 1447.42 1054.36C1447.86 1041.36 1442.26 372.981 1442.7 372.539Z" fill="#FFEFD6"/>
<path fill-rule="evenodd" clip-rule="evenodd" d="M1526.49 691.843C1505.63 776.975 1512.17 863.583 1593.45 893.199C1656.46 916.145 1765.95 906.273 1765.95 799.633C1765.95 646.047 1716.9 667.901 1716.71 573.126C1716.53 484.447 1576.46 487.974 1526.49 691.843Z" fill="#E4B2AB"/>
<path fill-rule="evenodd" clip-rule="evenodd" d="M1817.37 817.591C2022.62 638.51 1817.69 617.864 1791.26 661.207C1757.23 716.951 1776.73 706.178 1719.87 775.074C1683.7 818.875 1696.2 923.311 1817.37 817.591Z" fill="#B6C1D9"/>
<path fill-rule="evenodd" clip-rule="evenodd" d="M1751.9 702.883C1781.65 671.963 1736.89 655.477 1726.5 660.883C1696.27 676.621 1720.7 735.299 1751.9 702.883Z" fill="#E69845"/>
<path fill-rule="evenodd" clip-rule="evenodd" d="M1807.78 599.442C1837.53 568.541 1792.77 552.056 1782.38 557.461C1752.15 573.199 1776.57 631.877 1807.78 599.442Z" fill="#E69845"/>
<path fill-rule="evenodd" clip-rule="evenodd" d="M1829.44 948.302C1859.19 917.401 1814.43 900.915 1804.04 906.32C1773.81 922.058 1798.23 980.736 1829.44 948.302Z" fill="#89AB76"/>
<path fill-rule="evenodd" clip-rule="evenodd" d="M1859.36 857.676C1874.22 842.207 1851.85 833.964 1846.66 836.686C1831.55 844.546 1843.76 873.893 1859.36 857.676Z" fill="#89AB76"/>
<path fill-rule="evenodd" clip-rule="evenodd" d="M1883.96 910.148C1896.5 923.183 1877.64 930.123 1873.25 927.842C1860.52 921.208 1870.81 896.48 1883.96 910.148Z" fill="#89AB76"/>
<path fill-rule="evenodd" clip-rule="evenodd" d="M1913.06 874.529C1927.94 859.079 1905.56 850.836 1900.35 853.539C1885.25 861.418 1897.46 890.747 1913.06 874.529Z" fill="#89AB76"/>
<path fill-rule="evenodd" clip-rule="evenodd" d="M1937.65 927.007C1950.19 940.042 1931.35 946.982 1926.96 944.701C1914.21 938.068 1924.5 913.339 1937.65 927.007Z" fill="#89AB76"/>
<path fill-rule="evenodd" clip-rule="evenodd" d="M1898.97 810.177C1911.51 823.212 1892.66 830.152 1888.27 827.871C1875.53 821.257 1885.82 796.509 1898.97 810.177Z" fill="#89AB76"/>
<path fill-rule="evenodd" clip-rule="evenodd" d="M1722.5 927.707C1752.25 896.786 1707.51 880.3 1697.1 885.725C1666.89 901.444 1691.31 960.141 1722.5 927.707Z" fill="#89AB76"/>
</svg>
