<svg width="3016" height="3593" viewBox="0 0 3016 3593" fill="none" xmlns="http://www.w3.org/2000/svg">
<path fill-rule="evenodd" clip-rule="evenodd" d="M1446.99 316.547C773.561 316.547 12.375 736.919 0.465088 1994.47C-6.8479 2783.75 765.621 3536.34 1508.21 3553.15C2265.85 3569.97 2994.02 2835.21 3014.49 2052.04C3039.57 1085.44 2389.75 316.547 1446.99 316.547Z" fill="#FFF2DC"/>
<path fill-rule="evenodd" clip-rule="evenodd" d="M2558.71 1371.67C2662.4 1870.2 2902.84 1741.61 2825.87 2501.87C2780.13 2528.58 2121.3 2537.18 2121.3 2452.96C2121.3 2151.4 2263.94 1815.41 2435.55 1570.9C2468.6 1523.81 2445.96 1412.87 2440.98 1394.76C2426.49 1396.12 2400.23 1383.89 2415.63 1365.33C2437.36 1338.61 2572.75 1319.59 2577.28 1354.91C2578.18 1360.35 2570.48 1370.31 2558.71 1371.67Z" fill="#FACE87"/>
<path fill-rule="evenodd" clip-rule="evenodd" d="M2492.6 1354C2445.06 1359.43 2464.53 1378 2470.87 1377.55C2522.94 1372.56 2527.92 1364.41 2525.2 1359.43C2522.49 1354.91 2520.22 1350.83 2492.6 1354Z" fill="#526138"/>
<path fill-rule="evenodd" clip-rule="evenodd" d="M2485.36 1288.8C2503.92 1282.91 2441.43 1178.76 2431.02 1147.07C2388.46 1018.02 2301.97 1033.87 2234.05 879.914C2229.07 869.047 2174.73 1013.94 2212.32 1090.02C2244.01 1153.86 2382.57 1133.48 2416.98 1179.67C2422.42 1186.92 2480.83 1280.19 2485.36 1288.8Z" fill="#89AB76"/>
<path fill-rule="evenodd" clip-rule="evenodd" d="M2361.74 819.243C2377.59 864.976 2437.81 894.408 2463.17 951.009C2514.79 1065.57 2475.4 1245.33 2509.36 1372.12C2509.36 1372.57 2479.92 1376.64 2479.92 1376.64C2473.58 1315.52 2476.75 1212.28 2472.23 1114.02C2469.51 1048.36 2467.7 981.347 2440.98 944.67C2416.53 910.709 2384.83 893.956 2371.7 874.485C2315.1 791.169 2358.57 811.092 2361.74 819.243Z" fill="#A1B24A"/>
<path fill-rule="evenodd" clip-rule="evenodd" d="M2368.98 842.334C2316.91 681.136 2297.89 739.095 2220.46 612.762C2215.94 605.517 2205.07 677.966 2238.58 727.321C2270.27 773.508 2330.95 789.356 2368.98 842.334Z" fill="#CCDA6A"/>
<path fill-rule="evenodd" clip-rule="evenodd" d="M2474.49 1016.67C2303.33 848.223 2316.91 933.35 2136.7 825.582C2126.28 819.243 2160.24 917.501 2234.95 957.348C2305.14 994.931 2391.63 975.008 2474.49 1016.67Z" fill="#CCDA6A"/>
<path fill-rule="evenodd" clip-rule="evenodd" d="M2492.6 1160.66C2474.03 1155.68 2517.5 1075.53 2526.11 1042.93C2561.88 912.067 2574.1 861.354 2633.87 703.778C2638.4 692.458 2700.44 834.638 2666.93 912.068C2638.4 977.725 2575.92 984.97 2534.26 1052.89C2529.28 1060.59 2496.68 1152.05 2492.6 1160.66Z" fill="#CCDA6A"/>
<path fill-rule="evenodd" clip-rule="evenodd" d="M2494.41 1374.38C2502.56 1356.72 2408.38 1248.96 2377.59 1235.82C2252.62 1182.85 2054.74 1138.02 2071.04 1497.55C2071.49 1509.77 2121.3 1411.51 2170.2 1405.17C2240.84 1396.12 2245.37 1267.07 2392.53 1267.97C2401.59 1267.97 2485.36 1372.12 2494.41 1374.38Z" fill="#89AB76"/>
<path fill-rule="evenodd" clip-rule="evenodd" d="M2493.05 1364.87C2484 1347.66 2526.56 1253.93 2577.73 1244.88C2690.48 1225.41 2756.13 1239.44 2805.94 1416.49C2818.62 1462.22 2814.55 1499.35 2829.04 1562.75C2584.07 1558.22 2718.55 1274.76 2554.18 1284.27C2545.13 1284.72 2502.11 1362.15 2493.05 1364.87Z" fill="#89AB76"/>
<path fill-rule="evenodd" clip-rule="evenodd" d="M1386.8 2322.4C742.618 2322.4 14.4929 2487.29 3.09985 2980.57C-3.89526 3290.17 735.023 3585.37 1445.36 3591.97C2170.09 3598.57 2866.63 3310.35 2886.22 3003.15C2910.2 2624 2288.61 2322.4 1386.8 2322.4Z" fill="#E2F2E7"/>
<path fill-rule="evenodd" clip-rule="evenodd" d="M329.833 1799.85C352.598 1873.09 740.191 1901.98 793.946 1790.94C818.473 1740.32 314.118 1749.28 329.833 1799.85Z" fill="#7D522E"/>
<path fill-rule="evenodd" clip-rule="evenodd" d="M944.633 1261.57C903.264 1328.99 838.543 1397.62 792.915 1466.16C768.387 1502.93 739.552 1575.97 739.209 1576.22C734.656 1513.65 721.829 1464.64 721.829 1382.59C721.829 1378.92 709.688 1314.54 710.471 1255.74C711.107 1209.68 726.97 1164.44 715.367 1173.94C694.266 1191.22 709.737 1324.63 709.737 1373.39C709.737 1495.68 727.949 1479.63 724.816 1624.68C724.082 1658.22 677.964 1706 661.955 1751.09C652.506 1777.58 578.434 1835.1 569.818 1887.24C566.146 1909.47 574.91 1891.16 629.007 1906.53C629.546 1906.68 679.433 1810.92 685.552 1802.5C717.717 1758.09 747.825 1714.08 749.294 1659C750.028 1631.93 781.018 1479.48 804.86 1464.5C822.24 1453.58 911.391 1436.2 923.14 1432.87C895.92 1423.42 851.565 1439.53 808.727 1453.24C820.281 1443.3 939.981 1290.65 941.009 1267.05C941.108 1264.17 942.626 1264.8 944.633 1261.57Z" fill="#53875F"/>
<path fill-rule="evenodd" clip-rule="evenodd" d="M876.145 1665.07C875.019 1656.02 730.253 1622.97 647.614 1666.2C613.833 1683.87 583.725 1692.2 560.226 1726.66C566.297 1717.07 556.995 1673.84 582.11 1637.22C598.755 1612.93 591.802 1572.74 571.094 1619.01C562.82 1637.46 551.61 1715.99 543.385 1743.5C538 1761.67 533.643 1754.27 498.687 1807.29C489.826 1783.45 479.348 1736.75 454.918 1692C433.23 1652.3 374.042 1565.69 366.552 1500.33C365.72 1493.28 356.81 1390.82 356.173 1390.77C316.469 1386.41 351.522 1374.27 351.424 1465.96C351.326 1547.97 413.403 1641.33 444.296 1704.63C455.948 1728.47 462.067 1754.03 460.354 1764.41C449.779 1765.14 382.659 1722.74 337.423 1686.12C317.008 1669.63 304.818 1651.22 297.719 1643.82C274.659 1619.98 262.47 1597.27 284.06 1642.36C309.175 1694.84 395.927 1737.72 440.331 1772.83C472.251 1798.04 467.061 1805.68 472.593 1873.33C474.209 1892.72 502.897 1881.76 503.093 1881.66C508.527 1803.91 559.442 1758.34 608.595 1704.14C650.746 1657.68 774.266 1633.15 876.145 1665.07Z" fill="#41704C"/>
<path fill-rule="evenodd" clip-rule="evenodd" d="M793.945 1790.95C777.349 1828.59 758.745 1888.52 758.843 1905.02C758.99 1930.96 738.085 2162.33 730.008 2250.75H393.477C383.49 2112.25 374.09 1986.48 365.327 1905.21C365.131 1904.87 348.486 1863.5 328.462 1796.97C376.489 1816.84 458.296 1856.25 553.909 1858.6C664.993 1861.39 779.209 1806.37 793.945 1790.95Z" fill="#D68127"/>
<path fill-rule="evenodd" clip-rule="evenodd" d="M803.983 1671.3C810.543 1631.25 808.683 1620.72 862.536 1627.97C933.866 1637.66 990.558 1695.04 1012.78 1737.97C1028.5 1768.38 1046.08 1836.28 1013.81 1889.3C1007.79 1888.96 1010.04 1872.66 997.266 1852.19C969.556 1807.98 969.752 1854.2 969.752 1782.67C969.752 1782.38 956.24 1678.15 944.441 1738.27C942.972 1745.81 951.197 1818.36 947.476 1813.96C939.643 1804.8 695.2 1807.98 791.058 1689.7C797.765 1681.43 803.542 1673.94 803.983 1671.3Z" fill="#558373"/>
<path fill-rule="evenodd" clip-rule="evenodd" d="M1032.51 1412.26C1071.14 1451.87 1043.57 1403.1 963.727 1476.44C939.64 1498.57 1064.43 1442.61 1069.38 1468.12C1071.97 1481.53 1093.85 1561.53 1086.31 1560.94C1076.33 1560.11 925.1 1461.51 1048.32 1581.21C1065.85 1598.2 1086.95 1608.58 1089.79 1620.57C1095.76 1646.03 1086.31 1675.01 1082.01 1721.37C1081.96 1722.06 961.622 1637.36 961.132 1622.38C960.887 1614.5 963.58 1475.71 943.116 1507.09C917.854 1545.91 925.54 1573.96 916.239 1578.86C906.546 1583.95 879.521 1564.22 837.614 1516.73C799.672 1473.6 852.986 1432.72 885.984 1431.3C900.572 1332.8 977.532 1355.91 1032.51 1412.26Z" fill="#558373"/>
<path fill-rule="evenodd" clip-rule="evenodd" d="M977.142 1240.37C1008.33 1229.21 1042.11 1229.21 1073.54 1257.02C1077.99 1260.93 1071.92 1298.92 1084.41 1316.16C1085.09 1317.09 1115.4 1362.81 1115.54 1363.11C1113.29 1366.19 1100.02 1347.05 1075.99 1347.05C1060.22 1347.05 1009.5 1352.19 998.927 1343.87C963.825 1316.4 988.94 1296.82 921.918 1302.06C907.035 1303.23 930.926 1256.92 977.142 1240.37Z" fill="#699C75"/>
<path fill-rule="evenodd" clip-rule="evenodd" d="M757.912 1165.03C775.977 1085.37 699.849 1074.02 679.189 1059.92C678.259 1059.28 631.701 1030.25 631.407 1030.1C628.421 1032.45 647.906 1045.18 648.542 1069.22C648.983 1084.93 635.226 1136.39 648.15 1170.07C664.061 1211.63 687.463 1188.77 697.841 1221.96C702.248 1236.16 747.093 1212.86 757.912 1165.03Z" fill="#699C75"/>
<path fill-rule="evenodd" clip-rule="evenodd" d="M524.292 1640.84C507.696 1531.86 594.545 1543.51 623.136 1523.2C625.192 1525.55 606.882 1539.11 606.442 1563.14C606.148 1578.91 606.785 1612.2 598.119 1645.88C587.398 1687.45 559.59 1679.22 552.589 1712.46C549.603 1726.66 531.538 1688.67 524.292 1640.84Z" fill="#699C75"/>
<path fill-rule="evenodd" clip-rule="evenodd" d="M372.572 1289.18C442.581 1196.85 603.502 1262.35 603.062 1431.99C563.358 1406.43 576.038 1385.48 500.154 1385.48C436.951 1385.48 435.629 1398.01 432.495 1399.29C423.83 1402.71 563.015 1405.94 573.883 1479.48C574.715 1485.11 497.657 1575.19 497.02 1559.23C495.747 1525.89 457.757 1466.85 422.018 1461.36C430.537 1479.77 459.568 1519.08 462.457 1576.51C420.697 1595.16 395.484 1633.01 394.945 1633.64C394.455 1634.18 393.085 1605.54 351.08 1555.61C342.513 1545.42 309.858 1520.8 297.374 1523.69C297.374 1477.23 395.729 1363.89 278.085 1457.45C259.628 1472.13 269.616 1504.01 203.083 1434.68C138.068 1367.02 332.672 1383.47 314.216 1379.9C299.969 1377.11 267.511 1330.01 180.319 1361.49C164.064 1342.84 145.657 1154.7 372.572 1289.18Z" fill="#53875F"/>
<path fill-rule="evenodd" clip-rule="evenodd" d="M304.223 1665.03C377.561 1612.45 288.018 1509.2 218.744 1509.2C214.925 1509.2 173.9 1511.06 142.42 1530.79C202.833 1563.73 226.187 1616.51 200.729 1592.67C191.329 1583.85 145.358 1545.03 100.17 1554.14C72.8035 1559.62 62.8654 1572.1 46.3174 1633.99C45.7294 1636.19 123.228 1604.86 139.189 1619.4C143.889 1623.71 136.154 1627.03 99.5345 1627.03C-3.81351 1627.03 12.4404 1737.68 14.1534 1734.2C15.7694 1730.92 55.8154 1677.12 134.098 1677.12C126.412 1677.12 57.3826 1692.39 23.6026 1755.89C9.25861 1782.82 3.77435 1898.01 25.4144 1943.84C29.1844 1951.77 73.0495 1909.22 94.9825 1901.34C70.6505 1821.88 113.145 1769.4 118.236 1757.75C122.299 1760.44 89.4494 1855.66 124.454 1876.18C158.039 1823.89 212.381 1844.79 216.493 1833.78C221.976 1819.14 220.264 1783.5 246.896 1739.59C265.206 1709.43 262.072 1680.74 260.309 1758.53C258.595 1834.56 223.787 1834.22 305.153 1816.89C428.183 1790.7 390.339 1665.03 304.223 1665.03ZM173.606 1750.11C174.732 1768.18 200.435 1821.98 164.697 1822.67C144.674 1823.06 170.179 1751.04 173.606 1750.11ZM85.5335 1736.7C64.2375 1795.4 76.9656 1878.97 41.2276 1879.65C21.2036 1880.04 26.3925 1764.85 85.5335 1736.7Z" fill="#558373"/>
<path fill-rule="evenodd" clip-rule="evenodd" d="M696.009 2286.59C700.952 2302.42 645.085 2621.94 620.921 2636.82C607.691 2644.96 575.688 2650.45 567.949 2632.53C520.669 2523.29 483.875 2428.48 483.875 2295.63C518.325 2294.38 678.486 2302.67 696.009 2286.59Z" fill="#D68127"/>
<path fill-rule="evenodd" clip-rule="evenodd" d="M2932.77 2576.86C2937.71 2592.69 2881.85 2912.21 2857.68 2927.14C2844.45 2935.27 2812.45 2940.72 2804.71 2922.79C2757.43 2813.56 2720.64 2718.75 2720.64 2585.95C2755.09 2584.65 2915.25 2592.94 2932.77 2576.86Z" fill="#D68127"/>
<path fill-rule="evenodd" clip-rule="evenodd" d="M2566.42 2782C2571.36 2797.83 2515.49 3117.35 2491.28 3132.28C2478.1 3140.41 2446.05 3145.86 2438.31 3127.93C2391.03 3018.7 2354.28 2923.89 2354.28 2791.09C2388.68 2789.79 2548.84 2798.08 2566.42 2782Z" fill="#D68127"/>
<path fill-rule="evenodd" clip-rule="evenodd" d="M647.233 2130.47C677.488 2049.19 1015.58 1868.56 1018.18 1845.1C1019.98 1828.42 996.113 1807.7 915.483 1782.09C915.483 1782.09 640.044 1889.58 536.299 2070.81C472.594 2182.1 476.987 2325.28 476.539 2424.28C476.489 2431.17 488.87 2495.88 594.512 2503.02C612.485 2504.22 593.564 2142.61 647.233 2130.47Z" fill="#89AB76"/>
<path fill-rule="evenodd" clip-rule="evenodd" d="M1018.18 1845.1C1039.35 1984.94 1033.1 2188.63 992.916 2273.01C964.458 2332.72 845.336 2387.89 774.342 2414.35C574.64 2488.68 560.062 2586.79 563.707 2315.34C568.699 1941.1 1016.68 1835.51 1018.18 1845.1Z" fill="#41704C"/>
<path fill-rule="evenodd" clip-rule="evenodd" d="M2740.41 2410.5C2377.15 2267.57 949.282 2023.83 598.356 2220.44C570.847 2235.86 502.798 2480.85 608.94 2508.61C930.56 2592.83 2334.51 3013.5 2411.55 2935.42C2483.19 2862.78 2767.22 2527.83 2740.41 2410.5Z" fill="#41704C"/>
<path fill-rule="evenodd" clip-rule="evenodd" d="M2826.68 2344.55C2546.5 2234.31 1178.54 1838.06 921.574 2002.86C846.985 2050.69 733.704 2127.32 622.021 2189.88C594.562 2205.26 557.667 2290.58 663.809 2318.39C985.429 2402.56 2389.43 2823.29 2466.42 2745.15C2538.06 2672.51 2853.49 2461.88 2826.68 2344.55Z" fill="#53875F"/>
<path fill-rule="evenodd" clip-rule="evenodd" d="M2845.7 1881C2565.52 1770.76 1213.24 1507.25 1050.38 1578.35C1049.18 1578.9 881.481 2007.61 953.424 2029.07C1271.6 2124.13 2691.98 2471.86 2768.96 2393.78C2840.61 2321.14 2872.51 1998.32 2845.7 1881Z" fill="#699C75"/>
<path fill-rule="evenodd" clip-rule="evenodd" d="M2845.7 1881.2C2826.93 1902.36 2727.93 2328.78 2735.36 2494.83C2735.46 2497.08 2855.68 2465.72 2865.22 2440.66C2913.1 2314.65 2880.3 1832.47 2845.7 1881.2Z" fill="#53875F"/>
<path fill-rule="evenodd" clip-rule="evenodd" d="M2559.38 2543.96C2592.63 2446.55 2964.07 2231.02 2966.92 2202.92C2968.92 2182.9 2942.66 2157.93 2854.14 2126.93C2854.14 2126.93 2551.44 2254.89 2437.46 2471.96C2393.23 2556.19 2378.9 2655.84 2374.2 2747.75C2367.11 2887.1 2327.27 2969.72 2490.83 2968.92C2511.15 2968.82 2500.42 2558.34 2559.38 2543.96Z" fill="#89AB76"/>
<path fill-rule="evenodd" clip-rule="evenodd" d="M2966.92 2202.92C2990.18 2370.82 2983.29 2615.2 2939.16 2716.3C2907.91 2787.89 2778.55 2859.04 2699.02 2885.1C2465.22 2961.73 2440.55 3072.37 2467.56 2765.48C2507.06 2317.2 2965.32 2191.38 2966.92 2202.92Z" fill="#53875F"/>
<path fill-rule="evenodd" clip-rule="evenodd" d="M2445.1 1799.91C2365.17 1850.69 2255.43 2245.3 2277.25 2312.1C2278.95 2317.29 2306.01 2143.1 2351.19 2006.85C2389.58 1891.23 2424.08 1832.42 2445.1 1799.91Z" fill="#53875F"/>
<path fill-rule="evenodd" clip-rule="evenodd" d="M1978.5 1720.69C1901.66 1769.51 1796.22 2148.7 1817.19 2212.9C1818.84 2217.89 1844.85 2050.5 1888.28 1919.54C1925.13 1808.46 1958.28 1751.94 1978.5 1720.69Z" fill="#53875F"/>
<path fill-rule="evenodd" clip-rule="evenodd" d="M1519.68 1616.09C1442.89 1664.92 1337.45 2044.15 1358.42 2108.36C1360.07 2113.3 1386.08 1945.9 1429.51 1815C1466.36 1703.86 1499.51 1647.35 1519.68 1616.09Z" fill="#53875F"/>
<path fill-rule="evenodd" clip-rule="evenodd" d="M1446.04 1781.11C1416.38 1768.98 1318.73 1808.07 1215.53 1810.57C1088.72 1813.66 955.572 1782.01 954.574 1783.31C954.125 1783.86 973.146 1882.51 971.798 1997.84C970.45 2111.17 948.433 2241.12 990.72 2241.12C1063.46 2241.12 1152.93 2207.62 1236.25 2207.62C1315.88 2207.62 1389.33 2241.12 1458.87 2241.12C1458.87 2152.31 1444.39 2057.95 1440.7 1962.44C1438.25 1899.08 1446.04 1829.74 1446.04 1781.11Z" fill="#9F704B"/>
<path fill-rule="evenodd" clip-rule="evenodd" d="M954.574 1781.31C954.025 1780.86 973.146 1880.56 971.798 1995.84C970.45 2109.17 948.433 2239.12 990.72 2239.12C1063.46 2239.12 1152.93 2205.62 1236.25 2205.62C1315.88 2205.62 1389.33 2239.12 1458.87 2239.12C1277.59 2112.71 1153.53 2226.69 1070.05 2158.19C930.759 2043.87 1084.78 1887.1 954.574 1781.31Z" fill="#8E623F"/>
<path fill-rule="evenodd" clip-rule="evenodd" d="M1277.94 1805.17C1288.37 1813.91 1306.3 1834.13 1310.39 1847.51C1300.85 1833.13 1260.91 1806.87 1265.11 1806.87C1269.75 1806.87 1271.6 1806.02 1277.94 1805.17Z" fill="#8E623F"/>
<path fill-rule="evenodd" clip-rule="evenodd" d="M1235.3 1809.67C1264.56 1823.3 1282.23 1875.37 1283.63 1889.3C1280.09 1880.56 1267.91 1852.5 1251.53 1833.73C1237.85 1818.05 1219.08 1810.52 1220.98 1810.42C1225.52 1810.22 1228.96 1809.27 1235.3 1809.67Z" fill="#8E623F"/>
<path fill-rule="evenodd" clip-rule="evenodd" d="M1091.02 1804.38C1080.54 1812.71 1062.66 1831.93 1058.52 1844.66C1068.05 1830.99 1108.04 1805.97 1103.8 1805.97C1099.21 1805.97 1097.31 1805.22 1091.02 1804.38Z" fill="#8E623F"/>
<path fill-rule="evenodd" clip-rule="evenodd" d="M1133.61 1808.67C1104.35 1821.6 1086.73 1871.17 1085.28 1884.4C1088.82 1876.11 1101.05 1849.4 1117.43 1831.53C1131.06 1816.65 1149.88 1809.46 1147.93 1809.36C1143.39 1809.22 1139.95 1808.32 1133.61 1808.67Z" fill="#8E623F"/>
<path fill-rule="evenodd" clip-rule="evenodd" d="M1169.55 1810.31C1166.11 1818.65 1166.96 1836.37 1173.6 1849.1C1171.55 1835.38 1178.49 1816 1179.94 1810.61C1175.29 1810.61 1176.54 1811.11 1169.55 1810.31Z" fill="#8E623F"/>
<path fill-rule="evenodd" clip-rule="evenodd" d="M1364.71 1977.41C1361.51 1976.62 1344.44 2005.32 1336.35 2016.26C1339.8 2018.95 1360.91 2048.71 1365.21 2044.16C1377.49 2031.18 1382.98 2022.15 1390.17 2012.41C1376.99 1996.89 1364.71 1977.41 1364.71 1977.41Z" fill="#DBB070"/>
<path fill-rule="evenodd" clip-rule="evenodd" d="M1281.03 1977.41C1277.84 1976.62 1260.82 2005.32 1252.68 2016.26C1256.17 2018.95 1277.24 2048.71 1281.53 2044.16C1293.82 2031.18 1299.36 2022.15 1306.55 2012.41C1293.32 1996.89 1281.03 1977.41 1281.03 1977.41Z" fill="#DBB070"/>
<path fill-rule="evenodd" clip-rule="evenodd" d="M1201.8 1978.26C1198.61 1977.52 1181.53 2006.22 1173.4 2017.11C1176.89 2019.8 1198.01 2049.61 1202.3 2045.06C1214.58 2032.08 1220.08 2023 1227.27 2013.31C1214.03 1997.79 1201.8 1978.26 1201.8 1978.26Z" fill="#DBB070"/>
<path fill-rule="evenodd" clip-rule="evenodd" d="M1120.78 1979.16C1117.58 1978.41 1100.51 2007.07 1092.42 2018C1095.86 2020.7 1116.98 2050.46 1121.28 2045.91C1133.56 2032.93 1139.05 2023.9 1146.24 2014.21C1133.06 1998.63 1120.78 1979.16 1120.78 1979.16Z" fill="#DBB070"/>
<path fill-rule="evenodd" clip-rule="evenodd" d="M1052.97 1975.62C1049.78 1974.87 1032.7 2003.57 1024.62 2014.51C1028.06 2017.15 1049.18 2046.96 1053.47 2042.42C1065.76 2029.43 1071.25 2020.35 1078.44 2010.66C1065.26 1995.14 1052.97 1975.62 1052.97 1975.62Z" fill="#DBB070"/>
<path fill-rule="evenodd" clip-rule="evenodd" d="M1102.3 1931.39C1078.79 1921.75 1001.26 1952.81 919.327 1954.8C818.677 1957.25 712.985 1932.14 712.136 1933.14C711.836 1933.59 726.914 2011.92 725.816 2103.43C724.767 2193.4 707.293 2296.54 740.843 2296.54C798.607 2296.54 869.601 2269.98 935.752 2269.98C998.958 2269.98 1057.27 2296.54 1112.49 2296.54C1112.49 2226.05 1101.01 2151.16 1098.06 2075.32C1096.11 2025.05 1102.3 1969.98 1102.3 1931.39Z" fill="#F28454"/>
<path fill-rule="evenodd" clip-rule="evenodd" d="M712.136 1931.59C711.736 1931.24 726.914 2010.37 725.816 2101.88C724.767 2191.85 707.293 2295 740.843 2295C798.607 2295 869.601 2268.43 935.752 2268.43C998.958 2268.43 1057.27 2295 1112.49 2295C968.603 2194.65 870.1 2285.11 803.849 2230.74C693.264 2140.03 815.532 2015.56 712.136 1931.59Z" fill="#ED7839"/>
<path fill-rule="evenodd" clip-rule="evenodd" d="M968.852 1950.51C977.139 1957.45 991.368 1973.47 994.613 1984.11C987.074 1972.67 955.322 1951.86 958.667 1951.86C962.362 1951.86 963.859 1951.21 968.852 1950.51Z" fill="#ED7839"/>
<path fill-rule="evenodd" clip-rule="evenodd" d="M935.001 1954.1C958.217 1964.89 972.247 2006.23 973.395 2017.26C970.549 2010.37 960.863 1988.1 947.882 1973.18C937.048 1960.74 922.12 1954.75 923.618 1954.7C927.262 1954.55 930.008 1953.75 935.001 1954.1Z" fill="#ED7839"/>
<path fill-rule="evenodd" clip-rule="evenodd" d="M820.474 1949.91C812.137 1956.5 797.958 1971.72 794.713 1981.86C802.252 1970.98 834.004 1951.16 830.66 1951.16C826.964 1951.15 825.466 1950.56 820.474 1949.91Z" fill="#ED7839"/>
<path fill-rule="evenodd" clip-rule="evenodd" d="M854.271 1953.3C831.055 1963.54 817.076 2002.88 815.928 2013.41C818.774 2006.82 828.459 1985.65 841.44 1971.47C852.274 1959.64 867.201 1953.9 865.654 1953.85C862.059 1953.7 859.314 1953 854.271 1953.3Z" fill="#ED7839"/>
<path fill-rule="evenodd" clip-rule="evenodd" d="M882.828 1954.6C880.082 1961.19 880.781 1975.27 886.023 1985.36C884.425 1974.52 889.917 1959.09 891.066 1954.8C887.372 1954.8 888.37 1955.25 882.828 1954.6Z" fill="#ED7839"/>
<path fill-rule="evenodd" clip-rule="evenodd" d="M1066.66 2084.56C1063.46 2083.76 1046.44 2112.46 1038.3 2123.4C1041.79 2126.09 1062.86 2155.85 1067.2 2151.31C1079.44 2138.33 1084.98 2129.29 1092.17 2119.55C1078.94 2104.03 1066.66 2084.56 1066.66 2084.56Z" fill="#FAA064"/>
<path fill-rule="evenodd" clip-rule="evenodd" d="M983.029 2084.56C979.834 2083.76 962.759 2112.46 954.622 2123.4C958.117 2126.09 979.235 2155.85 983.529 2151.31C995.81 2138.33 1001.3 2129.29 1008.49 2119.55C995.261 2104.03 983.029 2084.56 983.029 2084.56Z" fill="#FAA064"/>
<path fill-rule="evenodd" clip-rule="evenodd" d="M903.75 2085.41C900.555 2084.66 883.53 2113.36 875.392 2124.25C878.887 2126.94 899.955 2156.75 904.249 2152.21C916.531 2139.22 922.073 2130.14 929.262 2120.45C916.032 2104.93 903.75 2085.41 903.75 2085.41Z" fill="#FAA064"/>
<path fill-rule="evenodd" clip-rule="evenodd" d="M822.771 2086.3C819.526 2085.55 802.501 2114.21 794.364 2125.15C797.859 2127.84 818.927 2157.6 823.271 2153.05C835.553 2140.07 841.044 2131.04 848.234 2121.35C835.003 2105.77 822.771 2086.3 822.771 2086.3Z" fill="#FAA064"/>
<path fill-rule="evenodd" clip-rule="evenodd" d="M754.971 2082.76C751.776 2082.01 734.701 2110.71 726.564 2121.65C730.059 2124.29 751.127 2154.1 755.471 2149.56C767.753 2136.58 773.244 2127.49 780.434 2117.8C767.203 2102.28 754.971 2082.76 754.971 2082.76Z" fill="#F59251"/>
<path fill-rule="evenodd" clip-rule="evenodd" d="M617.93 2923.3C616.614 2936.28 596.739 3139.47 551.724 3097.84C533.48 3080.91 484.201 2924.43 511.035 2924.43C529.153 2924.43 604.827 2915.02 617.93 2923.3Z" fill="#9F704B"/>
<path fill-rule="evenodd" clip-rule="evenodd" d="M2016.98 2975.02C2015.6 2988 1995.79 3191.19 1950.77 3149.5C1932.47 3132.57 1883.25 2976.08 1910.09 2976.08C1928.14 2976.08 2003.88 2966.68 2016.98 2975.02Z" fill="#9F704B"/>
<path fill-rule="evenodd" clip-rule="evenodd" d="M1730.09 3373.32C1728.71 3386.3 1708.89 3589.5 1663.88 3547.8C1645.57 3530.88 1596.29 3374.39 1623.19 3374.39C1641.25 3374.39 1716.98 3364.98 1730.09 3373.32Z" fill="#9F704B"/>
<path fill-rule="evenodd" clip-rule="evenodd" d="M1329.34 2715.08C1542.44 2707.81 1708.33 2792.95 1954.97 2877.78C1976.98 2885.3 2028.76 2883.67 2047.32 2905.55C2069.27 2931.44 2055.85 2982.29 2050.77 3006.93C2036.35 3077.21 1924.56 3135.64 1851.46 3184.48C1787.2 3227.49 1818.73 3356.52 1732.15 3385.36C1349.08 3512.94 668.4 3393.01 618.056 3187.87C598.432 3107.81 682.005 3021.41 589.655 3013.89C557.618 3011.26 471.161 3014.58 471.85 2913.51C472.477 2823.11 568.84 2744.05 794.606 2789C980.248 2826.05 1145.01 2721.42 1329.34 2715.08Z" fill="#DE9342"/>
<path fill-rule="evenodd" clip-rule="evenodd" d="M1328.21 2626.62C1541.31 2619.35 1707.26 2704.49 1953.9 2789.32C2001.87 2805.81 2058.98 2872.95 2049.7 2918.47C2035.28 2988.75 1923.43 3047.18 1850.39 3096.02C1786.07 3139.03 1817.6 3268.06 1731.02 3296.9C1348.02 3424.48 707.081 3315.65 656.799 3110.44C637.175 3030.38 698.554 2972.76 606.204 2965.24C574.167 2962.61 478.87 2959.1 470.719 2897.84C458.744 2808.19 567.772 2655.59 793.538 2700.54C979.18 2737.53 1143.88 2632.96 1328.21 2626.62Z" fill="#FACE87"/>
<path fill-rule="evenodd" clip-rule="evenodd" d="M756.113 2831.95C796.99 2868.88 656.302 2890.51 679.248 2840.61C685.706 2826.56 732.915 2828.63 748.903 2830.89L756.113 2831.95ZM749.342 2835.15C782.633 2865.24 668.026 2882.86 686.772 2842.17C691.976 2830.76 730.471 2832.45 743.449 2834.34L749.342 2835.15Z" fill="#FFD99C"/>
<path fill-rule="evenodd" clip-rule="evenodd" d="M780.628 2820.29C849.028 2882.04 613.794 2918.22 652.227 2834.71C663.011 2811.32 741.944 2814.77 768.59 2818.59L780.628 2820.29ZM769.342 2825.68C825.015 2875.96 633.355 2905.43 664.703 2837.4C673.48 2818.34 737.806 2821.17 759.498 2824.24L769.342 2825.68Z" fill="#FFD99C"/>
<path fill-rule="evenodd" clip-rule="evenodd" d="M802.257 2810.01C894.858 2893.64 576.303 2942.61 628.403 2829.57C642.948 2797.91 749.844 2802.55 785.957 2807.69L802.257 2810.01ZM786.896 2817.28C862.381 2885.43 602.885 2925.31 645.267 2833.21C657.179 2807.38 744.263 2811.2 773.667 2815.4L786.896 2817.28Z" fill="#FFD99C"/>
<path fill-rule="evenodd" clip-rule="evenodd" d="M845.453 2789.5C986.455 2916.84 501.443 2991.38 580.691 2819.28C602.948 2771.01 765.705 2778.09 820.626 2785.99L845.453 2789.5ZM822.13 2800.6C936.988 2904.3 541.881 2965.05 606.458 2824.8C624.577 2785.49 757.115 2791.26 801.942 2797.72L822.13 2800.6Z" fill="#FFD99C"/>
<path fill-rule="evenodd" clip-rule="evenodd" d="M891.218 2767.81C1083.51 2941.35 422.194 3043.04 530.218 2808.38C560.562 2742.55 782.442 2752.2 857.425 2762.92L891.218 2767.81ZM859.432 2782.92C1016.04 2924.3 477.241 3007.18 565.328 2815.96C590.03 2762.36 770.781 2770.19 831.846 2778.97L859.432 2782.92Z" fill="#FFD99C"/>
<path fill-rule="evenodd" clip-rule="evenodd" d="M1627.08 2931.2C1662.94 2984.55 1485.14 2987.43 1531.22 2928.81C1544.13 2912.39 1600.37 2923.04 1618.8 2928.69L1627.08 2931.2ZM1617.74 2934.08C1646.95 2977.53 1502.13 2979.91 1539.62 2932.14C1550.15 2918.72 1595.98 2927.43 1610.96 2932.01L1617.74 2934.08Z" fill="#FFD99C"/>
<path fill-rule="evenodd" clip-rule="evenodd" d="M1660.99 2920.85C1720.93 3010 1423.69 3014.83 1500.68 2916.84C1522.25 2889.38 1616.29 2907.25 1647.07 2916.59L1660.99 2920.85ZM1645.38 2925.61C1694.16 2998.28 1452.03 3002.23 1514.79 2922.35C1532.34 2899.97 1608.96 2914.52 1634.03 2922.17L1645.38 2925.61Z" fill="#FFD99C"/>
<path fill-rule="evenodd" clip-rule="evenodd" d="M1690.84 2911.7C1771.97 3032.39 1369.59 3038.97 1473.79 2906.25C1503 2869.07 1630.34 2893.27 1672.03 2905.99L1690.84 2911.7ZM1669.65 2918.22C1735.79 3016.53 1407.96 3021.86 1492.85 2913.77C1516.67 2883.42 1620.37 2903.17 1654.35 2913.52L1669.65 2918.22Z" fill="#FFD99C"/>
<path fill-rule="evenodd" clip-rule="evenodd" d="M1736.67 2897.97C1851.15 3068.19 1283.57 3077.4 1430.59 2890.32C1471.84 2837.84 1651.34 2871.95 1710.15 2889.88L1736.67 2897.97ZM1706.83 2907.12C1800.05 3045.74 1337.74 3053.33 1457.49 2900.85C1491.09 2858.09 1637.3 2885.93 1685.2 2900.54L1706.83 2907.12Z" fill="#FFD99C"/>
<path fill-rule="evenodd" clip-rule="evenodd" d="M1074.67 3120.6C1012.28 3176.9 1226.83 3209.88 1191.72 3133.7C1181.94 3112.39 1109.96 3115.52 1085.64 3118.97L1074.67 3120.6ZM1084.95 3125.49C1034.17 3171.32 1208.9 3198.22 1180.37 3136.21C1172.35 3118.78 1113.73 3121.35 1093.91 3124.17L1084.95 3125.49Z" fill="#FFD99C"/>
<path fill-rule="evenodd" clip-rule="evenodd" d="M1037.24 3102.79C932.977 3196.96 1291.59 3252.07 1232.97 3124.8C1216.55 3089.13 1096.24 3094.33 1055.61 3100.16L1037.24 3102.79ZM1054.48 3111.01C969.591 3187.68 1261.75 3232.64 1213.98 3128.94C1200.56 3099.85 1102.57 3104.11 1069.46 3108.88L1054.48 3111.01Z" fill="#FFD99C"/>
<path fill-rule="evenodd" clip-rule="evenodd" d="M1004.32 3087.18C863.134 3214.64 1348.71 3289.25 1269.34 3116.96C1247.08 3068.62 1084.2 3075.71 1029.15 3083.61L1004.32 3087.18ZM1027.65 3098.28C912.664 3202.1 1308.21 3262.92 1243.57 3122.54C1225.45 3083.17 1092.73 3088.94 1047.9 3095.33L1027.65 3098.28Z" fill="#FFD99C"/>
<path fill-rule="evenodd" clip-rule="evenodd" d="M938.429 3055.9C723.509 3249.94 1462.81 3363.61 1342 3101.23C1308.08 3027.69 1060.06 3038.47 976.234 3050.51L938.429 3055.9ZM973.977 3072.76C798.869 3230.88 1401.18 3323.48 1302.75 3109.75C1275.17 3049.82 1073.1 3058.6 1004.82 3068.38L973.977 3072.76Z" fill="#FFD99C"/>
<path fill-rule="evenodd" clip-rule="evenodd" d="M868.651 3022.8C575.613 3287.37 1583.63 3442.42 1418.93 3084.62C1372.72 2984.3 1034.48 2999.04 920.25 3015.4L868.651 3022.8ZM917.177 3045.81C678.433 3261.35 1499.68 3387.62 1365.45 3096.15C1327.83 3014.46 1052.29 3026.43 959.183 3039.79L917.177 3045.81Z" fill="#FFD99C"/>
<path fill-rule="evenodd" clip-rule="evenodd" d="M1673.22 3033.95C1591.59 3059.53 1343.82 3050.82 1367.01 2918.03C1402 2718.28 2080.49 2906.06 1673.22 3033.95ZM1669.46 3030.13C1591.21 3054.64 1353.72 3046.31 1375.98 2918.97C1409.46 2727.56 2059.86 2907.56 1669.46 3030.13Z" fill="#FFD99C"/>
<path fill-rule="evenodd" clip-rule="evenodd" d="M1691.09 3053.27C1593.03 3084.05 1295.35 3073.58 1323.25 2913.96C1365.26 2674.02 2180.42 2899.67 1691.09 3053.27ZM1686.64 3048.69C1592.66 3078.16 1307.27 3068.13 1334.04 2915.15C1374.29 2685.12 2155.72 2901.42 1686.64 3048.69Z" fill="#FFD99C"/>
<path fill-rule="evenodd" clip-rule="evenodd" d="M1720.99 3085.43C1595.54 3124.8 1214.67 3111.39 1250.4 2907.25C1304.13 2600.29 2346.95 2888.94 1720.99 3085.43ZM1715.23 3079.54C1594.98 3117.34 1229.9 3104.49 1264.13 2908.76C1315.67 2614.53 2315.28 2891.2 1715.23 3079.54Z" fill="#FFD99C"/>
<path fill-rule="evenodd" clip-rule="evenodd" d="M1749.77 3116.46C1597.92 3164.11 1136.92 3147.94 1180.12 2900.79C1245.13 2529.2 2507.51 2878.6 1749.77 3116.46ZM1742.81 3109.38C1597.23 3155.08 1155.35 3139.47 1196.8 2902.61C1259.11 2546.37 2469.2 2881.36 1742.81 3109.38Z" fill="#FFD99C"/>
<path fill-rule="evenodd" clip-rule="evenodd" d="M1371.89 2866.58C1376.68 2852.87 1327.16 2838.21 1283.93 2824.5C1175.62 2790.1 1131.64 2772.01 1103.37 2768.3C1083.17 2768.72 1071.8 2775.71 1027.07 2794.07C987.131 2810.38 811.207 2870.01 798.791 2879.33C826.915 2898.24 1075.09 2999.12 1075.09 2999.12C1094.84 2993.37 1101.42 2981.85 1139.12 2971.85C1150.94 2968.83 1366.35 2882.48 1371.89 2866.58Z" fill="#978C86"/>
<path fill-rule="evenodd" clip-rule="evenodd" d="M1064.62 2933.47C1098.58 2944.57 1092.14 3008.17 1070.9 2995.69C1004.63 2956.36 882.262 2918.8 827.81 2887.27C826.314 2886.45 847.257 2872.88 830.203 2846.98C881.215 2859.04 1015.4 2926.48 1060.88 2933.05C1062.38 2933.19 1061.33 2932.51 1064.62 2933.47Z" fill="#FEE3B4"/>
<path fill-rule="evenodd" clip-rule="evenodd" d="M1363.36 2816.96C1384.45 2825.6 1387 2863.7 1367.25 2879.46C1324.77 2913.32 1075.69 2998.3 1075.09 2999.12C1079.73 2999.12 1088.11 2966.09 1067.31 2948.41C1062.82 2944.57 1142.86 2909.21 1151.09 2905.23C1178.16 2892.35 1346.61 2820.25 1363.36 2816.96Z" fill="#809689"/>
<path fill-rule="evenodd" clip-rule="evenodd" d="M1363.36 2816.97C1289.61 2786.4 1202.25 2733.49 1121.46 2722.94C1089.3 2723.62 831.25 2830.81 813 2845.34C840.375 2864.12 1067.31 2948.41 1067.31 2948.41C1086.46 2942.65 1100.07 2932.24 1136.87 2922.37C1148.24 2919.22 1357.97 2833 1363.36 2816.97Z" fill="#9ACBC8"/>
<path fill-rule="evenodd" clip-rule="evenodd" d="M1334.94 2800.92C1339.13 2788.86 1295.59 2776.11 1257.6 2763.91C1162.31 2733.62 1123.41 2717.72 1098.73 2714.57C1080.93 2714.84 1070.9 2721.01 1031.41 2737.19C996.404 2751.58 841.573 2803.94 830.652 2812.16C855.335 2828.75 1073.74 2917.57 1073.74 2917.57C1091.1 2912.49 1096.93 2902.35 1130.14 2893.58C1140.46 2890.97 1330.15 2815.04 1334.94 2800.92Z" fill="#F86E56"/>
<path fill-rule="evenodd" clip-rule="evenodd" d="M1064.47 2859.86C1094.39 2869.59 1088.7 2925.65 1070.16 2914.55C1011.81 2879.87 903.955 2846.98 856.234 2819.15C854.888 2818.47 873.288 2806.54 858.328 2783.79C903.207 2794.34 1021.24 2853.69 1061.18 2859.45C1062.68 2859.59 1061.63 2858.9 1064.47 2859.86Z" fill="#FEE3B4"/>
<path fill-rule="evenodd" clip-rule="evenodd" d="M1327.46 2757.34C1346.01 2764.87 1348.1 2798.46 1330.9 2812.3C1293.35 2842.18 1074.19 2916.88 1073.74 2917.57C1077.93 2917.57 1085.26 2888.51 1066.86 2873.02C1062.97 2869.59 1133.43 2838.48 1140.61 2835.05C1164.4 2823.68 1312.65 2760.21 1327.46 2757.34Z" fill="#E75637"/>
<path fill-rule="evenodd" clip-rule="evenodd" d="M1327.46 2757.33C1316.09 2746.23 1289.16 2732.39 1252.21 2720.33C1159.46 2690.03 1138.67 2677.7 1114.43 2674.55C1086.16 2675.09 859.225 2769.53 843.069 2782.14C867.154 2798.73 1066.86 2873.02 1066.86 2873.02C1083.77 2867.95 1095.73 2858.76 1128.05 2849.99C1138.22 2847.25 1322.67 2771.45 1327.46 2757.33Z" fill="#F86E56"/>
<path fill-rule="evenodd" clip-rule="evenodd" d="M1140.76 2681.26C1135.08 2685.1 1126.4 2688.25 1118.62 2688.12C1107.25 2687.98 1094.24 2682.08 1093.94 2679.21C1105.61 2674.41 1113.83 2673.18 1117.42 2673.45C1123.71 2674 1129.09 2676.33 1140.76 2681.26Z" fill="#EEC562"/>
<path fill-rule="evenodd" clip-rule="evenodd" d="M875.981 2797.77C898.42 2782.01 870.895 2767.75 869.997 2768.44C855.337 2775.43 840.228 2780.23 843.07 2782.14C848.156 2785.71 863.714 2794.34 875.981 2797.77Z" fill="#EEC562"/>
<path fill-rule="evenodd" clip-rule="evenodd" d="M1226.63 2751.99C1221.39 2750.07 1140.61 2720.05 1130.29 2713.2C1123.11 2708.4 1106.06 2714.43 1131.34 2723.89C1149.74 2730.61 1211.52 2764.46 1229.32 2761.86C1233.51 2761.17 1231.71 2753.77 1226.63 2751.99Z" fill="#FE8D7D"/>
<path fill-rule="evenodd" clip-rule="evenodd" d="M1175.02 2753.91C1171.73 2752.68 1120.72 2733.76 1114.28 2729.51C1109.65 2726.36 1098.88 2730.2 1114.88 2736.23C1126.55 2740.48 1165.44 2761.86 1176.66 2760.21C1179.51 2759.8 1178.31 2755.14 1175.02 2753.91Z" fill="#FE8D7D"/>
<path fill-rule="evenodd" clip-rule="evenodd" d="M1675.15 2802.68C1677.39 2818.71 1672.16 2830.64 1662.43 2839H1542.16C1534.98 2831.32 1533.03 2819.4 1533.33 2801.03C1542.91 2790.89 1562.2 2786.5 1574.17 2785.41C1589.43 2784.04 1667.22 2781.57 1675.15 2802.68Z" fill="#809689"/>
<path fill-rule="evenodd" clip-rule="evenodd" d="M1678.14 2783.76C1697.14 2822.41 1579.56 2826.52 1546.2 2810.35C1507.15 2791.43 1552.03 2769.78 1576.12 2768.13C1591.22 2767.04 1670.06 2767.58 1678.14 2783.76Z" fill="#9AB3B1"/>
<path fill-rule="evenodd" clip-rule="evenodd" d="M1655.55 2786.78C1668.72 2813.37 1587.64 2816.25 1564.6 2805.15C1537.67 2792.12 1568.64 2777.18 1585.24 2775.95C1595.71 2775.26 1650.02 2775.68 1655.55 2786.78Z" fill="#809689"/>
<path fill-rule="evenodd" clip-rule="evenodd" d="M1631.91 2581.59C1629.82 2598.86 1628.92 2809.39 1628.92 2809.39C1628.62 2809.39 1592.87 2815.01 1573.27 2806.65C1577.76 2793.22 1584.34 2586.66 1588.38 2575.55C1590.92 2568.7 1604.69 2566.92 1612.32 2567.47C1623.83 2568.43 1632.36 2578.3 1631.91 2581.59Z" fill="#F08478"/>
<path fill-rule="evenodd" clip-rule="evenodd" d="M1612.47 2567.88C1629.97 2570.07 1632.96 2578.3 1631.77 2582.55C1629.67 2590.22 1586.44 2591.04 1587.94 2577.89C1588.38 2574.05 1599.45 2566.24 1612.47 2567.88Z" fill="#FCE085"/>
<path fill-rule="evenodd" clip-rule="evenodd" d="M1618 2510.18C1613.96 2499.21 1607.83 2485.64 1606.03 2485.92C1604.09 2486.33 1606.33 2502.09 1600.05 2515.8C1591.67 2534.44 1595.86 2540.47 1606.03 2556.51C1625.18 2548.56 1624.28 2526.63 1618 2510.18Z" fill="#EEC562"/>
<path fill-rule="evenodd" clip-rule="evenodd" d="M1611.72 2544.85C1609.18 2548.83 1612.62 2576.38 1610.37 2576.38C1604.69 2576.38 1606.33 2577.34 1605.59 2565.96C1605.44 2564.04 1603.94 2546.63 1605.44 2545.95C1607.68 2545.13 1611.27 2545.54 1611.72 2544.85Z" fill="#51301D"/>
<path fill-rule="evenodd" clip-rule="evenodd" d="M1290.66 2478.96C1281.53 2473.89 1268.52 2485.54 1256.1 2480.6C1252.06 2478.96 1235.91 2477.59 1234.41 2480.47C1232.91 2483.07 1234.56 2483.62 1238.6 2486.91C1245.18 2492.25 1230.67 2491.57 1236.51 2496.5C1240.1 2499.52 1241.14 2499.79 1242.04 2500.34C1242.79 2500.89 1243.69 2500.61 1243.54 2506.64C1243.54 2512.26 1262.24 2508.43 1268.97 2503.49C1283.33 2492.94 1289.31 2481.97 1290.06 2480.46C1290.66 2479.51 1290.81 2479.09 1290.66 2478.96Z" fill="#F08478"/>
<path fill-rule="evenodd" clip-rule="evenodd" d="M1305.91 2478.82C1321.77 2467.17 1328.65 2436.47 1346.16 2419.61C1351.84 2413.99 1355.13 2395.76 1350.19 2391.92C1345.41 2388.35 1339.12 2391.37 1327.75 2394.39C1311.3 2398.77 1313.39 2379.45 1299.78 2386.3C1291.55 2390.41 1290.36 2391.78 1288.56 2392.88C1287.22 2393.7 1287.07 2395.34 1274.5 2392.19C1262.83 2389.31 1278.54 2422.35 1280.03 2426.32C1281.98 2430.98 1300.38 2475.26 1302.92 2477.31C1304.72 2478.68 1305.46 2479.09 1305.91 2478.82Z" fill="#F08478"/>
<path fill-rule="evenodd" clip-rule="evenodd" d="M1302.93 2480.19C1283.03 2476.49 1261.49 2452.09 1237.7 2444.42C1229.77 2441.81 1217.66 2427.01 1220.2 2421.53C1222.59 2416.46 1229.77 2416.32 1241.29 2414.26C1258.05 2411.25 1246.68 2395.07 1262.24 2395.35C1278.54 2395.76 1270.01 2410.15 1292.3 2391.51C1301.28 2383.97 1299.04 2418.51 1299.63 2422.62C1300.38 2427.56 1306.07 2474.85 1304.87 2477.59C1303.97 2479.51 1303.37 2480.33 1302.93 2480.19Z" fill="#F86E56"/>
<path fill-rule="evenodd" clip-rule="evenodd" d="M1303.37 2486.08C1306.66 2485.12 1308.61 2478.41 1311.75 2477.17C1323.87 2471.97 1336.73 2469.91 1344.66 2460.45C1353.94 2449.21 1365.01 2431.53 1356.78 2418.24C1352.29 2411.11 1340.62 2428.52 1324.61 2403.02C1320.13 2396.03 1306.81 2395.89 1306.81 2417.14C1306.81 2441.81 1309.21 2449.35 1298.73 2473.2C1296.49 2478.13 1299.03 2482.66 1302.47 2485.95L1303.37 2486.08Z" fill="#F1AB9A"/>
<path fill-rule="evenodd" clip-rule="evenodd" d="M1296.64 2490.19C1293.95 2487.59 1292.9 2482.65 1289.61 2482.65C1267.32 2482.38 1259.09 2467.71 1245.03 2464.15C1226.33 2459.22 1216.91 2444.28 1225.13 2430.98C1229.47 2423.85 1240.24 2436.19 1256.25 2410.69C1260.59 2403.7 1277.94 2413.57 1277.94 2434.82C1277.94 2459.49 1288.11 2449.35 1298.74 2473.2C1300.83 2478.13 1301.13 2486.77 1297.69 2490.06L1296.64 2490.19Z" fill="#F1AB9A"/>
<path fill-rule="evenodd" clip-rule="evenodd" d="M1321.62 2424.13C1328.21 2407.41 1312.35 2397.27 1298.59 2404.53C1292.9 2407.68 1286.77 2417.14 1279.14 2412.48C1262.38 2401.79 1272.7 2427.97 1272.7 2434C1272.7 2465.94 1279.14 2457.16 1298.14 2484.17C1303.52 2454.01 1311.6 2449.63 1321.62 2424.13Z" fill="#FE8D7D"/>
<path fill-rule="evenodd" clip-rule="evenodd" d="M1382.96 2647.69C1363.36 2656.73 1363.96 2654.13 1366.65 2688.4C1369.79 2728.69 1406.74 2772.42 1415.12 2813.81C1430.08 2888.1 1419.76 2924.7 1414.22 3002.55H1303.82C1303.97 2934.43 1306.22 2853.83 1320.28 2788.45C1329.7 2744.32 1334.79 2710.05 1331.2 2659.2C1330.75 2654.13 1311.3 2650.98 1311 2645.36C1310.11 2629.87 1364.26 2630 1376.08 2633.16C1386.85 2636.04 1392.83 2643.16 1382.96 2647.69Z" fill="#547241"/>
<path fill-rule="evenodd" clip-rule="evenodd" d="M1361.12 2644.12C1359.92 2647.82 1335.09 2650.15 1335.54 2643.3C1335.99 2637.68 1363.81 2635.35 1361.12 2644.12Z" fill="#9ACBC8"/>
<path fill-rule="evenodd" clip-rule="evenodd" d="M1309.36 2478.55C1308.16 2478 1303.52 2480.88 1298.58 2481.29C1295.44 2481.56 1290.51 2481.29 1289.61 2482.66C1288.56 2484.03 1291.7 2487.18 1297.54 2493.9C1304.12 2501.3 1295.59 2531.04 1304.42 2567.09C1308.16 2581.89 1318.03 2601.49 1328.05 2615.06C1332.54 2621.09 1335.23 2641.38 1342.86 2647.55C1348.25 2647.69 1348.55 2648.1 1353.48 2647.41C1347.35 2642.75 1346.6 2632.61 1319.23 2586.42C1302.47 2558.04 1306.36 2500.48 1306.36 2491.43C1306.36 2488.41 1311.6 2479.78 1309.36 2478.55Z" fill="#A1B24A"/>
<path fill-rule="evenodd" clip-rule="evenodd" d="M1322.97 2598.34C1329.7 2579.29 1314.44 2556.4 1346.46 2541.32C1375.03 2528.02 1404.8 2547.76 1432.17 2530.22C1435.31 2528.3 1446.53 2579.29 1359.32 2579.29C1348.55 2579.29 1320.28 2606.15 1322.97 2598.34Z" fill="#CCDA6A"/>
<path fill-rule="evenodd" clip-rule="evenodd" d="M1330.9 2621.23C1312.65 2610.41 1308.61 2583.81 1273.45 2590.67C1242.04 2596.7 1252.36 2653.31 1219 2655.64C1215.26 2655.91 1274.5 2682.91 1289.61 2627.54C1292.15 2617.94 1338.38 2625.62 1330.9 2621.23Z" fill="#CCDA6A"/>
<path fill-rule="evenodd" clip-rule="evenodd" d="M1303.07 2548.45C1296.04 2535.57 1304.12 2517.88 1279.74 2510.35C1257.9 2503.49 1241.74 2542.01 1220.2 2532.28C1217.8 2531.18 1243.53 2567.64 1274.95 2538.44C1280.48 2533.37 1305.77 2553.66 1303.07 2548.45Z" fill="#CCDA6A"/>
<path fill-rule="evenodd" clip-rule="evenodd" d="M1328.51 3011.32C1321.92 3003.51 1305.32 3010.36 1295.6 3001.59C1292.45 2998.71 1277.94 2992.27 1275.4 2994.46C1273.01 2996.38 1274.2 2997.48 1276.75 3001.86C1280.79 3008.99 1267.47 3003.51 1271.21 3010.09C1273.31 3014.06 1274.2 3014.61 1274.8 3015.57C1275.25 3016.26 1276.3 3016.39 1273.75 3021.88C1271.51 3027.22 1290.51 3029.69 1298.74 3027.22C1316.24 3022.01 1326.11 3013.65 1327.46 3012.56C1328.36 3011.87 1328.66 3011.46 1328.51 3011.32Z" fill="#F08478"/>
<path fill-rule="evenodd" clip-rule="evenodd" d="M1439.8 3027.63C1439.8 3027.5 1455.06 3032.02 1468.67 3027.63C1481.39 3023.52 1492.76 3010.64 1492.91 3010.77C1495.3 3012.83 1493.96 3013.79 1491.56 3018.18C1487.37 3025.3 1500.69 3019.82 1497.1 3026.4C1494.85 3030.38 1493.96 3030.92 1493.36 3031.88C1492.91 3032.57 1492.01 3032.71 1494.4 3038.19C1496.65 3043.53 1477.65 3046 1469.42 3043.53C1451.92 3038.33 1442.2 3029.96 1440.85 3028.87C1439.95 3028.18 1439.65 3027.77 1439.8 3027.63Z" fill="#F1AB9A"/>
<path fill-rule="evenodd" clip-rule="evenodd" d="M1434.98 1124.75C1329.97 1130.34 1232.46 898.117 1430.99 898.117C1599.82 898.117 1542.37 1119.09 1434.98 1124.75Z" fill="#FACE87"/>
<path fill-rule="evenodd" clip-rule="evenodd" d="M1445.87 0C1448.26 229.723 1447.3 683.217 1446.83 904.963H1421.11C1420.75 715.898 1421.53 145.192 1421.76 0H1445.87Z" fill="#8E623F"/>
<path fill-rule="evenodd" clip-rule="evenodd" d="M1341.28 580.173C1343.31 695.422 1327.71 857.103 1175.43 866.032C1007.8 875.914 871.657 976.756 865.288 1069.5C864.752 1076.82 1999.92 1078.19 1999.32 1069.86C1992.95 977.113 1856.75 876.211 1689.17 866.389C1536.72 857.4 1521.24 695.48 1523.32 580.172L1341.28 580.173Z" fill="#9A7D65"/>
<path fill-rule="evenodd" clip-rule="evenodd" d="M1334.26 560.644C1385.22 558.322 1485.76 559.275 1534.99 559.751V585.468C1493.02 585.825 1366.47 584.992 1334.26 584.813V560.644Z" fill="#DBB070"/>
<path fill-rule="evenodd" clip-rule="evenodd" d="M1903.36 1055.1L1902.05 1053.97C1883.53 1037.89 1864.9 1021.82 1846.86 1005.33L1863.53 992.235C1869.6 997.295 1880.86 1007.65 1892.7 1017.89C1896.99 1021.58 1901.33 1025.33 1905.44 1028.84C1909.73 1025.39 1914.31 1021.76 1918.78 1018.13C1931.81 1007.59 1944.25 996.997 1950.86 991.758L1966.1 1004.5C1953.24 1015.45 1917.76 1044.5 1903.95 1055.57L1903.36 1055.1Z" fill="#A68E7B"/>
<path fill-rule="evenodd" clip-rule="evenodd" d="M1745.43 1055.1L1744.12 1053.97C1725.66 1037.89 1707.03 1021.82 1688.99 1005.33L1705.66 992.235C1711.67 997.295 1722.98 1007.65 1734.83 1017.89C1739.12 1021.58 1743.46 1025.33 1747.51 1028.84C1751.86 1025.39 1756.38 1021.76 1760.9 1018.13C1773.88 1007.59 1786.38 996.997 1792.99 991.758L1808.23 1004.5C1795.37 1015.45 1759.83 1044.5 1746.02 1055.57L1745.43 1055.1Z" fill="#A68E7B"/>
<path fill-rule="evenodd" clip-rule="evenodd" d="M1587.56 1055.1L1586.25 1053.97C1567.73 1037.89 1549.1 1021.82 1531.06 1005.33L1547.73 992.235C1553.8 997.295 1565.05 1007.65 1576.9 1017.89C1581.18 1021.58 1585.53 1025.33 1589.64 1028.84C1593.92 1025.39 1598.51 1021.76 1602.97 1018.13C1616.01 1007.59 1628.45 996.997 1635.06 991.758L1650.3 1004.5C1637.44 1015.45 1601.96 1044.5 1588.15 1055.57L1587.56 1055.1Z" fill="#A68E7B"/>
<path fill-rule="evenodd" clip-rule="evenodd" d="M1429.62 1055.1L1428.31 1053.97C1409.86 1037.89 1391.23 1021.82 1373.19 1005.33L1389.86 992.235C1395.87 997.295 1407.18 1007.65 1419.03 1017.89C1423.31 1021.58 1427.66 1025.33 1431.71 1028.84C1436.05 1025.39 1440.58 1021.76 1445.1 1018.13C1458.08 1007.59 1470.58 996.997 1477.19 991.758L1492.43 1004.5C1479.57 1015.45 1444.03 1044.5 1430.22 1055.57L1429.62 1055.1Z" fill="#A68E7B"/>
<path fill-rule="evenodd" clip-rule="evenodd" d="M1271.75 1055.1L1270.44 1053.97C1251.93 1037.89 1233.3 1021.82 1215.26 1005.33L1231.93 992.235C1238 997.295 1249.25 1007.65 1261.1 1017.89C1265.38 1021.58 1269.73 1025.33 1273.84 1028.84C1278.12 1025.39 1282.71 1021.76 1287.23 1018.13C1300.21 1007.59 1312.71 996.997 1319.32 991.758L1334.5 1004.5C1321.64 1015.45 1286.16 1044.5 1272.35 1055.57L1271.75 1055.1Z" fill="#A68E7B"/>
<path fill-rule="evenodd" clip-rule="evenodd" d="M1113.82 1055.1L1112.51 1053.97C1094.06 1037.89 1075.42 1021.82 1057.39 1005.33L1074.06 992.235C1080.07 997.295 1091.38 1007.65 1103.22 1017.89C1107.51 1021.58 1111.86 1025.33 1115.96 1028.84C1120.25 1025.39 1124.77 1021.76 1129.3 1018.13C1142.34 1007.59 1154.78 996.997 1161.38 991.758L1176.62 1004.5C1163.77 1015.45 1128.23 1044.5 1114.48 1055.57L1113.88 1055.1H1113.82Z" fill="#A68E7B"/>
<path fill-rule="evenodd" clip-rule="evenodd" d="M955.948 1055.1L954.638 1053.97C936.125 1037.89 917.551 1021.82 899.454 1005.33L916.182 992.235C922.195 997.295 933.446 1007.65 945.292 1017.89C949.578 1021.58 953.924 1025.33 958.031 1028.84C962.377 1025.39 966.902 1021.76 971.426 1018.13C984.404 1007.59 996.904 996.997 1003.51 991.758L1018.69 1004.5C1005.83 1015.45 970.353 1044.5 956.543 1055.57L955.948 1055.1Z" fill="#A68E7B"/>
<path fill-rule="evenodd" clip-rule="evenodd" d="M1496.06 631.067L1495.52 630.591C1487.84 623.745 1480.04 616.959 1472.54 609.934L1479.51 604.398C1482.01 606.541 1486.71 610.946 1491.65 615.292C1493.44 616.84 1495.22 618.447 1496.95 619.935C1498.74 618.447 1500.64 616.899 1502.49 615.351C1507.9 610.886 1513.08 606.422 1515.82 604.219L1522.19 609.636C1516.83 614.22 1502.07 626.542 1496.3 631.245L1496.06 631.007V631.067H1496.06Z" fill="#A68E7B"/>
<path fill-rule="evenodd" clip-rule="evenodd" d="M1430.34 631.067L1429.8 630.591C1422.13 623.745 1414.39 616.959 1406.89 609.934L1413.79 604.398C1416.35 606.541 1420.99 610.946 1425.93 615.292C1427.72 616.84 1429.51 618.447 1431.23 619.935C1433.02 618.447 1434.92 616.899 1436.77 615.351C1442.19 610.886 1447.42 606.422 1450.16 604.219L1456.47 609.636C1451.12 614.22 1436.35 626.542 1430.64 631.245L1430.4 631.007L1430.34 631.067Z" fill="#A68E7B"/>
<path fill-rule="evenodd" clip-rule="evenodd" d="M1364.68 631.067L1364.14 630.591C1356.46 623.745 1348.73 616.959 1341.17 609.934L1348.13 604.398C1350.63 606.541 1355.33 610.946 1360.27 615.292C1362.06 616.84 1363.85 618.447 1365.57 619.935C1367.36 618.447 1369.26 616.899 1371.11 615.351C1376.53 610.886 1381.7 606.422 1384.44 604.219L1390.81 609.636C1385.45 614.22 1370.69 626.542 1364.92 631.245L1364.68 631.007V631.067Z" fill="#A68E7B"/>
</svg>
