<svg width="3117" height="3092" viewBox="0 0 3117 3092" fill="none" xmlns="http://www.w3.org/2000/svg">
<path fill-rule="evenodd" clip-rule="evenodd" d="M1374.95 1835.67C884.585 1835.67 330.323 1961.19 321.65 2336.68C316.325 2572.35 878.803 2797.07 1419.52 2802.09C1971.2 2807.11 2501.42 2587.72 2516.33 2353.87C2534.59 2065.26 2061.42 1835.67 1374.95 1835.67Z" fill="#F7DBC9"/>
<path fill-rule="evenodd" clip-rule="evenodd" d="M1386.81 1964.23C1026.84 1964.23 619.853 2056.28 613.615 2331.97C609.507 2504.96 1022.58 2669.88 1419.37 2673.53C1824.38 2677.33 2213.72 2516.37 2224.52 2344.6C2237.91 2132.66 1890.72 1964.23 1386.81 1964.23Z" fill="#E5A488"/>
<path fill-rule="evenodd" clip-rule="evenodd" d="M1390.31 2003.03C1069.9 2003.03 707.639 2085.19 702.009 2330.45C698.358 2484.57 1066.09 2631.39 1419.37 2634.74C1779.95 2637.93 2126.54 2494.61 2136.12 2341.71C2148.14 2153.05 1838.99 2003.03 1390.31 2003.03Z" fill="#FFD1AB"/>
<path fill-rule="evenodd" clip-rule="evenodd" d="M2372.26 2359.5C2417.44 2349.01 2438.13 2342.16 2486.21 2327.4C2434.18 2309.6 2410.59 2308.23 2374.69 2299.41C2339.39 2308.54 2306.53 2310.06 2255.71 2328.16C2304.85 2342.62 2326 2349.31 2371.95 2359.35L2372.1 2359.2C2372.1 2359.35 2372.1 2359.5 2372.26 2359.5Z" fill="#EEC562"/>
<path fill-rule="evenodd" clip-rule="evenodd" d="M470.903 2359.5C516.242 2349.01 536.782 2342.16 584.859 2327.4C532.978 2309.6 509.245 2308.23 473.49 2299.41C438.193 2308.54 405.176 2310.06 354.512 2328.16C403.655 2342.62 424.65 2349.31 470.75 2359.35V2359.2C470.903 2359.35 470.903 2359.5 470.903 2359.5Z" fill="#EEC562"/>
<path fill-rule="evenodd" clip-rule="evenodd" d="M1442.5 1904.29C1432.46 1885.88 1425.76 1877.51 1411.31 1857.88C1393.05 1878.27 1391.53 1887.85 1382.56 1902C1391.23 1916.31 1392.44 1929.54 1410.25 1950.39C1425.16 1930.91 1432 1922.54 1442.35 1904.44C1442.35 1904.29 1442.35 1904.29 1442.2 1904.29C1442.5 1904.29 1442.5 1904.29 1442.5 1904.29Z" fill="#EEC562"/>
<path fill-rule="evenodd" clip-rule="evenodd" d="M1442.5 2730.89C1432.46 2712.48 1425.76 2704.11 1411.31 2684.48C1393.05 2705.02 1391.53 2714.46 1382.56 2728.61C1391.23 2742.91 1392.44 2756.3 1410.25 2776.99C1425.16 2757.51 1432 2749.3 1442.35 2731.04C1442.35 2731.04 1442.35 2731.04 1442.2 2731.04C1442.5 2731.04 1442.5 2730.89 1442.5 2730.89Z" fill="#EEC562"/>
<path fill-rule="evenodd" clip-rule="evenodd" d="M1215.72 305.984C1214.34 368.077 1214.92 490.664 1215.21 550.626H1229.84C1229.99 499.459 1229.55 345.226 1229.48 305.984H1215.72Z" fill="#F2AE66"/>
<path fill-rule="evenodd" clip-rule="evenodd" d="M1226.28 571.746C1203.72 576.276 1201.1 548.028 1220.02 545.23C1239.09 542.431 1245.63 567.882 1226.28 571.746Z" fill="#8E623F"/>
<path fill-rule="evenodd" clip-rule="evenodd" d="M1641.39 1869.78C1625.38 1990.96 1199.35 1962.58 1200.3 1869.98C1201.17 1789.89 1376.71 1794.16 1429.32 1795.09C1535.58 1796.82 1648.67 1814.74 1641.39 1869.78Z" fill="#8E623F"/>
<path fill-rule="evenodd" clip-rule="evenodd" d="M1641.97 1860.71C1625.96 1981.97 1199.86 1953.58 1200.88 1860.91C1201.68 1780.9 1377.21 1785.16 1429.83 1786.03C1536.08 1787.83 1649.18 1805.75 1641.97 1860.71Z" fill="#E69845"/>
<path fill-rule="evenodd" clip-rule="evenodd" d="M1405.02 427.641C1402.1 791.805 1403.27 1510.67 1403.85 1862.24H1435.29C1435.73 1562.5 1434.78 657.825 1434.49 427.641H1405.02Z" fill="#F2AE66"/>
<path fill-rule="evenodd" clip-rule="evenodd" d="M1321.9 1.05212C1422.48 0.919124 1373.58 1.71812 1494.53 0.453125C1517.67 55.8171 1712.79 463.02 1710.67 463.02C1663.66 463.02 1092.59 475.679 1100.88 457.69C1109.54 438.768 1286.68 62.2791 1321.9 1.05212Z" fill="#CAD3E6"/>
<path fill-rule="evenodd" clip-rule="evenodd" d="M1144.98 466.68C1174.02 371.741 1270.81 178.133 1306.11 99.9844C1266.96 212.311 1221.62 348.09 1173.51 466.68H1144.98Z" fill="#B6C1D9"/>
<path fill-rule="evenodd" clip-rule="evenodd" d="M1646.92 464.285C1622.54 369.413 1535.36 175.739 1503.92 97.6562C1537.54 209.983 1576.11 345.762 1618.32 464.285H1646.92Z" fill="#B6C1D9"/>
<path fill-rule="evenodd" clip-rule="evenodd" d="M1238.65 466.68C1251.97 371.741 1316.59 178.133 1338.93 99.9844C1318.41 212.311 1295.7 348.09 1267.25 466.68H1238.65Z" fill="#B6C1D9"/>
<path fill-rule="evenodd" clip-rule="evenodd" d="M1320.81 465.481C1319.58 370.609 1354.51 176.935 1364.84 98.8516C1361.57 211.113 1359.68 346.891 1349.42 465.481H1320.81Z" fill="#B6C1D9"/>
<path fill-rule="evenodd" clip-rule="evenodd" d="M1562.87 464.887C1549.55 370.015 1484.92 176.341 1462.58 98.2578C1483.1 210.518 1505.88 346.364 1534.27 464.887H1562.87Z" fill="#B6C1D9"/>
<path fill-rule="evenodd" clip-rule="evenodd" d="M1480.7 463.751C1481.94 368.812 1447.01 175.205 1436.67 97.0547C1439.95 209.382 1441.91 345.161 1452.1 463.751H1480.7Z" fill="#B6C1D9"/>
<path fill-rule="evenodd" clip-rule="evenodd" d="M1381.14 465.481C1373.5 370.609 1395.41 176.935 1400.43 98.8516C1404.72 211.113 1412 346.891 1409.74 465.481H1381.14Z" fill="#B6C1D9"/>
<path fill-rule="evenodd" clip-rule="evenodd" d="M1120.63 1507.8C1123.79 1515 1316.43 2320.75 1254.57 2165.06C1170.23 1952.56 1106.94 1727.1 1063.12 1538.42C1059.95 1524.81 1107.58 1498.86 1120.63 1507.8Z" fill="#9F704B"/>
<path fill-rule="evenodd" clip-rule="evenodd" d="M290.758 1507.8C287.593 1515 94.9583 2320.75 156.823 2165.06C241.234 1952.56 304.444 1727.1 348.271 1538.42C351.436 1524.81 303.811 1498.86 290.758 1507.8Z" fill="#9F704B"/>
<path fill-rule="evenodd" clip-rule="evenodd" d="M667.167 1645.61C665.901 1653.37 686.707 2479.68 706.484 2312.52C733.54 2084.52 736.784 1850.51 730.613 1657.4C730.138 1643.48 677.451 1633.03 667.167 1645.61Z" fill="#9F704B"/>
<path fill-rule="evenodd" clip-rule="evenodd" d="M1294.43 1469.19C1251.32 1825.67 104.527 1742.21 107.217 1469.83C109.511 1234.47 581.883 1247.05 723.571 1249.58C1009.56 1254.8 1313.98 1307.49 1294.43 1469.19Z" fill="#8E623F"/>
<path fill-rule="evenodd" clip-rule="evenodd" d="M1295.86 1442.69C1252.75 1799.16 105.952 1715.7 108.563 1443.24C110.857 1207.89 583.308 1220.55 724.917 1223.08C1010.98 1228.3 1315.4 1280.99 1295.86 1442.69Z" fill="#E69845"/>
<path fill-rule="evenodd" clip-rule="evenodd" d="M1089.54 945.11C1132.41 1151.25 1231.83 1098.07 1200 1412.43C1181.09 1423.47 908.678 1427.03 908.678 1392.21C908.678 1267.51 967.655 1128.59 1038.61 1027.49C1052.28 1008.02 1042.92 962.147 1040.86 954.658C1034.87 955.22 1024.01 950.165 1030.37 942.488C1039.36 931.441 1095.34 923.578 1097.21 938.182C1097.59 940.43 1094.41 944.549 1089.54 945.11Z" fill="#FACE87"/>
<path fill-rule="evenodd" clip-rule="evenodd" d="M1062.2 937.809C1042.55 940.056 1050.6 947.732 1053.22 947.545C1074.75 945.485 1076.81 942.115 1075.68 940.056C1074.56 938.184 1073.63 936.499 1062.2 937.809Z" fill="#526138"/>
<path fill-rule="evenodd" clip-rule="evenodd" d="M1059.21 910.844C1066.89 908.41 1041.05 865.348 1036.74 852.242C1019.14 798.883 983.382 805.435 955.298 741.778C953.238 737.285 930.771 797.197 946.311 828.651C959.417 855.05 1016.71 846.625 1030.94 865.722C1033.18 868.718 1057.34 907.286 1059.21 910.844Z" fill="#89AB76"/>
<path fill-rule="evenodd" clip-rule="evenodd" d="M1008.1 716.695C1014.65 735.605 1039.55 747.775 1050.04 771.178C1071.38 818.546 1055.09 892.875 1069.13 945.299C1069.13 945.486 1056.96 947.171 1056.96 947.171C1054.34 921.895 1055.65 879.208 1053.78 838.58C1052.66 811.432 1051.91 783.723 1040.86 768.557C1030.75 754.515 1017.64 747.588 1012.21 739.537C988.812 705.087 1006.79 713.325 1008.1 716.695Z" fill="#A1B24A"/>
<path fill-rule="evenodd" clip-rule="evenodd" d="M1011.09 726.242C989.559 659.589 981.695 683.554 949.68 631.318C947.808 628.322 943.314 658.279 957.169 678.686C970.275 697.784 995.363 704.337 1011.09 726.242Z" fill="#CCDA6A"/>
<path fill-rule="evenodd" clip-rule="evenodd" d="M1054.71 798.326C983.944 728.678 989.56 763.876 915.044 719.316C910.738 716.695 924.78 757.323 955.672 773.799C984.692 789.339 1020.45 781.101 1054.71 798.326Z" fill="#CCDA6A"/>
<path fill-rule="evenodd" clip-rule="evenodd" d="M1062.2 857.863C1054.53 855.804 1072.5 822.664 1076.06 809.184C1090.85 755.075 1095.91 734.106 1120.62 668.951C1122.49 664.27 1148.14 723.06 1134.29 755.075C1122.49 782.223 1096.65 785.219 1079.43 813.303C1077.37 816.486 1063.89 854.305 1062.2 857.863Z" fill="#CCDA6A"/>
<path fill-rule="evenodd" clip-rule="evenodd" d="M1062.95 946.236C1066.32 938.934 1027.38 894.374 1014.65 888.945C962.975 867.039 881.157 848.504 887.898 997.162C888.085 1002.22 908.68 961.589 928.9 958.968C958.108 955.224 959.98 901.864 1020.83 902.238C1024.57 902.237 1059.21 945.299 1062.95 946.236Z" fill="#89AB76"/>
<path fill-rule="evenodd" clip-rule="evenodd" d="M1062.39 942.304C1058.65 935.189 1076.25 896.434 1097.4 892.689C1144.02 884.638 1171.17 890.442 1191.76 963.648C1197.01 982.558 1195.32 997.91 1201.31 1024.12C1100.02 1022.25 1155.63 905.046 1087.67 908.978C1083.92 909.165 1066.14 941.181 1062.39 942.304Z" fill="#89AB76"/>
<path fill-rule="evenodd" clip-rule="evenodd" d="M568.766 1625.04C522.681 1607.13 386.863 1531.83 340.985 1509.92C293.518 1487.24 162.881 1478.72 154.34 1472.42C154.547 1469.91 422.936 1249.1 423.282 1249.17C506.775 1262.5 751.498 1353.89 811.787 1400.55C816.161 1424.47 595.539 1592.53 568.766 1625.04Z" fill="#8E623F"/>
<path fill-rule="evenodd" clip-rule="evenodd" d="M355.074 1503.03C423.19 1492.9 492.364 1564.1 555.324 1603.35C555.324 1603.35 792.774 1392.14 785.476 1391.02C784.831 1390.9 750.049 1372.39 740.334 1369.47C699.036 1357.13 672.633 1322.97 632.877 1309.27C555.231 1282.5 461.126 1255.7 376.597 1261.25C375.377 1261.32 376.643 1269.7 371.924 1276.74C308.85 1370.71 191.08 1432.8 171.352 1467.14C198.446 1466.68 285.3 1451.1 323.191 1476.74C339.65 1487.88 328.992 1496.74 340.203 1500.66C343.288 1501.74 347.915 1502.52 355.074 1503.03Z" fill="#F2CD91"/>
<path fill-rule="evenodd" clip-rule="evenodd" d="M559.719 1270.14C687.824 1248.75 639.644 1298.13 756.101 1356.85C773.918 1365.83 793.969 1357.82 739.112 1404.37C699.656 1437.84 592.982 1545.55 571.228 1580.93C560.938 1597.64 479.125 1473.91 432.188 1467.46C398.188 1462.81 395.356 1476.37 350.744 1475.54C349.64 1475.52 515.889 1305.43 559.719 1270.14Z" fill="#F7D59E"/>
<path fill-rule="evenodd" clip-rule="evenodd" d="M559.719 1270.14C475.581 1178.4 384.607 1264.06 359.677 1266.2C281.847 1350.39 165.528 1430.1 161.96 1457.22C159.635 1474.83 299.135 1398.57 350.746 1475.55C351.343 1476.44 529.839 1311.62 559.719 1270.14Z" fill="#FCDCA9"/>
<path fill-rule="evenodd" clip-rule="evenodd" d="M355.072 1503.03C356.315 1488.66 340.224 1485.35 333.387 1489.49C333.41 1498.45 339.189 1500.26 340.041 1500.77C342.942 1502.52 347.545 1502.27 355.072 1503.03Z" fill="#DBB070"/>
<path fill-rule="evenodd" clip-rule="evenodd" d="M726.199 1385.22C700.071 1374.74 659.188 1345.07 631.426 1314.11C587.136 1264.73 542.385 1294.13 542.777 1294.06C555.714 1291.73 576.248 1289.94 591.464 1295.6C609.857 1302.46 627.904 1314.71 638.263 1329.92C659.097 1360.56 715.104 1401.61 726.199 1385.22Z" fill="#DBB070"/>
<path fill-rule="evenodd" clip-rule="evenodd" d="M702.629 1408.03C676.525 1397.56 635.641 1367.88 607.856 1336.92C563.589 1287.54 518.838 1316.94 519.23 1316.87C532.167 1314.55 552.701 1312.75 567.917 1318.41C586.31 1325.27 604.357 1337.52 614.693 1352.74C635.549 1383.38 691.557 1424.42 702.629 1408.03Z" fill="#DBB070"/>
<path fill-rule="evenodd" clip-rule="evenodd" d="M678.848 1435.26C652.72 1424.77 611.837 1395.12 584.075 1364.13C539.785 1314.78 495.034 1344.17 495.426 1344.08C508.363 1341.78 528.92 1339.98 544.113 1345.65C562.506 1352.51 580.576 1364.75 590.912 1379.97C611.769 1410.61 667.753 1451.65 678.848 1435.26Z" fill="#DBB070"/>
<path fill-rule="evenodd" clip-rule="evenodd" d="M656.105 1461.75C629.978 1451.26 589.117 1421.59 561.332 1390.62C517.042 1341.27 472.291 1370.64 472.683 1370.57C485.643 1368.25 506.177 1366.48 521.37 1372.14C539.786 1379 557.833 1391.24 568.169 1406.44C589.025 1437.1 645.032 1478.15 656.105 1461.75Z" fill="#DBB070"/>
<path fill-rule="evenodd" clip-rule="evenodd" d="M627.375 1486.34C601.248 1475.87 560.364 1446.2 532.602 1415.23C488.312 1365.86 443.561 1395.25 443.953 1395.18C456.89 1392.86 477.424 1391.06 492.64 1396.73C511.033 1403.59 529.103 1415.83 539.439 1431.05C560.272 1461.69 616.28 1502.73 627.375 1486.34Z" fill="#DBB070"/>
<path fill-rule="evenodd" clip-rule="evenodd" d="M601.617 1508.16C575.49 1497.66 534.629 1467.99 506.844 1437.03C462.554 1387.68 417.803 1417.07 418.195 1416.98C431.155 1414.68 451.689 1412.88 466.882 1418.54C485.275 1425.4 503.346 1437.65 513.681 1452.87C534.537 1483.51 590.521 1524.55 601.617 1508.16Z" fill="#DBB070"/>
<path fill-rule="evenodd" clip-rule="evenodd" d="M580.621 1535.56C554.493 1525.06 513.61 1495.39 485.848 1464.43C441.558 1415.05 396.807 1444.45 397.199 1444.38C410.136 1442.05 430.693 1440.26 445.886 1445.94C464.279 1452.8 482.35 1465.05 492.685 1480.24C513.541 1510.91 569.525 1551.93 580.621 1535.56Z" fill="#DBB070"/>
<path fill-rule="evenodd" clip-rule="evenodd" d="M211.293 1415.46C238.019 1415.55 257.08 1412.47 284.542 1405.63C350.839 1389.17 371.901 1436.92 371.602 1436.64C361.934 1427.85 345.498 1415.44 329.269 1411.94C309.633 1407.68 288.133 1410.61 269.555 1414.84C262.189 1416.5 211.293 1422.25 211.293 1415.46Z" fill="#DBB070"/>
<path fill-rule="evenodd" clip-rule="evenodd" d="M247.456 1386.21C273.077 1388.51 290.895 1383.81 317.943 1379.58C383.204 1369.29 398.56 1416.82 398.306 1416.55C389.927 1407.31 375.4 1394.06 360.207 1389.34C341.791 1383.63 320.889 1384.64 302.634 1387.15C295.384 1388.14 246.766 1392.7 247.456 1386.21Z" fill="#DBB070"/>
<path fill-rule="evenodd" clip-rule="evenodd" d="M340.272 1354.92C405.533 1344.63 420.887 1392.17 420.634 1391.89C412.255 1382.66 397.729 1369.4 382.536 1364.68C364.12 1358.97 343.218 1359.98 324.963 1362.49C293.172 1366.84 297.293 1363.78 275.171 1361.48C275.194 1361.25 331.731 1356.25 340.272 1354.92Z" fill="#DBB070"/>
<path fill-rule="evenodd" clip-rule="evenodd" d="M303.279 1331.76C328.9 1334.06 337.993 1332.31 365.041 1328.05C430.302 1317.79 445.656 1365.32 445.403 1365.02C437.024 1355.79 422.498 1342.53 407.305 1337.82C388.889 1332.11 367.987 1333.12 349.732 1335.63C342.504 1336.62 302.588 1338.25 303.279 1331.76Z" fill="#DBB070"/>
<path fill-rule="evenodd" clip-rule="evenodd" d="M391.561 1303.91C456.845 1293.64 472.199 1341.17 471.946 1340.9C463.544 1331.67 449.041 1318.39 433.825 1313.67C415.432 1307.96 394.507 1308.99 376.252 1311.48C344.485 1315.83 343.196 1312.86 321.096 1310.56C321.096 1310.44 338.867 1311.32 355.442 1309.84C371.971 1308.39 387.302 1304.57 391.561 1303.91Z" fill="#DBB070"/>
<path fill-rule="evenodd" clip-rule="evenodd" d="M345.614 1287.06C371.235 1289.36 388.478 1284.62 415.526 1280.36C480.787 1270.09 496.141 1317.63 495.888 1317.35C487.509 1308.12 472.982 1294.84 457.789 1290.12C439.373 1284.43 418.471 1285.45 400.216 1287.93C369.163 1292.19 376.691 1292.84 345.614 1287.06Z" fill="#DBB070"/>
<path fill-rule="evenodd" clip-rule="evenodd" d="M449.639 1255.34C514.9 1245.07 530.254 1292.6 530.001 1292.33C521.622 1283.1 507.096 1269.82 491.88 1265.12C473.487 1259.41 452.585 1260.42 434.33 1262.91C402.54 1267.28 399.915 1268.23 381.384 1264.94C388.452 1264.75 439.948 1256.88 449.639 1255.34Z" fill="#DBB070"/>
<path fill-rule="evenodd" clip-rule="evenodd" d="M1033.18 1543.57C1026.8 1565.9 1005.1 1590.17 971.167 1572.89C962.26 1568.36 938.021 1540.91 950.515 1513.19L1033.18 1543.57Z" fill="#CAD3E6"/>
<path fill-rule="evenodd" clip-rule="evenodd" d="M1177.31 1522.13C1149.8 1498.3 1063.84 1432.72 1054.15 1476.67C1048.26 1503.33 1060.32 1501.03 1060.07 1495.16C1057.42 1432.86 1150.11 1508.88 1177.04 1533.53C1180.9 1537.07 1181.52 1533.19 1177.31 1522.13Z" fill="#8E623F"/>
<path fill-rule="evenodd" clip-rule="evenodd" d="M1144.8 1480.62C1168.85 1480.62 1183 1504.87 1182.65 1527.68C1182.23 1554.34 1156.41 1597.59 1111.03 1574.48C1082.55 1559.96 1057.95 1480.62 1144.8 1480.62ZM1143.61 1485.98C1165.1 1485.98 1177.74 1507.63 1177.42 1528.02C1177.06 1551.84 1153.98 1590.47 1113.44 1569.82C1087.99 1556.86 1066.02 1485.98 1143.61 1485.98Z" fill="#8E623F"/>
<path fill-rule="evenodd" clip-rule="evenodd" d="M1175.45 1540.49C1169.08 1562.84 1147.38 1587.12 1113.44 1569.82C1104.56 1565.29 1080.3 1537.85 1092.79 1510.13L1175.45 1540.49Z" fill="#CAD3E6"/>
<path fill-rule="evenodd" clip-rule="evenodd" d="M980.553 1483.02C956.492 1483.02 942.355 1507.26 942.712 1530.07C943.123 1556.73 968.951 1599.97 1014.32 1576.87C1042.81 1562.36 1067.41 1483.02 980.553 1483.02ZM981.731 1488.37C960.258 1488.37 947.621 1510.02 947.924 1530.41C948.299 1554.22 971.378 1592.86 1011.91 1572.21C1037.35 1559.25 1059.34 1488.37 981.731 1488.37Z" fill="#8E623F"/>
<path fill-rule="evenodd" clip-rule="evenodd" d="M1085.88 1522.36C1081.38 1503.42 1048.58 1493.84 1036.99 1518.63C1033.46 1526.22 1037.46 1532.07 1039.72 1525.72C1044.08 1513.51 1056.11 1509.29 1064.18 1511.37C1074.23 1513.94 1083.67 1529.36 1084.72 1528.48C1084.78 1528.45 1085.88 1522.36 1085.88 1522.36Z" fill="#8E623F"/>
<path fill-rule="evenodd" clip-rule="evenodd" d="M943.607 1523.64C916.101 1499.82 830.156 1434.25 820.463 1478.2C814.573 1504.87 826.639 1502.56 826.389 1496.69C823.712 1434.4 916.404 1510.42 943.357 1535.07C947.213 1538.6 947.819 1534.71 943.607 1523.64Z" fill="#8E623F"/>
<path fill-rule="evenodd" clip-rule="evenodd" d="M2816.54 1699.11C2820.98 1716.13 2793.97 2054.54 2776.52 2069.46C2767.01 2077.63 2743.25 2082.17 2736.61 2062.77C2696.07 1944.45 2664.04 1841.95 2657.87 1700.4C2683.64 1700.4 2804.16 1715.55 2816.54 1699.11Z" fill="#8E623F"/>
<path fill-rule="evenodd" clip-rule="evenodd" d="M1697.08 1746.01C1701.52 1763.03 1674.51 2101.44 1657.06 2116.36C1647.55 2124.48 1623.79 2129.07 1617.14 2109.66C1576.61 1991.34 1544.58 1888.85 1538.41 1747.25C1564.13 1747.25 1684.65 1762.4 1697.08 1746.01Z" fill="#8E623F"/>
<path fill-rule="evenodd" clip-rule="evenodd" d="M2413.92 1832.96C2419.66 1853.61 2383.23 2264.02 2360.47 2282.14C2348.04 2292.04 2317.11 2297.58 2308.56 2274.01C2256.26 2130.55 2215.05 2006.21 2207.54 1834.49C2241.01 1834.49 2397.71 1852.9 2413.92 1832.96Z" fill="#8E623F"/>
<path fill-rule="evenodd" clip-rule="evenodd" d="M2865.78 1240.75C2866.11 1158.19 2780.11 984.986 2589.51 939.619C2355.88 884.021 2107.06 929.389 2079.14 1056.98C2039.36 1238.74 1723.51 1368.96 1643.72 1469.06C1563.65 1569.41 1566.37 1635.09 1572.54 1776.79C1605.1 1779.61 1677.71 1645.04 1940.88 1645.04C2151.61 1645.04 2457.99 1533.6 2658.06 1608.23C2782.12 1654.5 2854.35 1395.97 2865.78 1240.75Z" fill="#ED7839"/>
<path fill-rule="evenodd" clip-rule="evenodd" d="M2323.28 2079.83C2473.44 2055.83 2772.13 1896.35 2678.43 1699.68C2573.16 1478.53 1744.83 1568.79 1593.34 1756.85C1571.82 1783.53 1563.65 1866.14 1573.4 1893.58C1601.61 1973.13 2097.97 2053.77 2290.92 2084.37C2306.31 2086.81 2309.89 2081.98 2323.28 2079.83Z" fill="#ED7839"/>
<path fill-rule="evenodd" clip-rule="evenodd" d="M2340.01 1998.75C2490.17 1974.71 2788.81 1815.28 2695.16 1618.56C2574.93 1366.05 1511.69 1591.31 1590.14 1812.5C1618.34 1892 2114.71 1972.7 2307.65 2003.25C2323.04 2005.69 2326.63 2000.9 2340.01 1998.75Z" fill="#FAA064"/>
<path fill-rule="evenodd" clip-rule="evenodd" d="M2861.86 1295.25C2869.03 1362.7 2850.77 1825.22 2793.26 1864.09C2757.5 1888.18 2419.37 2097.28 2307.41 2083.95C2295.65 1535.47 2709.4 1615.55 2861.86 1295.25Z" fill="#F28454"/>
<path fill-rule="evenodd" clip-rule="evenodd" d="M2658.78 963.429C2797.32 1025.48 2885.38 1187.49 2861.86 1295.25C2755.06 1548.43 2397.62 1588.3 2324.81 1913.8C2319.07 1939.47 2309.32 2054.49 2307.41 2083.94C2283.5 2090.01 2257.93 2078.44 2241.82 2076.53C2231.64 1601.58 2503.36 1564.87 2746.02 1290.47C2809.89 1218.23 2735.12 1010.61 2583.87 969.261C2483.57 941.868 2338.05 933.694 2225.85 972.799C2124.12 1008.27 2109.49 1106.08 2049.59 1190.89C1979.03 1290.71 1789.67 1361.46 1698.65 1478.2C1587.79 1620.33 1577.13 1896.5 1573.4 1893.58C1470.76 1814.61 1552.94 1595.85 1602.18 1510.95C1669.01 1395.74 1828.49 1321.88 1938.25 1214.74C2007.52 1147.1 2061.88 1055.07 2112.36 998.136C2214.71 882.637 2531.71 906.492 2658.78 963.429Z" fill="#FFB17D"/>
<path fill-rule="evenodd" clip-rule="evenodd" d="M2074.72 2918.9C2080.25 2901.07 2021.4 2882.17 1969.87 2864.34C1840.77 2819.4 1788.17 2795.86 1754.65 2791.23C1730.58 2791.76 1717.02 2800.86 1663.53 2824.75C1616.1 2845.97 1406.22 2923.36 1391.6 2935.66C1425.12 2960.09 1720.77 3091.33 1720.95 3091.33C1744.31 3083.84 1752.15 3068.86 1797.09 3056.02C1811.17 3051.92 2068.12 2939.76 2074.72 2918.9Z" fill="#978C86"/>
<path fill-rule="evenodd" clip-rule="evenodd" d="M1708.29 3006.09C1748.94 3020.36 1741.1 3103.28 1715.96 3086.87C1636.96 3035.69 1490.92 2987.01 1426.2 2946C1424.41 2944.75 1449.38 2927.1 1429.05 2893.58C1489.85 2909.27 1649.8 2996.82 1703.83 3005.38C1705.79 3005.74 1704.37 3004.67 1708.29 3006.09Z" fill="#FEE3B4"/>
<path fill-rule="evenodd" clip-rule="evenodd" d="M2064.56 2854.52C2089.7 2865.58 2092.55 2915.33 2069.19 2935.66C2018.37 2979.88 1721.48 3090.43 1720.95 3091.32C1726.47 3091.32 1736.46 3048.53 1711.5 3025.53C1706.15 3020.36 1801.54 2974.35 1811.53 2969.36C1843.81 2952.42 2044.41 2858.8 2064.56 2854.52Z" fill="#809689"/>
<path fill-rule="evenodd" clip-rule="evenodd" d="M2064.56 2854.52C1976.65 2814.76 1872.34 2745.93 1776.05 2732.02C1737.71 2732.92 1430.3 2872.53 1408.36 2891.26C1441 2915.69 1711.5 3025.53 1711.5 3025.53C1734.32 3018.04 1750.55 3004.31 1794.41 2991.47C1808.14 2987.55 2058.14 2875.21 2064.56 2854.52Z" fill="#9ACBC8"/>
<path fill-rule="evenodd" clip-rule="evenodd" d="M2030.5 2833.49C2035.49 2817.79 1983.61 2801.21 1938.31 2785.52C1824.73 2746.11 1778.54 2725.25 1748.94 2721.15C1727.73 2721.68 1715.96 2729.71 1668.88 2750.57C1626.98 2769.29 1442.42 2837.41 1429.58 2848.29C1459.01 2869.86 1719.17 2985.23 1719.34 2985.23C1739.85 2978.63 1746.8 2965.44 1786.39 2954.21C1798.69 2950.64 2024.8 2851.85 2030.5 2833.49Z" fill="#ED7328"/>
<path fill-rule="evenodd" clip-rule="evenodd" d="M1708.29 2910.16C1743.95 2922.82 1737.17 2995.75 1714.88 2981.31C1645.34 2936.37 1516.96 2893.4 1459.9 2857.38C1458.29 2856.31 1480.4 2840.8 1462.39 2811.2C1515.89 2824.93 1656.75 2902.14 1704.18 2909.62C1705.97 2909.98 1704.9 2909.09 1708.29 2910.16Z" fill="#FEE3B4"/>
<path fill-rule="evenodd" clip-rule="evenodd" d="M2021.58 2776.78C2043.87 2786.59 2046.37 2830.28 2025.68 2848.29C1981.11 2887.16 1719.88 2984.52 1719.34 2985.23C1724.16 2985.23 1732.89 2947.61 1711.14 2927.28C1706.33 2922.82 1790.31 2882.34 1799.05 2877.89C1827.4 2863.09 2004.11 2780.7 2021.58 2776.78Z" fill="#ED7328"/>
<path fill-rule="evenodd" clip-rule="evenodd" d="M2021.58 2776.78C2008.03 2762.52 1975.93 2744.5 1931.89 2728.81C1821.34 2689.23 1796.55 2673.18 1767.84 2669.08C1734.14 2669.97 1463.46 2792.65 1444.38 2809.23C1472.91 2830.81 1710.96 2927.28 1711.14 2927.28C1731.11 2920.68 1745.37 2908.73 1784.07 2897.5C1796.02 2893.93 2016.06 2795.15 2021.58 2776.78Z" fill="#F68036"/>
<path fill-rule="evenodd" clip-rule="evenodd" d="M1799.05 2677.82C1792.27 2682.81 1782.11 2687.09 1772.84 2686.91C1759.29 2686.56 1743.77 2678.89 1743.24 2675.32C1757.15 2668.9 1766.95 2667.47 1771.23 2667.83C1778.72 2668.54 1785.14 2671.4 1799.05 2677.82Z" fill="#EEC562"/>
<path fill-rule="evenodd" clip-rule="evenodd" d="M1483.44 2829.56C1510.18 2808.88 1477.37 2790.33 1476.3 2791.23C1458.83 2800.32 1440.82 2806.56 1444.38 2809.24C1450.27 2813.69 1468.81 2824.93 1483.44 2829.56Z" fill="#EEC562"/>
<path fill-rule="evenodd" clip-rule="evenodd" d="M1901.4 2769.83C1895.16 2767.33 1799.05 2728.28 1786.57 2719.36C1778.01 2713.12 1757.68 2720.97 1787.81 2733.27C1809.75 2742.19 1883.39 2786.23 1904.61 2782.67C1909.78 2781.95 1907.64 2772.15 1901.4 2769.83Z" fill="#FE8D7D"/>
<path fill-rule="evenodd" clip-rule="evenodd" d="M1839.88 2772.5C1835.96 2770.89 1775.33 2746.29 1767.49 2740.58C1761.96 2736.66 1749.12 2741.65 1768.2 2749.32C1782.11 2755.02 1828.65 2782.66 1842.02 2780.52C1845.23 2779.99 1843.8 2773.93 1839.88 2772.5Z" fill="#FE8D7D"/>
<path fill-rule="evenodd" clip-rule="evenodd" d="M2171.87 2229.36C2199.24 2317.41 2665.22 2352.13 2729.84 2218.64C2759.33 2157.78 2152.98 2168.56 2171.87 2229.36Z" fill="#7D522E"/>
<path fill-rule="evenodd" clip-rule="evenodd" d="M2911.01 1582.22C2861.28 1663.26 2783.47 1745.78 2728.61 1828.18C2699.12 1872.39 2664.46 1960.2 2664.04 1960.5C2658.57 1885.28 2643.15 1826.36 2643.15 1727.71C2643.15 1723.3 2628.55 1645.9 2629.49 1575.21C2630.26 1519.83 2649.33 1465.44 2635.38 1476.86C2610.01 1497.64 2628.61 1658.02 2628.61 1716.65C2628.61 1863.68 2650.51 1844.37 2646.74 2018.77C2645.86 2059.08 2590.41 2116.53 2571.16 2170.74C2559.8 2202.58 2470.75 2271.74 2460.39 2334.42C2455.98 2361.14 2466.51 2339.13 2531.55 2357.61C2532.2 2357.79 2592.18 2242.66 2599.53 2232.54C2638.2 2179.16 2674.4 2126.24 2676.17 2060.03C2677.05 2027.48 2714.31 1844.19 2742.97 1826.18C2763.87 1813.06 2871.05 1792.16 2885.17 1788.16C2852.45 1776.8 2799.12 1796.17 2747.62 1812.65C2761.51 1800.7 2905.42 1617.18 2906.65 1588.81C2906.77 1585.33 2908.6 1586.1 2911.01 1582.22Z" fill="#53875F"/>
<path fill-rule="evenodd" clip-rule="evenodd" d="M2828.67 2067.32C2827.31 2056.43 2653.27 2016.7 2553.92 2068.67C2513.31 2089.92 2477.11 2099.93 2448.86 2141.36C2456.15 2129.83 2444.97 2077.86 2475.17 2033.83C2495.18 2004.64 2486.82 1956.31 2461.92 2011.94C2451.98 2034.12 2438.5 2128.53 2428.61 2161.61C2422.13 2183.45 2416.9 2174.56 2374.87 2238.3C2364.22 2209.64 2351.62 2153.49 2322.25 2099.69C2296.18 2051.96 2225.02 1947.84 2216.01 1869.26C2215.01 1860.79 2204.3 1737.6 2203.53 1737.54C2155.8 1732.3 2197.94 1717.7 2197.83 1827.94C2197.71 1926.53 2272.34 2038.77 2309.48 2114.88C2323.49 2143.54 2330.85 2174.27 2328.79 2186.74C2316.07 2187.63 2235.38 2136.66 2180.99 2092.63C2156.45 2072.79 2141.79 2050.66 2133.26 2041.78C2105.54 2013.11 2090.88 1985.8 2116.84 2040.01C2147.03 2103.11 2251.33 2154.67 2304.71 2196.87C2343.09 2227.18 2336.85 2236.36 2343.5 2317.7C2345.44 2341.01 2379.93 2327.83 2380.17 2327.71C2386.7 2234.24 2447.91 2179.44 2507.01 2114.29C2557.68 2058.43 2706.18 2028.95 2828.67 2067.32Z" fill="#41704C"/>
<path fill-rule="evenodd" clip-rule="evenodd" d="M2729.84 2218.65C2709.89 2263.91 2687.52 2335.95 2687.64 2355.79C2687.82 2386.98 2662.69 2665.15 2652.98 2771.44H2248.38C2236.38 2604.93 2225.08 2453.73 2214.54 2356.02C2214.31 2355.61 2194.29 2305.88 2170.22 2225.89C2227.96 2249.78 2326.31 2297.16 2441.26 2299.99C2574.81 2303.35 2712.13 2237.19 2729.84 2218.65Z" fill="#D68127"/>
<path fill-rule="evenodd" clip-rule="evenodd" d="M2741.91 2074.79C2749.8 2026.65 2747.56 2013.99 2812.3 2022.7C2898.06 2034.36 2966.22 2103.34 2992.94 2154.96C3011.83 2191.51 3032.96 2273.14 2994.18 2336.89C2986.94 2336.48 2989.64 2316.88 2974.28 2292.27C2940.97 2239.12 2941.2 2294.69 2941.2 2208.69C2941.2 2208.34 2924.96 2083.03 2910.77 2155.31C2909.01 2164.37 2918.9 2251.6 2914.42 2246.3C2905.01 2235.3 2611.13 2239.12 2726.37 2096.92C2734.44 2086.98 2741.38 2077.97 2741.91 2074.79Z" fill="#558373"/>
<path fill-rule="evenodd" clip-rule="evenodd" d="M3016.66 1763.38C3063.1 1810.99 3029.96 1752.37 2933.96 1840.54C2905 1867.14 3055.03 1799.87 3060.98 1830.53C3064.1 1846.66 3090.41 1942.84 3081.34 1942.13C3069.34 1941.13 2887.52 1822.59 3035.67 1966.5C3056.74 1986.92 3082.11 1999.4 3085.52 2013.82C3092.7 2044.42 3081.34 2079.27 3076.16 2135.01C3076.11 2135.83 2931.43 2034.01 2930.84 2016C2930.55 2006.52 2933.79 1839.66 2909.18 1877.39C2878.81 1924.06 2888.05 1957.79 2876.87 1963.67C2865.22 1969.79 2832.73 1946.07 2782.34 1888.98C2736.73 1837.13 2800.83 1787.98 2840.5 1786.27C2858.04 1667.85 2950.56 1695.63 3016.66 1763.38Z" fill="#558373"/>
<path fill-rule="evenodd" clip-rule="evenodd" d="M2950.09 1556.73C2987.58 1543.31 3028.2 1543.31 3065.98 1576.74C3071.34 1581.45 3064.04 1627.12 3079.05 1647.84C3079.87 1648.96 3116.31 1703.93 3116.48 1704.28C3113.78 1707.99 3097.83 1684.98 3068.93 1684.98C3049.98 1684.98 2989 1691.16 2976.28 1681.15C2934.08 1648.13 2964.28 1624.59 2883.7 1630.89C2865.81 1632.3 2894.53 1576.62 2950.09 1556.73Z" fill="#699C75"/>
<path fill-rule="evenodd" clip-rule="evenodd" d="M2686.52 1466.14C2708.24 1370.38 2616.72 1356.73 2591.88 1339.77C2590.76 1339.01 2534.79 1304.11 2534.43 1303.93C2530.84 1306.75 2554.27 1322.06 2555.03 1350.96C2555.56 1369.85 2539.03 1431.71 2554.56 1472.21C2573.69 1522.18 2601.83 1494.69 2614.3 1534.6C2619.6 1551.66 2673.52 1523.65 2686.52 1466.14Z" fill="#699C75"/>
<path fill-rule="evenodd" clip-rule="evenodd" d="M2405.66 2038.19C2385.7 1907.17 2490.12 1921.18 2524.49 1896.75C2526.96 1899.58 2504.95 1915.88 2504.42 1944.78C2504.07 1963.73 2504.83 2003.75 2494.41 2044.25C2481.52 2094.22 2448.09 2084.33 2439.68 2124.29C2436.08 2141.36 2414.37 2095.69 2405.66 2038.19Z" fill="#699C75"/>
<path fill-rule="evenodd" clip-rule="evenodd" d="M2223.25 1615.41C2307.42 1504.4 2500.89 1583.15 2500.36 1787.09C2452.62 1756.37 2467.87 1731.18 2376.64 1731.18C2300.65 1731.18 2299.06 1746.25 2295.3 1747.78C2284.88 1751.9 2452.21 1755.78 2465.28 1844.19C2466.28 1850.96 2373.64 1959.26 2372.87 1940.07C2371.34 1899.98 2325.67 1829 2282.7 1822.41C2292.94 1844.54 2327.84 1891.8 2331.32 1960.84C2281.11 1983.27 2250.8 2028.77 2250.15 2029.53C2249.56 2030.18 2247.92 1995.75 2197.42 1935.71C2187.12 1923.47 2147.86 1893.86 2132.85 1897.34C2132.85 1841.48 2251.09 1705.22 2109.66 1817.7C2087.47 1835.36 2099.48 1873.68 2019.49 1790.33C1941.32 1708.99 2175.28 1728.77 2153.09 1724.47C2135.97 1721.12 2096.94 1664.5 1992.12 1702.34C1972.58 1679.91 1950.45 1453.72 2223.25 1615.41Z" fill="#53875F"/>
<path fill-rule="evenodd" clip-rule="evenodd" d="M2141.09 2067.26C2229.26 2004.05 2121.61 1879.91 2038.32 1879.91C2033.73 1879.91 1984.41 1882.15 1946.56 1905.87C2019.19 1945.48 2047.27 2008.93 2016.66 1980.27C2005.36 1969.67 1950.09 1923 1895.77 1933.95C1862.86 1940.54 1850.92 1955.55 1831.02 2029.94C1830.32 2032.59 1923.49 1994.92 1942.68 2012.4C1948.33 2017.58 1939.03 2021.59 1895 2021.59C1770.75 2021.59 1790.29 2154.61 1792.35 2150.43C1794.29 2146.48 1842.44 2081.8 1936.55 2081.8C1927.31 2081.8 1844.32 2100.16 1803.71 2176.5C1786.47 2208.87 1779.87 2347.37 1805.89 2402.46C1810.42 2411.99 1863.16 2360.84 1889.53 2351.37C1860.27 2255.84 1911.36 2192.75 1917.48 2178.74C1922.37 2181.97 1882.88 2296.45 1924.96 2321.11C1965.34 2258.25 2030.67 2283.39 2035.61 2270.14C2042.2 2252.55 2040.14 2209.7 2072.16 2156.9C2094.18 2120.64 2090.41 2086.15 2088.29 2179.68C2086.23 2271.08 2044.38 2270.67 2142.2 2249.84C2290.12 2218.35 2244.62 2067.26 2141.09 2067.26ZM1984.05 2169.55C1985.41 2191.27 2016.31 2255.96 1973.34 2256.78C1949.27 2257.25 1979.93 2170.67 1984.05 2169.55ZM1878.17 2153.43C1852.57 2224 1867.87 2324.47 1824.9 2325.29C1800.83 2325.76 1807.07 2187.27 1878.17 2153.43Z" fill="#558373"/>
<path fill-rule="evenodd" clip-rule="evenodd" d="M78.2787 2165.77C84.8767 2249.51 541.953 2283.46 586.797 2155.96C622.199 2055.22 70.1247 2062.3 78.2787 2165.77Z" fill="#7D522E"/>
<path fill-rule="evenodd" clip-rule="evenodd" d="M507.298 1362.98C463.259 1413.19 490.669 1555.77 451.619 1644.39C395.671 1771.09 362.897 1872.25 386.552 2013.44C399.802 2092.77 405.756 2122.44 409.779 2206.38C412.193 2257.13 468.623 2206.54 484.769 2216.68C512.18 2110.63 441.051 1916.94 502.739 1716.1C533.314 1616.49 478.707 1436.47 507.298 1362.98Z" fill="#53875F"/>
<path fill-rule="evenodd" clip-rule="evenodd" d="M629.977 1780.42C510.143 1837.6 476.242 1907.23 464.119 2074C460.364 2125.76 426.678 2157.73 412.892 2211.11C404.578 2243.34 470.395 2219.21 484.074 2227.79C556.274 2135.15 494.051 1912.97 629.977 1780.42Z" fill="#89AB76"/>
<path fill-rule="evenodd" clip-rule="evenodd" d="M303.034 1470C259.531 1529.06 241.776 1726.14 339.349 2018.75C364.775 2095.03 339.349 2118.74 324.705 2218.78C317.356 2268.98 383.549 2218.94 399.695 2229.07C416.485 2164.01 408.6 2039.51 382.637 1928.58C346.322 1773.66 285.547 1620.09 303.034 1470Z" fill="#41704C"/>
<path fill-rule="evenodd" clip-rule="evenodd" d="M224.125 1363.73C258.133 1515.54 219.029 1744.53 250.999 1838.99C300.027 1983.77 330.871 2064.29 340.741 2235.46C343.584 2285.07 281.521 2250.69 266.287 2264.64C244.777 2211.59 209.696 2053.29 186.845 1939.14C170.484 1857.66 191.136 1761.48 181.427 1682.74C168.767 1580.18 189.258 1477.35 224.125 1363.73Z" fill="#557083"/>
<path fill-rule="evenodd" clip-rule="evenodd" d="M3.98544 1531.41C3.98544 1766.47 48.6686 1779.99 132.939 1996.91C162.066 2071.9 207.071 2164.06 211.094 2248.01C213.508 2298.75 269.938 2248.17 286.084 2258.3C326.315 2102.42 -5.93856 1646.9 3.98544 1531.41Z" fill="#699C75"/>
<path fill-rule="evenodd" clip-rule="evenodd" d="M323.737 2215.29C331.3 2090.46 346.32 2107.63 386.551 2013.43C397.708 1987.26 410.153 1908.62 426.621 1799.35C399.478 1846.02 357.96 1900.41 352.811 1953.03C345.999 2022.61 293.109 2007.32 279.591 2173.34C273.369 2249.45 254.219 2231.06 319.446 2221.35C322.075 2220.97 323.523 2218.83 323.737 2215.29Z" fill="#89AB76"/>
<path fill-rule="evenodd" clip-rule="evenodd" d="M595.108 2147.11C595.108 2345.96 695.363 2373.31 694.022 2444.17C693.754 2457.96 511.32 2754.22 510.355 2754.81C507.405 2756.58 137.979 2756.15 105.633 2753.31C104.238 2753.15 24.5809 2492.93 8.81091 2446.37C-23.5881 2350.46 50.5967 2357.22 77.5787 2158.7C130.416 2193.99 375.555 2264.9 595.108 2147.11Z" fill="#FACE87"/>
<path fill-rule="evenodd" clip-rule="evenodd" d="M590.227 2431.89C512.394 2431.89 48.7201 2441.28 3.7691 2424.81C3.1251 2424.54 75.38 2696.13 99.626 2759.91C100.216 2761.46 448.615 2754.81 510.356 2754.81C512.931 2754.81 579.231 2642.86 599.722 2618.94C614.581 2601.56 705.61 2453.19 694.023 2444.18C672.084 2427.17 624.665 2431.89 590.227 2431.89Z" fill="#D68127"/>
<path fill-rule="evenodd" clip-rule="evenodd" d="M554.716 2249.35C552.946 2268.02 525.857 2265.71 501.772 2266.3C497.803 2266.41 489.274 2254.02 503.006 2254.02C505.152 2254.02 521.083 2255.09 531.597 2252.78C545.865 2249.62 555.252 2243.4 554.716 2249.35Z" fill="#FCDCA9"/>
<path fill-rule="evenodd" clip-rule="evenodd" d="M533.904 2276.28C532.134 2295 505.099 2292.69 481.014 2293.23C476.991 2293.33 468.462 2280.94 482.248 2280.94C484.394 2280.94 500.325 2282.07 510.785 2279.71C525.053 2276.6 534.494 2270.32 533.904 2276.28Z" fill="#FCDCA9"/>
<path fill-rule="evenodd" clip-rule="evenodd" d="M484.392 2261.9C482.622 2280.57 455.587 2278.27 431.502 2278.86C427.479 2278.96 418.95 2266.57 432.736 2266.57C434.882 2266.57 450.813 2267.64 461.273 2265.34C475.542 2262.17 484.982 2255.95 484.392 2261.9Z" fill="#FCDCA9"/>
<path fill-rule="evenodd" clip-rule="evenodd" d="M142.003 2362.91C143.773 2381.58 170.808 2379.27 194.893 2379.86C198.916 2379.97 207.445 2367.53 193.659 2367.53C191.513 2367.53 175.636 2368.65 165.122 2366.35C150.854 2363.18 141.413 2356.96 142.003 2362.91Z" fill="#FCDCA9"/>
<path fill-rule="evenodd" clip-rule="evenodd" d="M162.762 2389.83C164.532 2408.5 191.621 2406.2 215.706 2406.78C219.675 2406.89 228.204 2394.5 214.472 2394.5C212.326 2394.5 196.395 2395.57 185.881 2393.27C171.613 2390.1 162.226 2383.88 162.762 2389.83Z" fill="#FCDCA9"/>
<path fill-rule="evenodd" clip-rule="evenodd" d="M212.273 2375.46C214.043 2394.13 241.078 2391.82 265.217 2392.41C269.186 2392.52 277.715 2380.07 263.983 2380.07C261.837 2380.07 245.906 2381.2 235.392 2378.89C221.124 2375.73 211.737 2369.5 212.273 2375.46Z" fill="#FCDCA9"/>
<path fill-rule="evenodd" clip-rule="evenodd" d="M93.1359 2300.9C94.9059 2319.62 121.941 2317.31 146.026 2317.9C150.049 2317.96 158.578 2305.57 144.792 2305.57C142.646 2305.57 126.715 2306.69 116.255 2304.39C101.987 2301.22 92.5459 2295 93.1359 2300.9Z" fill="#FCDCA9"/>
<path fill-rule="evenodd" clip-rule="evenodd" d="M113.894 2327.88C115.664 2346.55 142.699 2344.24 166.838 2344.83C170.807 2344.94 179.336 2332.55 165.55 2332.55C163.458 2332.55 147.527 2333.62 137.013 2331.31C122.745 2328.15 113.304 2321.93 113.894 2327.88Z" fill="#FCDCA9"/>
<path fill-rule="evenodd" clip-rule="evenodd" d="M163.405 2313.51C165.175 2332.17 192.21 2329.87 216.349 2330.46C220.318 2330.56 228.847 2318.12 215.062 2318.12C212.97 2318.12 197.039 2319.24 186.525 2316.94C172.256 2313.77 162.815 2307.55 163.405 2313.51Z" fill="#FCDCA9"/>
<path fill-rule="evenodd" clip-rule="evenodd" d="M422.919 2369.78C430.053 2387.16 455.265 2377.13 478.491 2370.69C482.353 2369.62 486.913 2355.29 473.771 2359.26C471.679 2359.91 456.767 2365.54 446.092 2366.4C431.502 2367.52 420.667 2364.25 422.919 2369.78Z" fill="#FCDCA9"/>
<path fill-rule="evenodd" clip-rule="evenodd" d="M450.653 2389.57C457.787 2406.95 482.998 2396.86 506.225 2390.43C510.034 2389.35 514.647 2375.03 501.451 2379.05C499.413 2379.64 484.501 2385.33 473.772 2386.14C459.182 2387.26 448.347 2384.04 450.653 2389.57Z" fill="#FCDCA9"/>
<path fill-rule="evenodd" clip-rule="evenodd" d="M493.832 2361.41C500.966 2378.79 526.177 2368.76 549.404 2362.32C553.266 2361.25 557.826 2346.93 544.63 2350.9C542.591 2351.54 527.679 2357.17 517.005 2358.03C502.415 2359.16 491.579 2355.88 493.832 2361.41Z" fill="#FCDCA9"/>
<path fill-rule="evenodd" clip-rule="evenodd" d="M574.079 2161.97C599.988 2142.23 640.808 2121.04 638.717 2083.01C638.019 2070.62 620.801 2072.44 609.912 2080.38C589.314 2095.34 578.425 2127.37 572.31 2125.12C559.865 2120.61 557.827 2117.44 576.548 2093.41C594.893 2069.87 624.128 2058.76 642.419 2064.23C658.94 2069.27 659.638 2094.22 653.63 2106.66C645.53 2123.34 600.096 2176.29 578.211 2175.91C577.083 2175.86 568.34 2166.37 574.079 2161.97Z" fill="#FACE87"/>
<path fill-rule="evenodd" clip-rule="evenodd" d="M99.5719 2170.28C73.6629 2150.54 32.8427 2129.35 34.9347 2091.32C35.6317 2078.93 52.8509 2080.75 63.7399 2088.69C84.3379 2103.66 95.2269 2135.68 101.343 2133.43C113.788 2128.92 115.826 2125.76 97.1049 2101.73C78.7599 2078.18 49.5248 2067.07 31.2338 2072.55C14.7128 2077.59 14.0148 2102.53 20.0768 2114.98C28.1228 2131.66 73.5568 2184.6 95.4428 2184.23C96.5678 2184.23 105.312 2174.68 99.5719 2170.28Z" fill="#FACE87"/>
<path fill-rule="evenodd" clip-rule="evenodd" d="M101.129 2484.51C102.953 2503.18 129.988 2500.87 154.073 2501.46C158.096 2501.57 166.625 2489.18 152.839 2489.18C150.693 2489.18 134.762 2490.25 124.302 2487.95C110.033 2484.78 100.592 2478.56 101.129 2484.51Z" fill="#E69845"/>
<path fill-rule="evenodd" clip-rule="evenodd" d="M121.941 2511.44C123.711 2530.16 150.746 2527.85 174.831 2528.44C178.854 2528.5 187.383 2516.11 173.597 2516.11C171.505 2516.11 155.573 2517.23 145.06 2514.93C130.792 2511.76 121.351 2505.49 121.941 2511.44Z" fill="#E69845"/>
<path fill-rule="evenodd" clip-rule="evenodd" d="M171.452 2497.07C173.222 2515.79 200.257 2513.43 224.342 2514.02C228.365 2514.12 236.894 2501.73 223.108 2501.73C221.016 2501.73 205.085 2502.81 194.571 2500.5C180.303 2497.39 170.862 2491.11 171.452 2497.07Z" fill="#E69845"/>
<path fill-rule="evenodd" clip-rule="evenodd" d="M513.896 2598.07C512.072 2616.74 485.037 2614.43 460.952 2615.02C456.929 2615.13 448.4 2602.73 462.186 2602.73C464.332 2602.73 480.263 2603.81 490.723 2601.5C504.992 2598.34 514.432 2592.11 513.896 2598.07Z" fill="#E69845"/>
<path fill-rule="evenodd" clip-rule="evenodd" d="M493.083 2625C491.313 2643.72 464.278 2641.36 440.193 2641.95C436.17 2642.05 427.641 2629.66 441.427 2629.66C443.519 2629.66 459.45 2630.73 469.964 2628.43C484.232 2625.32 493.673 2619.04 493.083 2625Z" fill="#E69845"/>
<path fill-rule="evenodd" clip-rule="evenodd" d="M443.572 2610.62C441.802 2629.29 414.766 2626.98 390.681 2627.57C386.658 2627.68 378.13 2615.29 391.916 2615.29C394.008 2615.29 409.938 2616.36 420.452 2614.06C434.72 2610.89 444.161 2604.67 443.572 2610.62Z" fill="#E69845"/>
<path fill-rule="evenodd" clip-rule="evenodd" d="M562.763 2536.12C560.993 2554.78 533.904 2552.48 509.819 2553.07C505.85 2553.17 497.321 2540.78 511.053 2540.78C513.199 2540.78 529.13 2541.86 539.59 2539.55C553.858 2536.38 563.299 2530.16 562.763 2536.12Z" fill="#E69845"/>
<path fill-rule="evenodd" clip-rule="evenodd" d="M541.95 2563.04C540.18 2581.77 513.145 2579.41 489.06 2580C485.037 2580.1 476.508 2567.71 490.294 2567.71C492.44 2567.71 508.371 2568.78 518.831 2566.48C533.099 2563.31 542.54 2557.09 541.95 2563.04Z" fill="#E69845"/>
<path fill-rule="evenodd" clip-rule="evenodd" d="M492.439 2548.67C490.669 2567.34 463.634 2565.03 439.549 2565.62C435.526 2565.73 426.997 2553.34 440.783 2553.34C442.929 2553.34 458.86 2554.41 469.32 2552.1C483.588 2548.94 493.029 2542.72 492.439 2548.67Z" fill="#E69845"/>
<path fill-rule="evenodd" clip-rule="evenodd" d="M232.926 2604.93C225.792 2622.31 200.58 2612.28 177.354 2605.85C173.492 2604.77 168.932 2590.45 182.128 2594.42C184.166 2595.06 199.078 2600.7 209.807 2601.55C224.343 2602.68 235.179 2599.41 232.926 2604.93Z" fill="#E69845"/>
<path fill-rule="evenodd" clip-rule="evenodd" d="M205.246 2624.73C198.112 2642.11 172.9 2632.03 149.674 2625.59C145.812 2624.57 141.252 2610.19 154.394 2614.22C156.432 2614.81 171.398 2620.49 182.073 2621.3C196.663 2622.42 207.499 2619.21 205.246 2624.73Z" fill="#E69845"/>
<path fill-rule="evenodd" clip-rule="evenodd" d="M162.011 2596.62C154.877 2613.95 129.665 2603.92 106.439 2597.48C102.577 2596.41 98.0173 2582.08 111.213 2586.05C113.251 2586.7 128.164 2592.33 138.892 2593.19C153.429 2594.31 164.264 2591.04 162.011 2596.62Z" fill="#E69845"/>
<path fill-rule="evenodd" clip-rule="evenodd" d="M715.871 388.873C711.236 373.562 671.431 333.871 629.946 282.945C582.119 224.255 538.339 168.378 525.553 152.967C525.453 152.838 508.85 134.327 511.218 144.429C512.653 150.556 569.836 214.656 622.872 280.549C667.097 335.479 685.665 361.136 715.871 388.873Z" fill="#EBC890"/>
<path fill-rule="evenodd" clip-rule="evenodd" d="M307.723 390.708C312.344 375.397 352.15 335.692 393.648 284.765C441.461 226.09 485.242 170.198 498.028 154.801C498.128 154.672 514.731 136.147 512.363 146.263C510.928 152.39 453.745 216.475 400.709 282.383C356.499 337.313 337.929 362.97 307.723 390.708Z" fill="#EBC890"/>
<path fill-rule="evenodd" clip-rule="evenodd" d="M513.816 140.711C520.001 142.591 523.674 150.813 520.546 155.233C508.966 171.606 489.651 140.711 513.816 140.711Z" fill="#9A7D65"/>
<path fill-rule="evenodd" clip-rule="evenodd" d="M513.555 281.078C511.589 232.878 510.8 171.663 520.328 187.232C525.896 196.33 527.704 242.865 527.316 281.48C528.636 281.552 529.956 281.609 531.262 281.681C533.73 243.827 538.953 198.956 545.181 191.135C555.771 177.79 550.72 236.121 545.267 282.814C548.338 283.115 551.38 283.474 554.379 283.861C566.246 218.915 585.346 123.132 590.598 147.397C593.683 161.675 579.678 233.365 567.38 285.813C569.877 286.229 572.359 286.688 574.813 287.176C587.254 242.736 603.641 190.747 608.276 206.575C610.945 215.701 600.154 255.464 588.804 290.29C590.21 290.634 591.602 291.008 592.98 291.381C606.913 256.784 624.621 218.342 632.757 212.344C646.748 202.027 625.855 252.609 606.569 295.356C608.219 295.887 609.885 296.432 611.521 296.992C628.525 264.748 649.275 229.793 657.655 225.244C671.947 217.495 647.839 262.754 625.109 302.071C629.859 303.994 634.494 306.046 639 308.198C671.717 250.886 723.719 162.895 720.548 188.021C718.668 202.873 679.868 268.522 650.552 314.067C655.66 316.851 660.624 319.764 665.417 322.835C690.414 283.718 721.567 238.245 721.208 255.019C720.993 264.762 698.465 300.521 677.156 330.842C678.519 331.832 679.867 332.837 681.202 333.855C710.576 296.833 746.866 253.885 744.067 271.262C742.474 281.22 716.46 314.468 692.123 342.651C693.228 343.598 694.303 344.56 695.379 345.507C721.036 319.62 751.127 292.17 760.397 290.39C776.311 287.305 739.217 324.298 705.826 355.379C708.337 357.904 710.778 360.487 713.145 363.099C761.546 318.443 830.767 256.798 820.636 278.824C814.681 291.81 762.764 338.805 721.839 373.186C723.461 375.181 725.055 377.19 726.604 379.227C762.708 351.647 804.923 321.685 799.255 336.781C795.969 345.52 764.529 370.13 734.969 390.936C735.801 392.156 736.619 393.39 737.408 394.624C769.02 375.568 805.396 355.995 815.369 356.081C832.732 356.239 785.781 384.077 744.727 406.663C745.574 408.17 746.42 409.676 747.238 411.183C780.27 395.556 818.066 379.944 827.537 381.35C843.824 383.761 795.911 406.045 753.709 423.954C754.957 426.594 756.149 429.249 757.312 431.918C805.426 410.006 867.316 384.507 881.249 384.665C905.069 384.938 823.104 419.864 762.319 444.445C763.051 446.425 763.754 448.406 764.443 450.4C806.487 436.237 852.52 422.677 842.418 434.802C836.649 441.733 802.067 454.174 768.776 464.247C769.278 466.055 769.78 467.849 770.24 469.642C814.322 459.669 862.437 450.6 850.197 461.75C843.295 468.021 807.693 476.874 773.44 483.604C773.77 485.24 774.086 486.876 774.387 488.512C808.195 484.839 843.322 482.844 851.042 486.876C864.488 493.907 819.703 499.461 776.611 503.005C776.826 504.727 777.027 506.435 777.199 508.142C777.371 509.85 777.515 511.557 777.658 513.265C842.217 512.964 923.607 514.298 902.542 523.267C890.402 528.433 829.69 528.72 778.405 527.098C778.491 529.896 778.519 532.694 778.505 535.492C819.918 539.395 860.713 545.106 847.742 551.764C840.524 555.466 809.516 553.744 777.99 550.286C777.861 552.18 777.716 554.074 777.544 555.954C809.3 562.727 840.337 571.007 846.68 576.89C858.002 587.365 817.091 579.875 775.865 570.447C775.564 572.556 775.234 574.666 774.875 576.761C804.865 586.461 833.536 597.467 838.702 603.767C847.814 614.902 810.405 604.284 771.934 591.326C771.259 594.282 770.529 597.209 769.739 600.122C829.663 621.058 900.663 647.705 878.536 649.111C865.865 649.915 812.327 631.519 765.705 613.582C764.758 616.452 763.768 619.307 762.72 622.134C805.826 643.3 858.862 671.253 840.796 672.2C830.45 672.745 790.744 653.345 757.525 635.063C756.004 638.564 754.412 642.037 752.748 645.466C795.596 666.546 847.339 693.924 829.459 694.857C819.127 695.402 779.494 676.059 746.303 657.792C745.413 659.399 744.509 660.992 743.577 662.57C786.769 683.764 840.264 711.904 822.127 712.865C811.508 713.425 769.966 692.977 736.245 674.293C734.509 676.905 732.729 679.502 730.892 682.056C790.887 709.191 886.183 753.962 860.526 753.129C845 752.627 771.215 717.585 723.073 692.344C720.964 694.984 718.781 697.582 716.557 700.15C756.19 720.34 798.392 743.887 782.608 745.164C773.266 745.91 737.852 728.562 706.412 711.113C705.135 712.405 703.872 713.696 702.58 714.959C741.812 740.128 785.981 770.563 768.79 769.559C758.645 768.97 722.54 746.212 691.918 724.745C690.813 725.692 689.694 726.625 688.574 727.558C717.331 750.675 748.641 778.556 751.411 787.754C756.275 803.883 712.237 767.421 677.181 736.526C674.67 738.377 672.13 740.199 669.533 741.964C716.126 788.744 784.43 859.558 761.442 850.002C747.609 844.262 694.573 789.461 658.412 749.125C656.288 750.417 654.136 751.665 651.969 752.899C682.16 789.189 719.04 836.213 702.739 830.774C692.938 827.502 662.489 790.552 639.458 759.529C638.324 760.089 637.19 760.634 636.056 761.179C658.025 793.882 683.726 836.528 684.042 847.592C684.573 866.734 648.54 808.906 623.615 766.661C622.237 767.235 620.874 767.809 619.482 768.354C638.208 803.066 660.436 849.845 659.245 860.693C657.193 879.147 626.859 816.87 606.727 772.917C600.872 774.854 594.903 776.619 588.79 778.155C614.088 822.811 642.099 876.708 643.175 889.866C645.055 913.026 604.776 838.997 574.842 781.283C572.632 781.728 570.394 782.13 568.155 782.503C585.704 822.266 602.363 864.582 589.65 855.858C582.174 850.721 566.432 817.057 553.245 784.656C551.38 784.885 549.515 785.101 547.635 785.287C561.884 828.766 575.96 877.411 563.548 866.089C556.273 859.474 543.215 821.376 533.084 786.305C531.549 786.377 530.028 786.449 528.492 786.506C535.925 821.691 542.11 860.679 538.594 869.274C532.38 884.427 521.619 831.894 513.885 786.621C510.714 786.578 507.514 786.478 504.3 786.334C510.915 851.911 518.736 945.37 507.155 923.932C500.238 911.132 493.766 839.141 490.953 785.445C488.442 785.23 485.916 785 483.391 784.727C483.821 830.99 482.573 885.977 473.691 872.001C468.425 863.735 467.836 820.271 469.2 782.876C467.851 782.675 466.516 782.488 465.168 782.273C461.48 820.299 454.951 864.969 448.58 873.278C437.502 887.728 444.592 827.431 451.551 779.776C449.987 779.475 448.437 779.159 446.873 778.829C439.454 816.253 428.318 860.664 421.057 867.825C408.63 880.094 421.76 821.16 433.398 775.17C430.643 774.237 427.788 773.175 424.875 771.999C413.539 824.82 395.142 897.041 386.13 908.765C370.718 928.768 395.629 830.373 412.806 766.647C411.113 765.829 409.391 764.982 407.669 764.093C393.133 808.993 373.359 864.411 369.399 847.607C367.031 837.577 381.524 793.15 395.257 757.291C393.894 756.516 392.545 755.698 391.167 754.88C371.68 799.263 344.918 856.001 343.182 837.619C342.163 826.756 361.908 782.431 379.558 747.533C378.496 746.83 377.448 746.127 376.387 745.409C357.331 778.872 331.846 818.793 322.59 823.198C306.763 830.731 339.208 777.351 365.051 737.359C362.698 735.608 360.329 733.829 357.961 731.978C318.844 785.086 256.453 867.179 262.552 842.498C266.197 827.79 313.435 765.785 347.974 723.913C346.123 722.363 344.272 720.785 342.421 719.178C311.053 754.578 269.769 798.574 272.711 781.57C274.433 771.583 305.213 737.029 332.075 709.794C331.128 708.919 330.195 708.029 329.262 707.125C300.549 733.356 263.886 763.691 253.267 765.628C235.158 768.914 282.167 728.133 319.562 697.425C318.472 696.291 317.395 695.143 316.319 693.981C285.525 716.84 246.838 742.655 236.564 743.085C219.273 743.802 267.573 709.651 306.92 683.52C303.62 679.674 300.391 675.728 297.263 671.71C243.452 708.445 149.163 771.009 163.727 748.853C172.423 735.623 243.179 689.532 289.844 661.751C286.486 657.03 283.272 652.223 280.23 647.315C239.434 672.412 184.389 704.283 192.597 688.398C197.433 679.028 239.076 653.844 273.3 635.434C272.568 634.1 271.835 632.751 271.132 631.387C227.251 652.524 168.418 679.028 179.209 663.745C185.48 654.863 229.117 634.156 265.177 619.147C264.66 617.985 264.144 616.822 263.641 615.646C227.523 628.561 182.781 642.063 172.952 639.394C156.335 634.888 213.317 616.105 258.604 602.602C257.442 599.259 256.365 595.886 255.39 592.471C192.18 611.455 94.1734 639.265 113.775 623.279C125.441 613.751 199.585 592.729 252.277 579.958C251.775 577.562 251.33 575.151 250.928 572.74C204.694 582.196 145.975 592.413 158.474 580.632C165.849 573.673 211.296 564.517 249.135 558.864C249.02 557.587 248.919 556.31 248.818 555.018C210.031 558.777 162.176 561.059 152.49 556.209C135.844 547.872 199.628 543.481 248.201 541.4C248.187 539.865 248.187 538.315 248.201 536.779C209.443 536.678 161.316 534.11 152.677 528.169C137.998 518.081 200.992 520.148 248.719 523.003C248.934 519.975 249.206 516.948 249.536 513.92C195.381 512.786 119.271 508.295 105.897 501.551C83.2685 490.143 185.451 496.184 251.244 501.077C251.545 499.212 251.875 497.36 252.22 495.509C205.355 489.683 147.024 480.686 162.808 473.612C172.106 469.451 217.552 475.147 255.119 481.791C255.492 480.255 255.894 478.72 256.296 477.17C209.301 466.394 150.167 451.097 167.688 445.988C177.891 443.032 223.02 453.45 260.114 463.939C260.501 462.676 260.931 461.428 261.347 460.179C225.545 447.838 183.889 431.078 177.977 423.042C167.932 409.353 222.574 429.428 266.125 446.934C267.244 444.093 268.421 441.252 269.626 438.439C210.09 409.912 122.975 366.404 147.728 367.724C162.321 368.499 227.741 400.828 275.094 426.485C276.199 424.232 277.317 421.979 278.479 419.741C238.86 396.05 192.984 366.533 209.486 366.232C219.014 366.06 254.716 387.039 285.381 407.214C286.099 405.98 286.845 404.746 287.577 403.526C257.787 380.954 225.142 353.589 221.483 344.133C215.184 327.846 258.907 361.682 295.168 391.63C296.129 390.21 297.105 388.789 298.095 387.383C271.304 362.401 242.677 332.841 240.481 323.499C236.736 307.571 274.604 343.33 306.69 375.774C308.599 373.335 310.551 370.924 312.531 368.556C289.471 346.329 267.917 323.255 266.023 315.204C262.665 300.897 292.857 328.262 322.288 357.492C324.441 355.182 326.637 352.914 328.875 350.676C285.855 321.389 234.856 283.865 227.939 272.256C215.914 252.037 286.472 302.232 338.948 341.105C340.57 339.641 342.204 338.207 343.854 336.786C310.19 308.503 275.507 276.977 290.962 279.259C299.973 280.579 329.176 304.127 355.364 327.531C356.842 326.412 358.32 325.307 359.812 324.231C327.87 291.428 293.76 253.861 309.903 258.582C319.259 261.309 347.355 289.319 371.735 316.152C373.041 315.32 374.347 314.502 375.667 313.698C353.741 285.602 331.513 253.903 330.911 244.748C329.835 228.633 361.691 269.673 388.323 306.537C391.193 305.045 394.077 303.61 397.005 302.232C362.322 246.355 315.5 167.834 335.115 181.839C346.752 190.147 383.286 250.2 409.359 296.908C411.741 295.961 414.152 295.057 416.577 294.196C396.129 253.3 374.117 205.258 388.007 213.752C396.2 218.76 415.271 256.169 430.367 289.862C431.716 289.489 433.08 289.13 434.458 288.786C421.256 253.386 407.968 211.657 409.991 201.555C413.55 183.833 433.452 240.155 448.132 285.83C449.711 285.543 451.318 285.27 452.911 285.026C443.168 248.277 433.754 203.922 437.098 194.351C442.881 177.82 457.073 236.84 466.859 283.318C469.901 283.002 472.929 282.73 475.928 282.471C462.855 230.023 447.516 156.74 450.472 142.218C455.509 117.479 476.417 216.793 489.03 281.581C490.939 281.48 492.833 281.409 494.727 281.337C488.04 234.672 481.467 176.456 492.402 189.787C498.859 197.665 505.318 243.053 508.79 281.05C510.385 281.063 511.977 281.063 513.555 281.078Z" fill="#E69845"/>
<path fill-rule="evenodd" clip-rule="evenodd" d="M448.925 769.175C393.88 757.193 280.777 673.952 265.007 573.391C246.453 454.993 338.448 316.635 462.256 301.754C659.605 278.02 751.328 402.013 762.836 513.538C778.276 663.175 650.335 812.999 448.925 769.175Z" fill="#9F704B"/>
<path fill-rule="evenodd" clip-rule="evenodd" d="M453.605 757.178C401.416 745.813 294.167 666.891 279.229 571.552C261.636 459.296 348.853 328.112 466.247 314.006C653.351 291.506 740.309 409.058 751.229 514.799C765.866 656.674 644.569 798.72 453.605 757.178Z" fill="#EBEBEB"/>
<path fill-rule="evenodd" clip-rule="evenodd" d="M2486.41 175.06C2480.34 167.002 2428.05 146.065 2373.55 119.214C2310.76 88.2612 2253.24 58.7932 2236.46 50.6732C2236.32 50.6112 2214.52 40.8432 2217.63 46.1802C2219.5 49.4162 2294.62 83.2122 2364.27 117.956C2422.35 146.91 2446.74 160.429 2486.41 175.06Z" fill="#EBC890"/>
<path fill-rule="evenodd" clip-rule="evenodd" d="M1950.35 176.029C1956.43 167.951 2008.71 147.034 2063.22 120.182C2126.01 89.2305 2183.5 59.7615 2200.3 51.6415C2200.44 51.5795 2222.25 41.8115 2219.13 47.1495C2217.26 50.3845 2142.14 84.1605 2072.49 118.904C2014.42 147.879 1990.02 161.397 1950.35 176.029Z" fill="#EBC890"/>
<path fill-rule="evenodd" clip-rule="evenodd" d="M2221.03 44.2188C2229.17 46.6507 2233.97 57.3867 2229.87 63.1567C2214.66 84.5277 2189.29 44.2188 2221.03 44.2188Z" fill="#9A7D65"/>
<path fill-rule="evenodd" clip-rule="evenodd" d="M2497.15 150.674C2480.54 144.677 2158.12 154.692 1941.32 155.084C1944.17 225.603 1937.2 689.892 1952.9 694.096C1955.32 694.755 2494.45 695.497 2500.98 693.127C2513.82 638.434 2510.5 241.553 2496.76 157.206L2497.15 150.674Z" fill="#FFD99C"/>
<path fill-rule="evenodd" clip-rule="evenodd" d="M2490.97 719.574C2475.5 716.812 2479.35 684.294 2498.31 691.651C2502.18 693.176 2507.95 715.515 2496.66 719.245C2500.88 744.448 2512.16 803.406 2506.45 803.406C2475.7 803.406 2484.6 810.639 2485.26 752.341C2485.43 737.461 2487.94 727.735 2490.97 719.574Z" fill="#EBC890"/>
<path fill-rule="evenodd" clip-rule="evenodd" d="M2437.82 719.986C2453.3 717.225 2446.89 679.059 2430.49 692.083C2425.81 695.792 2420.04 718.131 2432.14 719.656C2427.91 744.859 2416.64 803.859 2422.37 803.817C2437.33 803.714 2447.96 805.672 2446.42 801.859C2443.78 795.306 2445.55 785.806 2443.55 752.751C2442.65 737.915 2440.85 728.147 2437.82 719.986Z" fill="#EBC890"/>
<path fill-rule="evenodd" clip-rule="evenodd" d="M2371.61 719.574C2356.14 716.812 2359.99 684.294 2378.95 691.651C2382.82 693.176 2388.59 715.515 2377.32 719.245C2381.52 744.448 2392.8 803.406 2387.09 803.406C2356.34 803.406 2365.24 810.639 2365.9 752.341C2366.07 737.461 2368.58 727.735 2371.61 719.574Z" fill="#EBC890"/>
<path fill-rule="evenodd" clip-rule="evenodd" d="M2318.46 719.986C2333.94 717.225 2327.53 679.059 2311.13 692.083C2306.45 695.792 2300.68 718.131 2312.78 719.656C2308.55 744.859 2297.28 803.859 2303.01 803.817C2317.97 803.714 2328.6 805.672 2327.06 801.859C2324.42 795.306 2326.21 785.806 2324.19 752.751C2323.29 737.915 2321.49 728.147 2318.46 719.986Z" fill="#EBC890"/>
<path fill-rule="evenodd" clip-rule="evenodd" d="M2252.27 719.574C2236.8 716.812 2240.63 684.294 2259.59 691.651C2263.46 693.176 2269.23 715.515 2257.96 719.245C2262.16 744.448 2273.44 803.406 2267.73 803.406C2236.98 803.406 2245.88 810.639 2246.54 752.341C2246.71 737.461 2249.22 727.735 2252.27 719.574Z" fill="#EBC890"/>
<path fill-rule="evenodd" clip-rule="evenodd" d="M2199.11 719.986C2214.58 717.225 2208.17 679.059 2191.77 692.083C2187.09 695.792 2181.32 718.131 2193.42 719.656C2189.19 744.859 2177.92 803.859 2183.65 803.817C2198.61 803.714 2209.25 805.672 2207.72 801.859C2205.06 795.306 2206.86 785.806 2204.84 752.751C2203.93 737.915 2202.13 728.147 2199.11 719.986Z" fill="#EBC890"/>
<path fill-rule="evenodd" clip-rule="evenodd" d="M2132.91 719.574C2117.44 716.812 2121.27 684.294 2140.23 691.651C2144.1 693.176 2149.87 715.515 2138.6 719.245C2142.8 744.448 2154.08 803.406 2148.37 803.406C2117.62 803.406 2126.52 810.639 2127.18 752.341C2127.35 737.461 2129.86 727.735 2132.91 719.574Z" fill="#EBC890"/>
<path fill-rule="evenodd" clip-rule="evenodd" d="M2079.75 719.986C2095.22 717.225 2088.81 679.059 2072.41 692.083C2067.73 695.792 2061.96 718.131 2074.06 719.656C2069.83 744.859 2058.58 803.859 2064.29 803.817C2079.25 803.714 2089.91 805.672 2088.36 801.859C2085.7 795.306 2087.5 785.806 2085.48 752.751C2084.57 737.915 2082.78 728.147 2079.75 719.986Z" fill="#EBC890"/>
<path fill-rule="evenodd" clip-rule="evenodd" d="M2013.55 719.574C1998.08 716.812 2001.93 684.294 2020.87 691.651C2024.74 693.176 2030.51 715.515 2019.24 719.245C2023.45 744.448 2034.72 803.406 2029.01 803.406C1998.26 803.406 2007.17 810.639 2007.82 752.341C2007.99 737.461 2010.5 727.735 2013.55 719.574Z" fill="#EBC890"/>
<path fill-rule="evenodd" clip-rule="evenodd" d="M1960.39 719.986C1975.86 717.225 1969.45 679.059 1953.05 692.083C1948.37 695.792 1942.6 718.131 1954.7 719.656C1950.5 744.859 1939.22 803.859 1944.93 803.817C1959.89 803.714 1970.55 805.672 1969 801.859C1966.34 795.306 1968.14 785.806 1966.12 752.751C1965.21 737.915 1963.42 728.147 1960.39 719.986Z" fill="#EBC890"/>
<path fill-rule="evenodd" clip-rule="evenodd" d="M1942.36 541.766C1943.59 627.308 1946.29 693.17 1952.16 694.756C1954.58 695.395 2493.71 696.137 2500.24 693.767C2504.67 674.891 2507.19 615.252 2507.99 541.766H1942.36Z" fill="#EBC890"/>
<path fill-rule="evenodd" clip-rule="evenodd" d="M2496.57 151.419C2479.96 145.402 2157.54 155.417 1940.74 155.829C1941.36 171.223 1941.53 205.411 1941.55 249.49H2503.56C2501.62 208.831 2499.15 176.127 2496.18 157.951L2496.57 151.419Z" fill="#EBC890"/>
<path fill-rule="evenodd" clip-rule="evenodd" d="M2229.77 465.521C2188.51 471.188 2142.68 441.822 2155.54 367.903C2168.94 290.79 2245.14 292.5 2281.37 332.293C2318.71 373.302 2314.67 453.816 2229.77 465.521Z" fill="#F2AE66"/>
</svg>
