<svg viewBox="0 0 324 236" fill="currentColor" xmlns="http://www.w3.org/2000/svg">
<path d="M175.851 10.139L166.224 8.741L161.912 0L157.62 8.741L147.973 10.139L154.943 16.931L153.309 26.519L161.913 21.991L170.536 26.519L168.882 16.931L175.851 10.139ZM162.897 6.458L164.925 10.533L169.433 11.183L165.2 12.561L163.605 12.325L162.896 10.908V6.458H162.897ZM158.92 10.533L160.928 6.458V10.908L160.239 12.325L158.644 12.561L154.411 11.183L158.92 10.533ZM153.801 13.053L158.034 14.431L159.176 15.553L158.92 17.128L156.302 20.731L157.07 16.242L153.801 13.053ZM161.912 19.767L157.896 21.893L160.495 18.29L161.912 17.542L163.349 18.29L165.948 21.893L161.912 19.767ZM164.925 17.128L164.669 15.553L165.811 14.431L170.044 13.053L166.776 16.242L167.544 20.731L164.925 17.128Z" fill="currentColor"/>
<path d="M119.619 15.7752L110.19 18.1682L102.861 11.7422L102.241 21.4612L93.8633 26.4442L102.901 30.0522L105.06 39.5352L111.276 32.0592L120.976 32.9422L115.779 24.7172L119.619 15.7752ZM106.242 17.3312L109.675 20.3202L114.089 19.1952L110.706 22.0882L109.142 22.4802L107.945 21.4422L106.242 17.3312ZM104.127 22.6182L104.423 18.0842L106.126 22.1952L106.032 23.7682L104.649 24.5972L100.211 24.9442L104.127 22.6182ZM100.362 26.9052L104.8 26.5582L106.284 27.1582L106.65 28.7112L105.61 33.0422L104.602 28.6012L100.362 26.9052ZM110.425 30.0042L107.528 33.5052L108.55 29.1822L109.573 27.9482L111.187 28.0892L114.967 30.4232L110.425 30.0042ZM112.199 26.4142L111.36 25.0572L111.986 23.5832L115.369 20.6902L113.57 24.8872L115.997 28.7402L112.199 26.4142Z" fill="currentColor"/>
<path d="M69.8263 42.5078L62.0303 48.3268L52.8003 45.1948L55.9463 54.4108L50.1133 62.2208L59.8443 62.0958L65.4683 70.0308L68.3503 60.7448L77.6493 57.8488L69.7003 52.2388L69.8263 42.5078ZM58.0633 49.0648L62.3793 50.5128L66.0263 47.7838L64.0073 51.7518L62.7123 52.7128L61.2093 52.2118L58.0633 49.0648ZM58.1323 54.7588L56.6703 50.4568L59.8163 53.6028L60.3313 55.0928L59.3703 56.3878L55.4033 58.4068L58.1323 54.7588ZM56.2953 60.1608L60.2633 58.1418L61.8643 58.1278L62.7973 59.4228L63.4933 63.8218L60.8623 60.1048L56.2953 60.1608ZM66.7783 59.1718L65.4423 63.5158L64.7323 59.1308L65.2053 57.5998L66.7503 57.1128L71.1353 57.8228L66.7783 59.1718ZM67.0423 55.1768L65.7473 54.2438L65.7613 52.6428L67.7803 48.6748L67.7243 53.2408L71.4413 55.8718L67.0423 55.1768Z" fill="currentColor"/>
<path d="M34.0536 86.2578L29.0776 94.6178L19.3516 95.2558L25.7856 102.566L23.3856 112.014L32.3276 108.174L40.5606 113.353L39.6696 103.671L47.1526 97.4368L37.6616 95.2958L34.0536 86.2578ZM25.6946 96.8168L30.2356 96.5028L32.5616 92.5858L32.2146 97.0238L31.3856 98.4068L29.8046 98.5188L25.6946 96.8168ZM27.9376 102.051L24.9406 98.6358L29.0516 100.339L30.0976 101.518L29.7056 103.082L26.8126 106.465L27.9376 102.051ZM28.3076 107.745L31.2006 104.362L32.6746 103.737L34.0316 104.576L36.3586 108.374L32.5056 105.947L28.3076 107.745ZM37.6136 102.82L38.0406 107.344L35.7066 103.564L35.5576 101.968L36.7986 100.927L41.1216 99.9048L37.6136 102.82ZM36.3296 99.0268L34.7766 98.6608L34.1766 97.1768L34.5236 92.7388L36.2196 96.9788L40.6606 97.9868L36.3296 99.0268Z" fill="currentColor"/>
<path d="M208.045 24.7172L202.848 32.9422L212.548 32.0592L218.764 39.5352L220.924 30.0522L229.962 26.4442L221.584 21.4612L220.964 11.7422L213.635 18.1682L204.206 15.7752L208.045 24.7172ZM215.88 21.4422L214.683 22.4802L213.119 22.0882L209.736 19.1952L214.15 20.3202L217.583 17.3312L215.88 21.4422ZM223.614 24.9442L219.176 24.5972L217.793 23.7682L217.699 22.1952L219.402 18.0842L219.698 22.6182L223.614 24.9442ZM219.223 28.6012L218.215 33.0422L217.175 28.7112L217.541 27.1582L219.025 26.5582L223.463 26.9052L219.223 28.6012ZM208.857 30.4242L212.637 28.0902L214.251 27.9492L215.274 29.1832L216.296 33.5062L213.399 30.0052L208.857 30.4242ZM207.828 28.7402L210.255 24.8872L208.456 20.6902L211.839 23.5832L212.464 25.0572L211.625 26.4142L207.828 28.7402Z" fill="currentColor"/>
<path d="M254.121 52.2388L246.172 57.8488L255.471 60.7448L258.353 70.0308L263.977 62.0958L273.708 62.2208L267.875 54.4108L271.021 45.1948L261.791 48.3268L253.995 42.5078L254.121 52.2388ZM262.613 52.2118L261.11 52.7128L259.815 51.7518L257.796 47.7838L261.443 50.5128L265.759 49.0648L262.613 52.2118ZM268.418 58.4068L264.45 56.3878L263.489 55.0928L264.004 53.6028L267.15 50.4568L265.688 54.7588L268.418 58.4068ZM262.961 60.1048L260.33 63.8218L261.026 59.4228L261.959 58.1278L263.56 58.1418L267.528 60.1608L262.961 60.1048ZM252.687 57.8218L257.072 57.1118L258.617 57.5988L259.09 59.1298L258.38 63.5148L257.044 59.1708L252.687 57.8218ZM252.381 55.8728L256.098 53.2418L256.042 48.6758L258.061 52.6438L258.075 54.2448L256.78 55.1778L252.381 55.8728Z" fill="currentColor"/>
<path d="M286.163 95.2958L276.672 97.4368L284.155 103.671L283.264 113.353L291.497 108.174L300.439 112.014L298.039 102.566L304.473 95.2558L294.747 94.6178L289.771 86.2578L286.163 95.2958ZM294.019 98.5198L292.438 98.4078L291.609 97.0248L291.262 92.5868L293.588 96.5038L298.129 96.8178L294.019 98.5198ZM297.012 106.465L294.119 103.082L293.727 101.518L294.773 100.339L298.884 98.6358L295.887 102.051L297.012 106.465ZM291.32 105.946L287.467 108.373L289.794 104.575L291.151 103.736L292.625 104.361L295.518 107.744L291.32 105.946ZM282.702 99.9048L287.025 100.927L288.266 101.968L288.117 103.564L285.783 107.344L286.211 102.82L282.702 99.9048ZM283.164 97.9868L287.605 96.9788L289.301 92.7388L289.648 97.1768L289.048 98.6608L287.495 99.0268L283.164 97.9868Z" fill="currentColor"/>
<path d="M164.283 40.4403C164.283 39.1313 163.222 38.0703 161.913 38.0703C160.604 38.0703 159.543 39.1313 159.543 40.4403C159.543 41.7493 160.604 59.2053 161.913 59.2053C163.222 59.2053 164.283 41.7493 164.283 40.4403Z" fill="currentColor"/>
<path d="M128.881 45.0109C128.38 43.8019 126.994 43.2268 125.784 43.7278C124.575 44.2288 124.001 45.6148 124.501 46.8248C125.002 48.0338 132.662 63.7558 133.872 63.2548C135.082 62.7528 129.382 46.2199 128.881 45.0109Z" fill="currentColor"/>
<path d="M93.077 65.2719C92.151 64.3469 90.651 64.3469 89.725 65.2719C88.8 66.1979 88.8 67.6979 89.725 68.6239C90.651 69.5489 103.744 81.1429 104.67 80.2169C105.596 79.2909 94.002 66.1979 93.077 65.2719Z" fill="currentColor"/>
<path d="M67.4607 98.1499C66.2517 97.6489 64.8647 98.2229 64.3647 99.4329C63.8637 100.642 64.4377 102.029 65.6477 102.529C66.8567 103.03 83.3907 108.73 83.8917 107.521C84.3907 106.311 68.6697 98.6499 67.4607 98.1499Z" fill="currentColor"/>
<path d="M194.949 45.0109C195.45 43.8019 196.836 43.2268 198.045 43.7278C199.254 44.2288 199.828 45.6148 199.328 46.8248C198.827 48.0338 191.167 63.7558 189.957 63.2548C188.748 62.7528 194.448 46.2199 194.949 45.0109Z" fill="currentColor"/>
<path d="M230.751 65.2719C231.677 64.3469 233.177 64.3469 234.103 65.2719C235.029 66.1979 235.029 67.6979 234.103 68.6239C233.178 69.5489 220.084 81.1429 219.158 80.2169C218.232 79.2909 229.825 66.1979 230.751 65.2719Z" fill="currentColor"/>
<path d="M256.368 98.1499C257.577 97.6489 258.963 98.2229 259.464 99.4329C259.965 100.642 259.391 102.029 258.181 102.529C256.972 103.03 240.438 108.73 239.937 107.521C239.437 106.311 255.159 98.6499 256.368 98.1499Z" fill="currentColor"/>
<path d="M45.5904 154.383H5.56641C4.73741 154.383 4.06641 153.711 4.06641 152.883C4.06641 152.055 4.73741 151.383 5.56641 151.383H45.5904C46.4194 151.383 47.0904 152.055 47.0904 152.883C47.0904 153.711 46.4194 154.383 45.5904 154.383Z" fill="currentColor"/>
<path d="M45.5904 184.875H5.56641C4.73741 184.875 4.06641 184.203 4.06641 183.375C4.06641 182.547 4.73741 181.875 5.56641 181.875H45.5904C46.4194 181.875 47.0904 182.547 47.0904 183.375C47.0904 184.203 46.4194 184.875 45.5904 184.875Z" fill="currentColor"/>
<path d="M19.297 163.354C19.2716 163.926 19.2271 164.516 19.1636 165.126C19.1001 165.736 19.0175 166.308 18.9158 166.842H18.1344L17.2577 164.593H13.6936V169.262H16.0188L16.8574 167.795H17.4673C17.5308 168.417 17.5626 169.11 17.5626 169.872C17.5626 170.634 17.5308 171.346 17.4673 172.007H16.8574L16.0188 170.501H13.6936V175.456H17.4101L18.4203 173.036H19.2017C19.2525 173.277 19.3034 173.551 19.3542 173.855C19.405 174.16 19.4431 174.478 19.4685 174.808C19.5067 175.126 19.5321 175.45 19.5448 175.78C19.5702 176.111 19.5829 176.416 19.5829 176.695H9.27181V175.971C9.48782 175.857 9.72923 175.749 9.99606 175.647C10.2629 175.545 10.5424 175.469 10.8347 175.418V164.631C10.5805 164.58 10.3074 164.51 10.0151 164.421C9.73559 164.319 9.48782 164.205 9.27181 164.078V163.354H19.297ZM25.8823 174.618C25.8823 174.287 25.7616 174.002 25.5202 173.76C25.2915 173.519 24.9992 173.296 24.6434 173.093C24.3004 172.89 23.9192 172.687 23.4999 172.483C23.0933 172.28 22.7121 172.045 22.3563 171.778C22.0133 171.498 21.721 171.174 21.4796 170.806C21.2509 170.438 21.1365 169.986 21.1365 169.453C21.1365 169.072 21.2255 168.729 21.4034 168.424C21.5812 168.106 21.8227 167.839 22.1276 167.623C22.4326 167.407 22.7947 167.242 23.214 167.128C23.646 167 24.1098 166.937 24.6053 166.937C25.2915 166.937 25.9268 166.994 26.5112 167.108C27.1084 167.21 27.6294 167.356 28.0741 167.547C28.0233 167.953 27.9216 168.392 27.7692 168.862C27.6167 169.319 27.4706 169.739 27.3308 170.12H26.6828L25.8823 168.176C25.7298 168.112 25.571 168.074 25.4058 168.061C25.2406 168.036 25.0564 168.023 24.8531 168.023C24.4719 168.023 24.1797 168.138 23.9764 168.366C23.7858 168.582 23.6905 168.83 23.6905 169.11C23.6905 169.427 23.8048 169.707 24.0335 169.948C24.275 170.177 24.5672 170.393 24.9103 170.596C25.266 170.8 25.6472 171.003 26.0538 171.206C26.4731 171.41 26.8543 171.645 27.1974 171.911C27.5532 172.166 27.8454 172.471 28.0741 172.826C28.3155 173.182 28.4362 173.608 28.4362 174.103C28.4362 174.98 28.0805 175.672 27.3689 176.181C26.6574 176.676 25.7044 176.924 24.51 176.924C23.9001 176.924 23.2712 176.86 22.6231 176.733C21.9751 176.606 21.4161 176.428 20.9459 176.2C20.9713 175.742 21.0793 175.279 21.2699 174.808C21.4605 174.338 21.6638 173.919 21.8798 173.551H22.5279L23.4618 175.628C23.6015 175.73 23.754 175.793 23.9192 175.819C24.0971 175.831 24.2622 175.838 24.4147 175.838C24.7832 175.838 25.1199 175.73 25.4249 175.514C25.7298 175.298 25.8823 174.999 25.8823 174.618ZM29.1633 167.623C29.6462 167.318 30.1544 167.102 30.6881 166.975V165.431C30.7643 165.355 30.8914 165.285 31.0692 165.222C31.2598 165.145 31.4568 165.082 31.6601 165.031C31.8761 164.967 32.0857 164.91 32.289 164.859C32.4923 164.809 32.6575 164.771 32.7846 164.745H33.4326V167.166H35.9484V168.366H33.4326V173.303C33.4326 174.091 33.5279 174.637 33.7185 174.942C33.9218 175.247 34.2522 175.399 34.7096 175.399C34.9383 175.399 35.1924 175.387 35.4719 175.361C35.7642 175.323 36.031 175.26 36.2724 175.171L36.4059 175.8C36.2915 175.914 36.12 176.035 35.8913 176.162C35.6752 176.289 35.4211 176.409 35.1289 176.524C34.8493 176.638 34.538 176.733 34.195 176.81C33.8646 176.886 33.5152 176.924 33.1467 176.924C32.3208 176.924 31.7046 176.708 31.298 176.276C30.8914 175.844 30.6881 175.145 30.6881 174.179V168.366H29.1633V167.623ZM37.8241 175.342C37.8241 174.885 37.9703 174.516 38.2625 174.237C38.5547 173.957 38.9423 173.817 39.4251 173.817C39.9079 173.817 40.3018 173.957 40.6068 174.237C40.9117 174.516 41.0642 174.885 41.0642 175.342C41.0642 175.8 40.9117 176.168 40.6068 176.448C40.3018 176.714 39.9079 176.848 39.4251 176.848C38.9423 176.848 38.5547 176.714 38.2625 176.448C37.9703 176.168 37.8241 175.8 37.8241 175.342Z" fill="currentColor"/>
<path d="M318.255 154.383H278.23C277.402 154.383 276.73 153.711 276.73 152.883C276.73 152.055 277.402 151.383 278.23 151.383H318.255C319.083 151.383 319.755 152.055 319.755 152.883C319.755 153.711 319.083 154.383 318.255 154.383Z" fill="currentColor"/>
<path d="M318.255 184.875H278.23C277.402 184.875 276.73 184.203 276.73 183.375C276.73 182.547 277.402 181.875 278.23 181.875H318.255C319.083 181.875 319.755 182.547 319.755 183.375C319.755 184.203 319.083 184.875 318.255 184.875Z" fill="currentColor"/>
<path d="M279.394 167.585H278.746C278.67 167.394 278.581 167.172 278.48 166.918C278.391 166.664 278.295 166.397 278.194 166.117C278.092 165.838 277.997 165.565 277.908 165.298C277.819 165.018 277.749 164.764 277.698 164.535C278.143 164.154 278.708 163.824 279.394 163.544C280.093 163.265 280.938 163.125 281.929 163.125C282.628 163.125 283.232 163.214 283.74 163.392C284.248 163.57 284.667 163.818 284.998 164.135C285.341 164.453 285.589 164.821 285.741 165.241C285.906 165.66 285.989 166.111 285.989 166.594C285.989 167.369 285.811 168.106 285.455 168.805C285.099 169.491 284.661 170.139 284.14 170.749C283.619 171.346 283.06 171.905 282.463 172.426C281.866 172.934 281.326 173.398 280.843 173.817L279.852 174.484V174.561L281.014 174.446H284.293L285.227 172.312H285.875C285.913 172.617 285.951 172.972 285.989 173.379C286.04 173.786 286.084 174.199 286.122 174.618C286.16 175.024 286.192 175.418 286.218 175.8C286.243 176.168 286.256 176.467 286.256 176.695H277.527V175.476C277.857 175.183 278.232 174.847 278.651 174.465C279.07 174.071 279.496 173.646 279.928 173.188C280.36 172.718 280.786 172.223 281.205 171.702C281.624 171.181 281.999 170.654 282.33 170.12C282.66 169.573 282.92 169.021 283.111 168.462C283.314 167.903 283.416 167.356 283.416 166.823C283.416 166.124 283.225 165.558 282.844 165.126C282.476 164.682 281.948 164.459 281.262 164.459C281.046 164.459 280.849 164.472 280.671 164.497C280.506 164.523 280.316 164.567 280.1 164.631L279.394 167.585ZM287.922 170.025C287.922 168.881 288.043 167.884 288.284 167.032C288.538 166.168 288.881 165.45 289.313 164.879C289.758 164.294 290.279 163.856 290.876 163.563C291.486 163.271 292.147 163.125 292.858 163.125C294.383 163.125 295.59 163.703 296.48 164.859C297.369 166.003 297.814 167.725 297.814 170.025C297.814 171.168 297.687 172.172 297.433 173.036C297.191 173.887 296.842 174.605 296.384 175.19C295.94 175.761 295.406 176.193 294.783 176.486C294.161 176.778 293.481 176.924 292.744 176.924C291.969 176.924 291.283 176.772 290.686 176.467C290.088 176.149 289.58 175.698 289.161 175.113C288.754 174.516 288.443 173.792 288.227 172.941C288.024 172.089 287.922 171.117 287.922 170.025ZM290.781 170.025C290.781 170.939 290.806 171.759 290.857 172.483C290.921 173.207 291.029 173.824 291.181 174.332C291.334 174.828 291.531 175.209 291.772 175.476C292.026 175.742 292.344 175.876 292.725 175.876C293.17 175.876 293.532 175.768 293.811 175.552C294.104 175.336 294.332 174.993 294.498 174.523C294.675 174.052 294.796 173.449 294.86 172.712C294.923 171.975 294.955 171.079 294.955 170.025C294.955 169.11 294.93 168.29 294.879 167.566C294.828 166.842 294.726 166.232 294.574 165.736C294.434 165.228 294.224 164.84 293.945 164.574C293.678 164.307 293.316 164.173 292.858 164.173C292.452 164.173 292.115 164.281 291.848 164.497C291.581 164.713 291.365 165.056 291.2 165.527C291.048 165.997 290.94 166.607 290.876 167.356C290.813 168.093 290.781 168.983 290.781 170.025ZM300.948 167.585H300.3C300.224 167.394 300.135 167.172 300.033 166.918C299.944 166.664 299.849 166.397 299.747 166.117C299.645 165.838 299.55 165.565 299.461 165.298C299.372 165.018 299.302 164.764 299.252 164.535C299.696 164.154 300.262 163.824 300.948 163.544C301.647 163.265 302.492 163.125 303.483 163.125C304.182 163.125 304.785 163.214 305.293 163.392C305.802 163.57 306.221 163.818 306.551 164.135C306.894 164.453 307.142 164.821 307.295 165.241C307.46 165.66 307.542 166.111 307.542 166.594C307.542 167.369 307.364 168.106 307.009 168.805C306.653 169.491 306.214 170.139 305.694 170.749C305.173 171.346 304.614 171.905 304.016 172.426C303.419 172.934 302.879 173.398 302.396 173.817L301.405 174.484V174.561L302.568 174.446H305.846L306.78 172.312H307.428C307.466 172.617 307.504 172.972 307.542 173.379C307.593 173.786 307.638 174.199 307.676 174.618C307.714 175.024 307.746 175.418 307.771 175.8C307.796 176.168 307.809 176.467 307.809 176.695H299.08V175.476C299.41 175.183 299.785 174.847 300.204 174.465C300.624 174.071 301.049 173.646 301.481 173.188C301.913 172.718 302.339 172.223 302.758 171.702C303.178 171.181 303.553 170.654 303.883 170.12C304.213 169.573 304.474 169.021 304.664 168.462C304.868 167.903 304.969 167.356 304.969 166.823C304.969 166.124 304.779 165.558 304.398 165.126C304.029 164.682 303.502 164.459 302.816 164.459C302.6 164.459 302.403 164.472 302.225 164.497C302.06 164.523 301.869 164.567 301.653 164.631L300.948 167.585ZM317.709 162.306H318.357C318.357 162.496 318.351 162.744 318.338 163.049C318.325 163.354 318.3 163.665 318.262 163.983C318.224 164.3 318.179 164.605 318.128 164.898C318.078 165.177 318.027 165.393 317.976 165.546H312.754L312.411 168.271H313.993C314.679 168.271 315.301 168.366 315.86 168.557C316.419 168.735 316.896 169.002 317.29 169.357C317.684 169.701 317.989 170.126 318.205 170.634C318.421 171.13 318.529 171.702 318.529 172.35C318.529 173.074 318.389 173.722 318.109 174.294C317.843 174.853 317.474 175.329 317.004 175.723C316.534 176.104 315.981 176.403 315.346 176.619C314.71 176.822 314.024 176.924 313.287 176.924C312.55 176.924 311.877 176.81 311.267 176.581C310.657 176.34 310.168 176.073 309.799 175.78L310.6 173.894H311.153C311.242 173.983 311.343 174.097 311.458 174.237C311.572 174.376 311.693 174.523 311.82 174.675C311.947 174.828 312.068 174.98 312.182 175.132C312.296 175.285 312.398 175.418 312.487 175.533C312.614 175.584 312.728 175.622 312.83 175.647C312.944 175.672 313.09 175.685 313.268 175.685C313.649 175.685 314.005 175.622 314.336 175.495C314.666 175.355 314.945 175.164 315.174 174.923C315.416 174.681 315.606 174.395 315.746 174.065C315.886 173.722 315.956 173.347 315.956 172.941C315.956 172.496 315.867 172.108 315.689 171.778C315.524 171.435 315.295 171.155 315.003 170.939C314.71 170.723 314.367 170.565 313.973 170.463C313.58 170.349 313.167 170.291 312.735 170.291L311.076 170.31L311.839 163.354H316.813L317.709 162.306Z" fill="currentColor"/>
<path d="M318.254 224.152H315.686V219.812C315.686 218.984 315.014 218.312 314.186 218.312C313.358 218.312 312.686 218.984 312.686 219.812V224.152H11.136V219.812C11.136 218.984 10.465 218.312 9.636 218.312C8.807 218.312 8.136 218.984 8.136 219.812V224.152H5.568C2.498 224.152 0 226.65 0 229.72C0 232.79 2.498 235.289 5.568 235.289C8.638 235.289 11.136 232.79 11.136 229.72V227.152H312.686V229.72C312.686 232.79 315.184 235.289 318.254 235.289C321.324 235.289 323.822 232.79 323.822 229.72C323.823 226.65 321.325 224.152 318.254 224.152ZM8.136 229.72C8.136 231.136 6.984 232.289 5.568 232.289C4.152 232.289 3 231.136 3 229.72C3 228.304 4.152 227.152 5.568 227.152H8.136V229.72ZM318.254 232.289C316.838 232.289 315.686 231.136 315.686 229.72V227.152H318.254C319.67 227.152 320.822 228.304 320.822 229.72C320.823 231.136 319.67 232.289 318.254 232.289Z" fill="currentColor"/>
<path d="M130.643 110.71C130.643 113.869 128.084 116.428 124.925 116.428C121.766 116.428 119.207 113.869 119.207 110.71C119.207 107.551 121.766 104.992 124.925 104.992C128.084 104.992 130.643 107.551 130.643 110.71Z" fill="currentColor"/>
<path d="M204.499 110.71C204.499 113.869 201.925 116.428 198.78 116.428C195.621 116.428 193.062 113.869 193.062 110.71C193.062 107.551 195.621 104.992 198.78 104.992C201.925 104.993 204.499 107.551 204.499 110.71Z" fill="currentColor"/>
<path d="M245.714 124.055C242.303 124.055 239.138 125.065 236.47 126.781C236.66 114.507 232.906 104.024 225.263 95.5806C204.85 73.0146 164.178 72.5946 161.91 72.5946C160.785 72.5186 149.178 71.9086 136.161 75.8156C123.315 78.7886 108.449 84.5066 98.4429 95.5806C90.7809 104.024 87.0259 114.507 87.2359 126.781C86.8739 126.552 86.5118 126.343 86.1308 126.133C83.7098 124.818 80.9468 124.056 77.9928 124.056C68.5398 124.056 60.8398 131.756 60.8398 141.209C60.8398 147.842 64.6518 153.617 70.1978 156.456C70.2548 156.494 70.3119 156.513 70.3699 156.551V212.442C70.3699 215.587 72.9428 218.16 76.0878 218.16H79.8999C83.0449 218.16 85.6178 215.587 85.6178 212.442V202.198H238.09V212.442C238.09 215.587 240.644 218.16 243.808 218.16H247.62C250.765 218.16 253.338 215.587 253.338 212.442V156.551C258.98 153.73 262.868 147.917 262.868 141.208C262.867 131.755 255.167 124.055 245.714 124.055ZM116.568 90.8726C122.61 85.2306 129.89 81.7626 136.828 79.6466C150.341 76.4826 161.643 76.4066 161.853 76.4066C162.215 76.4066 194.692 76.6356 215.486 91.9206C224.428 100.863 225.74 111.747 225.74 128.095C225.74 137.167 221.581 141.208 211.007 141.208H116.416C110.585 141.208 102.522 138.311 102.522 127.676C102.521 111.971 107.248 99.5826 116.568 90.8726ZM81.8038 212.442C81.8038 213.49 80.9459 214.348 79.8979 214.348H76.0858C75.0378 214.348 74.1799 213.49 74.1799 212.442V160.318C75.5669 161.831 78.0488 163.888 81.8038 164.843V212.442ZM79.8788 154.397C75.0618 154.753 72.2738 146.85 72.2738 141.208C72.2738 134.423 76.4429 127.569 81.7079 128.4C87.2539 130.001 91.3329 135.147 91.3329 141.208C91.3329 147.917 86.3398 153.501 79.8788 154.397ZM116.225 145.02H209.253C216.305 146.697 228.96 152.987 228.96 170.75C228.96 178.774 224.442 185.044 218.143 185.044H116.225C102.96 185.044 96.2128 180.241 96.2128 170.75C96.2128 159.41 105.647 145.02 116.225 145.02ZM227.283 198.386H102.769C100.977 197.547 99.7198 195.737 99.7198 193.621C99.7198 191.505 100.978 189.695 102.769 188.856H227.283C229.094 189.695 230.332 191.505 230.332 193.621C230.333 195.737 229.094 197.547 227.283 198.386ZM249.526 212.442C249.526 213.49 248.668 214.348 247.62 214.348H243.808C242.76 214.348 241.902 213.49 241.902 212.442V160.318C243.289 161.831 245.771 163.888 249.526 164.843V212.442ZM245.714 154.55C245.261 154.55 244.813 154.526 244.371 154.482C244.356 154.48 244.34 154.479 244.325 154.477C244.053 154.449 243.788 154.398 243.521 154.354C240.057 153.669 236.919 150.859 236.919 141.247C236.919 129.622 245.714 127.867 245.714 127.867C253.071 127.867 259.056 133.852 259.056 141.208C259.055 148.565 253.071 154.55 245.714 154.55Z" fill="currentColor"/>
</svg>
