<svg viewBox="0 0 462 512" fill="none" xmlns="http://www.w3.org/2000/svg">
<path d="M438.923 358.773C438.923 358.774 438.922 358.774 438.922 358.773C438.642 357.174 437.002 356.222 435.485 356.776L365.569 382.068C363.482 382.824 363.236 385.677 365.155 386.787L378.144 394.31C382.495 396.831 383.47 402.705 380.047 406.389C341.952 447.402 299.858 469.021 254.702 470.699C252.752 470.776 250.818 470.807 248.884 470.807C170.866 470.807 103.608 412.858 84.0931 394.322C80.8874 391.277 75.7908 391.16 72.5738 394.193L54.2913 411.431C51.0881 414.451 50.911 419.449 54.0616 422.524C75.1893 443.143 152.925 511.999 248.808 511.999C251.171 511.999 253.566 511.953 255.945 511.876C315.952 509.721 370.511 480.572 418.303 425.234C420.851 422.283 425.136 421.512 428.509 423.465L447.657 434.549C449.56 435.66 451.893 434.025 451.51 431.835L438.925 358.773C438.924 358.772 438.923 358.772 438.923 358.773Z" fill="currentColor"/>
<path d="M337.635 420.854C342.053 420.854 345.635 417.272 345.635 412.854V294.451C345.635 290.033 342.053 286.451 337.635 286.451H186.482C182.064 286.451 178.482 282.869 178.482 278.451V246.781C178.482 242.363 174.9 238.781 170.482 238.781H145.469C141.05 238.781 137.469 242.363 137.469 246.781V411.982C137.469 415.018 139.187 417.792 141.905 419.144L166.919 431.588C172.237 434.234 178.482 430.365 178.482 424.425V335.659C178.482 331.24 182.064 327.659 186.482 327.659H296.637C301.056 327.659 304.637 331.24 304.637 335.659V412.854C304.637 417.272 308.219 420.854 312.637 420.854H337.635Z" fill="currentColor"/>
<path d="M102.518 336.05C102.518 331.632 98.9359 328.05 94.5176 328.05H48.9978C44.5795 328.05 40.9978 324.468 40.9978 320.05V148.672C40.9978 144.254 37.4161 140.672 32.9978 140.672H8.00001C3.58173 140.672 0 144.254 0 148.672V361.258C0 365.676 3.58172 369.258 8 369.258H94.5176C98.9359 369.258 102.518 365.676 102.518 361.258V336.05Z" fill="currentColor"/>
<path d="M101.154 192.448C101.154 188.03 104.736 184.448 109.154 184.448H198.404C202.822 184.448 206.404 180.866 206.404 176.448V151.24C206.404 146.822 202.822 143.24 198.404 143.24H109.154C104.736 143.24 101.154 139.658 101.154 135.24V49.2078C101.154 44.7895 104.736 41.2078 109.154 41.2078H279.647C284.065 41.2078 287.647 37.6261 287.647 33.2078V8C287.647 3.58172 284.065 0 279.647 0H68.1406C63.7224 0 60.1406 3.58172 60.1406 8V299.069C60.1406 303.487 63.7223 307.069 68.1406 307.069H93.1538C97.5721 307.069 101.154 303.487 101.154 299.069V192.448Z" fill="currentColor"/>
<path d="M356.577 75.4922C356.577 71.0739 352.995 67.4922 348.577 67.4922H175.352C170.933 67.4922 167.352 71.0739 167.352 75.4922V100.7C167.352 105.118 170.933 108.7 175.352 108.7H307.564C311.982 108.7 315.564 112.282 315.564 116.7V203.904C315.564 208.323 311.982 211.904 307.564 211.904H283.917C279.498 211.904 275.917 215.486 275.917 219.904V245.097C275.917 249.515 279.498 253.097 283.917 253.097H348.577C352.995 253.097 356.577 249.515 356.577 245.097V75.4922Z" fill="currentColor"/>
<path d="M270.278 143.227H233.154C228.736 143.227 225.154 146.808 225.154 151.227V176.434C225.154 180.853 228.736 184.434 233.154 184.434H270.278C274.696 184.434 278.278 180.853 278.278 176.434V151.227C278.278 146.808 274.696 143.227 270.278 143.227Z" fill="currentColor"/>
<path d="M438.9 200.473C438.896 200.473 438.892 200.47 438.89 200.466C427.429 172.117 407.279 150.681 396.077 140.199C392.16 136.534 385.562 137.915 383.134 142.698L371.291 166.024C369.727 169.105 370.317 172.83 372.619 175.406C378.999 182.549 391.971 198.416 402.96 220.398C421.296 257.085 426.416 294.148 418.233 330.696C417.27 335 419.737 339.397 423.986 340.58L448.099 347.298C452.362 348.486 456.8 345.987 457.774 341.671C468.265 295.196 458.201 248.197 438.911 200.48C438.909 200.476 438.905 200.473 438.9 200.473Z" fill="currentColor"/>
</svg>
