<svg width="39" height="13" viewBox="0 0 39 13" fill="none" xmlns="http://www.w3.org/2000/svg">
<path d="M37.9413 7.64104C37.5918 7.64293 37.2558 7.61563 36.9918 7.33692C36.696 7.02496 36.3028 6.77193 36.1033 6.40995C35.6346 5.5595 34.7379 5.26755 34.0638 4.69147C33.8019 4.46764 33.4613 4.7769 33.2215 4.53441C33.1658 4.47819 33.1175 4.38681 33.1172 4.31139C33.1169 4.24002 33.1721 4.11918 33.2242 4.10594C33.4283 4.05457 33.6405 4.02403 33.8511 4.01078C34.1092 3.99456 34.3714 4.01078 34.5547 3.77722C34.8174 3.77586 35.0799 3.77479 35.3426 3.77344C35.5708 3.93023 35.2294 4.40385 35.8367 4.43629C36.4001 4.46657 36.9728 4.81718 37.4802 5.11238C38.2476 5.55923 39.0599 6.06772 38.7498 7.20662C38.5506 7.48236 38.2895 7.64293 37.9413 7.64104Z" fill="#F0772F"/>
<path d="M38.7509 7.21325C38.7082 6.88102 38.7441 6.52148 38.3816 6.3144C38.1532 6.18384 38.0127 5.96866 37.8859 5.74131C37.7796 5.551 37.6229 5.37582 37.402 5.35636C36.7792 5.30202 36.2813 4.99872 35.7805 4.65973C35.5842 4.52673 35.3004 4.52321 35.0547 4.4605C35.0787 4.20287 35.3853 4.065 35.3436 3.78007C36.2743 3.6614 37.2201 3.8044 38.1483 3.60625C38.4297 3.54623 38.6687 3.70709 38.7252 3.98742C38.9195 4.94709 39.0904 5.9135 38.9447 6.89831C38.9279 7.01049 38.8176 7.10863 38.7509 7.21325Z" fill="#F88134"/>
<path d="M35.3295 11.2007C35.2536 11.2475 35.1776 11.2945 35.1014 11.3413C34.0556 10.5833 32.9824 9.85367 32.2929 8.71559C32.0915 8.38335 31.5801 8.06329 32.2269 7.67131C33.2698 7.52912 34.3134 7.3407 35.3327 7.7881L35.3763 7.90298C35.4739 9.00376 35.369 10.1016 35.3295 11.2007Z" fill="#5098F7"/>
<path d="M10.466 7.6248C10.4541 6.76056 10.4463 5.89631 10.4282 5.03207C10.422 4.73282 10.2638 4.54926 9.95434 4.53034C9.73891 4.51709 9.52239 4.51655 9.30642 4.51763C8.22816 4.52223 7.15991 4.49682 6.08166 4.33949C5.0645 4.19108 4.01192 4.28461 2.97503 4.27326C1.96678 4.2619 1.90299 4.2073 1.59403 3.28061C1.41319 2.73833 1.34778 2.18848 1.38509 1.62133C1.39725 1.43669 1.4778 1.29477 1.61646 1.17988C2.02003 1.82435 2.19384 2.59425 2.80716 3.13112C3.21371 3.48715 3.59106 3.75558 4.17546 3.65583C3.70945 2.51585 2.54092 1.96518 2.09707 0.871703C2.37981 0.605159 2.73905 0.651395 3.07666 0.651665C5.96137 0.652206 8.84608 0.661664 11.7308 0.668692C11.7892 0.716541 11.8162 0.77088 11.8116 0.831164C11.8068 0.894691 11.7968 0.926313 11.7822 0.925772C11.7111 0.995247 11.6254 1.03743 11.5297 1.0577C11.3324 1.21125 11.6784 1.20962 11.6075 1.32775C11.6086 1.43859 11.5835 1.54023 11.5289 1.63619C10.8731 2.13874 10.5423 1.34343 10.0314 1.26665C9.9211 1.25422 9.81189 1.23882 9.70188 1.22747C9.2083 1.18719 8.7131 1.21909 8.22195 1.19016C8.12356 1.18638 8.0249 1.16908 7.92975 1.14367C7.80298 1.10204 7.67593 1.05634 7.60511 0.931448C7.60213 1.02255 7.63862 1.09094 7.72377 1.13339C7.79026 1.18772 7.85055 1.24693 7.91002 1.30856C7.91272 1.30721 8.00003 1.4021 8.003 1.40129C8.06787 1.46509 8.12383 1.53483 8.17654 1.60917C8.22519 1.69081 8.25682 1.77784 8.2779 1.87003C8.29899 2.01655 8.28439 2.15848 8.23006 2.29634C8.15032 2.43286 8.03706 2.51261 7.87298 2.5045C7.77756 2.48206 7.68755 2.44476 7.60375 2.39394C7.56483 2.36609 7.52672 2.33608 7.48752 2.3085C7.41292 2.25011 7.3421 2.18605 7.27209 2.12226C7.23452 2.09414 7.19884 2.06305 7.16073 2.03494C7.07936 1.98547 7.00124 1.93195 6.9215 1.88004C6.83879 1.83003 6.76473 1.76947 6.6958 1.70216C6.63147 1.63106 6.5728 1.55564 6.5155 1.47994C6.38818 1.33018 6.22655 1.24206 6.0303 1.21287C5.92515 1.20935 5.82297 1.20178 5.71864 1.19826C5.27777 1.1815 4.83366 1.23935 4.40306 1.11743C4.31548 1.06688 4.24087 1.07554 4.18113 1.14528C4.26493 1.17691 4.36522 1.13826 4.44252 1.20773C4.74311 1.46076 4.96259 1.78217 5.1791 2.09792C6.09869 3.44064 7.28885 4.20216 8.98286 3.93183C9.46076 3.93778 9.94056 3.8994 10.412 4.01943C10.5539 4.06457 10.6771 4.13864 10.7861 4.23975C10.8745 4.36166 10.9358 4.49548 10.975 4.64037C11.0272 5.60409 11.2034 6.57403 10.8437 7.51937C10.7496 7.66967 10.6236 7.70428 10.466 7.6248Z" fill="#F891B7"/>
<path d="M10.4659 7.625C10.5205 7.66068 10.5802 7.67555 10.6453 7.66933C10.8216 7.75476 10.9048 7.9129 10.9732 8.08347C11.762 9.28482 12.6843 10.3767 13.682 11.4064C13.7736 11.4831 13.8577 11.5678 13.9401 11.6545C14.0271 11.7383 14.1061 11.8292 14.1839 11.9222C14.222 11.9703 14.2572 12.02 14.2947 12.0687C14.3629 12.1744 14.4064 12.289 14.4256 12.4133C14.411 12.4742 14.3956 12.5347 14.3804 12.5955C14.2731 12.6658 14.1547 12.6977 14.0271 12.6972C13.3352 12.6961 12.6434 12.701 11.9517 12.6948C11.6655 12.678 11.5152 12.4793 11.3738 12.2676C11.3049 12.1668 11.2441 12.06 11.1857 11.953C10.2012 10.8249 9.0835 9.81899 8.16067 8.63387C7.80252 8.17404 7.23109 8.24892 6.74021 8.13322C6.64912 8.10484 6.50748 8.06536 6.50667 8.18836C6.50532 8.35515 6.4472 8.17891 6.62263 8.17675C6.69778 8.28001 6.74482 8.39004 6.76806 8.51385C6.7459 9.06748 6.60912 9.48082 5.91524 9.21914C5.44924 8.82257 5.40003 8.37786 5.7617 7.8864C6.32151 7.60905 6.92808 7.66501 7.52167 7.65257C8.50289 7.63257 9.48437 7.63338 10.4659 7.625Z" fill="#5199F8"/>
<path d="M37.9444 7.64353C37.7217 7.89954 37.4203 7.86196 37.1305 7.85628C36.5464 7.84466 35.9614 7.78411 35.3811 7.90332C35.3275 7.87629 35.274 7.84952 35.22 7.8233C34.5848 6.63736 33.4032 6.16347 32.2799 5.66147C31.7363 5.41872 31.3019 5.14028 31.0132 4.63342C30.9083 4.51745 30.7875 4.42149 30.6375 4.36769C30.2742 4.28335 29.9082 4.31281 29.5433 4.33687C29.1046 4.36634 28.7872 4.77155 28.3263 4.73425C28.212 4.72722 28.1006 4.70695 27.9901 4.67965C27.8184 4.6437 27.6463 4.61422 27.4708 4.59908C26.917 4.54285 26.3388 4.68046 25.8155 4.39013C25.7076 4.29876 25.683 4.18603 25.7292 4.05519C28.4972 3.82027 31.2694 3.7043 34.0477 3.75323C34.2179 3.7562 34.388 3.77052 34.558 3.77971C34.0309 4.34038 34.0163 4.36525 34.8102 4.82968C36.0506 5.55551 36.7267 6.89932 37.9444 7.64353Z" fill="#F88034"/>
<path d="M25.7286 4.05368C25.7202 4.1164 25.7075 4.1783 25.6907 4.23967C25.6148 4.35267 25.5126 4.43268 25.3855 4.48134C25.1333 4.56649 24.8714 4.5846 24.6081 4.59325C24.0964 4.58785 23.5802 4.63299 23.0771 4.4935C22.1435 3.91932 21.6951 2.83665 20.7525 2.27086C20.6544 2.2076 20.5627 2.13542 20.4733 2.06108C20.3857 1.98755 20.307 1.90402 20.2343 1.8167C20.1648 1.73155 20.1024 1.63938 20.0427 1.54746C19.8675 1.20928 19.5453 1.20522 19.2269 1.19576C19.0631 1.19954 18.9001 1.19846 18.7371 1.20008C18.5168 1.20819 18.3 1.23551 18.09 1.30525C17.3464 2.21248 16.6492 1.53422 15.9389 1.24767C15.6223 1.22496 15.3072 1.23632 14.9909 1.23983C14.3022 1.25956 13.6148 1.23279 12.9266 1.24036C12.7839 1.2436 12.6419 1.2374 12.4995 1.22713C12.2076 1.19333 11.9281 1.13142 11.7305 0.886227C11.731 0.813239 11.7316 0.74025 11.7321 0.667262C15.5645 0.658341 19.3972 0.649154 23.2296 0.641044C23.4018 0.640773 23.5756 0.636989 23.7456 0.658616C24.3376 0.734038 24.6811 1.05195 24.6995 1.67154C24.0094 2.11029 23.6813 1.21875 23.1047 1.24254C22.8725 1.26578 22.3419 1.0506 22.7157 1.61072C23.1977 2.33304 23.8356 2.91505 24.6725 3.23323C24.6644 3.36082 24.6771 3.49409 24.6441 3.61493C24.5641 3.90796 24.7063 3.99096 24.9625 4.00204C25.2177 4.01285 25.4729 4.03611 25.7286 4.05368Z" fill="#F78EB4"/>
<path d="M1.60547 8.6839C2.08445 8.12378 2.69588 7.89264 3.42706 7.91561C4.03038 7.93454 4.6348 7.91885 5.23866 7.91858C5.30354 8.14485 5.16811 8.25866 4.99673 8.35274C4.34746 8.43032 4.02553 8.64929 4.62588 9.2432C5.43869 10.0477 5.6406 11.2961 6.63722 11.9795C6.82671 12.1092 7.09188 12.4366 6.67156 12.694C6.165 12.7115 5.65872 12.704 5.15243 12.6988C4.07715 12.3725 3.95794 11.1823 3.20595 10.5346C2.59992 10.0128 2.12716 9.31323 1.60547 8.6839Z" fill="#529BFA"/>
<path d="M1.60547 8.67969C2.10175 8.67834 2.37125 9.04084 2.6548 9.35956C2.82455 9.55041 2.90321 9.83291 3.09108 9.9951C3.9193 10.7104 4.46909 11.6228 4.98943 12.5608C4.21203 12.7938 3.70602 12.4373 3.3211 11.8014C3.03674 11.3316 2.81428 10.8175 2.19122 10.2546C2.4172 10.8196 2.59858 11.1164 2.85429 11.3751C3.17865 11.7036 3.70305 12.0726 3.38544 12.5297C3.12162 12.9095 2.53073 12.726 2.07904 12.5919C1.91091 12.5773 1.73089 12.5786 1.64169 12.3989C1.54817 12.2102 1.4041 12.0169 1.39599 11.8209C1.37031 11.2162 0.941331 11.2059 0.523438 11.1581C0.596691 11.1199 0.665349 11.0526 0.73671 11.0497C1.12082 11.034 1.36949 10.9172 1.33949 10.4598C1.31219 10.0457 1.33057 9.62773 1.33922 9.21197C1.34354 8.9976 1.41247 8.80485 1.60547 8.67969Z" fill="#4D93F2"/>
<path d="M2.0972 0.875C2.84325 1.38835 3.45657 2.03038 3.97881 2.76892C4.24073 3.139 4.54374 3.48016 4.9338 3.96567C4.34804 3.98297 3.93691 3.99838 3.5255 4.00568C3.25357 4.01055 3.03786 3.91701 2.87487 3.67641C2.73215 3.46583 2.57078 3.25145 2.37156 3.09926C1.72634 2.60645 1.49631 1.96794 1.61659 1.18263C1.70039 0.960965 1.88069 0.889868 2.0972 0.875Z" fill="#EE86AA"/>
<path d="M24.6712 3.23665C24.4068 3.3637 24.1441 3.5605 23.8614 3.27747C23.1799 2.59489 22.3879 2.00016 22.0352 1.01859C22.402 0.80206 22.785 0.932901 23.1486 0.902354C23.6727 1.23891 24.0546 1.79066 24.7066 1.93366C24.7642 2.3697 24.7726 2.80466 24.6712 3.23665Z" fill="#ED84A8"/>
<path d="M4.9814 8.16473C5.06762 8.08201 5.15357 7.99928 5.23952 7.91656C5.4133 7.90791 5.58681 7.89928 5.76059 7.89062C5.73491 8.34991 5.77033 8.79731 6.02005 9.20226C5.96465 9.23875 5.90897 9.27525 5.85356 9.31201C5.16518 9.232 4.7114 8.97356 4.9814 8.16473Z" fill="#5099F8"/>
<path d="M24.7063 1.93001C23.912 2.0019 23.5233 1.46082 23.1484 0.898929C23.4749 0.888118 23.713 1.05705 23.9247 1.28002C24.136 1.50245 24.3733 1.67326 24.6979 1.67137C24.7006 1.75758 24.7033 1.84379 24.7063 1.93001Z" fill="#EE86AA"/>
<path d="M21.8559 12.5497C21.5924 12.5503 21.3286 12.5511 21.065 12.5516C19.4183 12.6657 18.5312 11.3949 17.4618 10.4566C17.2621 10.4612 17.2464 10.788 17.3259 10.6342C17.3337 10.619 17.3437 10.6185 17.3586 10.6228C18.2706 10.8888 18.249 11.8712 18.8558 12.4538C18.2917 12.8741 17.7354 12.6595 17.2099 12.6644C14.6912 12.5403 13.6251 10.5552 12.339 8.85515C12.093 8.52994 12.2171 8.30367 12.5774 8.1704C14.1746 7.93062 15.7811 8.13688 17.3802 8.04578C18.1538 8.00469 18.9269 8.06523 19.7 8.05172C20.1584 8.01711 20.6163 8.05956 21.0747 8.05929C21.9843 8.04037 22.8936 8.06578 23.8032 8.09579C24.0381 8.12282 24.2519 8.2004 24.4303 8.36125C24.5622 8.65023 24.3695 8.77566 24.163 8.89488C23.5894 9.1152 22.9866 9.01248 22.3971 9.05222C21.707 9.05141 21.0158 9.04816 20.3265 9.03275C19.9022 9.02815 19.4775 8.98057 18.898 8.9849C19.9833 10.3582 21.5683 10.9775 22.685 12.1372C22.7058 12.2672 22.6533 12.36 22.5387 12.4202C22.3117 12.4667 22.0606 12.3867 21.8559 12.5497Z" fill="#5496F0"/>
<path d="M17.1843 12.563C17.6122 12.563 18.0401 12.563 18.6664 12.563C18.1063 12.0975 17.8174 11.6433 17.6844 11.1078C17.6125 10.8191 17.3162 10.7588 17.1732 10.5512C17.137 10.4988 17.1286 10.379 17.1638 10.3379C17.2105 10.2828 17.3103 10.2555 17.3903 10.2487C17.6619 10.2257 17.8974 10.3158 18.092 10.5088C18.4285 10.8424 18.7759 11.1654 19.0994 11.5109C19.5506 11.9931 20.0109 12.4273 20.7515 12.3459C20.8475 12.3354 20.9602 12.4759 21.0651 12.5465C17.1486 12.9733 13.2173 12.7763 9.29189 12.816C7.34811 12.8358 5.40434 12.8201 3.46029 12.8122C2.99131 12.8104 2.50422 12.8885 2.08119 12.589C2.45448 12.5243 2.85075 12.6587 3.20728 12.4711C3.26999 12.1762 3.15836 11.9421 2.96293 11.7645C2.26851 11.134 1.90062 10.6734 1.71708 10.1279C1.67492 10.0024 1.70465 9.86538 1.83575 9.79861C1.90684 9.76239 2.00118 9.75373 2.08308 9.75941C2.31635 9.7759 2.49233 9.92108 2.61586 10.0933C2.89076 10.4766 3.23215 10.8502 3.37271 11.2841C3.64004 12.108 4.22985 12.4168 4.99131 12.5579C5.58869 12.5581 6.18606 12.5587 6.78344 12.5592C7.07429 12.2556 7.47489 12.2697 7.84386 12.1894C7.95441 12.1778 8.06442 12.1837 8.17389 12.1991C8.3377 12.2216 8.5015 12.2454 8.66666 12.2575C9.09861 12.2705 9.53003 12.274 9.95495 12.2516C10.0314 12.2378 10.1025 12.2032 10.1523 12.1407C10.1533 12.0569 10.132 11.9856 10.0717 11.9226C10.0012 11.8558 9.93981 11.7888 9.8744 11.7174C9.83926 11.6752 9.80979 11.6358 9.77655 11.5944C9.54003 11.1459 9.52705 10.8267 10.1779 10.9502C10.8118 11.0705 11.1889 11.509 11.4706 12.0515L11.4708 12.0521C11.62 12.1891 11.566 12.4346 11.7406 12.5581C12.5996 12.5595 13.4587 12.5608 14.3177 12.5622C14.3858 12.5084 14.4096 12.4532 14.3893 12.3968C14.3688 12.3394 14.3477 12.3108 14.3255 12.3108C14.2382 12.2248 14.156 12.134 14.0658 12.0513L14.066 12.0515C13.9822 11.9623 13.8957 11.8758 13.8063 11.792C13.6565 11.5679 13.5606 11.3197 13.7782 11.1054C14.0085 10.8783 14.3242 11.0013 14.4385 11.1922C15.0697 12.2462 16.0693 12.5084 17.1843 12.563Z" fill="#4A8EEE"/>
<path d="M24.1836 8.67948C24.2701 8.59162 24.3563 8.50376 24.4428 8.41618C24.6372 8.18613 24.904 8.13746 25.1829 8.11719C26.4104 8.26965 27.44 8.85059 28.2947 9.7024C28.8037 10.2095 29.2502 10.7753 29.8152 11.2349C30.1344 11.4947 30.4831 11.8147 30.1525 12.3103C29.8289 12.4146 29.5021 12.4033 29.174 12.3365C28.8945 12.489 28.5872 12.4554 28.2952 12.4308C27.2818 12.3451 24.4285 9.72754 24.1836 8.67948Z" fill="#5098F6"/>
<path d="M33.786 12.045L33.6854 12.0915L33.5757 12.0753C32.0241 12.3732 30.9575 11.4419 29.9247 10.549C29.3386 10.0424 28.8521 9.44875 28.0855 9.16896C27.5827 8.98568 27.2819 8.62749 27.7184 8.07494C28.039 7.79867 28.4185 7.66675 28.8326 7.61782C29.1046 7.59349 29.3716 7.62269 29.6346 7.69298C31.2581 8.46666 32.4674 9.75937 33.7171 10.9956C34.0098 11.2846 34.1058 11.6728 33.786 12.045Z" fill="#529BF9"/>
<path d="M24.1847 8.67969C24.3971 8.94731 24.6439 9.19493 24.8142 9.48716C25.065 9.91752 25.3359 10.2616 25.8938 10.2633C26.1674 10.2641 26.3641 10.4603 26.5312 10.6596C26.6404 10.7899 26.715 10.9486 26.818 11.0848C27.4091 11.8663 28.1079 12.4494 29.1751 12.3364C28.9494 12.4851 28.6939 12.5102 28.4333 12.5116C26.4117 12.5221 24.3901 12.5324 22.3682 12.5427C22.2839 12.4916 22.256 12.4408 22.2839 12.3897C22.3117 12.3389 22.3398 12.3132 22.3682 12.3132C22.4539 12.3124 22.5396 12.3118 22.6253 12.3118C22.9102 11.7133 23.4513 11.7549 23.9803 11.7649C24.1049 11.7749 24.2282 11.7998 24.349 11.8304C24.5228 11.8739 24.6966 11.9236 24.8726 11.9528C25.2883 11.59 25.314 11.5271 24.875 11.3489C24.003 10.9948 23.4321 10.2998 22.8085 9.66286C22.5531 9.402 22.2076 9.14681 22.3641 8.68347C22.971 8.68211 23.5778 8.68104 24.1847 8.67969Z" fill="#498DEE"/>
<path d="M27.815 8.17942C27.7145 8.69737 27.7409 8.8493 28.0434 8.88174C28.8376 8.96689 29.3593 9.41564 29.8377 10.0104C30.2094 10.4726 30.6292 10.8703 31.2441 11.1014C31.7831 11.3039 32.1894 11.8375 32.8111 11.9465C33.0654 11.9911 33.3201 12.0319 33.575 12.0746C33.3228 12.276 33.0179 12.283 32.72 12.2879C31.8645 12.3022 31.0087 12.3041 30.1532 12.3109C30.1507 11.8748 29.8929 11.5815 29.5531 11.3874C28.9792 11.0592 28.53 10.6289 28.2199 10.0455C28.1615 9.93548 28.0721 9.82627 27.9696 9.7576C27.0919 9.16991 26.251 8.50328 25.1484 8.37271C25.1898 8.13401 25.3517 8.00749 25.5623 7.92531C26.1999 7.77744 26.8384 7.77366 27.4777 7.92153C27.6161 7.97316 27.7285 8.05966 27.815 8.17942Z" fill="#4A8EED"/>
<path d="M33.7839 12.047C33.829 11.581 33.6806 11.1814 33.2795 10.9422C32.8627 10.6937 32.5345 10.3869 32.3053 9.95872C32.0153 9.41671 31.2703 9.54187 30.9424 9.06474C30.6265 8.60464 30.3272 8.14482 29.7236 8.02911C29.689 8.02236 29.6631 7.97099 29.6328 7.94045C30.407 7.36843 31.1844 7.38411 31.9647 7.92693C32.4802 8.47678 33.0392 8.98581 33.4003 9.66947C33.5593 9.97035 33.8461 10.1577 34.1977 10.2526C34.7427 10.3996 35.0511 10.7727 35.1008 11.3444C34.8157 11.8667 34.3932 12.1319 33.7839 12.047Z" fill="#4B8EEF"/>
<path d="M22.369 12.3125C22.369 12.389 22.369 12.4655 22.369 12.542C22.1979 12.543 22.0265 12.5441 21.8555 12.5452C21.9736 12.3503 22.1638 12.3152 22.369 12.3125Z" fill="#4A8EEE"/>
<path d="M10.6862 4.26945C10.6024 4.26783 10.5186 4.2662 10.4348 4.26485C10.0196 4.07021 9.52927 3.98181 9.32572 3.4863C9.26085 3.39168 9.20355 3.29193 9.14759 3.19191C8.8389 2.65693 8.37289 2.23036 8.0961 1.67294V1.67347C8.01149 1.5848 7.92472 1.49858 7.8366 1.41316L7.83715 1.41342C7.76903 1.33719 7.72713 1.24852 7.71172 1.14742C7.70442 1.03983 7.74821 0.95791 7.8366 0.898438C8.52805 0.898978 9.21949 0.89925 9.91067 0.89979C10.0783 1.08253 10.2896 1.21094 10.484 1.36232C10.9559 1.8627 11.6347 2.13872 12.0026 2.74533C12.3315 3.28761 12.7932 3.83584 12.1126 4.45165C11.6033 4.65521 11.1224 4.63575 10.6862 4.26945Z" fill="#ED83A8"/>
<path d="M17.4281 8.3758C16.1761 8.38743 14.924 8.39985 13.672 8.40986C13.1973 8.41364 12.7226 8.4123 12.2477 8.41311C11.6236 8.83509 11.1441 8.57935 10.7153 8.086C10.6918 7.9457 10.6683 7.80566 10.6445 7.66536C10.6648 6.62081 10.6851 5.57653 10.7054 4.53198C10.8089 4.43358 10.9194 4.42979 11.0362 4.50657C11.7766 5.28647 11.7766 5.28647 11.3811 5.94472C11.4449 5.96878 11.5114 5.95445 11.5711 5.9404C12.0431 5.82956 12.4094 5.92742 12.5799 6.43131C12.3245 6.8879 12.8751 6.60865 12.9154 6.79517C13.6236 7.71402 14.5715 7.98625 15.6828 7.81783C16.0834 7.81594 16.4837 7.80459 16.8819 7.86568C17.1462 7.94759 17.4406 7.99869 17.4281 8.3758Z" fill="#F68036"/>
<path d="M8.86577 4.26214C8.69629 4.26349 8.52492 4.24809 8.35787 4.26836C6.92092 4.44407 5.97971 3.68255 5.18988 2.61583C4.83902 2.14194 4.40139 1.72835 4.20244 1.15255C4.14379 1.09578 4.12432 1.03928 4.14433 0.982783C4.16433 0.926555 4.18406 0.898438 4.20379 0.898438C4.80766 0.898708 5.41153 0.898712 6.01566 0.898982C6.17271 1.32286 6.35409 1.7278 6.80847 1.92027C7.02526 1.98353 7.19122 2.13628 7.38206 2.24495C7.47585 2.30064 7.56749 2.35983 7.65723 2.42201C7.7394 2.49473 7.82374 2.56447 7.91159 2.63043C7.98998 2.70937 8.05647 2.79722 8.11513 2.89103C8.24893 3.41114 9.01742 3.58578 8.86577 4.26214Z" fill="#ED83A8"/>
<path d="M12.2527 4.25917C12.2811 3.72257 12.0892 3.24787 11.7351 2.87454C11.2448 2.35794 10.7963 1.7889 10.1714 1.41369C10.0305 1.24338 10.0138 1.07199 10.1657 0.898438C10.4257 1.10389 10.6812 1.31529 10.9474 1.51263C11.1485 1.66186 11.3307 1.62725 11.4694 1.41152C11.7283 1.26068 11.9157 1.42909 12.1141 1.55398C12.26 1.66509 12.3941 1.78917 12.5247 1.91866C13.0631 2.42255 13.4351 3.04189 13.7489 3.69851C13.8816 3.97641 13.9867 4.26539 13.6145 4.46408C13.1266 4.61871 12.6549 4.66818 12.2527 4.25917Z" fill="#F88FB6"/>
<path d="M12.255 4.25521C12.7713 4.25737 13.2878 4.25981 13.8041 4.26197C14.305 3.77684 14.9437 3.95818 15.5333 3.90142C16.1277 3.90061 16.724 3.87467 17.3133 3.99197C17.46 4.03467 17.589 4.10899 17.7011 4.2125C17.759 4.36818 17.7274 4.50331 17.6071 4.61791C17.0665 4.9752 16.4485 4.83845 15.8598 4.89359C15.34 4.91305 14.8202 4.8671 14.3001 4.89765C13.6222 4.91981 12.9448 4.85089 12.2666 4.89548C11.7963 4.90035 11.336 4.86602 10.9524 4.54602L10.8294 4.53251L10.7059 4.53277C10.6999 4.44358 10.6937 4.3544 10.6875 4.26521C11.2103 4.26169 11.7325 4.25845 12.255 4.25521Z" fill="#F28591"/>
<path d="M8.86716 4.26248C8.76336 4.12786 8.68686 3.94781 8.55117 3.86644C8.10516 3.59909 7.88243 3.21415 7.83594 2.70999C8.51306 2.40776 8.78633 3.32174 9.39452 3.22766C9.7416 3.57287 10.0884 3.91782 10.4355 4.26303C9.91243 4.26276 9.38966 4.26248 8.86716 4.26248Z" fill="#F78EB5"/>
<path d="M9.39422 3.22555C9.18881 3.68808 9.02963 3.77513 8.82423 3.50183C8.55666 3.14554 8.24558 2.87277 7.83612 2.70787L7.83639 2.7084C7.80396 2.66515 7.77125 2.62163 7.73828 2.5781C7.77071 2.53485 7.80368 2.49161 7.83665 2.44809C7.92314 2.36158 8.00963 2.27507 8.09612 2.18856C8.83017 2.15694 8.99557 2.8379 9.39449 3.22609L9.39422 3.22555Z" fill="#F88FB6"/>
<path d="M11.9858 1.67549C11.8137 1.58819 11.6415 1.50061 11.4694 1.41332C11.4691 1.32737 11.468 1.24142 11.4661 1.15575C11.4091 1.09791 11.3902 1.04062 11.4099 0.983596C11.4294 0.926569 11.4488 0.897916 11.468 0.897916C11.5542 0.896565 11.6407 0.894139 11.7269 0.890625C11.9872 0.89576 12.2472 0.900891 12.5075 0.906296C12.6118 0.976566 12.7148 1.04818 12.8177 1.12116C12.8275 1.18359 12.8369 1.24602 12.8469 1.30845C12.6853 1.7244 12.444 1.95413 11.9858 1.67549Z" fill="#EE84A9"/>
<path d="M6.79878 2.19308C6.615 2.10009 6.42392 2.01927 6.24932 1.9114C5.78122 1.62215 5.77527 1.57808 6.01716 0.901448C6.10338 0.899286 6.18986 0.898208 6.27608 0.898478C6.40716 1.11447 6.57878 1.28937 6.79797 1.4167C6.7977 1.50266 6.79797 1.58836 6.79878 1.67432C6.9504 1.84706 6.96013 2.02007 6.79878 2.19308Z" fill="#EE86AA"/>
<path d="M9.39603 3.22897C8.96306 2.88322 8.53036 2.53747 8.09766 2.19145C8.09766 2.01817 8.09792 1.84516 8.09819 1.67188C8.65819 2.08467 9.2617 2.46097 9.39603 3.22897Z" fill="#F78EB5"/>
<path d="M6.80078 2.19079C6.80078 2.01782 6.80078 1.84485 6.80078 1.67188C6.88727 1.67188 6.97376 1.67188 7.06025 1.67188C7.13079 1.77431 7.23619 1.84186 7.3197 1.93132C7.40646 2.01754 7.48348 2.11349 7.57916 2.19079C7.64511 2.24836 7.667 2.3062 7.64511 2.36376C7.62322 2.42133 7.60132 2.45025 7.57916 2.45025C7.28565 2.46593 7.05321 2.29863 6.80078 2.19079Z" fill="#F78EB5"/>
<path d="M6.79923 1.41654C6.46356 1.40681 6.2914 1.23222 6.27734 0.898438C6.52924 0.992762 6.70167 1.16681 6.79923 1.41654Z" fill="#F78EB5"/>
<path d="M10.1692 0.899301C10.1711 1.07092 10.173 1.24282 10.1749 1.41444C9.96623 1.30471 9.92028 1.11228 9.91406 0.899846C9.9992 0.898224 10.0841 0.89795 10.1692 0.899301Z" fill="#EE86AA"/>
<path d="M7.57812 2.45478C7.57812 2.36829 7.57812 2.2818 7.57812 2.19531C7.66461 2.2818 7.7511 2.36829 7.83759 2.45478C7.7511 2.53424 7.66461 2.53424 7.57812 2.45478Z" fill="#F88FB6"/>
<path d="M7.83704 1.15336C7.83731 1.24012 7.83758 1.3266 7.83812 1.41335C7.75136 1.32687 7.66461 1.24039 7.57812 1.1539C7.66407 1.05309 7.75055 1.05282 7.83704 1.15336Z" fill="#F78EB5"/>
<path d="M11.4694 0.898438C11.4686 0.984383 11.4681 1.07032 11.4675 1.15627C11.3651 1.11978 11.3256 1.05493 11.3689 0.972224C11.3862 0.939251 11.4351 0.922492 11.4694 0.898438Z" fill="#F88FB6"/>
<path d="M7.83513 1.15439C7.74864 1.15493 7.66243 1.15521 7.57594 1.15494H7.57621C7.52513 1.09737 7.50864 1.04006 7.52648 0.983578C7.54432 0.927091 7.56189 0.898722 7.57918 0.898722C7.66459 0.898182 7.74999 0.898439 7.83567 0.89925C7.8354 0.984115 7.83513 1.06926 7.83513 1.15439Z" fill="#EE86AA"/>
<path d="M7.58244 0.898438C7.58028 0.983843 7.5792 1.06925 7.5792 1.15465C7.40028 1.06709 7.40001 0.981681 7.58244 0.898438Z" fill="#F78EB5"/>
<path d="M4.20798 0.898438C4.20717 0.983032 4.20691 1.06763 4.20664 1.15249C4.10394 1.11682 4.06393 1.05249 4.1069 0.970327C4.12393 0.937354 4.17339 0.921681 4.20798 0.898438Z" fill="#EE86AA"/>
<path d="M10.4223 12.5658C9.73597 12.5648 9.04966 12.5639 8.36336 12.5628C8.27253 12.4826 8.18199 12.402 8.09603 12.3169C6.98804 11.8619 6.02223 10.4137 6.01953 9.20321L6.02008 9.20266C6.35958 9.17617 6.53366 8.99694 6.5323 8.652C6.53176 8.48927 6.5369 8.3268 6.5396 8.16406C7.82788 8.68715 8.49662 9.86903 9.32916 10.8582C9.60109 11.1812 9.78382 11.5767 10.1714 11.7984L10.1712 11.7978C10.2558 11.8862 10.3423 11.973 10.4309 12.0573H10.4307C10.5745 12.2295 10.5831 12.399 10.4223 12.5658Z" fill="#5099F8"/>
<path d="M10.7149 8.09375C11.2257 8.20269 11.7364 8.31191 12.2472 8.42085C12.4543 8.7512 12.8606 8.85823 13.0595 9.23102C13.4363 9.93685 13.8202 10.6367 14.6365 11.0028C14.9454 11.1412 15.1028 11.6002 15.3517 11.894C15.7328 12.3444 16.0421 12.392 16.594 12.1222C17.0798 11.8846 17.0798 11.8846 17.1825 12.5682C16.0199 12.7664 15.0717 12.4309 14.3648 11.4594C14.2716 11.3312 14.1053 11.2561 13.9796 11.1612C13.7561 11.3631 13.822 11.5899 13.8045 11.7975C13.5198 11.6099 13.229 11.431 12.953 11.2312C12.8184 11.1336 12.6357 11.0147 12.6051 10.8765C12.4332 10.0996 11.7885 9.6987 11.3052 9.17074C11.0187 8.85824 10.6484 8.59737 10.7149 8.09375Z" fill="#4B8EEF"/>
<path d="M10.172 11.7946C9.79165 11.7957 9.49513 11.5994 9.32511 11.2967C8.91803 10.5714 8.31416 10.0221 7.71165 9.48818C7.2597 9.08755 7.10967 8.44065 6.54014 8.16004L6.54041 8.16031C6.48824 8.10543 6.47256 8.05246 6.49311 8.00082C6.51338 7.95027 6.53284 7.92486 6.55122 7.92486C6.76585 7.91756 6.98155 7.92188 7.19483 7.90052C7.81761 7.83808 8.27821 8.0703 8.5842 8.62042C9.04831 9.45465 9.94789 9.92826 10.389 10.7868C10.4382 10.8828 10.5915 10.9515 10.7093 10.982C11.2702 11.1272 11.3992 11.5667 11.4692 12.0533C10.9964 11.7457 10.7115 11.1591 10.0684 11.1066C9.99384 11.1004 9.91654 11.1299 9.79787 11.1501C9.92762 11.3737 10.0498 11.584 10.172 11.7946Z" fill="#4A8EEF"/>
<path d="M11.7385 12.5606C11.5155 12.4631 11.476 12.2674 11.4688 12.0547C11.6755 12.1612 11.722 12.3531 11.7385 12.5606Z" fill="#4A8EEF"/>
<path d="M6.55201 7.92188C6.54471 8.00025 6.5412 8.07862 6.5412 8.15727C6.43795 8.12187 6.39877 8.05809 6.44498 7.9789C6.46228 7.94917 6.51525 7.94025 6.55201 7.92188Z" fill="#5099F8"/>
<path d="M13.8047 11.7969C13.8912 11.8834 13.9777 11.9698 14.0644 12.0563C13.9777 11.9701 13.8912 11.8836 13.8047 11.7969Z" fill="#4B8EEF"/>
<path d="M14.3243 12.3125C14.5007 12.402 14.5056 12.4857 14.3164 12.5638C14.3213 12.4801 14.324 12.3963 14.3243 12.3125Z" fill="#4B8EEF"/>
<path d="M31.9674 7.92269C31.1898 7.86673 30.4124 7.84429 29.6355 7.93621C29.3787 7.91161 29.1219 7.88701 28.8651 7.86268C28.8438 7.60803 29.0106 7.49774 29.2087 7.41069C29.7323 7.2512 30.2721 7.31689 30.8051 7.29716C31.4836 7.28554 32.1656 7.37826 33.1971 7.22606C31.4309 6.45157 29.6406 6.05148 29.3795 4.01617C29.8969 4.0159 30.4145 4.0159 30.9322 4.01562C31.0187 4.09916 31.1052 4.18296 31.1914 4.26703C31.4387 4.8258 31.6904 5.34349 32.4494 5.35485C32.72 5.3589 33.0238 5.54353 33.2481 5.72546C33.6495 6.05094 34.0145 6.38938 34.5824 6.40074C34.7902 6.40479 34.9546 6.59943 35.027 6.81597C35.1349 7.1382 35.2333 7.46367 35.3352 7.78753C34.6683 7.80294 34.0018 7.81537 33.3354 7.83483C32.8786 7.84781 32.4161 7.78158 31.9674 7.92269Z" fill="#ED7833"/>
<path d="M29.381 4.01562C29.5394 4.44896 29.9659 4.47086 30.3054 4.63873C30.5687 4.76876 30.6244 4.97529 30.4628 5.27725C30.2449 5.68355 30.3076 5.80222 30.6655 5.93225C30.8258 5.99064 31.0015 6.08715 31.1566 6.06606C32.2117 5.92306 32.7623 6.75892 33.4907 7.24552C33.5429 7.28039 33.5553 7.39473 33.5613 7.47394C33.5686 7.57071 33.4997 7.62154 33.3921 7.62181C32.5722 7.62505 31.7524 7.62803 30.9326 7.63128C29.3202 7.20416 28.8301 5.74491 28.0781 4.52653C28.4176 4.54519 28.7106 4.48112 28.9455 4.18998C29.0315 4.08374 29.2326 4.07104 29.381 4.01562Z" fill="#F77F32"/>
<path d="M28.0794 4.52816C28.27 4.92744 28.6033 5.16667 28.979 5.37807C29.2739 5.54405 29.5886 5.78032 29.591 6.13418C29.5956 6.8146 30.0335 7.07979 30.5436 7.32877C30.6884 7.39959 30.8047 7.52963 30.9339 7.63262C30.3284 7.63451 29.7226 7.63613 29.1171 7.63802C28.8306 7.53313 28.5609 7.38473 28.4254 7.10657C28.0089 6.25151 27.2999 5.77709 26.4546 5.39944C25.9975 5.19507 25.3896 4.98718 25.4869 4.25567C25.5542 4.23323 25.6229 4.22864 25.6921 4.24135C26.4008 4.25027 27.1099 4.25918 27.8191 4.26837C27.9008 4.36002 27.9873 4.44706 28.0794 4.52816Z" fill="#EE7731"/>
<path d="M31.1928 4.26697C31.1063 4.18319 31.0201 4.09914 30.9336 4.01562C31.0198 4.09941 31.1063 4.18319 31.1928 4.26697Z" fill="#F77F32"/>
<path d="M25.4824 4.25781C25.8419 4.83497 26.4109 5.12233 27.021 5.33048C27.7113 5.56594 28.2044 5.98414 28.5055 6.65969C28.6606 7.0076 28.9074 7.31442 29.1129 7.6399C29.0296 7.71532 28.9464 7.79049 28.8631 7.86591C28.5136 7.97079 28.1638 8.07595 27.8143 8.18083C27.7284 8.15164 27.6424 8.12271 27.5564 8.09352C27.0866 7.2701 26.2395 6.91219 25.5099 6.39883C24.7739 5.88115 23.8013 5.56513 23.6367 4.47922C23.9673 4.29486 24.3763 4.53598 24.6944 4.28377C24.9569 4.27539 25.2196 4.26673 25.4824 4.25781Z" fill="#F78034"/>
<path d="M17.4337 4.26672C16.8301 4.2678 16.2265 4.26861 15.6232 4.26969C14.5174 3.95313 14.0276 3.0843 13.6697 2.09706C13.5459 1.61533 12.9688 1.56612 12.7685 1.15765H12.7682C12.712 1.10359 12.6923 1.04872 12.7088 0.992493C12.7255 0.935995 12.7428 0.907603 12.7609 0.907603C13.5437 0.907062 14.3265 0.906791 15.1093 0.90625C15.3288 1.12819 15.4748 1.39717 15.6081 1.6748C15.8186 2.10949 16.1579 2.39794 16.602 2.57906C17.3751 2.89399 17.6892 3.44167 17.4337 4.26672Z" fill="#F68CB3"/>
<path d="M17.9635 0.900054C18.2213 0.899514 18.4795 0.898978 18.7373 0.898438C19.2463 1.41368 19.6183 2.1698 20.5554 1.93029C20.7154 1.97543 20.9179 1.97353 21.0282 2.07355C21.7423 2.72207 22.5151 3.32626 22.8901 4.2643C22.1756 4.82361 21.3782 4.61438 20.5946 4.51571C19.9248 3.66579 19.0071 3.05945 18.3113 2.22522C17.9694 1.81594 17.6153 1.46585 17.9635 0.900054Z" fill="#EF85AA"/>
<path d="M17.962 0.89924C17.9374 1.30717 17.9925 1.68942 18.4072 1.88811C18.7399 2.0476 18.9046 2.33929 19.1054 2.62152C19.4325 3.0808 19.809 3.47116 20.444 3.52901C20.7862 3.56037 20.7829 3.70607 20.4653 4.05236C20.4075 4.11562 20.3485 4.1778 20.2902 4.24052C19.9734 4.61628 19.5679 4.57762 19.1511 4.48679C18.1164 3.39601 16.9984 2.38335 16.0039 1.24986C16.005 1.11658 16.0518 1.00035 16.1374 0.898976C16.4924 0.884378 16.6207 1.16958 16.8191 1.38449C17.0943 1.68267 17.2816 1.66536 17.5587 1.37205C17.7006 1.22175 17.8279 1.05738 17.962 0.89924Z" fill="#F58BB1"/>
<path d="M18.9959 4.25667C19.4278 4.25262 19.8598 4.24884 20.2917 4.24452C21.1578 4.25208 22.0241 4.25993 22.8902 4.26749C23.493 4.2729 24.0957 4.27858 24.6983 4.28425C24.4312 4.65371 24.0198 4.4856 23.6735 4.55911C22.9056 5.14262 22.0155 4.821 21.1797 4.8983C20.6539 4.91992 20.1277 4.90317 19.6019 4.88695C19.0129 4.86371 18.4085 4.96208 17.8519 4.67262C17.8006 4.61883 17.75 4.56425 17.6992 4.50965C17.7041 4.43371 17.7081 4.35776 17.7111 4.28181C18.1312 3.86371 18.5628 4.0264 18.9959 4.25667Z" fill="#F1806D"/>
<path d="M20.5522 1.93029C20.3738 2.19413 20.1187 2.35201 19.8092 2.2947C19.5219 2.24144 19.2471 2.10167 19.0892 1.82837C18.9219 1.53885 18.7403 1.25095 18.7344 0.898438C18.9082 0.898438 19.0819 0.898448 19.2554 0.898718C19.6173 1.13444 20.029 1.30339 20.2922 1.67131H20.2917C20.3803 1.75592 20.4479 1.86135 20.5514 1.9311L20.5522 1.93029Z" fill="#EE86AA"/>
<path d="M20.2946 1.67415C19.77 1.65685 19.4873 1.31496 19.2578 0.901443C19.3394 0.900902 19.4213 0.8955 19.5027 0.900635C20.1938 0.944689 20.1938 0.945229 20.2946 1.67415Z" fill="#EF85AA"/>
<path d="M16.1359 0.898438C16.1386 0.982762 16.14 1.06708 16.1397 1.1514C15.9297 1.39951 15.6724 1.57628 15.3605 1.67169C15.0583 1.48574 15.1091 1.18411 15.1081 0.89979C15.4505 0.89952 15.7932 0.898978 16.1359 0.898438Z" fill="#EE86AA"/>
<path d="M12.7594 0.901478C12.764 0.984721 12.7662 1.06796 12.7665 1.15147C12.6802 1.06823 12.594 0.984721 12.5078 0.901478C12.5916 0.897424 12.6756 0.897424 12.7594 0.901478Z" fill="#EE86AA"/>
<path d="M6.02146 9.19579C6.28203 9.7724 6.41962 10.4171 6.98294 10.8221C7.11242 10.9154 7.25217 11.0897 7.26271 11.2357C7.30272 11.7953 7.80143 11.9683 8.09796 12.3094C7.69141 12.5579 7.24595 12.6001 6.78426 12.5576C6.60099 12.1332 6.23148 11.9167 5.85792 11.6893C5.51679 11.4817 5.25406 11.1908 5.24487 10.7548C5.23676 10.372 4.98267 10.1387 4.75994 9.87107C4.35259 9.38123 3.97524 8.86654 3.52734 8.28668C4.06525 8.0642 4.53558 8.2045 4.98294 8.15774C5.05754 8.77571 5.40327 9.12226 6.02146 9.19579Z" fill="#4A8EEF"/>
<path d="M19.5112 4.54234C20.0308 4.53855 20.55 4.53503 21.0693 4.53125C22.0862 5.05569 23.1287 5.53688 23.7331 6.60441C23.9505 6.988 24.3805 7.12668 24.7671 7.30834C25.1293 7.47865 25.6175 7.5784 25.4861 8.17286C25.3736 8.24071 25.2612 8.30882 25.149 8.37667C24.9141 8.39127 24.679 8.40588 24.4441 8.42075C24.2627 8.39398 24.081 8.36748 23.8997 8.34072C22.8801 8.37749 21.964 8.23746 21.4231 7.19021C21.2231 6.8031 20.7136 6.74254 20.3613 6.51168C19.6602 6.05266 19.0333 5.52579 19.5112 4.54234Z" fill="#F77F33"/>
<path d="M14.336 4.5625C14.8542 4.56304 15.3723 4.56386 15.8905 4.5644C17.5232 5.47649 18.8223 6.72945 19.76 8.35169C18.9836 8.4701 18.2057 8.45632 17.4269 8.37684C17.3064 8.19058 17.118 8.16004 16.9182 8.15545C16.3776 7.55532 15.8973 6.91599 15.2226 6.42291C14.6482 6.00363 14.1768 5.39809 14.336 4.5625Z" fill="#F0782F"/>
<path d="M24.4428 12.0507C24.3566 12.0499 24.2704 12.0494 24.1841 12.0491C22.8064 11.6395 21.8127 10.5823 20.5937 9.90077C20.1971 9.6791 19.6876 9.32767 20.0317 8.67969C20.8086 8.67969 21.5857 8.6797 22.3623 8.67997C22.8748 9.435 23.5962 9.9935 24.2152 10.6482C24.3953 10.8388 24.6061 10.9964 24.8821 11.0029C25.6441 11.0205 25.7649 11.5511 25.8171 12.1556C25.4768 12.4281 25.077 12.2588 24.708 12.3045C24.6258 12.2134 24.5234 12.1434 24.4428 12.0507Z" fill="#519AF9"/>
<path d="M19.7603 8.35487C19.5189 7.99236 19.2219 7.67715 18.8529 7.45197C18.3285 7.13163 17.8512 6.78209 17.6703 6.15655C17.6154 5.96732 17.4719 5.89163 17.3059 5.83134C16.6656 5.5994 16.2864 5.07362 15.8906 4.56729C16.4926 4.54756 17.0943 4.52782 17.6963 4.50781L17.7019 4.56566C18.9883 5.22013 19.8022 6.42634 20.8875 7.31735C21.1619 7.54253 21.3668 7.94099 21.0729 8.34756C20.6359 8.42947 20.1982 8.42813 19.7603 8.35487Z" fill="#F88033"/>
<path d="M20.0322 8.68597C20.1274 9.45208 20.7761 9.67187 21.3297 9.96409C21.5111 10.0598 21.7714 10.0417 21.903 10.2244C22.4033 10.9184 23.1516 11.2595 23.8627 11.662C24.0001 11.7399 24.0787 11.9216 24.1844 12.0554C23.6513 12.0632 23.1053 11.9937 22.6242 12.3146C21.5124 11.6715 20.5415 10.83 19.5073 10.079C19.0715 9.76242 18.6815 9.34802 18.3047 8.78411C18.9483 8.61299 19.4962 8.70949 20.0322 8.68597Z" fill="#4A8EEE"/>
<path d="M21.0741 8.34853C20.9579 7.77517 20.6416 7.3878 20.1605 7.02015C19.2404 6.3173 18.4378 5.469 17.7031 4.56611C18.3062 4.55718 18.909 4.54825 19.512 4.53906C19.4753 4.98727 19.6423 5.37709 19.8799 5.7369C20.0699 6.0248 20.3043 6.29891 20.6754 6.31999C21.2555 6.35297 21.6077 6.67115 21.8672 7.15017C21.9477 7.29858 22.0661 7.4259 22.1545 7.57053C22.3897 7.95467 22.6789 8.22229 23.1787 8.16607C23.4296 8.13768 23.6934 8.1412 23.9004 8.33746C22.9587 8.44695 22.0164 8.44558 21.0741 8.34853Z" fill="#EE752E"/>
<path d="M10.4219 12.5631C10.4248 12.3936 10.4278 12.2241 10.4305 12.0547C10.6913 12.2285 10.7078 12.3982 10.4219 12.5631Z" fill="#4A8EEF"/>
<path d="M10.4316 12.0563C10.3451 11.9699 10.2584 11.8834 10.1719 11.7969C10.2584 11.8834 10.3448 11.9699 10.4316 12.0563Z" fill="#4A8EEF"/>
<path d="M24.4453 12.0547C24.5337 12.1393 24.6221 12.2239 24.7107 12.3085C24.6223 12.2236 24.5337 12.139 24.4453 12.0547Z" fill="#4A8EEE"/>
<path d="M25.4871 8.17286C25.3266 7.74601 24.9422 7.66003 24.5629 7.56839C23.9902 7.42998 23.5528 7.10154 23.292 6.58061C23.0073 6.01238 22.5848 5.61878 22.0023 5.37954C21.5915 5.21059 21.2679 4.9381 21.0703 4.53125C21.9375 4.54098 22.8049 4.55072 23.672 4.56072C23.9093 5.06731 24.5135 5.14111 24.8376 5.55985C25.163 5.98075 25.6653 6.14512 26.1313 6.37706C26.4735 6.54737 26.7065 6.91149 27.1522 6.96583C27.3585 6.99097 27.4985 7.2186 27.5252 7.44973C27.5501 7.66356 27.5487 7.88009 27.5587 8.09554C26.8719 8.21989 26.1823 8.27044 25.4871 8.17286Z" fill="#F27930"/>
<path d="M10.9531 4.54688C11.3875 4.54715 11.8219 4.54741 12.256 4.54768C13.2718 4.78179 14.04 5.2984 14.4017 6.33403C14.5333 6.71114 14.9142 6.8874 15.2172 7.12366C15.5451 7.3794 15.9627 7.62701 15.6234 8.15659C15.4945 8.15713 15.3629 8.14064 15.2369 8.16065C14.0889 8.34204 13.2299 7.98114 12.7687 6.86089C12.6755 6.77817 12.5306 6.74465 12.5111 6.59137C12.2589 5.99205 11.6864 6.10777 11.2064 6.05857C11.2237 5.79797 11.4407 5.82067 11.5453 5.71551C11.6594 5.60062 11.6321 5.43735 11.5164 5.40248C11.0763 5.26893 10.9052 4.98724 10.9531 4.54688Z" fill="#F1782F"/>
<path d="M15.6214 8.1555C15.6114 7.83327 15.4892 7.55348 15.1865 7.43427C14.5131 7.16881 14.0666 6.75086 13.8747 6.01422C13.7436 5.51113 13.3838 5.12889 12.8143 5.02347C12.545 4.97372 12.3728 4.78531 12.2539 4.54688C12.9481 4.55201 13.6419 4.55688 14.3361 4.56229C14.5104 4.90452 14.6842 5.24648 14.8588 5.58818C15.0383 5.93907 15.2932 6.29429 15.6311 6.41648C16.478 6.72249 16.7434 7.38938 16.9183 8.1555C16.4861 8.1555 16.0539 8.1555 15.6214 8.1555Z" fill="#F98133"/>
<path d="M12.5091 6.59375C12.595 6.68348 12.6807 6.77348 12.7666 6.86321C12.3769 6.83943 12.3769 6.83943 12.5091 6.59375Z" fill="#F9975A"/>
<path d="M7.57812 2.45312C7.66461 2.45312 7.7511 2.45312 7.83759 2.45312C7.83759 2.53988 7.83732 2.62636 7.83732 2.71312C7.75083 2.62663 7.66461 2.53988 7.57812 2.45312Z" fill="#F78EB5"/>
<path d="M13.8052 1.93287C13.8396 1.95801 13.8763 1.98046 13.9074 2.00911C14.3007 2.37297 14.2537 2.95552 14.5856 3.35777C14.8846 3.72001 15.4419 3.77733 15.6225 4.26635C15.0162 4.26635 14.4096 4.26636 13.8033 4.26609C13.2616 3.50376 12.8813 2.63356 12.2461 1.93341C12.7659 1.6128 13.2854 1.53792 13.8052 1.93287Z" fill="#EE84A9"/>
<path d="M13.8058 1.93489C13.2864 1.93489 12.7667 1.93517 12.2472 1.93517C12.1607 1.84869 12.0745 1.76247 11.9883 1.67599C12.3631 1.67491 12.6231 1.50165 12.7685 1.15625C12.8853 1.20084 13.0067 1.29246 13.118 1.28165C13.6137 1.23327 13.7937 1.48895 13.8058 1.93489Z" fill="#EE86AA"/>
<path d="M15.3594 1.67665C15.5121 1.19005 15.5121 1.19004 16.1387 1.15625C16.3333 1.55742 16.6474 1.83533 17.0556 1.99618C17.7305 2.26191 18.1584 2.74904 18.4452 3.40486C18.5787 3.71033 18.8066 3.97443 18.9915 4.2572C18.5631 4.26531 18.1349 4.27343 17.7065 4.28208C17.6148 4.27667 17.5229 4.27099 17.431 4.26532C17.3637 4.11204 17.2369 3.95794 17.2394 3.80602C17.2504 3.16831 16.8471 2.93205 16.3252 2.81527C15.7073 2.67686 15.4064 2.28948 15.3594 1.67665Z" fill="#EE84A9"/>
</svg>
