<svg width="114" height="182" viewBox="0 0 114 182" fill="none" xmlns="http://www.w3.org/2000/svg">
<path d="M32.7138 12.3039C33.5941 12.7299 34.3267 13.3726 35.1006 13.951C38.1438 16.2259 41.041 18.6822 43.9608 21.1105C46.5721 23.2825 49.2662 25.3437 52.1088 27.2067C52.4443 27.4267 52.7601 27.6767 53.085 27.9126C53.6113 28.6513 53.6376 29.5319 53.7352 30.3778C53.7794 30.761 53.5891 31.1077 53.0731 30.845C52.282 30.3606 51.4715 29.9048 50.7029 29.387C47.8858 27.4888 45.186 25.438 42.6183 23.2084C39.3234 20.3473 35.9875 17.5337 32.4728 14.9403C30.6162 13.5703 28.6965 12.3034 26.6075 11.3099C26.3886 11.2057 26.1726 11.094 25.9479 11.0037C25.6706 10.8925 25.4579 11.0201 25.4541 11.3185C25.443 12.1672 25.4074 13.0189 25.4584 13.8646C25.6121 16.4114 25.0299 18.841 24.3256 21.2509C24.1102 21.9876 23.7896 22.6899 23.3363 23.3207C22.9998 23.7889 22.8777 23.8463 22.3179 23.7012C21.0675 23.3775 19.8214 23.0375 18.5722 22.7083C18.4175 22.6676 18.2562 22.6517 18.0979 22.6244C17.7425 22.8181 17.3908 22.7056 17.0394 22.6108C14.113 21.8212 11.2398 20.859 8.35035 19.9488C7.99969 19.8384 7.66826 19.694 7.43162 19.3937C6.15616 18.7768 4.77527 18.4636 3.44268 18.0118C2.8703 17.8179 2.28199 17.672 1.70481 17.4917C1.00603 17.2733 0.95016 17.1681 1.1423 16.4413C1.29829 15.8502 1.56805 15.3033 1.91112 14.8053C2.19023 14.4003 2.37175 13.9644 2.54771 13.5124C2.95879 12.4577 3.50917 11.4712 4.09621 10.5051C4.45218 9.91962 4.82533 9.34422 5.16487 8.74934C5.38583 8.36228 5.6394 8.0101 5.91901 7.66121C6.75052 6.62366 7.53451 5.54818 8.33897 4.48913C9.59269 2.83824 11.2456 1.74632 13.1453 0.958293C14.6215 0.345972 16.1512 0.0916394 17.7283 0.00821003C18.6258 -0.0390666 19.5226 0.122733 20.347 0.36746C22.0315 0.86753 23.308 1.96779 24.0765 3.58784C24.653 4.80313 24.9316 6.11095 25.1285 7.42408C25.22 8.03463 25.4812 8.34255 26.0134 8.56958C26.9407 8.96473 27.8544 9.39478 28.7577 9.84302C29.8039 10.3621 30.8394 10.9046 31.7508 11.6496C31.7263 12.8063 32.4528 13.6054 33.0798 14.4423C33.1178 14.4926 33.1569 14.5525 33.1928 14.6144C33.1746 14.5585 33.1476 14.4969 33.1099 14.4208C33.4869 13.6138 32.4493 13.0806 32.7138 12.3039Z" fill="#6FADAF"/>
<path d="M80.915 180.863C80.4538 180.919 80.042 180.733 79.6259 180.587C78.9723 180.357 78.3287 180.107 78.1196 179.333C77.8804 178.447 77.8074 177.595 78.4821 176.838C78.8029 176.478 79.081 176.079 79.4034 175.72C79.5611 175.545 79.7553 175.351 79.9692 175.287C80.6791 175.074 81.252 174.613 81.9027 174.297C83.5524 173.498 85.3094 173.084 87.1128 172.813C89.2005 172.501 91.2992 172.621 93.3945 172.598C94.0804 172.591 94.7668 172.604 95.4524 172.591C95.8253 172.584 95.9735 172.447 95.9821 172.085C95.9973 171.44 96.0397 170.788 95.9727 170.15C95.8291 168.783 95.8377 167.412 95.7745 166.043C95.73 165.078 95.4711 164.133 95.5144 163.158C95.5429 162.514 95.5298 161.868 95.5354 161.223C95.2957 159.358 95.6226 157.484 95.4395 155.619C96.4043 154.607 95.6441 153.467 95.6817 152.387C95.8706 151.726 96.7858 151.155 95.9348 150.363C95.6264 150.23 95.6913 149.954 95.6825 149.706C95.708 149.438 95.9017 149.277 96.0695 149.099C96.1348 149.031 96.2094 148.974 96.2895 148.925C96.4521 148.845 96.63 148.801 96.7941 148.722C96.87 148.672 96.9456 148.623 97.0186 148.567C97.0882 148.5 97.1602 148.438 97.2328 148.374C97.2714 148.34 97.3104 148.31 97.3491 148.277C97.478 148.179 97.6201 148.111 97.7728 148.061C98.0625 148.034 98.4212 147.813 98.5613 148.271C98.7739 148.966 98.3052 149.361 98.0195 149.573C98.5712 149.347 98.6981 149.617 98.4829 150.287C98.5611 152.35 98.3881 154.403 98.3085 156.462C98.2086 159.046 98.174 161.643 98.3211 164.222C98.4319 166.162 98.4541 168.096 98.4635 170.034C98.4668 170.721 98.4534 171.409 98.4703 172.096C98.4794 172.471 98.6058 172.573 98.9994 172.603C99.1605 172.615 99.323 172.618 99.4843 172.613C101.831 172.539 104.168 172.807 106.513 172.815C107.073 172.817 107.651 172.793 108.177 173.067C108.938 173.179 109.205 173.565 109.126 174.371C108.975 175.919 109.086 177.492 108.749 179.026C108.593 179.737 108.886 180.25 109.468 180.68C109.114 181.172 108.504 180.98 108.175 181.327C107.594 181.656 106.925 181.66 106.3 181.743C105.105 181.901 103.893 181.977 102.687 181.985C98.3712 182.012 94.0554 182.006 89.7398 181.994C87.803 181.988 85.879 181.771 83.973 181.447C83.3046 181.334 82.5904 181.423 81.9659 181.07C81.6727 179.851 82.6372 178.782 82.3406 177.56C82.4526 178.557 81.9869 179.453 81.8858 180.413C81.8132 181.103 81.3614 180.979 80.915 180.863Z" fill="#6DABAD"/>
<path d="M95.762 93.5157C95.2564 92.3045 95.2187 91.0083 95.0804 89.7313C94.9414 88.448 94.8198 87.1629 94.6828 85.8794C94.4598 83.7904 94.321 81.6973 94.3248 79.5949C94.3326 74.9476 94.3437 70.3003 94.3217 65.6531C94.3162 64.4762 94.5121 63.3216 94.5725 62.1541C95.4619 60.7153 95.3123 60.0368 93.7425 59.5781C92.3879 59.1825 91.6323 58.1674 90.8248 57.2098C90.3874 56.6912 90.5255 55.9351 90.7191 55.2734C91.0784 55.3928 91.3153 55.6782 91.5842 55.9176C95.0729 59.023 98.5956 62.0886 102.025 65.2625C104.682 67.7226 107.38 70.1466 110.229 72.3911C110.289 72.4384 110.322 72.5203 110.367 72.5858C110.143 73.1688 109.656 73.6787 110.192 74.398C110.451 74.7461 110.294 75.2629 109.853 75.5574C109.369 75.4062 109.069 75.0022 108.693 74.7044C105.906 72.4983 103.259 70.132 100.673 67.6961C99.6739 66.7553 98.6601 65.8308 97.6496 64.9025C97.3596 64.6362 97.0984 64.3238 96.6368 64.1898C96.4396 64.4967 96.5162 64.8231 96.5157 65.1229C96.5104 69.5234 96.5081 73.9242 96.5167 78.3247C96.5202 80.1008 96.5374 81.8771 96.5766 83.6528C96.5943 84.4571 96.6896 85.2592 96.7321 86.0632C96.7513 86.4247 96.727 86.7885 96.7227 87.1513C96.632 87.2163 96.5339 87.2302 96.429 87.1953C96.1718 87.2034 95.9425 86.5815 95.6657 87.1619C95.762 87.322 95.917 87.4132 96.0576 87.523C96.1375 87.5882 96.2057 87.6612 96.2702 87.7409C96.4322 87.9527 96.5627 88.1873 96.7662 88.3646C96.7771 88.6065 96.7877 88.8485 96.7986 89.0904C96.6568 89.1865 96.5033 89.1771 96.343 89.1516C96.12 89.1162 95.8571 88.9718 95.7107 89.2623C95.5863 89.5091 95.7175 89.7432 95.893 89.9047C96.8522 90.7878 96.3187 91.9247 96.4077 92.9492C96.4386 93.3028 96.1218 93.4887 95.762 93.5157Z" fill="#6FAEB0"/>
<path d="M76.8762 46.8161C75.7138 45.9464 74.547 45.0823 73.3896 44.206C70.1326 41.7406 66.7494 39.4586 63.2962 37.2809C60.6305 35.5999 57.9413 33.9558 55.2665 32.2895C54.9265 32.0777 54.6089 31.8292 54.2813 31.5976C53.7706 30.8191 53.8242 29.9431 53.8636 29.0757C53.874 28.8472 53.9486 28.5944 54.2886 28.6586L54.2929 28.6598C54.3827 28.7541 54.481 28.8353 54.6109 28.8679C55.9648 29.6643 57.3265 30.4475 58.6709 31.2593C62.4038 33.5129 66.0956 35.832 69.7008 38.2853C72.8388 40.4206 75.9153 42.6414 78.8462 45.0573C80.5588 46.469 82.2817 47.8686 83.9786 49.2988C85.2746 50.3909 86.5381 51.5215 87.8126 52.6392C87.9008 52.7166 87.9574 52.8293 88.029 52.9257C88.0297 53.8904 88.8496 53.8947 89.4594 54.1458C89.8839 54.3776 90.2257 54.7017 90.5144 55.086C89.8561 55.5057 88.7424 55.2187 88.546 56.3551C87.9056 55.7221 87.2556 55.1024 86.35 54.8574C85.7008 54.3227 85.0359 53.806 84.4056 53.25C82.2668 51.364 80.1123 49.4975 77.8857 47.7149C77.6688 47.5412 77.4848 47.326 77.2853 47.1304C77.3199 46.9185 77.6463 46.6975 77.4152 46.5218C77.174 46.3383 77.0684 46.7264 76.8762 46.8161Z" fill="#6FADAF"/>
<path d="M95.7609 93.5085C95.9768 93.2064 96.3019 92.9981 96.1285 92.4874C96.0299 92.1971 96.1027 91.7825 96.1416 91.4364C96.2086 90.8418 96.151 90.388 95.5844 90.0244C95.1523 89.7474 95.2719 89.2468 95.3988 88.8203C95.4524 88.6405 95.6602 88.6029 95.8046 88.6534C96.1439 88.7728 96.4672 88.9371 96.7974 89.0829C96.9734 89.2832 96.9683 89.532 96.9666 89.7721C96.9537 91.4094 97.3334 92.9834 97.7988 94.5306C98.7608 97.7283 99.1893 100.99 99.2199 104.325C99.2447 107.031 99.3817 109.736 99.4527 112.442C99.5036 114.381 99.5473 116.321 99.2472 118.25C99.1979 118.567 99.2128 118.896 99.2121 119.219C99.206 121.727 98.9995 124.221 98.6875 126.708C98.5477 127.14 97.9955 127.089 97.7953 127.454C98.4938 127.917 98.845 128.995 98.573 129.82C98.442 130.216 96.3699 130.968 95.7829 130.831C95.7323 128.529 95.6372 126.226 95.9796 123.935C96.0329 123.577 96.0208 123.209 96.041 122.846C96.1269 121.312 96.1669 119.775 96.315 118.248C96.4435 116.924 96.6955 115.613 96.8917 114.296C96.9274 114.057 96.9749 113.817 96.9855 113.576C97.1556 109.74 97.3435 105.904 97.2659 102.063C97.2242 99.9998 96.9127 97.9672 96.3312 95.9785C96.0941 95.1682 95.7808 94.3709 95.7609 93.5085Z" fill="#6EACAE"/>
<path d="M7.43481 19.3906C7.59333 19.4124 7.75969 19.4103 7.90911 19.4594C11.1388 20.5154 14.3817 21.5279 17.6504 22.457C17.8041 22.5008 17.9515 22.566 18.1014 22.6214C17.3963 23.422 16.4771 23.9155 15.5421 24.3764C15.2221 24.5342 14.8651 24.6806 14.516 24.7053C12.9563 24.8161 11.3912 24.9463 9.88411 24.3281C9.31831 24.096 8.8109 23.7896 8.36695 23.3743C8.03652 23.0651 7.79129 22.6952 7.71115 22.2477C7.54201 21.3037 7.28742 20.366 7.43481 19.3906Z" fill="#F285AF"/>
<path d="M109.919 173.519C110.301 173.54 110.603 173.747 110.902 173.952C111.335 174.248 111.758 174.558 112.185 174.863C113.033 175.47 113.457 176.318 113.496 177.337C113.566 179.217 113.492 179.111 112.063 179.886C111.746 180.058 111.406 180.189 111.077 180.339C109.243 180.466 108.871 179.923 108.952 178.132C109.01 176.85 109.28 175.612 109.373 174.346C109.398 174 109.255 173.471 109.919 173.519Z" fill="#6EACAE"/>
<path d="M95.7837 130.834C96.7333 130.769 97.4968 130.443 97.7787 129.427C97.8128 129.304 97.9298 129.233 98.0545 129.274C98.1134 129.293 98.1485 129.392 98.1885 129.459C98.2618 129.582 98.1637 129.797 98.4661 129.852C98.4661 129.49 98.4615 129.144 98.4671 128.797C98.48 127.976 98.3035 127.92 97.673 127.919C97.5931 127.919 97.5132 127.91 97.4333 127.902C97.2604 127.887 97.1163 127.808 97.0771 127.637C97.0232 127.402 97.1711 127.301 97.3714 127.198C97.7926 126.979 98.2342 126.832 98.6886 126.711C98.6951 129.092 98.7062 131.474 98.7073 133.855C98.709 137.731 98.7068 141.607 98.7004 145.483C98.6982 146.815 98.6777 148.147 98.6663 149.479C98.6638 149.761 98.683 150.048 98.482 150.285C98.4147 149.784 98.4145 149.787 97.8982 149.74C97.828 149.734 97.7357 149.695 97.7031 149.641C97.6775 149.599 97.7069 149.485 97.7501 149.446C98.0107 149.217 98.394 149.116 98.4527 148.683C98.4906 148.404 98.3745 148.234 98.0926 148.256C97.8937 148.272 97.6952 148.291 97.4965 148.308C97.4197 148.393 97.3302 148.465 97.2538 148.551C97.1706 148.629 97.0897 148.71 97.0111 148.793C96.8124 149.007 96.4767 148.808 96.283 149.036C96.1536 149.174 96.0001 149.189 95.8315 149.126C95.744 149.051 95.7063 148.954 95.7114 148.841C95.7468 148.74 95.7832 148.638 95.8181 148.537C95.838 148.488 95.86 148.439 95.8787 148.39C96.0813 147.996 96.0593 147.415 96.7039 147.385C96.8008 147.385 96.8981 147.397 96.9929 147.416C97.1719 147.454 97.3522 147.46 97.5309 147.406C97.6158 147.377 97.7021 147.353 97.7873 147.328C98.0568 147.264 98.1207 147.056 98.1412 146.816C98.167 145.773 98.082 144.733 98.1859 143.697C98.2203 143.556 98.2714 143.424 98.4276 143.379C98.3632 143.32 98.2921 143.312 98.2137 143.357C98.0969 143.419 97.9852 143.486 97.8775 143.562C97.8052 143.625 97.7299 143.679 97.652 143.734C97.5698 143.79 97.4829 143.834 97.3906 143.87C97.2943 143.903 97.1964 143.925 97.0968 143.942C96.7295 143.966 96.4076 144.128 96.0797 144.273C95.969 144.292 95.8737 144.264 95.7956 144.182C95.7945 143.939 95.7935 143.697 95.7928 143.454C95.9215 143.317 96.0785 143.221 96.2418 143.133C96.3121 143.072 96.3793 143.009 96.4375 142.937C96.5363 142.771 96.594 142.584 96.7186 142.434C96.8392 142.346 96.9757 142.315 97.1218 142.322C97.2958 142.343 97.47 142.382 97.6467 142.332C97.7276 142.292 97.8072 142.253 97.8826 142.204C98.0421 142.09 98.1222 141.93 98.1579 141.743C98.1875 141.51 98.1966 141.279 98.1647 141.051C98.1235 140.953 98.097 140.839 97.9443 140.871C97.8709 140.909 97.8037 140.948 97.7392 140.999C97.6697 141.059 97.5986 141.111 97.5238 141.163C97.4422 141.219 97.3582 141.266 97.27 141.308C96.9378 141.464 96.5823 141.533 96.2297 141.615C96.1768 141.624 96.124 141.629 96.0709 141.637C95.9602 141.633 95.8663 141.591 95.789 141.512C95.7892 141.27 95.7892 141.027 95.7895 140.784C95.8666 140.709 95.9516 140.645 96.0426 140.587C96.1407 140.541 96.242 140.505 96.3452 140.472C96.7977 140.302 97.2159 140.061 97.6434 139.844C97.7233 139.788 97.8075 139.737 97.8896 139.685C98.0436 139.578 98.149 139.437 98.1776 139.246C98.1953 139.026 98.1998 138.808 98.1235 138.601C98.0661 138.48 97.9609 138.464 97.8414 138.48C97.763 138.509 97.6871 138.536 97.6116 138.569C97.4899 138.629 97.3704 138.688 97.2462 138.743C97.1547 138.783 97.0617 138.813 96.9661 138.839C96.5596 138.852 96.2388 139.27 95.7925 139.086C95.792 138.843 95.7915 138.6 95.7908 138.357C96.3363 137.898 96.8913 137.45 97.6194 137.318C98.0047 137.248 98.1369 137.003 98.1457 136.649C98.1652 136.393 98.1733 136.137 98.1799 135.885C97.5059 135.676 97.1029 136.275 96.5528 136.426C96.4567 136.483 96.3551 136.524 96.2486 136.556C96.0747 136.584 95.9194 136.55 95.7958 136.416C95.7951 136.254 95.7943 136.093 95.7933 135.931C95.8545 135.869 95.9015 135.798 95.9313 135.716C95.973 135.638 96.0294 135.575 96.1017 135.526C96.2097 135.457 96.3237 135.4 96.4387 135.345C96.5123 135.306 96.5881 135.271 96.664 135.236C96.7358 135.193 96.8086 135.152 96.8796 135.106C96.9133 135.078 96.9484 135.054 96.9825 135.027C97.0513 134.967 97.1246 134.915 97.2007 134.866C97.2816 134.819 97.3663 134.783 97.4538 134.753C97.5822 134.707 97.7117 134.665 97.8363 134.613C97.9109 134.568 97.9839 134.52 98.0492 134.464C98.1321 134.352 98.1685 134.223 98.1811 134.085C98.1 133.917 98.3933 133.539 97.8143 133.677C97.1709 133.831 96.4792 134.106 95.7973 133.746C95.7966 133.504 95.7958 133.261 95.7951 133.019C96.1538 132.43 96.7894 132.234 97.3537 131.951C97.762 131.747 98.1503 131.563 98.1996 131.073C97.3961 131.292 96.6458 131.723 95.7862 131.806C95.7854 131.482 95.7844 131.158 95.7837 130.834Z" fill="#73B3B5"/>
<path d="M88.5176 56.3212C88.5247 55.9223 88.4627 55.5082 88.8083 55.1931C88.9927 55.0253 89.179 54.8602 89.4455 54.9765C89.7936 55.1287 90.1526 55.1102 90.5154 55.087C90.5839 55.1471 90.6524 55.2073 90.7209 55.2672C90.7841 55.4571 90.8448 55.6485 90.9108 55.8378C91.0791 56.3199 90.5963 56.9297 91.3052 57.334C91.7324 57.5777 91.8644 58.1959 92.3895 58.4247C92.5897 58.5119 92.7118 58.7723 92.88 58.9434C92.9588 59.0236 93.0946 59.1568 93.1505 59.1338C93.7233 58.8982 94.0353 59.3133 94.4034 59.6C94.4638 59.647 94.5478 59.6743 94.6249 59.688C94.9376 59.7433 95.2746 59.7327 95.4567 60.0758C95.6369 60.4153 95.376 60.6924 95.3426 61.0006C95.3126 61.2797 95.333 61.5661 95.2822 61.8405C95.2559 61.9828 95.1507 62.1696 95.0322 62.2192C94.9106 62.27 94.7293 62.1775 94.5741 62.1479C94.4161 61.9841 94.2583 61.82 94.1003 61.6561C94.0126 61.5831 93.9413 61.4928 93.8536 61.4195L93.8548 61.421C93.7448 60.5926 93.1957 60.2705 92.4363 60.1908C91.5537 59.5375 90.7707 58.771 89.9731 58.0212C89.8876 57.943 89.8166 57.8497 89.7218 57.7817L89.7268 57.7865C89.653 57.693 89.5734 57.606 89.4695 57.5448L89.47 57.5512C89.6687 57.0081 89.1421 57.2319 88.9712 57.0794L88.9808 57.0867C88.9097 56.9548 88.7596 56.9121 88.665 56.8064C88.5687 56.659 88.3518 56.5482 88.5176 56.3212Z" fill="#6DAAAC"/>
<path d="M10.1861 32.185C10.2337 33.7623 9.81324 35.0822 9.5986 36.4305C9.51113 36.9799 8.68644 37.4885 8.10951 37.443C7.9295 37.4289 7.82232 37.3004 7.7806 37.1399C7.68883 36.787 7.64938 36.4287 7.71916 36.0634C7.81725 35.5497 7.87465 35.0261 8.00435 34.521C8.26627 33.5006 8.42832 32.4727 8.39748 31.4166C8.38812 31.0918 8.43464 30.7818 8.64701 30.5055C8.8667 30.2198 9.14404 30.1025 9.48736 30.1394C9.81526 30.1748 9.9581 30.4332 10.0577 30.6992C10.2612 31.2427 10.1626 31.8158 10.1861 32.185Z" fill="#F86826"/>
<path d="M0.848369 32.936C0.837751 32.6279 0.946961 32.3743 1.09486 32.126C1.71881 31.0791 2.47827 30.1396 3.34316 29.2849C3.48398 29.1456 3.65058 29.0032 3.83236 28.9413C4.13725 28.8374 4.47375 28.7808 4.75286 29.0176C5.03652 29.2583 5.11034 29.7822 4.91238 30.1338C4.79432 30.3437 4.64592 30.5386 4.49524 30.7272C3.91554 31.453 3.31257 32.1655 2.87772 32.9896C2.66788 33.3873 2.29068 33.5388 1.96075 33.744C1.26525 34.1764 0.957583 33.9931 0.877441 33.1621C0.869603 33.0817 0.856965 33.002 0.848369 32.936Z" fill="#F96927"/>
<path d="M110.867 73.0078C111.973 73.6644 112.899 74.552 114 75.3507C113.467 76.0282 112.981 76.6542 112.485 77.2713C112.372 77.4119 112.201 77.4152 112.052 77.3204C111.443 76.9325 110.889 76.4747 110.367 75.9771C110.648 75.0068 110.203 73.9139 110.867 73.0078Z" fill="#72B0B2"/>
<path d="M97.2561 143.698C97.3365 143.697 97.4172 143.697 97.4976 143.696C97.5747 143.612 97.6637 143.54 97.7403 143.455C97.8722 143.314 98.0985 143.362 98.2257 143.212C98.3061 143.147 98.3849 143.148 98.4628 143.216C98.4567 144.586 98.4509 145.955 98.4449 147.325C98.2654 147.564 97.9218 147.348 97.739 147.58C97.6586 147.58 97.578 147.58 97.4976 147.58C97.3358 147.722 97.174 147.715 97.0122 147.58C96.2765 147.146 96.797 146.491 96.658 145.928C96.7035 146.865 96.1389 147.647 96.0426 148.551L96.0413 148.552C95.8939 148.644 95.7812 148.612 95.7028 148.458C95.7076 147.826 95.5825 147.188 95.7792 146.563C95.7387 145.769 95.7043 144.976 95.7971 144.182C95.8785 144.182 95.9599 144.182 96.0413 144.182C96.4082 143.925 96.9222 144.037 97.2561 143.698Z" fill="#6DA9AB"/>
<path d="M109.916 173.518C109.509 173.813 109.62 174.218 109.696 174.607C109.734 174.798 109.895 175.014 109.741 175.172C109.231 175.693 109.511 176.406 109.26 176.984C109.229 177.054 109.197 177.158 109.226 177.214C109.592 177.914 109.175 178.518 108.967 179.101C109.492 179.896 110.222 180.224 111.073 180.338C110.185 180.897 109.226 181.25 108.172 181.324C108.33 180.865 108.763 180.852 109.157 180.764C109.048 180.496 108.818 180.617 108.665 180.548C108.317 180.391 108.214 180.248 108.279 179.911C108.509 178.734 108.712 177.558 108.677 176.347C108.662 175.842 108.856 175.348 108.696 174.818C108.627 174.587 108.809 174.284 108.864 174.011C108.939 173.642 108.881 173.554 108.45 173.286C108.351 173.224 108.265 173.138 108.174 173.063C108.808 173.01 109.376 173.212 109.916 173.518Z" fill="#72B1B3"/>
<path d="M95.7764 146.562C95.7898 147.221 95.8032 147.88 95.8169 148.539C95.8707 148.594 95.8884 148.649 95.8699 148.703C95.8515 148.758 95.8333 148.785 95.8151 148.785C95.8159 148.869 95.8164 148.954 95.8171 149.038C95.942 149.202 95.9413 149.366 95.8156 149.53C95.8073 149.795 95.7537 150.075 96.0386 150.249C96.6064 150.291 96.3579 150.63 96.2606 150.891C96.0998 151.323 96.1655 151.835 95.8007 152.194C95.8035 152.711 95.7205 153.232 96.2257 153.625C96.434 153.787 96.5098 154.085 96.4006 154.4C96.3104 154.66 96.3131 154.951 96.2557 155.225C96.2004 155.488 96.0431 155.526 95.8169 155.396C95.7575 155.362 95.67 155.377 95.5658 155.366C95.5977 156.167 95.4364 156.971 95.7418 157.756C95.8108 157.933 95.8333 158.175 95.7703 158.349C95.4295 159.288 95.6242 160.265 95.5335 161.22C95.4786 161.03 95.3782 160.84 95.3765 160.65C95.3608 158.919 95.2521 157.179 95.3873 155.458C95.5486 153.406 95.5375 151.356 95.601 149.306C95.6209 148.662 95.6025 148.017 95.604 147.373C95.6045 147.091 95.5959 146.806 95.7764 146.562Z" fill="#74B3B5"/>
<path d="M96.766 135.445C96.6856 135.445 96.605 135.445 96.5246 135.446C96.3962 135.593 96.1646 135.535 96.0392 135.688V135.688C95.957 135.761 95.8746 135.765 95.7917 135.689C95.7183 135.041 95.7211 134.394 95.7965 133.747C95.9919 133.724 96.2371 133.766 96.3731 133.664C96.7362 133.391 97.0684 133.38 97.4595 133.582C97.6941 133.704 97.84 133.538 97.8701 133.317C97.8964 133.123 97.9598 133.022 98.1623 133.064C98.3395 133.101 98.4371 133.228 98.4442 133.399C98.4594 133.755 98.4556 134.113 98.4596 134.47C98.3805 134.553 98.2978 134.631 98.2222 134.717C98.1418 134.717 98.0612 134.718 97.9808 134.718C97.7846 134.937 97.4456 134.729 97.254 134.961L97.2527 134.962C97.169 135.039 97.0886 135.12 97.01 135.203C96.9291 135.284 96.8401 135.357 96.766 135.445Z" fill="#6CA9AB"/>
<path d="M95.7871 131.804C95.9474 131.688 96.1277 131.591 96.2637 131.452C96.5329 131.175 96.8465 131.024 97.2272 131.078C97.7179 131.148 98.0549 130.897 98.3302 130.531C98.5097 130.756 98.4657 130.957 98.464 131.147C98.4574 131.82 98.4518 131.815 97.7182 132.086C97.0479 132.334 96.5069 132.851 95.7962 133.016C95.7234 132.612 95.728 132.208 95.7871 131.804Z" fill="#6EACAE"/>
<path d="M98.4608 140.789C98.4601 141.189 98.4596 141.589 98.4588 141.989C98.2356 142.178 97.9618 142.294 97.7375 142.481C97.5757 142.615 97.4139 142.622 97.2521 142.481C97.0903 142.481 96.9285 142.482 96.7667 142.482C96.5389 142.675 96.7379 143.011 96.5227 143.209L96.524 143.208C96.1683 143.464 95.984 143.202 95.7913 142.966C95.7906 142.562 95.7898 142.158 95.7891 141.753C95.873 141.673 95.9435 141.579 96.0386 141.51V141.511C96.5101 141.307 97.1237 141.529 97.4948 141.025V141.025C97.578 140.946 97.6586 140.865 97.7388 140.783L97.7378 140.783C97.9802 140.609 98.2214 140.575 98.4608 140.789Z" fill="#6AA7A9"/>
<path d="M110.866 73.0145C110.857 73.8139 110.844 74.6135 110.841 75.4129C110.84 75.7429 110.703 75.9421 110.366 75.9841C110.139 75.9092 109.97 75.7636 109.852 75.557C109.885 75.1407 110.174 74.7521 109.917 74.2988C109.8 74.0915 109.758 73.8612 109.485 73.7937C109.438 73.7823 109.411 73.6915 109.375 73.6374C109.88 73.4738 109.71 72.7399 110.248 72.6054C110.287 72.5958 110.327 72.5923 110.366 72.5859C110.59 72.661 110.75 72.812 110.866 73.0145Z" fill="#6BA7A9"/>
<path d="M32.7158 12.3027C32.7942 12.7179 33.0953 13.0187 33.3271 13.3304C33.6252 13.7316 33.6573 14.0279 33.3009 14.3703C33.2455 14.4236 33.2205 14.5086 33.1813 14.5788L33.1808 14.5793C32.9818 14.5639 32.7773 14.5371 32.6501 14.369C32.3437 13.964 31.99 13.5774 31.7746 13.1264C31.6014 12.7636 31.5898 12.3192 31.5395 11.9068C31.5301 11.8305 31.6778 11.7352 31.7531 11.6484C32.1629 11.7359 32.4542 11.9976 32.7158 12.3027Z" fill="#6BA7A9"/>
<path d="M98.2261 138.117C98.3957 138.244 98.4635 138.42 98.4637 138.626C98.464 138.939 98.4625 139.252 98.4617 139.565C98.3361 139.714 98.1085 139.668 97.9824 139.816C97.3597 140.041 96.7148 140.227 96.2822 140.786L96.1621 140.786L96.042 140.786C95.9533 140.711 95.8729 140.629 95.7945 140.543C95.7336 140.139 95.7169 139.734 95.7933 139.33C96.2324 138.991 96.7924 138.895 97.255 138.603L97.2545 138.603C97.3867 138.463 97.6115 138.508 97.7397 138.36C97.8711 138.217 98.1005 138.271 98.2261 138.117Z" fill="#6BA8AA"/>
<path d="M80.9141 180.858C81.0339 180.846 81.1545 180.839 81.2733 180.821C81.4852 180.788 81.6743 180.719 81.6217 180.448C81.5838 180.253 81.5062 180.068 81.6038 179.865C82.0315 178.975 82.184 178.059 81.8725 177.092C81.8513 177.026 81.9719 176.867 82.0613 176.825C82.1516 176.782 82.319 176.788 82.3915 176.848C82.5076 176.942 82.6413 177.095 82.6492 177.23C82.6914 177.945 82.8264 178.675 82.4565 179.352C82.279 179.677 82.2148 180.02 82.1883 180.388C82.1718 180.618 82.0432 180.84 81.965 181.066C81.5969 181.086 81.2281 181.111 80.9141 180.858Z" fill="#72B1B3"/>
<path d="M54.2896 28.6654C54.1098 28.7928 54.0673 28.9605 54.0934 29.1786C54.1897 29.9841 54.3045 30.7891 54.2822 31.6042C53.8019 31.4757 53.4401 31.159 53.0755 30.8462C53.3946 30.8073 53.6515 30.645 53.5008 30.313C53.2586 29.7788 53.4459 29.1387 53.0217 28.6399C52.9213 28.5218 53.2877 28.1894 53.0872 27.9141C53.5751 28.0253 53.9265 28.355 54.2896 28.6654Z" fill="#77B5B7"/>
<path d="M98.4635 135.691C98.4627 136.011 98.4617 136.331 98.461 136.651C97.7458 137.565 96.6018 137.879 95.7852 137.387C95.7862 137.225 95.7872 137.062 95.7882 136.9C95.9288 136.713 96.0802 136.538 96.2827 136.414V136.415C97.0515 136.3 97.6198 135.581 98.4635 135.691Z" fill="#69A5A7"/>
<path d="M88.5146 56.3231C88.5987 56.4809 88.6832 56.6384 88.7674 56.7961C88.6966 56.9003 88.6265 56.9054 88.5573 56.7946C87.7533 56.2268 87.0399 55.5558 86.3477 54.8606C86.8998 54.8343 87.4171 55.2502 87.9958 54.9771C88.1156 54.9205 88.1962 55.0795 88.2339 55.1951C88.3545 55.5642 88.1174 56.0223 88.5146 56.3231Z" fill="#75B3B5"/>
<path d="M95.7852 137.392C96.2283 137.442 96.6202 137.644 97.1099 137.29C97.4861 137.018 98.0633 136.996 98.461 136.656C98.3416 137.497 98.3447 137.521 97.5905 137.623C97.2553 137.668 96.9777 137.766 96.7565 138.011C96.4941 138.301 96.1639 138.386 95.7907 138.361C95.789 138.038 95.7869 137.715 95.7852 137.392Z" fill="#72B1B3"/>
<path d="M76.8743 46.8196C76.8937 46.5498 76.7577 46.2136 77.0153 46.0353C77.2861 45.848 77.5389 46.1011 77.7634 46.2409C78.0928 46.4459 78.0789 46.7786 77.7341 46.9958C77.6057 47.0767 77.4347 47.0896 77.2828 47.1336C77.0967 47.0936 76.9589 46.991 76.8743 46.8196Z" fill="#6AA4A6"/>
<path d="M89.457 54.1498C89.2221 54.1561 88.9862 54.1493 88.7529 54.1715C87.9868 54.2446 87.7072 53.9013 87.9294 53.1438C87.9512 53.0695 87.9937 53.001 88.0265 52.9297C88.5653 53.2639 89.0267 53.6886 89.457 54.1498Z" fill="#75B3B5"/>
<path d="M92.4336 60.1906C92.5838 60.156 92.7458 60.1461 92.8821 60.0816C93.2206 59.9219 93.4952 60.1299 93.7667 60.2404C94.1538 60.3979 93.7937 60.7147 93.8511 60.9556C93.886 61.1025 93.8542 61.2651 93.8522 61.4206C93.3172 61.0823 92.8692 60.6437 92.4336 60.1906Z" fill="#76B4B6"/>
<path d="M97.255 138.598C96.9223 139.151 96.404 139.331 95.7932 139.325C95.7932 139.244 95.793 139.164 95.793 139.084C96.2293 138.769 96.6743 138.479 97.255 138.598Z" fill="#72B1B3"/>
<path d="M96.5245 87.1484C96.5902 87.1487 96.6562 87.1487 96.7219 87.1489C96.8241 87.5502 96.796 87.9562 96.7652 88.362C96.302 88.34 96.0603 88.0967 96.0391 87.6338C96.1366 87.4078 96.2982 87.2458 96.5245 87.1484Z" fill="#6EACAE"/>
<path d="M95.793 142.969C96.0311 143.068 96.2496 143.226 96.5256 143.211C96.3502 143.499 96.0612 143.446 95.7932 143.454C95.793 143.293 95.793 143.131 95.793 142.969Z" fill="#72B1B3"/>
<path d="M88.9688 57.0784C89.0069 57.0733 89.0451 57.0648 89.0835 57.064C89.6074 57.0567 89.6074 57.0569 89.4676 57.5499C89.2289 57.4693 89.0648 57.31 88.9688 57.0784Z" fill="#7BB6B8"/>
<path d="M96.2836 136.414C96.1903 136.649 96.0257 136.811 95.7891 136.9C95.7913 136.738 95.7939 136.576 95.7964 136.414C95.9587 136.414 96.1213 136.414 96.2836 136.414Z" fill="#72B2B4"/>
<path d="M88.5586 56.7969C88.6284 56.8024 88.6984 56.8029 88.7687 56.7986C88.839 56.8957 88.9093 56.9931 88.9795 57.0907C88.7844 57.0712 88.6362 56.9845 88.5586 56.7969Z" fill="#7BB6B8"/>
<path d="M95.793 135.689C95.8754 135.688 95.9581 135.688 96.0405 135.688C95.9581 135.769 95.8759 135.85 95.7935 135.932C95.7932 135.851 95.7932 135.77 95.793 135.689Z" fill="#72B2B4"/>
<path d="M95.7934 140.539C95.8758 140.62 95.9582 140.701 96.0409 140.782C95.9569 140.782 95.873 140.782 95.7891 140.782C95.7906 140.701 95.7921 140.62 95.7934 140.539Z" fill="#73B3B5"/>
<path d="M96.0401 141.516C95.9569 141.597 95.8738 141.678 95.7906 141.759C95.7901 141.678 95.7896 141.597 95.7891 141.516C95.8727 141.516 95.9564 141.516 96.0401 141.516Z" fill="#73B3B5"/>
<path d="M93.8516 61.4219C93.9337 61.5008 94.0159 61.5796 94.0983 61.6585C93.9701 61.6274 93.8875 61.549 93.8516 61.4219Z" fill="#76B4B6"/>
<path d="M89.7227 57.7812C89.8063 57.8611 89.8903 57.9408 89.974 58.0207C89.8453 57.9883 89.7601 57.9097 89.7227 57.7812Z" fill="#7BB6B8"/>
<path d="M89.4688 57.5469C89.5545 57.6275 89.6404 57.7079 89.7261 57.7886C89.5939 57.7577 89.5069 57.6783 89.4688 57.5469Z" fill="#7BB6B8"/>
<path d="M54.611 28.8721C54.4667 28.8615 54.3612 28.7912 54.293 28.6641C54.3992 28.7333 54.5051 28.8029 54.611 28.8721Z" fill="#77B5B7"/>
<path d="M6.34086 15.0987C6.50519 14.6573 6.23037 14.3372 6.23442 13.9732C6.25237 12.3243 6.24303 10.6754 6.24707 9.0263C6.24758 8.86171 6.286 8.6941 6.50064 8.7123C6.66295 8.72595 6.83361 8.80761 6.87583 8.96739C6.93625 9.19543 6.96001 9.43864 6.96228 9.67578C6.96936 10.4335 7.01158 11.1838 7.16707 11.9307C7.23078 12.2366 7.24115 12.5902 7.15165 12.8845C6.89833 13.7183 6.89049 14.5385 7.10108 15.3758C7.15898 15.6058 7.01537 15.7532 6.77343 15.7671C6.466 15.7848 6.26754 15.6344 6.28296 15.3806C6.29004 15.2625 6.33049 15.1462 6.34086 15.0987Z" fill="#73B3B5"/>
<path d="M19.7644 5.36719C20.1747 5.39323 20.4336 5.65767 20.4715 6.04701C20.4844 6.1805 20.287 6.31348 20.1396 6.29224C19.8375 6.2485 19.6529 6.04625 19.504 5.81518C19.4534 5.73681 19.4512 5.57323 19.5012 5.49916C19.5553 5.41902 19.6969 5.39778 19.7644 5.36719Z" fill="#639D9F"/>
<path d="M33.1804 14.5781C33.2932 14.5812 33.4072 14.5746 33.5177 14.591C33.5847 14.6011 33.7043 14.6631 33.7012 14.6747C33.6621 14.8168 33.5359 14.8216 33.4348 14.7794C33.3387 14.7389 33.2639 14.6476 33.1797 14.5789L33.1804 14.5781Z" fill="#6BA7A9"/>
<path d="M95.8039 152.192C95.8102 151.614 95.68 151.006 96.177 150.531C96.2008 150.509 96.0901 150.345 96.0418 150.247C96.1388 150.111 96.2685 150.005 96.4354 150.049C96.5315 150.075 96.6887 150.21 96.6758 150.254C96.5401 150.714 96.5575 151.19 96.49 151.656C96.4379 152.017 96.1522 152.165 95.8039 152.192Z" fill="#72B2B4"/>
<path d="M83.4237 180.575C83.0723 180.6 82.7232 180.051 82.8706 179.63C82.8825 179.595 82.9189 179.566 82.9507 179.543C83.332 179.274 83.6217 179.637 83.9498 179.708C84.094 179.739 84.1425 179.946 84.0914 180.117C83.9986 180.425 83.7746 180.557 83.4237 180.575Z" fill="#72B1B3"/>
<path d="M95.8164 149.533C95.8167 149.369 95.8172 149.205 95.8177 149.041C95.9726 149.041 96.1274 149.04 96.2823 149.039C96.2775 149.346 96.1211 149.509 95.8164 149.533Z" fill="#72B2B4"/>
<path d="M96.2812 149.04C96.4554 148.753 96.7426 148.805 97.0094 148.797C96.8349 149.083 96.5482 149.031 96.2812 149.04Z" fill="#72B2B4"/>
<path d="M96.2251 66.0778C96.2368 66.2732 96.2668 66.4701 96.2534 66.6638C96.2448 66.7874 96.1106 66.8926 96.0102 66.8003C95.6105 66.4322 95.0536 66.2117 94.887 65.6184C94.8149 65.3615 94.9441 65.1241 95.2032 65.0905C95.3206 65.0751 95.4411 65.065 95.5587 65.0733C96.0239 65.1057 96.1574 65.2455 96.1912 65.7286C96.1993 65.8452 96.1925 65.9625 96.1925 66.0795C96.2031 66.079 96.214 66.0785 96.2251 66.0778Z" fill="#68A4A6"/>
<path d="M96.5274 87.1504C96.5218 87.4684 96.3585 87.6287 96.042 87.6358C95.9179 87.4793 95.684 87.542 95.5566 87.3926C95.5212 87.3749 95.4782 87.3648 95.4517 87.338C95.1301 87.0164 95.0747 86.8381 95.2363 86.6597C95.4403 86.4339 95.7391 86.3758 95.9841 86.5368C96.2177 86.6905 96.4129 86.8872 96.5274 87.1504Z" fill="#66A1A4"/>
<path d="M95.5547 87.3906C95.7544 87.3959 95.9357 87.4384 96.0401 87.6338C95.8399 87.6293 95.6586 87.5871 95.5547 87.3906Z" fill="#6EACAE"/>
<path d="M68.1278 38.8613C68.0214 38.8206 67.8886 38.7874 67.8906 38.7677C67.9131 38.5366 68.0992 38.6264 68.2249 38.6272C68.2881 38.6274 68.3508 38.7012 68.4137 38.7417C68.3098 38.7852 68.2059 38.8286 68.1278 38.8613Z" fill="#5F9799"/>
<path d="M98.2008 118.439C98.1996 118.733 98.059 118.898 97.7953 118.916C97.475 118.938 97.1714 118.787 97.1157 118.562C97.0993 118.495 97.1152 118.396 97.157 118.344C97.3112 118.153 97.5304 118.062 97.7655 118.015C98.0084 117.967 98.2018 118.159 98.2008 118.439Z" fill="#66A1A3"/>
<path d="M96.043 148.548C96.0541 148.114 96.0053 147.677 96.1863 147.257C96.3486 146.881 96.2657 146.473 96.2852 146.079C96.295 145.881 96.297 145.682 96.3274 145.487C96.3625 145.261 96.5992 145.14 96.8902 145.191C97.143 145.236 97.1794 145.402 97.1278 145.629C97.032 146.052 96.968 146.481 96.8611 146.9C96.7936 147.164 96.9306 147.359 97.0123 147.577C96.5772 147.545 96.2844 147.672 96.2612 148.178C96.2556 148.304 96.1193 148.425 96.043 148.548Z" fill="#72B2B4"/>
<path d="M98.462 135.692C98.3106 135.735 98.1033 135.729 98.0168 135.829C97.5458 136.369 96.9507 136.49 96.2812 136.416C96.3485 136.318 96.3935 136.173 96.4863 136.13C97.0594 135.86 97.6353 135.591 98.2287 135.371C98.4072 135.305 98.4484 135.534 98.462 135.692Z" fill="#72B2B4"/>
<path d="M96.2812 140.786C96.3336 140.683 96.3948 140.583 96.4365 140.476C96.6299 139.979 96.9843 139.756 97.5193 139.814C97.6717 139.83 97.8272 139.816 97.9814 139.816C97.9142 139.913 97.8677 140.065 97.7762 140.1C97.2634 140.299 96.8359 140.682 96.2812 140.786Z" fill="#73B3B5"/>
<path d="M97.2539 143.698C97.0122 144.269 96.5879 144.382 96.0391 144.183C96.2823 143.616 96.7856 143.701 97.2539 143.698Z" fill="#72B1B3"/>
<path d="M97.4953 141.023C97.27 141.511 96.928 141.726 96.3859 141.523C96.283 141.485 96.1554 141.512 96.0391 141.51C96.4633 141.165 97.0152 141.201 97.4953 141.023Z" fill="#73B3B5"/>
<path d="M98.4613 140.793C98.2204 140.791 97.9792 140.789 97.7383 140.787C97.7782 140.718 97.8053 140.636 97.8606 140.582C98.1994 140.254 98.278 140.284 98.4613 140.793Z" fill="#73B3B5"/>
<path d="M97.7383 142.485C97.8715 142.163 98.116 142.005 98.4596 141.992C98.3352 142.326 98.0889 142.482 97.7383 142.485Z" fill="#72B1B3"/>
<path d="M97.2539 134.962C97.4273 134.675 97.714 134.727 97.9808 134.719C97.8071 135.004 97.5201 134.953 97.2539 134.962Z" fill="#72B2B4"/>
<path d="M96.5234 143.211C96.5333 142.945 96.4802 142.658 96.7674 142.484C96.7585 142.751 96.8111 143.038 96.5234 143.211Z" fill="#72B1B3"/>
<path d="M97.7383 147.582C97.9034 147.302 98.187 147.352 98.4444 147.328C98.2924 147.645 97.9989 147.567 97.7383 147.582Z" fill="#72B2B4"/>
<path d="M97.0117 147.578C97.1735 147.578 97.3353 147.578 97.4971 147.578C97.3353 147.827 97.1735 147.827 97.0117 147.578Z" fill="#72B2B4"/>
<path d="M98.2237 143.211C98.1195 143.407 97.9383 143.449 97.7383 143.454C97.8422 143.258 98.0235 143.216 98.2237 143.211Z" fill="#72B1B3"/>
<path d="M97.2539 142.484C97.4157 142.484 97.5775 142.484 97.7393 142.484C97.5775 142.733 97.4157 142.733 97.2539 142.484Z" fill="#72B1B3"/>
<path d="M96.0391 135.688C96.143 135.492 96.3243 135.45 96.5245 135.445C96.4203 135.641 96.239 135.683 96.0391 135.688Z" fill="#72B2B4"/>
<path d="M97.9805 139.813C98.0824 139.618 98.2636 139.576 98.4598 139.562C98.3635 139.767 98.181 139.807 97.9805 139.813Z" fill="#73B3B5"/>
<path d="M97.7391 138.359C97.6352 138.556 97.4539 138.598 97.2539 138.603C97.3576 138.406 97.5391 138.364 97.7391 138.359Z" fill="#72B1B3"/>
<path d="M98.2249 138.117C98.1195 138.312 97.9383 138.354 97.7383 138.359C97.8429 138.163 98.0245 138.121 98.2249 138.117Z" fill="#72B1B3"/>
<path d="M96.7656 135.445C96.847 135.365 96.9282 135.284 97.0096 135.203C96.9284 135.284 96.847 135.365 96.7656 135.445Z" fill="#72B2B4"/>
<path d="M98.2227 134.715C98.3018 134.633 98.3809 134.551 98.4601 134.469C98.3812 134.551 98.3018 134.633 98.2227 134.715Z" fill="#72B2B4"/>
<path d="M98.4598 143.215C98.3807 143.212 98.3018 143.211 98.2227 143.211C98.3051 143.046 98.3842 143.041 98.4598 143.215Z" fill="#72B1B3"/>
<path d="M95.8164 148.785C95.8169 148.703 95.8174 148.621 95.8182 148.539C95.8922 148.547 95.9661 148.551 96.0401 148.551C95.9656 148.629 95.891 148.707 95.8164 148.785Z" fill="#72B2B4"/>
</svg>
