<svg width="57" height="59" viewBox="0 0 57 59" fill="none" xmlns="http://www.w3.org/2000/svg">
<path d="M10.0275 2.37272C10.1726 2.18863 10.3748 2.14645 10.5932 2.1451C11.1941 1.94884 11.814 1.82179 12.4373 1.93992C13.0028 2.04724 12.9211 1.69014 12.9314 1.36818C13.0079 1.3306 13.0809 1.27059 13.1609 1.25869C14.8776 1.00567 16.5867 0.620982 18.3381 0.92348C18.4559 0.943755 18.5616 1.03594 18.6727 1.09487C18.3605 1.51523 17.6331 1.3014 17.445 1.90505C17.5282 3.07963 18.3294 3.16181 19.2268 3.07044C19.6918 3.02313 20.2208 2.68251 20.4686 3.41051C20.0707 3.94333 19.6015 4.41073 19.1311 4.8784C18.7433 5.09926 18.2983 5.00139 17.8831 5.09493C18.8381 6.11245 20.9254 6.16246 22.4251 5.20928C23.0671 6.37196 22.9371 7.73226 23.3782 8.95361C23.499 9.28774 23.2133 9.86084 22.8057 9.81353C21.4031 9.65133 19.9545 9.85678 18.597 9.32747C19.5125 8.06936 20.8027 8.64976 22.0991 8.72653C21.7656 8.11127 21.3379 8.0134 20.8471 8.10045C20.0629 8.23967 19.3063 8.08396 18.5432 7.94393C17.1693 7.69198 16.9552 7.53708 16.3316 6.27518C16.4257 7.29811 16.4235 7.30109 17.2622 7.93825C17.4747 8.09964 17.6588 8.26751 17.6742 8.55433C17.3098 8.96928 16.6273 9.20393 16.8706 9.9668C16.6073 10.2793 16.267 10.3823 15.7456 10.3193C16.2602 10.5507 16.856 10.5137 16.8954 11.1625C16.9425 11.3171 16.3313 11.4109 16.8787 11.6426C17.2012 11.7791 17.2847 12.1519 17.2028 12.5155C17.4769 13.8047 18.696 14.5032 19.7774 13.9844C19.9361 13.9082 20.1159 13.8076 20.2678 13.8671C21.3831 14.304 22.2575 13.6654 23.1822 13.2427C23.7034 13.5192 23.6534 14.0361 23.6245 14.4799C23.5758 15.2236 23.9172 15.6743 24.5332 15.9914C25.1349 17.3046 25.1287 17.3135 23.7569 17.3249C23.2057 17.3295 22.654 17.3027 22.1034 17.3449C21.895 17.4071 21.6885 17.4084 21.4847 17.3284C20.7346 16.5115 19.7137 16.4104 18.7033 16.2693C18.2145 16.2011 17.6585 16.3247 17.3036 15.8292C17.5655 15.1814 18.1216 15.4055 18.6054 15.3731C19.2436 15.3301 19.8604 15.5729 20.5057 15.4426C19.6323 15.308 18.7208 15.5075 17.8764 15.0741C17.4412 14.8508 17.4712 15.3472 17.3717 15.5948C16.8835 16.2936 17.6877 16.156 17.8999 16.392C18.2045 16.7304 18.903 16.9927 18.0234 17.4638C16.3559 17.6212 14.6903 17.596 13.0249 17.4822C12.4489 17.2524 11.9856 16.8724 11.5988 16.3947C11.5617 16.2687 11.5926 16.1571 11.6801 16.0608C11.9618 15.8635 12.3059 15.8638 12.6235 15.7794C13.0641 15.6621 13.119 15.4104 12.909 15.0457C13.1693 14.4029 13.655 14.6189 14.0783 14.776C14.5289 14.943 14.9655 15.0293 15.4882 14.889C15.1336 14.7835 14.8398 14.673 14.687 14.3624C14.6403 14.2496 14.6151 14.1318 14.6105 14.0101C14.5503 12.4238 14.64 10.8219 14.1151 9.28395C14.2948 8.63543 14.3151 8.04881 13.5269 7.77497C13.425 7.70496 13.3436 7.61656 13.2782 7.51222C13.1533 7.17133 12.9509 6.83342 13.2263 6.47307C13.5655 6.2979 14.0264 6.1484 13.778 5.64586C13.5561 5.19684 13.112 5.34958 12.7522 5.47853C11.7339 5.8432 10.7487 6.1038 10.0194 4.96301C10.0024 4.83677 10.0432 4.73296 10.1407 4.65159C10.5367 4.48129 10.893 4.73188 11.2706 4.76053C11.9826 4.81433 12.5213 4.59347 12.7322 3.84574C12.936 3.68435 13.2214 3.70301 13.4466 3.51216C12.7227 3.37645 12.0183 3.27643 11.305 3.21831C10.7379 3.17208 10.2032 3.03097 10.0275 2.37272Z" fill="#F187AD"/>
<path d="M34.7258 58.0721C34.6222 58.0773 34.519 58.0827 34.4157 58.0878C33.1331 57.6193 31.7789 57.8232 30.4636 57.6642C30.0222 57.6107 29.7105 57.7537 29.5259 58.1611C28.1992 58.2881 26.8734 58.426 25.5456 58.5382C24.725 58.6074 24.4233 58.3492 24.3665 57.559C24.3452 57.2595 24.3776 56.9565 24.3857 56.6548C24.7177 56.3199 24.8731 55.8684 25.2164 55.5218C25.9622 54.7687 26.8863 54.4632 27.8724 54.3537C29.155 54.2113 30.3838 53.8204 31.6548 53.6376C32.629 53.4976 33.5945 53.3187 34.583 53.2586C35.8213 53.1835 37.0501 52.9664 38.2971 52.9935C39.4318 52.0559 39.7513 52.0197 40.433 52.7518L40.4325 52.7534C40.373 52.8156 40.3565 52.8737 40.3827 52.9283C40.4081 52.981 40.4319 53.0075 40.4544 53.0075C41.5267 53.1867 42.6001 53.3606 43.6707 53.5509C43.8273 53.5787 43.97 53.6847 44.1192 53.7544C44.1754 54.3997 44.2238 55.0479 44.3314 55.6848C44.4963 56.661 44.0427 56.6488 43.2888 56.4845C41.5953 56.1155 39.88 56.033 38.1527 56.2909C37.5226 56.385 37.5983 56.9968 37.2942 57.3255C36.7122 57.7185 36.1222 57.9221 35.5021 57.4058C35.445 56.9154 36.0716 56.9551 36.177 56.4604C35.8086 56.5567 35.7883 56.8997 35.6075 57.0643C35.3194 57.4044 35.1085 57.8137 34.7258 58.0721Z" fill="#F187AD"/>
<path d="M2.81579 7.35238C3.32018 6.60222 3.92837 5.96559 4.68901 5.45791C5.29044 5.05648 5.8408 4.57691 6.39979 4.11465C6.73173 3.84027 7.0715 3.58913 7.48128 3.44531C8.30247 3.96516 9.43587 3.86081 10.0765 4.74235L10.0757 4.74343C9.91323 5.01971 9.4902 5.21976 9.67807 5.60146C9.87701 6.00587 10.3076 5.96073 10.6925 5.92748C11.1034 5.89206 11.5229 5.68932 11.9143 5.99776C11.5021 6.93824 10.1005 7.20722 9.04635 6.53356C8.68441 6.30242 8.38464 5.99533 8.1711 5.67823C8.42627 6.53058 9.00067 6.80713 9.96485 6.95283C11.1212 7.12774 12.2981 7.32292 13.4483 7.59649L13.4497 7.59811C13.7935 8.14769 13.4848 8.52344 13.0555 8.77134C12.4028 9.14844 11.6513 9.14575 11.1012 8.66267C10.1441 7.82195 9.30179 8.09443 8.42113 8.7097C8.20948 8.80648 7.99216 8.86838 7.76132 8.78863C7.64887 8.80485 7.61859 8.62996 7.49263 8.66943C7.54021 8.76188 7.67293 8.69267 7.72131 8.78972C8.4206 9.46121 9.55859 9.51664 10.0576 10.4639C9.48101 10.7223 9.45533 11.3224 9.23205 11.8017C8.35923 12.1175 8.4579 10.7861 7.7205 10.9529C8.19057 12.3748 8.2311 12.3959 9.70806 12.5092C10.3914 12.5616 11.0974 12.6284 11.7292 12.8528C12.536 13.1396 12.7958 12.7784 12.9696 12.1269C13.6075 11.6801 14.136 11.7655 14.2444 12.5762C14.3187 13.132 14.8504 13.4988 14.7471 14.0857C13.4983 14.9984 12.2633 14.2625 11.0593 13.9873C10.3876 13.8338 9.76186 13.587 9.05988 13.7505C8.35573 13.9146 7.88566 13.4962 7.3537 12.8176C7.50723 13.3045 7.65725 13.518 7.75104 13.7578C7.98783 14.5707 8.62494 14.8259 9.36666 15.0511C10.1692 15.2949 11.1793 15.1849 11.6335 16.1611L11.6324 16.1627C10.7406 16.6068 9.7678 16.4957 8.82605 16.5301C8.3941 16.5457 7.99297 16.5106 7.65428 16.8277C6.94094 17.0861 6.18544 16.6806 5.47345 16.9696C5.07502 15.7737 4.24895 15.3676 3.00014 15.3763C2.16489 15.3822 1.41668 14.8359 0.719558 14.3447C0.719288 14.0849 0.71902 13.8251 0.71875 13.5654C1.29585 13.1793 1.65942 13.6897 2.07731 13.9079C2.99176 14.3855 3.89215 14.6221 4.80768 13.9295C5.1288 13.7476 5.43345 13.457 5.30721 13.112C4.84148 11.8404 5.0915 10.5047 4.9577 9.03437C3.90134 10.1844 2.94392 9.63963 1.98487 9.18007C2.12002 8.21797 2.98419 8.88623 3.40047 8.54913C3.38155 8.06335 2.39627 8.05037 2.81579 7.35238Z" fill="#F187AD"/>
<path d="M51.1502 22.3588C51.6362 22.5024 52.0792 22.6043 52.6368 22.49C54.6898 22.0696 56.2449 23.5926 56.3427 25.5723C56.4165 27.068 55.8357 27.9825 54.5103 28.4294C53.78 28.6756 53.3759 29.1054 53.0893 29.7805C52.8044 30.4514 52.4276 31.0829 52.0911 31.732C51.3864 32.1615 50.6828 32.2945 49.9827 31.7222C50.0081 31.6382 50.0332 31.5538 50.0584 31.4697C50.1581 31.377 50.2384 31.2716 50.273 31.137C50.493 30.3409 50.9426 29.6496 51.3029 28.9192C51.5124 28.4948 51.5607 28.1001 51.2867 27.7111C50.6871 26.8606 50.4701 25.9037 50.6198 24.9016C50.7031 24.3447 50.4857 24.1338 50.0462 23.9338C49.3418 23.6132 48.6585 23.2463 47.9662 22.899C47.72 22.2477 47.3021 21.8898 46.5522 21.9047C46.1435 21.9128 45.7205 21.7898 45.3264 21.6319C45.2504 21.6376 45.1794 21.6222 45.1129 21.5854C45.0464 21.4232 45.0874 21.2962 45.2358 21.2029C46.2535 20.858 47.2804 20.9242 48.3092 21.138C48.9772 22.1888 50.13 22.1201 51.1502 22.3588Z" fill="#F288AE"/>
<path d="M19.1587 4.74774C19.2976 4.02163 19.7301 3.58938 20.4561 3.4507C20.5086 3.44827 20.5607 3.44556 20.6132 3.44204C20.8267 3.44475 21.0349 3.49179 21.2454 3.51693C21.9201 3.77131 22.0326 2.53402 22.7632 2.94302C23.1095 3.08684 23.3781 3.32446 23.5938 3.62668C24.1147 4.05543 24.1158 4.66042 24.1945 5.26163C24.2907 5.99585 24.1796 6.79521 25.0535 7.2764C25.5214 7.53402 25.5122 8.3223 25.0024 8.42043C23.9977 8.61399 24.3953 9.22844 24.3634 9.7645C24.2869 11.0578 24.5156 12.3359 24.531 13.6248C24.5672 13.7486 24.5918 13.8732 24.6135 13.9998C24.6754 14.5293 24.717 15.0578 24.5832 15.5833C24.537 15.7145 24.4583 15.822 24.3488 15.9072C23.6076 16.1464 23.363 16.0302 23.3219 15.3798C23.2927 14.9175 23.3103 14.4523 23.31 13.9887C23.3098 13.7292 23.2816 13.4826 23.0511 13.3126C21.1541 13.6443 19.2627 13.8408 17.4098 13.079C17.2922 12.9893 17.2 12.8782 17.1314 12.7473C17.1146 12.6765 17.0987 12.6054 17.0827 12.5343C17.103 12.105 16.7583 11.8866 16.5521 11.5822C16.3507 11.2848 16.6224 11.2665 16.8243 11.2359C17.1108 10.9345 17.4979 10.9477 17.779 11.1207C19.0362 11.8942 20.3658 11.0307 21.6517 11.317C20.2939 10.8345 18.8057 11.0837 17.4747 10.5276C17.319 10.439 17.1746 10.3338 17.037 10.2187C16.9467 10.14 16.8757 10.0462 16.8243 9.93779C16.1612 9.21168 16.2139 8.95865 17.1035 8.68102C17.2589 8.63263 17.4355 8.65237 17.6022 8.64075C18.1088 8.49261 18.3831 8.80916 18.6402 9.16005C18.7805 9.35036 19.0005 9.48633 19.1984 9.39496C20.2404 8.9135 21.2246 9.39983 22.2288 9.53554C22.355 9.55257 22.4753 9.6288 22.6008 9.63556C22.7808 9.64529 22.9424 9.5769 23.003 9.38388C23.1038 9.06219 23.2627 8.76213 22.9943 8.41259C22.8186 8.18362 22.7732 7.85814 22.6459 7.587C22.4778 7.22828 22.3964 6.89388 22.4907 6.4727C22.5786 6.08073 22.684 5.60522 22.2723 5.26785C21.1538 5.57575 19.9812 6.21022 19.1587 4.74774Z" fill="#EF85AA"/>
<path d="M24.3487 13.8283C24.1528 13.6918 24.0398 13.4834 24.109 13.2709C24.2925 12.7072 24.1038 12.1588 24.0733 11.6086C24.043 11.0599 23.8797 10.5284 24.0625 9.96503C24.1341 9.74471 24.0471 9.45005 23.9695 9.20973C23.8743 8.91534 23.8224 8.62798 23.8468 8.32061C23.8681 8.05326 24.0338 7.94513 24.2744 8.06867C24.3484 8.10679 24.3982 8.18951 24.4698 8.23492C24.6742 8.36414 24.8861 8.38766 25.0283 8.15923C25.205 7.87539 25.0886 7.4999 24.8196 7.39582C24.5431 7.28877 24.2019 7.42339 23.9933 7.19632C23.9516 5.97497 23.9022 4.7866 23.5938 3.625C23.777 3.72989 24.0008 3.79828 24.1371 3.94696C25.2856 5.20075 26.5182 6.38858 27.2605 7.96324C27.4578 8.38225 27.7446 8.75909 27.9903 9.15512C27.5294 9.61495 26.938 9.44518 26.3941 9.47195C25.2267 9.52926 25.2261 9.5179 25.7086 10.5987C25.6673 11.7527 26.4439 11.6251 27.1991 11.5656C28.2411 11.4837 28.2419 11.494 28.4633 12.3693C27.6686 12.8113 26.715 12.455 25.7746 12.8497C26.7385 13.6174 27.9284 12.8559 28.7588 13.5691C28.7961 13.6499 28.8088 13.7342 28.7961 13.8226C27.6603 14.4452 26.4874 14.2141 25.3264 13.9402C24.9972 13.8624 24.699 13.6669 24.3487 13.8283Z" fill="#F48BB1"/>
<path d="M33.2335 12.505C33.429 12.585 33.6382 12.6418 33.8179 12.7483C35.7609 13.8986 37.6993 15.0567 39.639 16.2126C39.1762 17.0328 38.1658 17.3317 36.9213 16.946C36.4397 16.7968 35.9631 16.6124 35.4868 16.4372C34.8173 16.2085 34.2367 15.8298 33.7004 15.3764C33.532 14.9469 34.2115 14.9556 34.1104 14.5044C33.3076 14.3281 32.4143 14.5087 31.6398 14.0813C30.7792 13.678 30.0004 13.1495 29.279 12.5337C29.0319 11.6486 29.7139 11.7659 30.1688 11.7762C31.2349 11.7997 32.2761 11.993 33.2335 12.505Z" fill="#EF86AB"/>
<path d="M39.1133 51.4184C39.2755 50.692 39.7834 50.1451 40.1126 49.5052C40.8514 48.0684 41.6231 46.6487 42.3883 45.2259C42.4873 45.0421 42.6281 44.8813 42.7497 44.7096C43.7717 43.9038 44.185 43.9078 44.877 44.731L44.873 44.7248C44.6792 44.8461 44.7321 45.0962 44.5994 45.2492L44.6054 45.2397C44.4259 45.367 44.474 45.613 44.3343 45.7612L44.3375 45.7561C44.1667 45.8807 44.2304 46.1326 44.0642 46.2597C43.1203 48.129 42.1226 49.9683 40.9933 51.7336C39.8642 52.5419 39.3179 52.4502 39.1133 51.4184Z" fill="#F189AE"/>
<path d="M2.03198 9.15737C2.46393 9.14061 2.87128 9.21846 3.28701 9.35984C4.06306 9.62341 4.07251 9.59557 4.4877 8.92164C4.55501 8.81243 4.61529 8.69889 4.68665 8.59265C4.76964 8.46911 4.90614 8.43586 5.02048 8.50236C5.12076 8.56075 5.26294 8.69213 5.25132 8.77134C5.20591 9.07843 5.21511 9.35876 5.38189 9.63125C5.55326 9.91131 5.43134 10.153 5.35079 10.4531C5.20698 10.9891 5.10562 11.6144 5.41458 12.1253C5.65921 12.5305 5.66976 12.9303 5.66219 13.355C5.65138 13.9503 5.64462 13.95 4.88776 14.0898C3.46352 13.8862 1.96736 13.9714 0.722331 13.0498C0.674487 12.4992 0.728551 11.9691 1.03265 11.4884C1.28944 10.9715 1.66489 11.2184 2.01196 11.3446C2.3712 11.4749 2.69774 11.6885 3.06536 11.7952C3.40081 11.8926 3.81519 11.9664 3.92331 11.54C4.01981 11.1594 3.59083 11.1202 3.32944 11.0194C2.93101 10.8658 2.50177 10.8331 2.08982 10.7337C1.79248 10.6617 1.3635 10.6715 1.47486 10.1476C1.50298 9.7967 1.46108 9.42526 1.76274 9.15331C1.85437 9.0322 1.94413 9.03356 2.03198 9.15737Z" fill="#EE84A9"/>
<path d="M18.4125 21.3699C17.4367 21.9051 16.386 21.9311 15.3183 21.8102C15.2023 21.7972 15.0966 21.6937 14.9861 21.6321C15.1756 20.6473 14.9782 19.6857 14.8663 18.7104C14.8177 18.286 14.6942 17.7583 15.0823 17.3636C15.5981 17.3128 16.1152 17.3482 16.6309 17.3403C17.6278 17.9743 18.7215 18.2246 19.8981 18.3149C20.665 18.3738 20.9169 18.0816 20.9607 17.4133C21.2534 17.1811 21.5718 17.3703 21.8778 17.3563C21.9292 17.3941 21.9805 17.4322 22.0319 17.4704C21.8516 18.4576 21.547 19.3797 20.6977 20.0161C19.834 20.3131 19.0012 20.9154 18.0581 20.1653C17.8265 19.9812 17.414 19.972 17.2548 20.2807C17.0147 20.7459 17.4867 20.827 17.7643 20.9773C17.9878 21.0982 18.2576 21.1371 18.4125 21.3699Z" fill="#F5DF5B"/>
<path d="M15.0065 17.4858C15.1373 17.7532 15.346 18.0294 15.2414 18.3271C15.0565 18.8523 15.1965 19.2565 15.4285 19.7512C15.7374 20.4108 15.3974 21.0652 14.9833 21.6335C13.6974 21.5037 12.5267 21.0133 11.4217 20.3921C10.9195 20.1096 10.4494 19.6976 10.3164 19.0591C10.0299 18.2838 10.5938 18.3866 10.9979 18.4533C11.8645 18.5963 12.61 18.9943 13.1528 19.6663C12.9281 18.8266 12.6438 18.0497 11.5761 17.8294C11.1506 17.7415 11.3203 17.3852 11.6793 17.2266C12.7846 17.3823 13.9126 17.2158 15.0065 17.4858Z" fill="#EFD857"/>
<path d="M45.1088 56.9039C44.3906 57.3284 43.5951 57.1897 42.8412 57.1378C42.1903 57.0929 41.5662 57.0821 40.9531 57.2975C40.5298 57.4462 40.1136 57.47 39.6978 57.3043C39.3254 57.1559 38.9194 57.0661 38.5712 57.2362C38.1125 57.4603 37.7376 57.1835 37.3245 57.1626C37.2667 56.8745 37.2091 56.5866 37.1445 56.2641C37.6468 56.0948 38.0603 55.8021 38.6334 55.9462C38.9396 56.0232 39.3565 55.9727 39.6265 55.8143C40.1339 55.5163 40.5242 55.4344 40.9461 55.9345C41.1564 56.1835 41.4986 56.1578 41.7925 56.0673C42.0363 55.9921 42.2633 55.8624 42.4963 55.7534C42.7715 55.6245 42.9915 55.701 43.1732 55.9283C43.3045 56.0927 43.397 56.3073 43.6357 56.343C43.7592 56.3614 43.8941 56.3654 44.0133 56.3346C44.1806 56.2914 44.1422 56.143 44.1198 56.0194C44.023 55.4839 43.9133 54.9503 43.8292 54.4129C43.787 54.1442 43.866 53.9022 44.1217 53.7519C44.1949 53.7449 44.2647 53.7573 44.3309 53.7892C45.0645 54.7089 45.0775 55.8086 45.1088 56.9039Z" fill="#EE84A9"/>
<path d="M45.1105 56.9116C44.7061 56.1658 44.5967 55.3383 44.4772 54.5189C44.4415 54.2732 44.4483 54.0248 44.332 53.7969C45.8393 54.0588 47.3524 54.2929 48.8513 54.5957C49.463 54.7192 50.1179 54.8284 50.5715 55.3507C49.1919 56.3834 47.7403 56.7183 46.0466 55.7265C46.0628 56.2117 46.0342 56.6521 45.6292 56.9119C45.4565 56.9116 45.2835 56.9116 45.1105 56.9116Z" fill="#F187AD"/>
<path d="M25.6462 10.716C25.4005 10.4814 25.1221 10.2722 24.9167 10.0064C24.6118 9.61283 24.788 9.20437 25.2702 9.1795C25.9163 9.14625 26.565 9.16301 27.2126 9.15868C27.4716 9.15706 27.7308 9.15706 27.99 9.15625C28.901 9.59581 29.7784 10.0913 30.5734 10.7223C30.502 11.327 29.9995 11.3108 29.6014 11.3229C28.4425 11.3586 27.2778 11.47 26.1252 11.2205C25.9703 11.1624 25.8416 11.0683 25.7373 10.9404C25.7065 10.8663 25.6765 10.7912 25.6462 10.716Z" fill="#EF86AB"/>
<path d="M5.66805 16.9404C5.91836 16.4498 6.01972 16.3557 6.38058 16.4587C6.82956 16.5868 7.26961 16.729 7.74481 16.6804C7.81212 16.5939 7.90023 16.5557 8.00916 16.5644C8.21054 16.5995 8.40435 16.6639 8.59978 16.7223C8.69655 16.7496 8.79063 16.7853 8.88307 16.8228C9.02471 16.8707 9.16878 16.9112 9.31637 16.9393C9.46936 16.962 9.61722 17.0004 9.75535 17.0713C9.84293 17.1351 9.88996 17.2216 9.8978 17.3294C9.87022 17.3732 9.84266 17.4173 9.81509 17.4611C7.71102 17.4495 5.60668 17.4373 3.50261 17.4267C2.98714 17.424 2.47167 17.433 1.95647 17.4248C1.08014 17.4111 0.985525 17.3521 0.831721 16.5409C0.76063 16.1665 0.782262 15.7745 0.761719 15.3906C2.34409 15.6688 3.96512 15.8356 5.25151 16.9558C5.38504 17.0218 5.52101 17.0861 5.67508 17.0791C5.67076 17.0331 5.6694 16.9866 5.66805 16.9404Z" fill="#F78EB4"/>
<path d="M25.908 10.9699C27.1909 10.9705 28.4738 10.9715 29.7566 10.9715C30.055 10.9715 30.3624 10.9959 30.5751 10.7177C31.5325 11.2051 32.4067 11.8171 33.2355 12.4978C32.1659 12.2851 31.0587 12.3459 29.9988 12.0456C29.6399 11.9436 29.5379 12.0388 29.2812 12.5265C29.0587 12.524 28.8562 12.563 28.7397 12.7835C28.3343 12.763 28.3226 12.5603 28.5019 12.2691C28.3194 11.8685 28.0015 11.7085 27.5763 11.7736C27.4117 11.7987 27.2528 11.8663 27.0938 11.9217C26.3335 12.1867 25.788 11.8685 25.3339 11.2843C25.1384 11.0329 25.2076 10.9004 25.648 10.7109C25.7228 10.8091 25.8277 10.8772 25.908 10.9699Z" fill="#F88FB5"/>
<path d="M48.484 21.3504C47.3596 21.3506 46.2351 21.3506 45.1106 21.3509C45.0109 21.4428 44.9033 21.4536 44.7871 21.3839C43.8737 21.0722 43.0233 20.6346 42.2227 20.0977C42.2719 19.4116 42.8395 19.4729 43.2698 19.4246C44.3419 19.304 45.4012 19.3954 46.42 19.7879C47.1633 20.0271 47.8637 20.3518 48.4851 20.8327C48.5814 20.9116 48.643 21.0314 48.7703 21.0736L48.7816 21.0595C48.8281 21.3052 48.7322 21.4055 48.484 21.3504Z" fill="#EE85AA"/>
<path d="M45.6281 56.9064C45.8168 56.0757 45.8168 56.0757 45.4648 55.3798C45.9187 55.4047 46.518 55.5647 46.9499 55.7897C47.0997 55.8678 47.2272 56.0178 47.3824 56.0497C47.6257 56.0995 47.889 56.1114 48.1341 56.0751C48.4566 56.0276 48.4263 55.7123 48.5112 55.4804C48.635 55.1414 48.8007 55.1336 49.0296 55.4466C49.1526 55.6148 49.2543 55.7986 49.4051 56.0381C49.7665 55.6929 50.0133 55.2204 50.5704 55.3458C50.925 55.5045 51.1897 55.7545 51.3465 56.1132C51.0834 56.3214 50.8277 56.5406 50.5534 56.7323C50.4598 56.7977 50.285 56.8561 50.2041 56.8126C49.5595 56.4652 48.9748 56.9683 48.346 56.9213C47.7206 56.8745 47.0783 56.8342 46.4677 57.1016C46.1617 57.2351 45.8984 57.0156 45.6281 56.9064Z" fill="#ED83A8"/>
<path d="M5.66332 17.1819C5.40626 17.1827 5.1492 17.1871 4.89241 17.183C4.71482 17.1803 4.51695 17.1344 4.4564 16.9689C4.21988 16.3212 3.6225 16.3017 3.10135 16.1779C2.56479 16.0503 2.01635 15.9587 1.4679 15.9003C1.11163 15.8622 1.00567 15.5448 0.761048 15.3899C0.748343 15.0412 0.735631 14.6925 0.722656 14.3438C1.1492 14.3483 1.57493 14.3105 1.9412 14.6265C2.45937 15.0734 3.08622 15.181 3.75145 15.1242C3.83659 15.1169 3.92308 15.1223 4.00877 15.1234C5.27353 15.1399 5.27706 15.1396 5.40762 16.3807C5.43113 16.6037 5.48087 16.7994 5.66738 16.9397V16.9394C5.71793 16.9941 5.73414 17.0484 5.7163 17.1019C5.69819 17.1552 5.68062 17.1819 5.66332 17.1819Z" fill="#EE84A9"/>
<path d="M35.4883 16.4359C35.7867 16.4545 36.1108 16.4042 36.3787 16.5045C37.2182 16.8189 38.077 16.6424 38.9263 16.6737C39.2561 16.6859 39.4883 16.4975 39.6407 16.2109C40.5319 16.7048 41.4234 17.1987 42.3149 17.6926C41.3599 18.372 40.1211 17.9554 39.1355 18.516C37.8424 17.9581 36.6452 17.2322 35.4883 16.4359Z" fill="#F68EB4"/>
<path d="M22.7659 2.94029C22.5518 2.96516 22.4031 3.04733 22.2896 3.26089C21.8752 4.04052 21.8641 4.03457 20.9781 3.7072C20.8434 3.54393 20.6007 3.59745 20.4591 3.44796C20.2536 3.15006 19.9131 3.09761 19.6665 3.24224C18.5645 3.88859 17.8371 3.26387 17.1157 2.56128C17.0854 2.53182 17.061 2.49641 17.034 2.4637C16.8262 2.21121 16.8948 2.08442 17.3449 1.89114C17.4062 1.88005 17.4679 1.86897 17.5289 1.85654C17.6522 1.83275 17.7765 1.82166 17.902 1.82031C19.1943 1.85627 20.4537 2.29015 21.762 2.14336C22.1442 2.34881 22.4939 2.59562 22.7659 2.94029Z" fill="#F88EB5"/>
<path d="M24.3502 15.9018C24.3505 15.8156 24.3507 15.7294 24.3507 15.6429C24.7321 15.1966 25.1433 15.2347 25.5739 15.565C25.6712 15.6223 25.7674 15.6818 25.8669 15.7345C26.0331 15.7929 26.2042 15.8221 26.3807 15.8332C27.2741 15.9367 28.1988 15.8959 28.997 16.4163C28.3486 17.1932 27.5214 17.4679 26.5143 17.4403C25.0213 17.3997 23.5257 17.4522 22.0315 17.4652L21.9861 17.4454C21.9201 17.383 21.902 17.3257 21.932 17.2735C21.9604 17.224 21.9872 17.1994 22.0128 17.1994C22.8867 17.1959 23.7604 17.1921 24.6913 17.1883C24.5886 16.6828 24.2529 16.3433 24.3502 15.9018Z" fill="#F78FB5"/>
<path d="M10.0796 4.74581C9.87956 4.46575 9.5779 4.46413 9.28976 4.49198C8.64859 4.55415 8.14852 4.39466 7.86307 3.75695C7.80361 3.62422 7.61412 3.54988 7.48438 3.44877C7.75252 3.13357 8.10229 2.97435 8.5037 2.91406C9.36922 3.35605 10.321 3.37768 11.2571 3.47392C11.5622 3.56015 11.8714 3.62908 12.1845 3.68288C12.3764 3.72856 12.5496 3.80642 12.6732 3.96862C12.7597 4.06188 12.8378 4.16542 12.9346 4.24625C13.0919 4.3779 13.1592 4.56848 12.97 4.65201C12.5037 4.858 12.0155 5.01992 11.5249 5.16131C11.3814 5.20267 11.1932 5.13698 11.0386 5.08318C10.7191 4.97153 10.4396 4.74581 10.0796 4.74581Z" fill="#F68CB2"/>
<path d="M48.2069 38.9861C47.9412 39.643 47.6004 40.2574 47.1725 40.8227C47.0862 40.9092 46.9968 40.993 46.9384 41.1028L46.9516 41.1003C46.2413 41.4636 45.5258 42.2089 44.8359 41.0714V41.0757C45.016 40.95 44.9511 40.6964 45.106 40.5578C45.3144 40.0977 45.5044 39.6268 45.8682 39.258C46.8838 38.1848 47.4133 38.1232 48.2069 38.9861Z" fill="#EE85AA"/>
<path d="M11.3713 17.4831C11.669 17.8334 12.0839 17.6799 12.4504 17.7356C12.9302 17.8086 13.0992 17.9789 13.1781 18.4731C13.1913 18.5569 13.1948 18.6439 13.1889 18.7285C13.1529 19.2351 13.3527 19.5279 13.8879 19.5857C14.0585 19.6041 14.1807 19.7685 14.0825 19.9685C13.979 20.1794 13.7884 20.3202 13.5695 20.2015C13.2732 20.0407 13.011 19.8163 12.735 19.6182C12.1166 19.1737 11.4897 18.7607 10.6964 18.6823C10.3709 18.6501 10.3669 18.8553 10.3177 19.0567C9.92683 18.5969 9.90819 18.0186 9.8125 17.465L9.84926 17.4463C10.3661 17.0619 10.8745 17.0241 11.3713 17.4831Z" fill="#F7E25C"/>
<path d="M12.6734 3.96706C12.5007 3.96679 12.3279 3.96652 12.1555 3.96598C11.9495 3.71727 11.5873 3.94137 11.3762 3.70808C10.9067 3.70781 10.435 3.67889 9.96815 3.7143C9.29212 3.76566 8.8107 3.51128 8.50391 2.91278L8.50633 2.92008C8.59391 2.84925 8.68393 2.78167 8.77583 2.71706C8.85152 2.67543 8.93261 2.65623 9.01911 2.65947C9.24428 2.44402 9.60027 2.65407 9.81814 2.41429C9.88544 2.38293 9.956 2.37049 10.0298 2.37644C10.5404 2.81573 11.1229 3.00414 11.8019 2.93764C12.0498 2.91331 12.3252 2.94062 12.5563 3.02793C12.9802 3.18824 13.3781 3.2123 13.8022 3.0447C13.8871 3.01118 14.0695 3.07713 14.1271 3.15553C14.2303 3.29664 14.2025 3.47614 14.0995 3.63023C13.973 3.81973 13.7949 3.93164 13.5703 3.94462C13.2718 3.96192 12.9723 3.9603 12.6734 3.96706Z" fill="#EB81A5"/>
<path d="M39.1367 18.5109C39.1675 18.296 39.2256 18.086 39.4557 18.0119C39.8933 17.8711 40.3163 17.688 40.8002 17.7116C41.3038 17.7364 41.8103 17.6983 42.3158 17.6875C42.8815 17.8329 43.3827 18.1038 43.8368 18.4663C43.3681 19.5503 42.3523 19.2565 41.5203 19.3327C41.0697 19.3741 40.5888 19.2081 40.1455 19.0335C39.7479 18.9778 39.4157 18.7961 39.1367 18.5109Z" fill="#EC84A8"/>
<path d="M40.1445 19.0359C41.2047 19.0491 42.2589 19.0091 43.2974 18.7602C43.512 18.7088 43.7037 18.655 43.8356 18.4688C44.7616 18.7829 45.6264 19.217 46.4189 19.792C45.3233 19.7939 44.2278 19.7953 43.1322 19.798C42.796 19.7988 42.4484 19.7688 42.2218 20.1015C41.4861 19.8315 40.7679 19.526 40.1445 19.0359Z" fill="#F68FB4"/>
<path d="M1.47401 10.1484C1.60565 10.3347 1.78622 10.4599 2.0122 10.445C2.81447 10.3931 3.51051 10.7586 4.24223 10.9854C4.49091 11.0624 4.59038 11.217 4.49226 11.4663C4.17979 12.2602 3.59079 12.5438 2.86961 12.1143C2.46334 11.8723 1.97841 11.805 1.62377 11.4779C1.42752 11.2968 1.22722 11.4079 1.03125 11.4893C1.10018 11.0162 1.21749 10.5593 1.47401 10.1484Z" fill="#F48BB1"/>
<path d="M28.9962 16.4172C28.4169 16.4078 27.8474 16.4318 27.2695 16.2464C26.8494 16.1118 26.3637 16.1818 25.9071 16.1607C25.8279 16.0671 25.7331 15.989 25.6466 15.9028C25.1519 15.2418 25.2919 14.7285 26.1004 14.5974C27.1697 14.4238 28.2699 14.3403 29.0389 15.3827C29.0867 15.73 29.1043 16.0763 28.9962 16.4172Z" fill="#EB81A6"/>
<path d="M21.7583 2.14609C21.6234 2.3291 21.4366 2.40588 21.215 2.40858C20.8365 2.41318 20.4632 2.41912 20.0994 2.56672C19.9591 2.62376 19.6993 2.64566 19.6247 2.56402C19.0414 1.9247 18.2856 2.2253 17.6012 2.15069C17.5196 2.05958 17.4342 1.97254 17.3409 1.89333V1.89361C17.2928 1.77655 17.232 1.66301 17.1995 1.54164C17.1495 1.35538 17.2166 1.17967 17.409 1.15994C17.8275 1.11695 18.2502 1.11776 18.6714 1.10073C18.7516 1.08586 18.8287 1.09479 18.9033 1.12722C19.129 1.3516 19.4769 1.15587 19.7083 1.36078C20.4608 1.44269 21.1774 1.61679 21.7583 2.14609Z" fill="#EF85AA"/>
<path d="M28.4998 12.2756C28.5047 12.4816 28.5423 12.6724 28.7377 12.79C28.7445 13.0506 28.7515 13.3112 28.7582 13.5718C27.9406 13.571 27.1229 13.5648 26.3052 13.5721C25.936 13.5753 25.6381 13.4493 25.394 13.1733C25.274 13.0379 25.1756 12.8844 25.2232 12.7127C25.2834 12.4948 25.4608 12.2915 25.6816 12.3283C26.3282 12.4364 26.9566 12.2296 27.5962 12.2712C27.8962 12.2907 28.1984 12.2753 28.4998 12.2756Z" fill="#EB81A6"/>
<path d="M18.4118 21.3621C17.7703 21.4443 17.2476 21.1932 16.7829 20.7804C16.5134 20.5409 16.5626 20.091 16.897 19.9248C17.1235 19.8121 17.3768 19.7553 17.6133 19.6612C17.8355 19.5725 18.0528 19.5912 18.1982 19.7674C18.7861 20.48 19.4389 20.3827 20.132 19.9578C20.3315 19.8356 20.5256 19.8077 20.6975 20.0083L20.6672 20.0413C20.6256 20.1308 20.5607 20.1975 20.472 20.2411C20.4266 20.3011 20.3664 20.3341 20.2915 20.34C20.1277 20.3643 20.0296 20.473 19.9498 20.6055C19.7479 20.8601 19.4741 21.001 19.1711 21.0953C19.0278 21.2415 18.7972 21.1834 18.6491 21.3186C18.575 21.3608 18.4961 21.3754 18.4118 21.3621Z" fill="#EED655"/>
<path d="M0.720647 13.0469C1.06799 13.2329 1.43454 13.3053 1.83243 13.315C2.73444 13.3375 3.60374 13.5654 4.46251 13.8252C4.61604 13.8716 4.74552 13.9976 4.88608 14.0868C4.52495 14.6483 4.08759 14.8197 3.37371 14.6962C2.71362 14.5818 2.15652 14.3591 1.62293 14.0028C1.34127 13.8146 1.09907 13.5489 0.71875 13.5664C0.719291 13.3932 0.719836 13.2202 0.720647 13.0469Z" fill="#F58CB2"/>
<path d="M24.3487 13.826C24.355 13.6994 24.3387 13.5667 24.3723 13.448C24.4531 13.1612 24.671 13.0325 24.8056 13.1985C25.4048 13.9376 26.2244 13.8276 27.021 13.8262C27.6124 13.8251 28.2038 13.8222 28.7953 13.82C29.1002 14.2144 29.008 14.6805 29.0318 15.1257C28.0117 14.611 26.888 14.697 25.8068 14.6445C25.1205 14.611 24.6526 14.4269 24.3477 13.827L24.3487 13.826Z" fill="#F88FB5"/>
<path d="M51.3912 33.0447C51.2422 33.6249 50.9679 34.1415 50.6008 34.6113C49.3095 35.2871 49.1114 35.2841 48.4727 34.581C48.6165 34.0898 48.787 33.6132 49.1841 33.2586C49.891 32.8893 50.5921 32.4611 51.3912 33.0447Z" fill="#ED86AA"/>
<path d="M47.1791 36.9116C47.2997 36.6243 47.4156 36.3342 47.6648 36.1263C48.3733 35.8192 49.0853 35.1072 49.7816 36.1458C49.6162 36.2804 49.6776 36.5267 49.5246 36.6672C49.4118 36.9611 49.2943 37.252 49.0467 37.465C48.3287 37.7683 47.6027 38.4976 46.9102 37.4252C46.9356 37.3423 46.961 37.2593 46.9866 37.176C47.041 37.0806 47.1048 36.9922 47.1791 36.9116Z" fill="#EC83A7"/>
<path d="M44.8389 41.0703C45.1655 41.4623 45.5931 41.3736 45.9856 41.2604C46.3073 41.1674 46.6149 41.0584 46.9544 41.0993C46.8016 41.671 46.5527 42.1908 46.1356 42.6201C45.3544 42.7412 44.613 43.2108 43.7812 42.888C44.0283 42.2206 44.4032 41.6277 44.8389 41.0703Z" fill="#F690B5"/>
<path d="M51.3906 33.0458C51.0179 33.0412 50.6424 33.0055 50.2872 33.1688C49.9315 33.3323 49.5572 33.2942 49.1836 33.2599C49.3779 32.7116 49.6182 32.1872 49.9807 31.7266C50.6832 31.7298 51.3863 31.7331 52.0888 31.7363C51.9013 32.1967 51.7269 32.6643 51.3906 33.0458Z" fill="#F68EB4"/>
<path d="M49.7806 36.1463C49.5348 35.8184 49.1918 35.8381 48.8815 35.9671C48.4812 36.1336 48.0809 36.159 47.6641 36.1271C47.8244 35.554 48.0914 35.0363 48.4723 34.5781C48.715 34.912 49.0602 34.8987 49.374 34.7687C49.7773 34.6016 50.1803 34.576 50.6004 34.6081C50.4288 35.175 50.1936 35.7081 49.7806 36.1463Z" fill="#F690B6"/>
<path d="M46.9115 37.4219C47.1537 37.7563 47.4997 37.7503 47.8162 37.6203C48.2214 37.4538 48.6255 37.4243 49.0477 37.4616C48.8666 38.0215 48.6355 38.554 48.21 38.9787C47.5735 38.5832 46.9374 38.6189 46.3038 38.9846C46.1573 39.0693 46.0154 39.162 45.8711 39.2512C46.0976 38.5729 46.4863 37.9871 46.9115 37.4219Z" fill="#F791B6"/>
<path d="M24.3477 13.8281C24.778 14.0958 25.1756 14.3493 25.7422 14.3791C26.4988 14.4188 27.2435 14.6626 28.0192 14.618C28.4466 14.5934 28.6774 14.9895 29.0318 15.1271C29.0567 15.2119 29.0588 15.2976 29.0383 15.3836C28.9545 15.3717 28.8485 15.389 28.7901 15.3441C27.9763 14.718 27.0299 14.8532 26.1087 14.8813C25.6324 14.8959 25.5454 15.063 25.6165 15.6512C25.6267 15.7356 25.6362 15.8196 25.6459 15.904C25.2634 15.5677 24.8369 15.4533 24.349 15.645C24.3485 15.0392 24.3479 14.4337 24.3477 13.8281Z" fill="#F187AD"/>
<path d="M31.6406 14.0781C32.375 14.0822 33.1095 14.0779 33.8433 14.0946C34.098 14.1006 34.3599 14.13 34.6018 14.2038C34.7575 14.2514 34.8881 14.3955 34.8902 14.5953C34.8924 14.7877 34.7813 14.9102 34.634 15.011C34.3513 15.2049 33.922 15.0208 33.7012 15.3733C32.9603 15.0275 32.2731 14.5961 31.6406 14.0781Z" fill="#F892B7"/>
<path d="M43.7804 42.8899C44.4281 42.5707 45.1609 42.6188 45.8385 42.4239C45.9123 42.4028 46.035 42.552 46.1348 42.6221L46.1318 42.6337C46.0375 42.7277 45.9593 42.8326 45.9134 42.9591C45.9007 43.1532 45.8372 43.3203 45.662 43.4268C44.97 44.164 44.1437 44.247 43.2344 43.925C43.2611 43.841 43.2876 43.7569 43.3144 43.6728C43.4093 43.5839 43.485 43.482 43.5298 43.359C43.5452 43.1662 43.6055 42.9975 43.7804 42.8899Z" fill="#EE86AA"/>
<path d="M2.03067 9.1525C1.94093 9.15115 1.85146 9.14979 1.76172 9.14844C1.9631 8.46126 2.35261 7.88465 2.81618 7.35156C2.84376 7.57431 2.9043 7.77977 3.15758 7.83681C3.46681 7.90655 3.70414 8.0774 3.89741 8.3207C4.03824 8.49803 4.13067 8.69618 4.02255 8.91326C3.9047 9.15006 3.67549 9.15357 3.46871 9.07356C3.18353 8.96353 2.90024 8.88595 2.59155 8.89649C2.36449 8.90433 2.17096 8.96462 2.03067 9.1525Z" fill="#F78FB5"/>
<path d="M48.4844 21.3534C48.5833 21.2566 48.6822 21.1595 48.7814 21.0625C49.6434 21.3628 50.4611 21.7435 51.1504 22.3593C50.8155 22.4001 50.4744 22.4155 50.147 22.4909C49.9011 22.5474 49.657 22.7026 49.4164 22.5582C49.0953 22.3658 48.7293 22.2041 48.5474 21.8524C48.4749 21.7126 48.5022 21.5212 48.4844 21.3534Z" fill="#F68EB4"/>
<path d="M45.3242 21.6366C45.9684 21.6307 46.613 21.6058 47.2566 21.6234C48.0735 21.6458 48.1903 21.8237 48.0011 22.649C47.9819 22.7323 47.9759 22.8188 47.964 22.9034C47.0182 22.6185 46.1438 22.1848 45.3242 21.6366Z" fill="#F68EB4"/>
<path d="M43.2351 43.9204C44.0227 43.6503 44.891 43.7709 45.6627 43.4219C45.5481 43.9439 45.2005 44.3261 44.881 44.7249C44.1771 44.2183 43.4659 44.4278 42.7539 44.7035C42.7917 44.3675 42.9493 44.1045 43.2351 43.9204Z" fill="#F691B6"/>
<path d="M39.1168 51.4141C39.1658 51.7325 39.3052 51.942 39.6672 51.9726C40.137 52.012 40.5749 51.9277 40.9965 51.7295C40.8965 52.1183 40.7527 52.4832 40.4365 52.7535C40.2262 52.4581 39.925 52.4621 39.6307 52.5478C39.182 52.6784 38.7438 52.8444 38.3008 52.9952C38.5046 52.4329 38.746 51.8898 39.1168 51.4141Z" fill="#F792B7"/>
<path d="M12.9316 1.375C13.0554 1.62689 13.3682 1.61662 13.5771 1.75689C13.3517 2.1831 13.0671 2.50364 12.6416 2.34472C11.9637 2.09148 11.2779 2.18635 10.5938 2.15175C11.316 1.72148 12.088 1.44095 12.9316 1.375Z" fill="#F893B8"/>
<path d="M9.81817 2.41343C9.62087 2.71964 9.31223 2.66342 9.01953 2.65856C9.2298 2.39423 9.52114 2.39451 9.81817 2.41343Z" fill="#F187AD"/>
<path d="M19.7111 1.35833C19.4187 1.36374 19.1095 1.42617 18.9062 1.12482C19.2038 1.10184 19.49 1.11779 19.7111 1.35833Z" fill="#F187AD"/>
<path d="M45.1059 40.5547C45.1068 40.7747 45.057 40.9682 44.8359 41.0725C44.8419 40.856 44.9127 40.6736 45.1059 40.5547Z" fill="#F690B5"/>
<path d="M49.5236 36.6701C49.5199 36.4522 49.5677 36.2595 49.7807 36.1484C49.7815 36.3649 49.7147 36.5482 49.5236 36.6701Z" fill="#F690B6"/>
<path d="M44.6024 45.2431C44.5945 45.0169 44.641 44.8187 44.8756 44.7188C44.8686 44.9374 44.8045 45.1263 44.6024 45.2431Z" fill="#F691B6"/>
<path d="M18.6484 21.3252C18.7709 21.1304 18.9622 21.0971 19.1701 21.102C19.0441 21.2879 18.8644 21.349 18.6484 21.3252Z" fill="#F5DF5B"/>
<path d="M44.0664 46.2535C44.074 46.0405 44.1261 45.8516 44.3397 45.75C44.331 45.9627 44.2607 46.1419 44.0664 46.2535Z" fill="#F691B6"/>
<path d="M44.336 45.7557C44.3333 45.5336 44.3809 45.3376 44.6071 45.2344C44.5985 45.4506 44.5328 45.6374 44.336 45.7557Z" fill="#F691B6"/>
<path d="M50.2732 31.1406C50.2629 31.2912 50.1921 31.4028 50.0586 31.4736C50.1302 31.3625 50.2018 31.2517 50.2732 31.1406Z" fill="#F68EB4"/>
<path d="M44.7852 21.3845C44.893 21.3735 45.0008 21.3626 45.1087 21.3516C45.1095 21.4289 45.1103 21.5062 45.1108 21.5832C45.0025 21.517 44.8938 21.4508 44.7852 21.3845Z" fill="#F68EB4"/>
<path d="M48.7695 21.0767C48.6744 20.9965 48.5795 20.9162 48.4844 20.8359C48.6249 20.8624 48.7265 20.9349 48.7695 21.0767Z" fill="#F68EB4"/>
<path d="M19.9492 20.6092C20.0065 20.4486 20.1214 20.3616 20.2903 20.3438C20.1768 20.4321 20.063 20.5208 19.9492 20.6092Z" fill="#F5DF5B"/>
<path d="M20.4727 20.2466C20.5378 20.1801 20.6029 20.1134 20.6681 20.0469C20.6524 20.162 20.591 20.232 20.4727 20.2466Z" fill="#F5DF5B"/>
<path d="M40.4588 53.0119C40.268 52.9432 40.2572 52.8589 40.4366 52.7578C40.4474 52.8421 40.455 52.9267 40.4588 53.0119Z" fill="#F792B7"/>
<path d="M43.5282 43.3594C43.4563 43.464 43.3844 43.5688 43.3125 43.6734C43.3844 43.5686 43.4563 43.464 43.5282 43.3594Z" fill="#F691B6"/>
<path d="M47.1773 36.9141C47.113 37.0022 47.0484 37.0903 46.9844 37.1784C47.049 37.0903 47.1133 37.0022 47.1773 36.9141Z" fill="#F791B6"/>
<path d="M8.77337 2.71875C8.68364 2.78632 8.59391 2.85416 8.50391 2.92172C8.54796 2.79389 8.63472 2.72172 8.77337 2.71875Z" fill="#F68CB2"/>
<path d="M46.9375 41.1003C47.0156 41.0068 47.0937 40.9136 47.1715 40.8203C47.1502 40.9609 47.0761 41.0576 46.9375 41.1003Z" fill="#F690B5"/>
<path d="M9.29723 11.7518C9.28047 11.7129 9.26099 11.675 9.24721 11.6353C8.89635 10.6205 8.96204 10.5269 10.0762 10.4534C10.1346 10.445 10.193 10.4366 10.2514 10.4272C10.7853 10.3669 11.2696 10.5161 11.7508 10.7378C12.2409 10.9635 12.7474 11.0084 13.2237 10.6843C13.2918 10.6226 13.367 10.5645 13.438 10.5088C13.4962 10.4602 13.5575 10.408 13.6078 10.3531C13.5764 10.2801 13.5372 10.2171 13.477 10.1641C13.4099 10.109 13.3459 10.0555 13.2753 10.0055C13.235 9.98114 13.1994 9.95572 13.1591 9.93112C13.0731 9.88057 12.9974 9.82137 12.9242 9.7546C12.8593 9.66648 12.8366 9.5697 12.848 9.46183C12.8996 9.36073 12.9758 9.28693 13.0742 9.23313C13.4535 9.12122 13.8286 8.95659 14.2276 9.1561C14.3244 9.46752 14.7236 9.65079 14.5812 10.0755C14.5355 10.2115 14.6033 10.4169 14.6804 10.5572C15.0088 11.156 15.121 11.7542 14.8288 12.4068C14.6801 12.739 14.7709 13.0759 14.9164 13.4043C15.0291 13.6592 15.0042 13.9093 14.7466 14.0866C14.6755 13.9815 14.6279 13.8352 14.529 13.7785C14.0644 13.5122 13.9454 13.1188 13.9492 12.6044C13.953 12.1054 13.8724 12.0873 13.307 12.2054C13.1823 12.2314 13.0558 12.2487 12.9301 12.27C11.8338 12.5679 10.7439 12.5625 9.66024 12.2022C9.53536 12.144 9.43561 12.0573 9.35831 11.9435C9.33749 11.8802 9.31723 11.8161 9.29723 11.7518Z" fill="#EE84A9"/>
<path d="M7.48148 13.8268C7.33903 13.6135 7.15765 13.4157 7.06277 13.1829C6.91167 12.8117 6.88518 12.4346 7.29091 12.1719C7.6342 12.3722 7.67232 12.7523 7.8783 13.0172C8.19266 13.4213 8.52594 13.6287 9.09359 13.437C9.74476 13.217 10.433 13.1326 11.0222 13.6903C11.129 13.7914 11.3401 13.7911 11.5063 13.8185C11.6323 13.8393 11.7637 13.8357 11.8923 13.832C12.4232 13.8157 12.8168 14.3883 13.3477 14.2302C13.8164 14.0907 14.2773 14.0966 14.7473 14.0861C14.8822 14.3778 15.0955 14.5667 15.4261 14.5962C15.6828 14.6189 15.9445 14.6335 16.1159 14.863C16.1626 14.9257 16.1789 15.0152 16.1926 15.0952C16.197 15.1195 16.1391 15.1831 16.1218 15.1787C15.6437 15.0625 15.2185 15.3166 14.7654 15.3674C14.4392 15.4039 14.2181 15.1831 13.9621 15.0303C13.612 14.8214 13.2422 14.743 12.9309 15.1241C12.8817 15.1717 12.8325 15.219 12.7835 15.2674C12.4665 15.4364 12.1259 15.4388 11.7807 15.4101C10.2365 15.1855 8.72057 14.8811 7.48148 13.8268Z" fill="#EE84A9"/>
<path d="M18.6412 9.16064C18.1846 9.20876 17.9657 8.78164 17.6032 8.64134C17.4399 8.21287 17.0372 8.16286 16.6739 8.03094C16.2868 7.89037 15.9935 7.64896 16.0481 7.16994C16.0997 6.71363 15.9243 6.333 15.6662 5.97103C15.5948 5.87101 15.5889 5.70422 15.7337 5.63907C15.8413 5.59068 15.9951 5.55527 16.0952 5.59582C16.4744 5.74963 16.7536 6.02347 16.8063 6.44437C16.899 7.18345 17.4567 7.45595 18.046 7.5657C18.5487 7.65923 19.0585 7.72195 19.5643 7.82684C19.934 7.90361 20.386 7.94281 20.712 7.79764C21.4169 7.48406 21.8646 7.7552 22.2808 8.2618C22.416 8.42643 22.5612 8.58835 22.6636 8.77272C22.7263 8.88572 22.6785 9.04873 22.5341 9.08117C22.3284 9.12713 22.0819 9.20254 21.9054 9.1328C20.8936 8.73217 19.8994 8.77543 18.8985 9.15091C18.8223 9.1793 18.7274 9.15848 18.6412 9.16064Z" fill="#F68CB2"/>
<path d="M16.8249 9.93423C16.9112 9.93477 16.9971 9.93531 17.0831 9.93558C17.1588 10.0332 17.2634 10.101 17.3431 10.1945C17.6523 10.347 17.964 10.4746 18.3235 10.457C18.7528 10.4362 19.1669 10.4922 19.5853 10.6317C20.1292 10.8131 20.6717 10.6806 21.2188 10.5165C21.7913 10.3449 22.3308 11.0245 22.1527 11.6362C22.0921 11.8444 21.7267 12.0782 21.5272 11.9582C20.7492 11.4905 19.9978 11.6113 19.2228 11.9487C18.9647 12.0612 18.7365 11.9041 18.5119 11.7592C18.0013 11.4297 17.4434 11.2269 16.8244 11.2321C16.6225 10.7587 16.2148 10.7039 15.7715 10.703C15.451 10.7025 15.1893 10.5725 15.0812 10.2529C15.0452 10.147 15.0652 10.0034 15.1066 9.89476C15.1596 9.75527 15.3407 9.71796 15.4182 9.80311C15.8564 10.2832 16.3457 10.021 16.8249 9.93423Z" fill="#F68CB3"/>
<path d="M17.3443 12.7908C17.6163 12.9089 17.8755 13.0603 18.1896 13.05C18.7018 13.0335 19.1932 13.1165 19.6952 13.2495C20.2245 13.3895 20.7821 13.3433 21.3276 13.1549C21.9096 12.954 22.5018 12.9911 23.0527 13.3101C23.0286 13.5323 22.9659 13.7375 22.7421 13.8348C22.4288 13.9713 22.0679 14.0391 21.8036 14.2376C21.4708 14.4874 21.1957 14.4752 20.8578 14.3C20.6718 14.2038 20.4594 14.1411 20.2518 14.1094C20.0288 14.0754 19.8536 14.1532 19.7536 14.4006C19.579 14.8318 19.1508 15.0499 18.8462 14.7853C18.1458 14.177 17.21 13.8391 16.717 13.0014C16.508 12.6461 16.8191 12.5788 17.0843 12.5315L17.0846 12.5312C17.1603 12.6291 17.2643 12.698 17.3443 12.7908Z" fill="#F68CB3"/>
<path d="M14.2306 9.15507C13.83 9.4008 13.3883 9.44162 12.9332 9.41459C12.1871 9.4846 11.4622 9.70519 10.7099 9.72952C10.2306 9.72222 9.77328 9.60463 9.32565 9.44351C9.12428 9.37052 8.93262 9.27347 8.74394 9.17237C8.65366 9.12749 8.56851 9.07208 8.48715 9.01152C8.41038 8.94664 8.34714 8.8696 8.29524 8.78283C8.28362 8.73471 8.27253 8.68578 8.26172 8.63685C8.60852 8.01077 9.2724 7.87993 9.85734 7.64258C10.0952 7.54607 10.389 7.58338 10.548 7.83803C10.7658 8.18703 11.1137 8.34408 11.4416 8.54899C11.943 8.86203 12.4555 8.72957 12.9218 8.5598C13.301 8.42167 13.4197 8.0013 13.4522 7.59851C13.5362 7.60014 13.6205 7.6023 13.7046 7.60365C14.1868 7.61041 14.5293 7.87777 14.6493 8.30137C14.7439 8.63496 14.5093 8.93637 14.2306 9.15507Z" fill="#ED83A8"/>
<path d="M13.4513 7.59947C13.4083 7.60028 13.3613 7.59027 13.3226 7.60379C12.4222 7.91332 11.5591 7.73788 10.7082 7.40591C10.1011 7.1691 9.47857 7.0507 8.83605 7.21993C8.40166 7.33455 8.3622 7.18289 8.35301 6.7701C8.34247 6.29675 7.93134 5.95289 7.67211 5.56578C7.5748 5.42034 7.4775 5.27139 7.52345 5.09027C7.53886 5.02972 7.62318 4.947 7.67805 4.94538C7.75239 4.94322 7.84295 4.99404 7.90134 5.04864C8.15273 5.28437 8.43276 5.50225 8.6336 5.77691C9.38397 6.80254 10.4273 6.6152 11.4523 6.48382C11.6675 6.45624 11.7981 6.24268 11.8962 6.04453C12.0205 5.89288 12.1876 5.84017 12.3757 5.83395C12.4976 5.83989 12.6157 5.86558 12.7306 5.90667C12.968 6.06589 13.3194 6.14618 13.195 6.56194C13.3688 6.8858 13.4945 7.22182 13.4513 7.59947Z" fill="#F88EB5"/>
<path d="M7.48438 13.8281C7.73035 13.9011 7.99012 13.9446 8.21988 14.052C9.39112 14.5988 10.6224 14.9313 11.895 15.1257C12.2412 15.3317 12.5875 15.333 12.9335 15.1252C13.104 15.1441 13.2889 15.1284 13.4411 15.1914C13.6184 15.2649 13.6822 15.4447 13.5436 15.608C13.2506 15.9532 12.8564 16.1178 12.4126 16.153C12.1553 16.1732 11.8955 16.1605 11.6366 16.1624C11.5747 16.1046 11.516 16.0008 11.45 15.9956C10.7113 15.9397 10.1228 15.3828 9.36976 15.3793C9.24217 15.3787 9.11215 15.3582 8.98754 15.3293C8.17662 15.1414 7.5552 14.7597 7.48438 13.8281Z" fill="#F78EB4"/>
<path d="M19.1612 4.74543C19.2769 4.80383 19.4061 4.84464 19.5061 4.92331C20.0845 5.378 20.6995 5.52696 21.3898 5.19175C21.6956 5.04334 21.9756 5.28528 22.2746 5.26554C22.2335 5.46991 22.2621 5.75565 22.1375 5.86243C21.8507 6.10816 21.4512 6.31766 21.0866 6.18845C20.4722 5.97083 19.9242 6.09897 19.3404 6.26414C18.916 6.38416 18.4916 6.30631 18.164 5.95083C17.855 5.61589 17.4747 5.33934 17.1836 4.81842C17.9148 4.68488 18.5424 4.77355 19.1612 4.74543Z" fill="#F68CB3"/>
<path d="M13.1917 6.56499C13.0165 6.39414 12.8414 6.22356 12.6662 6.05272C12.5994 5.68047 12.5 6.04326 12.417 6.04164C12.2424 6.04353 12.0675 6.04568 11.8929 6.04758C11.3925 6.133 10.8944 6.23437 10.3913 6.29925C9.94287 6.3571 9.55335 6.22978 9.25548 5.85619C8.99301 5.52693 9.01734 5.21794 9.35874 4.99681C9.57633 4.8557 9.80934 4.75297 10.0753 4.75C10.2986 5.23524 10.7554 5.38662 11.2125 5.498C11.5961 5.59153 11.9737 5.50098 12.3286 5.3085C12.6686 5.12387 13.0219 4.98113 13.4293 5.01465C13.8966 5.05277 14.1534 5.25741 14.2105 5.70561C14.2321 5.87457 14.2259 6.04812 14.2221 6.21951C14.2116 6.68231 14.1096 6.74422 13.5709 6.63203C13.4452 6.60554 13.3182 6.58715 13.1917 6.56499Z" fill="#EC82A7"/>
<path d="M17.3437 15.6487C17.458 15.7841 17.5972 15.9052 17.7778 15.8896C18.6052 15.8174 19.3899 16.1077 20.1995 16.1588C20.9017 16.2032 21.2967 16.5594 21.4945 17.1969C21.294 17.3994 21.019 17.302 20.786 17.3745C20.3508 17.2893 19.9221 17.3202 19.4988 17.4553C19.0937 17.5105 18.692 17.5494 18.3819 17.1966C18.2527 16.9033 18.0116 16.7379 17.7259 16.6254C17.4499 16.5167 17.1634 16.4291 16.8999 16.2959C16.7547 16.2226 16.6166 16.0799 16.6798 15.8815C16.7404 15.6914 16.9152 15.6652 17.0877 15.6565C17.1728 15.6522 17.258 15.6511 17.3431 15.6484H17.3437V15.6487Z" fill="#F78EB4"/>
<path d="M9.82231 17.2013C9.64824 17.1959 9.47416 17.1902 9.30008 17.1848C9.15574 17.0418 8.92137 17.0924 8.78027 16.9429C8.57403 16.6969 8.21236 16.9172 8.00179 16.6839C7.91556 16.6834 7.82933 16.6831 7.74283 16.6828C7.67363 16.442 7.53822 16.1622 7.98179 16.1695C8.27561 16.1743 8.59161 16.1446 8.85732 16.2414C9.22034 16.3736 9.50227 16.349 9.78853 16.0984C9.96476 15.944 10.1734 15.9643 10.3816 16.0535C10.7862 16.2268 11.2149 16.1452 11.6339 16.1654C11.7993 16.4449 12.1113 16.5166 12.3637 16.6685C12.5727 16.7939 12.6497 16.9721 12.6751 17.1932C11.7247 17.41 10.7738 17.3995 9.82231 17.2013Z" fill="#EB81A5"/>
<path d="M17.3438 15.6429C17.29 15.5772 17.2473 15.495 17.18 15.4488C16.9375 15.2825 16.7991 15.1014 17.0237 14.8213C17.2875 14.4926 17.5081 14.3845 17.7784 14.5861C18.6112 15.2068 19.4832 15.276 20.4355 14.9222C20.7583 14.8021 21.0021 15.0216 21.2127 15.2514C21.4127 15.4699 21.324 15.798 21.0283 15.8343C20.6923 15.8753 20.316 15.9581 20.0163 15.8537C19.1343 15.5464 18.236 15.6823 17.3443 15.6429H17.3438Z" fill="#EA80A5"/>
<path d="M9.82044 17.2008C10.7714 17.1981 11.7223 17.1957 12.6732 17.193C14.5757 17.193 16.4778 17.193 18.3802 17.1927C18.8138 17.193 19.2474 17.1935 19.6812 17.1941C20.0248 17.0184 20.3683 17.019 20.7119 17.1938C20.9722 17.1935 21.2328 17.1935 21.4931 17.193C21.6658 17.196 21.8383 17.1992 22.011 17.2022C22.0118 17.2852 22.0031 17.3673 21.9845 17.4484C21.6507 17.4592 21.3171 17.4703 20.9833 17.4811C19.5982 18.1214 18.2129 18.0157 16.8279 17.4817C16.221 17.4817 15.6139 17.4817 15.0071 17.4817C13.795 17.4817 12.583 17.4814 11.3709 17.4814C10.8633 17.4692 10.3556 17.4571 9.84827 17.4446C9.82854 17.3644 9.81909 17.2833 9.82044 17.2008Z" fill="#F0A58B"/>
<path d="M9.55712 12.0087C9.90095 12.0219 10.2621 11.973 10.5838 12.0641C11.0098 12.1849 11.3909 12.2763 11.8255 12.076C12.2094 11.8992 12.5813 12.089 12.9305 12.2687C13.0087 12.4674 13.1203 12.6599 13.1584 12.8662C13.2465 13.34 13.0292 13.572 12.6219 13.399C11.7793 13.0411 10.8549 13.107 9.99636 12.8313C9.63659 12.7159 9.23842 12.7845 8.85269 12.8775C8.32532 13.0046 8.19451 12.9621 8.0526 12.5337C7.84419 11.9049 7.39764 11.435 7.0749 10.8846C6.98191 10.7262 6.96272 10.5543 7.06355 10.4021C7.1914 10.2091 7.37413 10.2813 7.50901 10.384C7.75445 10.5708 8.00746 10.7043 8.32426 10.7257C8.66484 10.7487 8.69133 10.9676 8.67484 11.2688C8.65268 11.6743 8.98813 11.7189 9.29763 11.7505C9.37251 11.8478 9.47738 11.9157 9.55712 12.0087Z" fill="#F78DB4"/>
<path d="M9.0408 9.15966C9.55979 9.24617 10.0788 9.33294 10.5978 9.41945C10.9976 9.66193 11.4035 9.59164 11.7925 9.41079C12.2545 9.19588 12.6002 9.39079 12.934 9.67815C13.02 9.67869 13.1059 9.67923 13.1922 9.6795C13.2708 9.77384 13.366 9.8517 13.4519 9.93875C13.5395 10.0242 13.6165 10.1201 13.7114 10.1983C13.762 10.2558 13.779 10.3131 13.762 10.3707C13.7452 10.4283 13.7282 10.457 13.7114 10.457V10.4567C13.0608 11.0133 12.3288 11.1944 11.5725 10.7511C11.0876 10.4667 10.5353 10.7492 10.0796 10.4567C9.61439 10.108 8.99783 10.0926 8.53236 9.70518C8.14285 9.38105 7.73711 9.09234 7.48438 8.64062V8.6409C7.7436 8.64117 8.00282 8.64116 8.26231 8.64143C8.3407 8.73578 8.43613 8.81364 8.52181 8.90068L8.52208 8.90096C8.65723 9.06207 8.9024 9.00341 9.0408 9.15966Z" fill="#F78DB4"/>
<path d="M7.48194 8.64228C7.44572 8.62255 7.37654 8.59525 7.37897 8.5839C7.39843 8.49714 7.43869 8.51823 7.48194 8.64255V8.64228Z" fill="#F78DB4"/>
<path d="M20.457 3.45312C20.6708 3.45772 20.8646 3.50258 20.9759 3.71231C20.7622 3.70744 20.5684 3.66285 20.457 3.45312Z" fill="#F187AD"/>
<path d="M17.3418 12.7902C17.2553 12.7039 17.1685 12.6177 17.082 12.5312C17.1685 12.6177 17.255 12.7039 17.3418 12.7902Z" fill="#F187AD"/>
<path d="M16.8281 17.4774C18.2132 17.4771 19.5982 17.4768 20.9835 17.4766C21.0736 17.5685 21.1552 17.6704 21.2552 17.7491C21.4185 17.8775 21.4514 18.0337 21.3452 18.1964C21.0576 18.6365 20.6546 18.8706 20.134 18.6868C19.7172 18.5398 19.2985 18.4468 18.8687 18.5008C17.9488 18.6174 17.2706 18.2927 16.8281 17.4774Z" fill="#EFD856"/>
<path d="M25.9084 10.9696C25.8217 10.8834 25.7349 10.7972 25.6484 10.7109C25.7352 10.7969 25.8217 10.8834 25.9084 10.9696Z" fill="#F48BB1"/>
<path d="M8 16.6797C8.2854 16.6878 8.59189 16.6332 8.77838 16.9386C8.49324 16.93 8.18649 16.9854 8 16.6797Z" fill="#F187AD"/>
<path d="M8.78125 16.9453C8.99044 16.9491 9.18153 16.9915 9.30099 17.1875C9.08531 17.1983 8.89503 17.154 8.78125 16.9453Z" fill="#F187AD"/>
<path d="M5.66406 17.1877C5.66677 17.1069 5.66785 17.0261 5.66812 16.9453C5.77028 16.9802 5.81054 17.0431 5.76729 17.1234C5.75054 17.1545 5.69947 17.1669 5.66406 17.1877Z" fill="#F187AD"/>
<path d="M11.375 3.71094C11.6607 3.71878 11.9669 3.66364 12.1542 3.96878C11.8688 3.96067 11.5626 4.01526 11.375 3.71094Z" fill="#F187AD"/>
<path d="M10.0781 10.4531C10.6701 10.4702 11.255 10.4299 11.8411 10.6439C12.4674 10.8726 13.0969 10.6275 13.71 10.4534C13.5756 10.7177 13.4897 11.0556 13.191 11.1537C12.7409 11.3018 12.2044 11.3693 11.8186 11.1272C11.3229 10.8158 10.7952 10.7485 10.2646 10.6204C10.1933 10.6029 10.1398 10.5107 10.0781 10.4531Z" fill="#F187AD"/>
<path d="M12.9339 9.67522C12.4576 9.58982 12.0038 9.42252 11.4937 9.64062C11.2153 9.75981 10.8326 9.74468 10.5977 9.41658C11.0323 9.43414 11.4434 9.35576 11.8627 9.22117C12.2192 9.10684 12.6336 9.04414 12.9328 9.41658C12.9334 9.50279 12.9336 9.58901 12.9339 9.67522Z" fill="#F187AD"/>
<path d="M13.7109 10.454C13.7109 10.3677 13.7109 10.2815 13.7109 10.1953C13.8893 10.2815 13.8893 10.3677 13.7109 10.454Z" fill="#F187AD"/>
<path d="M13.4511 9.93915C13.3646 9.85267 13.2782 9.76617 13.1914 9.67969C13.2779 9.76617 13.3644 9.85267 13.4511 9.93915Z" fill="#F187AD"/>
<path d="M12.9329 15.125C12.4351 15.4699 12.3934 15.4699 11.8945 15.1255C12.2405 15.1255 12.5867 15.1253 12.9329 15.125Z" fill="#F187AD"/>
<path d="M9.03899 9.15709C8.82521 9.15276 8.63142 9.10817 8.51953 8.89844C8.73358 8.90276 8.92737 8.94736 9.03899 9.15709Z" fill="#F187AD"/>
<path d="M12.418 6.03478C12.4461 5.87181 12.4569 5.6891 12.628 5.60991C12.865 5.50018 13.1058 5.48451 13.3045 5.69856C13.3261 5.72207 13.3258 5.78478 13.3118 5.81964C13.2134 6.06369 12.9885 6.02153 12.7918 6.04126C12.7504 6.04532 12.7088 6.04451 12.6672 6.04586C12.5842 6.04126 12.5012 6.03775 12.418 6.03478Z" fill="#DC7597"/>
<path d="M20.7141 17.1962C20.3706 17.1965 20.0271 17.1965 19.6836 17.1967C20.179 16.8616 20.2174 16.8616 20.7141 17.1962Z" fill="#F187AD"/>
<path d="M35.5064 57.1701C35.804 57.547 36.2051 57.4375 36.5811 57.3788C36.8333 57.3396 37.0763 57.2412 37.3234 57.1696C37.9451 56.7922 38.6374 56.873 39.3083 56.8968C41.2161 56.9641 43.1117 56.7884 45.0096 56.6543C45.2107 56.6241 45.4126 56.6222 45.6142 56.6406C47.5453 56.6957 49.4561 56.5251 51.3453 56.1172C51.5648 56.2351 51.5894 56.4648 51.6621 56.6676C51.707 56.8338 51.7743 56.9976 51.7921 57.1669C51.8583 57.7954 51.7345 57.9552 51.112 57.9603C49.1736 57.9762 47.2353 57.9757 45.2969 57.9787C43.2723 57.9817 41.248 57.9749 39.2234 57.9846C38.2784 57.9892 37.3356 57.9592 36.3925 58.1349C35.8527 58.2355 35.2769 58.2382 34.7266 58.0774C34.8228 57.3637 34.8404 57.3431 35.5064 57.1701Z" fill="#F48DB2"/>
<path d="M29.5281 58.1604C29.2905 57.4528 29.531 57.0469 30.1246 57.2458C30.8047 57.4739 31.4854 57.4531 32.1606 57.4096C33.0169 57.3545 33.7694 57.5172 34.4184 58.088C33.481 58.2555 32.5398 58.2045 31.5986 58.1445C31.3397 58.0331 31.0807 57.882 30.8228 58.1466C30.3911 58.1512 29.9595 58.1558 29.5281 58.1604Z" fill="#F48DB2"/>
<path d="M30.8239 58.1454C30.7653 57.7884 30.8393 57.6562 31.0634 57.7051C31.3199 57.7611 31.4769 57.9297 31.5999 58.1435C31.341 58.144 31.0826 58.1449 30.8239 58.1454Z" fill="#F187AD"/>
<path d="M35.4727 57.1718C35.5151 56.864 35.5289 56.5613 35.6043 56.2751C35.6748 56.0067 35.9594 55.8883 36.2229 55.9883C36.4197 56.0629 36.6354 56.1402 36.7051 56.371C36.7656 56.5713 36.5064 57.0032 36.2775 57.1102C36.2394 57.1281 36.1943 57.1356 36.1518 57.1381C35.937 57.1505 35.7224 57.1597 35.4727 57.1718Z" fill="#EE84A9"/>
</svg>
