<svg width="61" height="102" viewBox="0 0 61 102" fill="none" xmlns="http://www.w3.org/2000/svg">
<path d="M16.3605 63.6609C16.3238 60.5502 16.2754 57.4398 16.2538 54.3291C16.2365 51.8229 16.24 49.3164 16.2549 46.8102C16.2724 43.8636 16.7109 40.9584 17.1842 38.0602C17.8175 34.1815 18.6638 30.348 19.6832 26.5523C20.4114 23.8409 21.2823 21.1749 22.2102 18.527C23.538 14.7386 24.8682 10.9508 26.2067 7.16615C26.4514 6.47465 26.7317 5.79558 27.0133 5.11814C27.1201 4.86133 27.1763 4.65669 26.9439 4.42258C26.2551 3.72973 26.3362 2.84899 26.42 1.98719C26.4586 1.59061 26.6844 1.25675 26.9866 0.996968C27.8067 0.291949 28.7422 -0.0794812 29.8437 0.014323C30.21 0.0454108 30.5054 0.191389 30.7671 0.43036C31.0912 0.726911 31.3277 1.08158 31.4869 1.49275C31.9507 2.68977 31.6704 3.4648 30.5649 4.08872C30.0667 4.36986 29.5256 4.5837 28.9785 4.61479C28.3121 4.65263 28.1081 5.00893 27.9426 5.55418C27.6042 6.66902 27.2215 7.77033 26.8495 8.87463C25.4583 13.0061 24.0481 17.1313 22.6746 21.2687C21.0539 26.1511 19.8388 31.137 18.9063 36.1952C18.3816 39.0417 17.9651 41.9021 17.6986 44.7833C17.6231 45.5991 17.611 46.4228 17.6069 47.2432C17.5907 50.441 17.5894 53.6387 17.5823 56.8364C17.4683 58.3681 17.3666 59.8946 17.6483 61.4266C17.7786 62.1359 17.8386 62.8766 17.4869 63.5681C17.1379 63.9158 16.7614 63.9393 16.3605 63.6609Z" fill="#F96F2B"/>
<path d="M32.434 91.9141C32.2632 92.562 31.881 93.0767 31.4109 93.536C30.7038 92.6748 30.064 91.7492 29.0173 91.2326C28.6994 91.0755 28.5621 90.7276 28.3908 90.4264C27.6123 89.0567 26.8643 87.7348 25.6796 86.5723C24.1718 85.0931 22.8773 83.3116 22.0318 81.299C21.7923 80.7292 21.386 80.3045 20.9746 79.8538C19.5823 78.3287 18.5105 76.5834 17.7182 74.6768C17.3523 73.796 16.953 72.9775 16.2605 72.2709C15.3377 71.3293 15.116 69.9685 14.5819 68.8079C13.9264 67.3828 13.0925 65.9825 12.9062 64.3643C13.4036 64.0569 13.9604 64.1339 14.5027 64.1172C15.2449 65.5718 15.9837 67.024 16.6438 68.5227C17.0738 69.4997 17.699 70.4548 18.3408 71.2963C19.3595 72.6323 19.958 74.1275 20.6059 75.6213C21.0127 76.5594 21.283 77.5785 22.4143 77.9513C22.5794 78.0056 22.6997 78.1673 22.7416 78.3343C23.2976 80.5443 25.369 81.8459 26.1077 83.9553C26.2521 84.3675 26.5254 84.7752 27.1098 84.8547C27.6904 84.9336 27.9153 85.4943 28.0923 85.9679C28.5732 87.2547 29.5112 88.2427 30.3513 89.2529C30.9333 89.9525 31.8404 90.3872 32.2191 91.3085C32.301 91.5077 32.398 91.6991 32.434 91.9141Z" fill="#407DF3"/>
<path d="M17.8493 61.0091C18.6894 56.5884 20.9665 52.8922 23.845 49.5669C29.3152 43.2474 35.8925 38.3734 43.5227 34.9397C43.8725 34.7823 44.2045 34.5612 44.608 34.5469C44.6478 34.5826 44.6875 34.6182 44.7278 34.6534C44.8905 34.947 44.9045 35.2633 44.8686 35.5871C44.5075 35.9188 44.0282 36.0148 43.6017 36.2132C36.3645 39.5845 30.1328 44.2979 24.8416 50.2646C23.286 52.0188 21.9769 53.9476 20.8667 56.0129C19.5979 58.3731 18.797 60.8553 18.8632 63.5689C18.7786 63.6932 18.664 63.7743 18.5186 63.8138C18.2137 63.8576 17.9377 63.817 17.7412 63.5459C17.5238 62.9117 17.6544 62.2575 17.632 61.6117C17.6385 61.3865 17.7182 61.1886 17.8493 61.0091Z" fill="#F86F2D"/>
<path d="M2.76562 76.0395C3.16811 74.9787 3.91632 74.1593 4.67102 73.3511C5.2811 72.6977 5.92956 72.0819 6.70913 71.625C7.22677 72.4409 7.13378 73.4357 7.51356 74.3099C7.84253 75.0671 8.0458 75.9324 8.69967 76.4228C9.37354 76.9283 8.58046 77.5201 8.92673 77.8739C9.26353 78.2181 9.96632 77.9239 10.3002 78.4524C10.4431 78.679 10.515 78.926 10.5513 79.1815C10.6791 80.0814 11.3327 80.5734 11.9898 81.0673C11.6003 82.3819 11.2297 83.7003 11.0151 85.0566C10.1336 85.2496 10.3477 84.5162 10.3142 84.131C10.1369 82.0813 9.09999 80.4794 7.75737 79.0269C7.43436 78.6776 7.08513 78.3354 6.57668 78.4068C6.37692 78.334 6.45883 78.6127 6.47315 78.4403C6.47694 78.3965 6.51883 78.3921 6.59911 78.427C8.33799 79.1837 9.83874 81.8475 9.48356 83.6168C9.38868 84.0888 9.69331 84.3215 9.88388 84.6459C10.6253 85.9073 11.3768 87.167 11.6001 88.6536C11.2419 89.57 10.7605 89.2789 10.2577 88.7933C9.5787 87.2573 8.79806 85.8048 7.24515 84.9417C6.94619 84.7754 6.85753 84.4862 7.17622 84.2029C7.43301 83.9744 7.7417 83.7547 7.45653 83.3457C7.36949 83.2643 7.28731 83.1816 7.20082 83.1015C5.41085 81.7642 4.61209 79.9398 4.64615 77.748C4.65669 77.0762 4.44936 76.7753 3.77522 76.8086C3.23028 76.8361 2.85807 76.6164 2.76562 76.0395Z" fill="#3E7AEF"/>
<path d="M12.9084 64.3672C13.19 64.5337 13.3725 64.8192 13.3928 65.1025C13.4325 65.6531 13.7428 66.064 13.9718 66.5198C14.195 66.9642 14.508 67.3649 14.4613 67.9174C14.4448 68.1137 14.5294 68.3756 14.6635 68.5175C15.4049 69.3037 15.5906 70.3474 15.992 71.2895C16.1088 71.5633 16.1093 71.9067 16.4067 72.0664C17.466 72.6352 17.7039 73.7276 18.0696 74.7178C18.2167 75.116 18.2829 75.5272 18.5394 75.8973C18.814 76.2936 19.0616 76.6861 19.5176 76.8978C19.6731 76.9699 19.8926 77.1383 19.7882 77.2711C19.4055 77.7569 19.8647 77.902 20.0685 78.1934C20.5356 78.8609 20.9127 79.5948 21.6671 80.0103C21.7733 80.0687 21.8804 80.1877 21.9169 80.3012C22.1815 81.126 22.7754 81.7761 23.1027 82.5652C23.4368 83.3708 23.799 84.155 24.5875 84.6294C24.8267 84.7735 24.9176 85.0184 25.0584 85.2331C25.5457 85.9754 25.8563 86.8802 26.8867 87.1178C27.0454 87.1543 27.1714 87.4257 27.2708 87.6109C27.7806 88.5595 28.3026 89.5032 28.7643 90.4753C28.9273 90.8189 29.1195 91.006 29.4684 91.1511C30.2499 91.4758 30.747 92.1562 31.2554 92.7918C31.3973 92.9691 31.3649 93.2862 31.4125 93.5395C31.3457 93.8531 31.176 94.0947 30.9048 94.2653C30.5824 94.4691 30.3391 94.3315 30.1174 94.0861C29.9458 93.8958 29.7552 93.5738 29.5238 93.6384C28.1231 94.0301 28.1585 92.9404 27.9166 92.1343C27.419 90.4772 26.1056 89.3378 25.2425 87.9123C24.3307 86.4069 22.8124 85.3563 22.062 83.7241C21.5257 81.9667 20.4986 80.5772 18.9527 79.5748C18.527 78.2532 17.4839 77.237 17.1203 75.8843C17.1187 75.1057 16.7994 74.5132 16.0964 74.1447C14.1175 71.9805 13.2519 69.2158 12.0564 66.6312C11.8034 66.0843 11.7352 65.4807 11.8526 64.8732L11.855 64.8824C12.0629 64.7519 12.1967 64.5288 12.4264 64.4259C12.5872 64.4058 12.7478 64.3867 12.9084 64.3672Z" fill="#3B72E6"/>
<path d="M32.4372 91.9139C32.0226 91.7725 31.8674 91.3851 31.7004 91.051C31.4019 90.4538 31.0203 89.9991 30.3475 89.8193C30.2007 89.7801 29.9755 89.6028 29.9804 89.4979C30.0096 88.8643 29.4979 88.6064 29.146 88.2636C28.6994 87.8284 28.4234 87.3045 28.1575 86.7616C27.9107 86.2583 27.6593 85.7566 27.3955 85.2619C27.313 85.1072 27.143 84.9607 26.9786 85.0775C26.6405 85.3181 26.4729 85.2256 26.2994 84.8815C26.1466 84.5785 25.9261 84.3073 25.7185 84.0351C25.5863 83.8618 25.4433 83.6988 25.4249 83.4726C25.3682 82.7816 24.934 82.2755 24.507 81.8133C23.5595 80.7871 22.7159 79.7239 22.4697 78.2971C22.4545 78.2087 22.2364 78.0641 22.2099 78.0827C21.7847 78.3852 21.6839 78.0519 21.4425 77.7905C20.8362 77.1344 20.4875 76.3678 20.2475 75.5324C19.9945 74.6531 19.4671 73.9013 19.1133 73.0689C18.8973 72.561 18.76 72.0298 18.1777 71.7449C17.9509 71.6338 17.8253 71.2704 17.7047 70.999C17.5658 70.686 17.489 70.3462 17.3741 70.0218C17.3176 69.8623 17.2603 69.5952 17.163 69.5752C16.2702 69.3927 16.3991 68.5474 16.0837 67.9913C15.6614 67.2471 15.4887 66.3826 14.9403 65.6992C14.5727 65.2413 14.4602 64.6963 14.5056 64.1162C14.5594 64.0643 14.6175 64.0589 14.6805 64.0994C15.4774 63.8372 15.9907 64.0367 16.2372 64.9115C16.4621 65.71 16.8662 66.4224 17.6287 66.8727C17.8969 67.0311 17.9255 67.3288 17.9982 67.6348C18.0656 67.9175 17.1744 67.6232 17.8161 68.0189C18.5151 68.4498 18.8021 69.1605 19.163 69.8634C20.1388 71.7643 20.6962 73.9126 22.3737 75.4165C22.7248 75.7311 22.8859 76.2069 23.0992 76.634C23.5806 77.598 24.1031 78.5385 24.9224 79.2768C25.5787 79.868 25.9766 80.5743 26.1775 81.4748C26.3937 82.4434 26.8946 83.2898 27.9666 83.6872C29.1549 84.1276 29.2779 85.4373 29.9134 86.3324C30.012 86.5381 30.0766 86.7579 30.1558 86.9712C30.2012 87.069 30.241 87.1698 30.2823 87.2693C30.3532 87.4139 30.4261 87.5578 30.5102 87.6967C30.5764 87.7867 30.6362 87.8797 30.6975 87.973C31.0473 88.4755 31.4979 88.8337 32.0777 89.053C32.7962 89.3246 33.1649 89.8218 32.943 90.6265C32.9308 91.1175 32.7694 91.5492 32.4372 91.9139Z" fill="#3A72E6"/>
<path d="M29.8179 86.7158C29.3808 86.1218 29.0397 85.4728 28.7386 84.8029C28.5099 84.2941 28.1564 83.9192 27.5884 83.8824C27.0792 83.8495 26.8167 83.5843 26.6102 83.1642C26.4591 82.8565 26.2434 82.5813 26.0696 82.284C25.8755 81.9517 25.7022 81.6403 25.7582 81.1997C25.8114 80.7799 25.6352 80.3822 25.2246 80.1027C24.8129 79.8226 24.7064 79.1855 24.0901 79.1071C24.008 79.0965 23.9242 78.9232 23.8831 78.81C23.8247 78.6499 23.8636 78.4061 23.7598 78.3188C22.9992 77.6811 22.8535 76.6928 22.351 75.911C22.1612 75.6155 21.9942 75.2914 21.6777 75.1435C21.1554 74.8994 20.8913 74.4536 20.7343 73.9635C20.4694 73.1363 20.0404 72.3862 19.629 71.6425C19.2284 70.9188 18.874 70.1941 18.6494 69.4036C18.5745 69.1403 18.4091 68.9478 18.2239 68.7656C17.9255 68.4723 17.6209 68.1852 17.3144 67.8911C17.4117 67.8327 17.4806 67.7827 17.5563 67.7476C17.8079 67.6305 17.8477 67.461 17.6901 67.2396C17.6655 67.2053 17.632 67.1637 17.5949 67.1542C16.3769 66.8393 16.1766 65.7258 15.8539 64.7864C15.6679 64.2452 15.4095 64.1198 14.9384 64.1276C14.8524 64.129 14.7662 64.1119 14.6797 64.1035C15.1687 63.8046 15.7141 63.8613 16.2499 63.8559C17.8869 63.5386 18.4886 65.0362 18.7859 65.9053C20.0745 69.6723 22.3131 72.886 24.2945 76.2548C24.4037 76.4406 24.4915 76.6384 24.6005 76.8236C24.8565 77.3134 25.3603 77.6111 25.6093 78.1074C26.5494 79.3901 26.9111 81.0683 28.1734 82.1099C29.3462 83.0777 30.0285 84.3544 30.7659 85.6152C30.824 85.7182 30.8743 85.8253 30.9232 85.9332C30.9765 86.0391 31.0194 86.1491 31.0581 86.2611C31.1332 86.4873 31.2062 86.7144 31.283 86.9417C31.3227 87.0615 31.3463 87.1837 31.3598 87.3089C31.2584 88.0069 31.0957 88.5681 30.3372 87.7536C30.1893 87.6114 30.2361 87.3718 30.078 87.2345C29.9266 87.0939 29.9817 86.8501 29.8179 86.7158Z" fill="#407CF2"/>
<path d="M2.76493 76.0391C3.11632 76.3164 3.38177 76.7579 3.97103 76.4508C4.29189 76.2834 4.62355 76.5627 4.93522 76.6803C5.10551 76.7446 5.18282 76.9571 5.10497 77.1125C4.63463 78.0527 5.12822 78.9551 5.20255 79.8707C5.21796 80.061 5.37879 80.2502 5.50205 80.4181C5.65261 80.6228 5.89508 80.7858 5.90508 81.0558C5.93076 81.7508 6.3527 82.1177 6.91305 82.4175C7.1747 82.5572 7.37825 82.7924 7.50151 83.0776C6.97116 83.4747 6.37244 82.6935 5.84615 83.1744C5.721 83.1609 5.61991 83.1038 5.54125 83.006C5.3696 82.7497 5.34636 82.4361 5.09902 81.9187C5.18066 82.7581 5.28364 83.3685 4.9982 83.9332C4.92224 84.0835 4.77601 84.2827 4.89007 84.4111C5.8175 85.4546 5.27013 86.6446 5.21769 87.7676C5.1493 89.2263 5.70991 90.4146 6.42947 91.6387C7.16308 92.8868 8.12321 94.0127 8.60138 95.41C8.51083 95.7377 8.30054 95.9669 8.01239 96.1334C7.45799 96.1818 7.02307 95.9566 6.67032 95.5457C5.54584 93.6299 4.74141 91.5724 4.00023 89.486C3.89805 89.1981 3.65775 88.9911 3.40123 88.8254C2.65599 88.3442 1.95347 87.8752 3.03442 87.0069C3.23878 86.8425 3.14957 86.5208 3.08794 86.2672C2.57733 84.1654 3.84669 82.175 3.47961 80.0783C3.45258 79.9248 3.66153 79.7991 3.78317 79.6604C2.01347 80.6849 1.47935 80.5914 1.01172 79.1846C1.03064 78.6853 1.26472 78.2785 1.56504 77.9005C1.98888 77.7402 2.23756 78.1449 2.60409 78.2236C2.41434 77.7697 2.087 77.355 2.27946 76.8249L2.27594 76.8373C2.47624 76.7371 2.40785 76.4708 2.57652 76.3508C2.58274 76.2126 2.63085 76.0999 2.76493 76.0391Z" fill="#3B74E8"/>
<path d="M1.01246 79.1797C1.21249 79.586 1.54118 79.8447 1.94637 80.0331C2.43643 80.261 2.44832 80.2845 2.85595 79.7531C3.0038 79.5606 3.15302 79.4565 3.38007 79.4514C3.63389 79.4457 3.88798 79.45 4.15693 79.45C4.08773 79.8309 3.69066 79.9047 3.64687 80.2361C3.61038 80.5127 3.83473 80.7425 3.80689 80.9804C3.7085 81.8159 3.81364 82.654 3.73174 83.4871C3.72363 83.5709 3.70498 83.6736 3.65146 83.7296C2.85946 84.5609 3.19681 85.4727 3.45333 86.3794C3.46495 86.4207 3.48873 86.4588 3.49901 86.5005C3.66687 87.1885 3.65903 87.2028 2.95488 87.5126C2.65862 87.6429 2.60321 87.9146 2.84135 88.0903C2.94461 88.1665 3.04976 88.2536 3.16815 88.2928C4.05395 88.5852 4.49347 89.2713 4.59294 90.1215C4.67106 90.7879 5.26141 91.2423 5.21302 91.9268C5.65876 92.5275 5.82392 93.2465 6.06179 93.9351C6.251 94.4822 6.61889 94.7863 7.21059 94.8117C7.26384 94.8139 7.34412 94.9247 7.35385 94.9934C7.36277 95.0569 7.31195 95.1642 7.25573 95.1953C7.07111 95.2975 6.84189 95.3246 6.72268 95.5316C6.74485 96.4175 7.75417 97.1006 7.24924 98.0949C6.53509 97.7291 5.89608 97.2666 5.38304 96.6427C5.43305 96.1139 5.28465 95.6435 5.08057 95.1502C4.62105 94.0397 4.16072 92.9251 3.9761 91.7178C3.81256 90.6492 3.3971 89.7206 2.26938 89.3254C1.51496 89.061 1.33277 88.4955 1.45603 87.7818C1.61119 86.8849 1.42819 85.9736 1.58929 85.0775C1.65471 84.7144 1.61173 84.393 1.0676 84.2513C0.901361 85.4611 2.43346 86.8438 0.719446 87.8164C0.0996336 85.3943 0.0915229 82.9608 0.620783 80.5262C0.719986 80.0726 0.665655 79.5641 1.01246 79.1797Z" fill="#3F7BF0"/>
<path d="M16.3228 73.9928C16.4333 74.0479 16.5404 74.1125 16.655 74.1566C17.1886 74.3626 17.4254 74.7426 17.3643 75.3147C17.3467 75.4777 17.3616 75.6442 17.3618 75.8091C16.6999 76.3738 17.2743 76.8988 17.4235 77.43C17.5708 77.9542 18.4536 78.4559 17.7503 78.9819C17.1259 79.4491 16.282 79.4204 15.6176 78.797C15.4173 78.1999 14.5958 77.8125 15.0756 76.968C15.2418 76.6755 14.8961 76.8572 14.8191 76.8845C14.1844 77.108 13.7722 76.7712 13.5967 76.2597C13.0421 74.6405 11.9238 73.2788 11.5627 71.5601C11.4089 70.8272 10.4047 70.5485 10.2479 69.6842C10.1744 69.279 9.85678 68.9179 10.0668 68.467C10.1306 67.7887 10.5917 67.2981 10.8864 66.729C11.796 66.4763 11.7935 67.2529 11.9684 67.7436C12.7326 69.8886 13.8495 71.8582 14.9356 73.8438C15.3121 74.5323 15.7616 74.8681 16.3228 73.9928Z" fill="#3C75E9"/>
<path d="M27.0616 97.1384C26.9332 97.3187 26.7416 97.3722 26.537 97.399C24.9535 97.3384 24.6559 96.0768 24.2315 94.9339C24.5813 94.2835 25.0392 95.1791 25.4103 94.8474C25.7425 94.5203 25.7506 94.1048 25.5184 93.786C24.5667 92.4806 24.1772 90.833 22.9213 89.7016C22.2337 89.0823 21.5947 88.3651 21.3052 87.4303C21.2938 86.9473 21.4833 86.5626 21.8696 86.275C23.0427 86.0938 23.8725 86.6796 24.3515 87.6355C24.8164 88.5635 25.4282 89.4059 25.8385 90.3594C26.1315 91.0403 27.0005 91.0119 27.3779 91.7464C27.8352 92.6363 27.9663 93.859 29.2987 94.195C29.7109 94.2991 29.8598 95.0266 29.5749 95.571C29.3216 95.9465 28.9589 96.1722 28.5426 96.325C27.6125 96.2763 27.6168 95.1926 26.8475 94.8568C26.757 95.3091 27.0194 95.7524 26.9197 96.1904C26.8116 96.5288 26.9378 96.8335 27.0616 97.1384Z" fill="#3C75E9"/>
<path d="M24.3689 77.1119C24.0456 76.5093 23.8243 75.844 23.2931 75.3685C23.2307 75.3126 23.1912 75.2312 23.1409 75.1617C22.6649 74.5032 22.6417 73.6073 21.9875 73.0337C21.3942 72.5136 21.0785 71.7688 20.7495 71.0935C19.9678 69.4891 18.9958 67.9529 18.6595 66.1584C18.5992 65.8359 18.4527 65.6059 18.1676 65.451C17.8207 65.2625 17.4799 65.0317 17.3993 64.6284C17.2661 63.962 16.8055 63.8555 16.25 63.8552C16.2792 63.7868 16.3165 63.7233 16.3619 63.6646C16.7157 63.636 17.0696 63.6071 17.4234 63.5781C17.5688 63.4611 17.7142 63.4662 17.8599 63.5776C18.124 63.6106 18.3879 63.6433 18.6519 63.6763C19.8394 64.3813 19.9948 65.7197 20.533 66.8113C20.8776 67.5101 21.1863 68.1756 21.8251 68.679C22.6398 69.321 22.8109 70.3607 23.2182 71.2484C23.5929 72.0651 23.9127 72.9064 24.1746 73.7687C24.2432 74.6462 24.8639 75.3456 24.9723 76.1995C25.0255 76.6158 25.3937 77.3595 24.3689 77.1119Z" fill="#3B73E7"/>
<path d="M0.719149 87.8222C0.740773 87.7389 0.736446 87.6324 0.787534 87.5759C1.34815 86.9555 1.38546 86.3129 0.98378 85.5787C0.71915 85.0948 0.494795 84.5688 0.526421 83.9889C0.536963 83.7943 0.66076 83.6567 0.865653 83.7178C1.06676 83.7778 1.24354 83.9222 1.44519 83.9787C2.02446 84.1408 2.1561 84.2238 2.02743 84.6512C1.72199 85.6647 1.80848 86.6949 1.78983 87.7232C1.78605 87.9373 1.77713 88.156 1.73009 88.3637C1.6709 88.6232 1.7747 88.7754 1.99148 88.874C2.14718 88.9446 2.30747 89.01 2.47181 89.0557C3.45573 89.329 3.91849 90.047 4.14366 90.9802C4.25422 91.4378 4.42424 91.8785 4.4037 92.3672C4.39532 92.5662 4.47073 92.8033 4.58778 92.9657C4.79861 93.259 4.8889 93.5715 4.93863 93.9197C5.03757 94.6115 5.50195 95.1576 5.72468 95.8058C5.87092 96.2316 5.71576 96.4565 5.38275 96.6484L5.39383 96.6328C5.1638 96.2473 4.82375 95.985 4.43532 95.7774L4.3991 95.7391C4.30639 95.7096 4.248 95.6469 4.21854 95.5552C2.69131 94.0203 1.65982 92.2153 1.24868 90.0762C1.10271 89.3174 0.733475 88.6116 0.719149 87.8222Z" fill="#3D76EA"/>
<path d="M25.139 98.3654C24.866 98.6647 24.5343 98.8585 24.1316 98.9245C22.2648 98.8515 21.8332 97.3798 21.2904 96.016C21.1828 95.2818 20.4865 95.57 20.0932 95.3313C19.6966 95.0309 19.5393 94.5846 19.3809 94.1445C19.2012 93.6444 18.9214 93.3135 18.3992 93.0654C17.3596 92.5717 16.596 90.4672 17.0085 89.517C17.1231 89.4562 17.2458 89.4273 17.3747 89.4219C19.4296 89.5373 19.9813 91.1771 20.5711 92.6945C20.7106 93.0538 20.7081 92.9091 20.9133 92.8507C21.3031 92.7402 21.5791 93.0089 21.7988 93.2643C22.9747 94.6319 24.1473 96.0041 25.1085 97.5377C25.2693 97.7937 25.4004 98.08 25.139 98.3654Z" fill="#3B73E7"/>
<path d="M33.9346 84.6434C34.0138 85.9821 33.8784 87.2954 33.4724 88.577C32.7904 86.3249 31.5413 84.3815 30.1692 82.507C30.1011 82.4 30.0124 82.1759 29.9941 82.1842C28.7304 82.7638 28.3436 81.889 28.0778 80.9742C27.6197 79.3969 26.3365 78.1831 26.1416 76.4968C26.0719 76.0726 25.877 75.6658 25.9203 75.2297C25.9632 74.7959 25.9914 74.2977 26.6723 74.5547C27.2342 74.941 27.4732 75.5658 27.7675 76.1305C29.4056 79.2733 31.8265 81.8444 33.9346 84.6434Z" fill="#417FF4"/>
<path d="M29.5743 95.5788C29.468 95.2092 29.3769 94.8343 29.2504 94.4718C29.1464 94.1733 28.9942 94.1098 28.6806 94.3136C28.4141 94.4869 28.1332 94.355 28.0897 94.079C27.9162 92.9812 27.0458 92.2415 26.6674 91.2497C26.5757 91.0094 26.3511 91.0148 26.1946 91.2289C26.1003 91.3581 26.0841 91.5928 25.8529 91.4849C25.7656 91.4441 25.6854 91.2835 25.6859 91.1781C25.6891 90.5882 25.4567 90.1003 25.1055 89.645C24.6585 89.0652 24.3676 88.3999 24.0897 87.7268C23.9238 87.3245 23.7189 86.9528 23.1812 86.9515C22.9036 86.9509 22.7214 86.7517 22.5828 86.519C22.4273 86.2578 22.217 86.4032 22.0211 86.4522C21.6462 85.4566 21.8143 84.5137 22.2981 83.6016C22.8558 84.4991 23.4813 85.3209 24.2543 86.0697C25.0055 86.7971 25.558 87.7362 26.1541 88.6124C26.2906 88.813 26.3481 89.0798 26.5333 89.2674C27.6202 90.3676 28.2746 91.686 28.5187 93.2112C28.5319 93.2942 28.5557 93.3769 28.5874 93.4545C28.5984 93.4818 28.6476 93.494 28.7104 93.5316C28.7944 93.4648 28.9152 93.4077 28.9771 93.3123C29.1428 93.0582 29.3348 92.923 29.6021 93.1469C29.8894 93.3875 30.2814 93.5218 30.386 93.9565C30.4446 94.2004 30.6914 94.2263 30.9031 94.2658C30.5768 94.821 30.1276 95.2525 29.5743 95.5788Z" fill="#407DF2"/>
<path d="M33.7312 80.7132C33.9066 80.9214 33.9428 81.1744 33.9428 81.4307C33.9428 82.2365 34.0685 83.0424 33.9431 83.8479C32.8865 82.9623 32.47 81.615 31.5609 80.6015C29.7758 78.6117 28.3883 76.3374 27.272 73.9044C27.0452 73.5941 26.7816 73.2908 26.7143 72.9061C26.4964 71.661 25.5842 70.9459 24.7005 70.2028C24.4629 69.8252 24.0899 69.4797 24.3978 68.9688C24.966 69.248 25.5444 69.5083 26.0991 69.8124C26.5013 70.033 26.9343 70.2266 27.2092 70.6269C29.0954 74.1756 31.416 77.4425 33.7312 80.7132Z" fill="#417FF4"/>
<path d="M27.4835 73.7325C27.7235 73.8736 27.8281 74.1202 27.9073 74.3586C28.03 74.7279 28.1457 75.0871 28.4498 75.3588C28.6463 75.5343 28.7577 75.7611 28.7807 76.0346C28.8339 76.6721 29.1818 77.1525 29.6349 77.5693C30.0179 77.9218 30.2755 78.3589 30.5582 78.7917C31.0229 79.503 31.5486 80.1842 32.1198 80.8135C32.6736 81.4237 33.025 82.1644 33.5386 82.7932C33.7938 83.1057 33.5819 83.5822 33.9422 83.8442C33.94 84.1097 33.9376 84.3751 33.9354 84.6406C33.7403 84.7184 33.4978 84.8671 33.3632 84.6263C33.0269 84.0245 32.4585 83.5893 32.1974 82.9332C32.1052 82.7015 31.9506 82.4625 31.7589 82.3076C30.9337 81.641 30.4609 80.7154 29.9111 79.8493C29.637 79.4176 29.4767 78.9218 28.8731 78.795C28.6153 78.7409 28.5355 78.4236 28.4204 78.1949C27.8468 77.0543 27.2764 75.9122 26.705 74.7706C26.5036 74.3827 26.0641 73.9937 26.4196 73.5449C26.8042 73.0597 27.1386 73.586 27.4835 73.7325Z" fill="#3A72E5"/>
<path d="M11.8688 80.9919C11.2941 81.0708 10.8538 80.9135 10.6551 80.3144C10.5097 79.876 10.1753 79.5283 10.168 79.0112C10.1591 78.3867 10.0105 78.274 9.40118 78.3616C8.92679 78.4297 8.56269 78.3426 8.25373 77.9742C8.04613 77.7266 8.06586 77.5498 8.38699 77.387C8.57242 77.293 8.81245 77.2857 8.87651 76.9507C8.46483 76.7923 8.14155 76.5717 7.94369 76.0705C7.68122 75.405 7.1652 74.8392 7.18953 74.0601C6.50511 73.351 6.78137 72.4519 6.70703 71.6223C6.74677 71.4812 6.84408 71.4117 6.98626 71.3984C8.09966 71.4414 8.2667 72.3378 8.58053 73.1304C9.14439 74.5545 9.83773 75.884 10.9103 77.0343C11.7991 77.9872 12.154 79.2618 12.3797 80.545C12.3051 80.8026 12.2913 81.1322 11.8688 80.9919Z" fill="#3A72E6"/>
<path d="M12.216 80.5661C11.8927 79.5905 11.3824 78.6865 11.1069 77.6931C11.0315 77.4211 10.882 77.2032 10.6096 77.1527C9.99571 77.0389 9.70433 76.585 9.6408 76.0706C9.57025 75.4988 9.28616 75.1201 8.91233 74.7489C8.56606 74.4051 8.30846 73.9907 8.29548 73.4978C8.2698 72.5295 7.75352 71.8929 6.98828 71.3987C7.44375 70.9619 7.94625 70.5964 8.54336 70.375C9.67162 72.1786 10.6761 74.0566 11.7327 75.9003C12.4106 77.0829 13.1591 78.224 13.8141 79.4205C13.5794 80.2174 12.9829 80.5107 12.216 80.5661Z" fill="#417DF2"/>
<path d="M10.0658 68.4688C10.0904 68.7794 10.2264 69.0356 10.4178 69.2795C10.7151 69.6582 10.8619 70.1018 10.923 70.5795C10.9411 70.7209 11.1122 70.8144 11.2065 70.7374C11.596 70.42 11.7826 70.6938 11.8099 70.9939C11.8807 71.7762 12.1926 72.4761 12.4624 73.1909C12.6132 73.5901 12.7719 74.0032 13.0168 74.346C13.3901 74.8682 13.8347 75.3238 13.7782 76.0491C13.7585 76.3015 14.0077 76.5018 14.218 76.6532C14.4143 76.7946 14.6267 76.8203 14.7297 76.5416C14.8714 76.1577 15.043 76.0461 15.3517 76.401C15.4301 76.4913 15.5633 76.5405 15.6793 76.59C15.799 76.6413 15.9253 76.6935 15.925 76.8365C15.9242 77.0714 15.7198 77.0666 15.5601 77.1052C15.4768 77.1252 15.3841 77.125 15.3109 77.1631C15.1349 77.2544 15.0735 77.4102 15.1765 77.5832C15.3901 77.9416 15.8258 78.1698 15.8036 78.6656C15.3949 78.8142 15.0757 79.1275 14.6675 79.2816C14.5454 79.2724 14.4316 79.2397 14.3224 79.1846C13.7071 78.7318 13.309 78.0995 13.0579 77.4123C12.6824 76.3848 12.1888 75.4359 11.5247 74.5733C10.4254 73.1452 9.8696 71.4578 9.23438 69.8077C9.51117 69.3614 9.78851 68.9151 10.0658 68.4688Z" fill="#407CF1"/>
<path d="M25.1389 98.3663C24.8002 97.3788 24.1447 96.5946 23.4792 95.8228C23.0922 95.3738 22.7108 94.9561 22.4313 94.3992C22.1626 93.864 21.5701 93.4893 21.1092 93.0554C21.0705 93.0192 20.9316 93.0416 20.8727 93.0838C20.6759 93.2241 20.5767 93.2996 20.4405 92.9771C20.1604 92.3142 19.8112 91.6792 19.4711 91.0431C19.1132 90.3735 18.6348 89.8504 17.8023 89.8185C17.6203 89.8115 17.479 89.7231 17.3633 89.5877C18.0918 88.9408 19.01 88.837 19.915 88.6953C20.1174 88.7791 20.3604 88.9045 20.3996 89.0911C20.9135 91.5513 23.423 92.6062 24.3669 94.7566C24.8562 95.8304 25.336 96.912 26.5372 97.4018C26.1518 97.8411 25.6879 98.1657 25.1389 98.3663Z" fill="#417EF4"/>
<path d="M33.7302 80.711C33.6461 80.8264 33.4874 80.9051 33.4209 80.7842C32.8419 79.7332 31.881 78.9557 31.352 77.8674C31.2252 77.6063 30.9871 77.3976 30.7909 77.1726C30.6224 76.9796 30.4378 76.8053 30.3659 76.542C30.1383 75.7069 29.6794 75.01 29.0666 74.4072C28.8222 74.1671 28.5803 73.9303 28.5035 73.5678C28.4697 73.4083 28.3946 73.2058 28.2713 73.125C27.4793 72.6057 27.5355 71.6214 27.0517 70.9361C27.0201 70.8915 27.1523 70.7312 27.2079 70.625C27.6961 70.8334 28.0172 71.247 28.3827 71.6012C29.3996 72.5857 30.317 73.6624 31.1828 74.7791C32.0007 75.8342 32.6554 76.9864 32.9695 78.3013C33.0987 78.8425 33.462 79.3047 33.4863 79.8784C33.5718 80.0716 33.5437 80.3033 33.6899 80.4761C33.7448 80.5474 33.758 80.6258 33.7302 80.711Z" fill="#3C74E7"/>
<path d="M23.8506 73.735C23.3462 72.4709 22.8488 71.2039 22.3336 69.9441C22.1217 69.4259 21.8514 68.9704 21.3186 68.6647C20.8826 68.4146 20.651 67.9707 20.435 67.4641C19.9387 66.2996 19.6363 65.0247 18.7634 64.0377C18.6869 63.9512 18.6878 63.796 18.6523 63.6728C18.7148 63.6211 18.7859 63.5868 18.8653 63.5703C19.5057 63.736 20.2001 63.4784 20.818 63.8204C20.6042 64.7876 21.2111 65.5951 21.6787 66.1966C22.7861 67.6207 23.3097 69.301 24.1442 70.8386C24.3796 71.7689 25.2535 72.5139 24.9453 73.6009C24.8532 73.9255 24.8207 74.3108 24.3801 74.3491C23.9506 74.3867 24.0496 73.9226 23.8506 73.735Z" fill="#417FF4"/>
<path d="M16.3234 73.9943C16.3337 74.0797 16.3431 74.1652 16.3545 74.2506C16.4358 74.8623 16.1396 75.1516 15.5917 74.9983C15.1851 74.8845 14.9494 74.5877 14.7643 74.236C14.1663 73.1006 13.5541 71.9725 12.9786 70.8258C12.6151 70.1016 12.1896 69.4098 11.9304 68.628C11.7952 68.2201 11.6952 67.807 11.5714 67.3988C11.4714 67.0693 11.3181 66.7438 10.8867 66.7303C11.0816 66.0434 11.2638 65.3497 11.8525 64.8672C11.9163 64.9794 12.0282 65.0881 12.0369 65.2046C12.1128 66.2156 12.6686 67.0614 12.9719 67.9933C13.1995 68.6926 13.7568 69.223 13.9304 69.9534C14.019 70.3259 14.1788 70.6863 14.3426 71.035C14.5794 71.5392 14.7537 72.0907 15.1954 72.4672C15.693 72.8911 16.0147 73.4358 16.3234 73.9943Z" fill="#417EF4"/>
<path d="M9.2355 69.8047C9.4958 69.852 9.71691 69.9242 9.81449 70.2261C10.0648 70.9993 10.3413 71.7638 10.6081 72.5315C10.6503 72.6526 10.6605 72.811 10.7446 72.8875C11.2936 73.3876 11.5442 74.0908 11.9745 74.6601C12.5265 75.3902 12.986 76.1355 13.2279 77.0219C13.4596 77.8713 14.1178 78.4787 14.5422 79.2202C14.5103 79.2548 14.4784 79.2892 14.447 79.3246C14.331 79.4079 14.204 79.4695 14.0686 79.5155C13.9734 79.5387 13.8826 79.5276 13.7972 79.4784C13.1184 78.7858 12.4338 78.1219 12.0499 77.1779C11.5669 75.9901 10.9038 74.8861 10.1143 73.8642C9.93261 73.6293 9.78638 73.363 9.65095 73.0973C9.20441 72.2206 8.82544 71.3156 8.54297 70.3716C8.77408 70.1826 9.00466 69.9936 9.2355 69.8047Z" fill="#3A72E5"/>
<path d="M30.3365 82.2969C30.8549 83.0833 31.3979 83.8483 32.111 84.4779C32.3116 84.655 32.4224 84.895 32.4048 85.168C32.3746 85.6376 32.5597 86.0071 32.9114 86.2967C33.3496 86.6573 33.4974 87.1179 33.455 87.6718C33.432 87.9705 33.4642 88.2736 33.4712 88.575C33.4766 89.3054 33.2804 89.9837 32.9403 90.6246C32.8622 90.3857 32.7954 90.1424 32.7035 89.9091C32.5714 89.5722 32.3373 89.3738 31.9594 89.3054C31.0852 89.147 30.5746 88.5823 30.3356 87.7475C30.4116 87.78 30.4849 87.8235 30.5641 87.8429C30.9495 87.9376 31.0474 87.8959 31.0917 87.5872C31.1209 87.3842 31.1084 87.1755 31.1147 86.9692C31.5891 86.8654 31.5093 87.3485 31.7366 87.5586C31.0128 86.2158 31.0057 84.6512 30.2045 83.3628C30.0053 83.0416 29.9988 82.6159 30.3365 82.2969Z" fill="#3E79EE"/>
<path d="M23.8502 70.8815C23.4467 70.0751 23.0401 69.2704 22.6409 68.4618C22.4895 68.1552 22.3076 67.8579 22.2881 67.5019C22.2719 67.2031 22.103 67.0442 21.8229 66.9685C21.5013 66.8817 21.3394 66.6498 21.2515 66.3351C21.055 65.6315 20.7771 64.9589 20.4498 64.305C20.256 63.9178 20.5803 63.8959 20.8177 63.8208C21.325 63.8073 21.6005 64.0825 21.7524 64.5415C21.927 65.0694 22.1114 65.595 22.3136 66.1129C22.756 67.2461 23.4275 68.2172 24.396 68.9687C24.5601 69.3463 24.7241 69.7242 24.8882 70.1022C25.258 70.6777 25.5394 71.2886 25.5999 71.9796C25.6221 72.2321 25.644 72.5289 25.3848 72.6603C25.0331 72.8384 24.8369 72.5189 24.6752 72.3024C24.3479 71.8636 24.1916 71.3178 23.8502 70.8815Z" fill="#3C73E5"/>
<path d="M9.31777 99.4324C9.25884 99.3078 9.17478 99.2226 9.02259 99.245C8.56226 99.0099 8.10166 98.7747 7.72539 98.4089C7.33263 97.5614 7.42589 96.7745 8.01949 96.0503C8.02868 95.7127 8.20168 95.5394 8.53956 95.5312C8.58767 95.5696 8.63578 95.6078 8.68471 95.6453C8.98015 96.1525 9.29344 96.6034 9.79729 96.9802C10.9291 97.8266 11.2521 98.9458 10.8542 100.038C10.1949 100.209 9.68025 100.014 9.31777 99.4324Z" fill="#3F7BF0"/>
<path d="M23.8348 99.1778C23.345 99.1762 22.9985 99.5717 22.536 99.6463C21.5502 98.7693 20.746 97.7732 20.7195 96.3842C20.712 95.9871 20.6374 95.1623 21.5115 95.7914C21.8024 96.5326 22.0654 97.2852 22.5725 97.9227C22.7344 98.1262 22.882 98.3325 23.1507 98.369C23.5553 98.4239 23.7818 98.7772 24.1294 98.9223C24.0313 99.0078 23.9332 99.0926 23.8348 99.1778Z" fill="#427FF4"/>
<path d="M26.7045 96.3158C26.7105 96.0108 26.6537 95.7216 26.5413 95.4342C26.3964 95.0644 26.4131 94.6741 26.5007 94.2918C26.5153 94.2275 26.607 94.1521 26.6753 94.1367C26.7424 94.1215 26.8562 94.1526 26.8965 94.2045C27.3411 94.7806 27.7741 95.3658 28.2139 95.9454C28.3158 96.0798 28.4329 96.2025 28.5429 96.3306C28.1739 96.7048 27.7158 96.9208 27.2241 97.0781C26.9913 96.8648 26.7326 96.6688 26.7045 96.3158Z" fill="#407DF2"/>
<path d="M8.01802 96.0505C8.0091 96.3006 8.09018 96.6096 7.97342 96.7894C7.67126 97.2543 7.62234 97.6704 7.93153 98.1369C7.95207 98.168 7.7972 98.3156 7.72396 98.4089C7.51153 98.3854 7.35585 98.2762 7.24775 98.0945C7.27694 97.5995 7.10099 97.1546 6.78883 96.8045C6.40234 96.3709 6.45883 95.9705 6.72153 95.5312C7.21451 95.5523 7.5864 95.8759 8.01802 96.0505Z" fill="#3B71E3"/>
<path d="M17.859 63.5736C17.7133 63.5739 17.5674 63.5742 17.422 63.5742C17.4155 61.6559 17.4063 59.7374 17.4044 57.8191C17.4041 57.4834 17.3484 57.1317 17.583 56.8359C17.6041 57.7421 17.6252 58.6482 17.6468 59.5546C17.6582 60.0299 17.6703 60.5051 17.6822 60.9804C17.7771 61.1469 17.7044 61.3648 17.8466 61.5167C17.8506 62.2025 17.8547 62.8881 17.859 63.5736Z" fill="#FCC5AB"/>
<path d="M2.28073 76.8203C2.56992 77.3337 2.65749 77.9533 3.12938 78.3752C3.23019 78.4653 3.1164 78.6075 2.97911 78.6369C2.7637 78.6829 2.54451 78.661 2.36532 78.531C2.09019 78.3315 1.83181 78.1087 1.56641 77.896C1.69938 77.4678 1.90506 77.0877 2.28073 76.8203Z" fill="#4883F4"/>
<path d="M4.4375 95.7773C4.55966 95.7589 4.6856 95.7543 4.8029 95.7198C5.09101 95.6343 5.28533 95.6633 5.30263 96.0276C5.31209 96.23 5.36371 96.4306 5.39615 96.6322C4.96209 96.4754 4.65534 96.1762 4.4375 95.7773Z" fill="#3F7BF0"/>
<path d="M26.7044 96.3125C27.0423 96.4544 27.2179 96.7068 27.2236 97.0752C27.1855 97.1368 27.1312 97.1587 27.0612 97.1409C26.3942 96.9103 26.3671 96.8482 26.7044 96.3125Z" fill="#3B72E6"/>
<path d="M12.4265 64.423C12.3101 64.6673 12.1411 64.8465 11.8555 64.8797C11.9279 64.58 12.1011 64.4062 12.4265 64.423Z" fill="#417EF4"/>
<path d="M33.6899 80.4801C33.4636 80.3352 33.4539 80.1163 33.4864 79.8828C33.6799 80.039 33.7228 80.2466 33.6899 80.4801Z" fill="#417FF4"/>
<path d="M2.57762 76.3516C2.57275 76.5724 2.51059 76.758 2.27734 76.838C2.29086 76.6224 2.3941 76.4621 2.57762 76.3516Z" fill="#4883F4"/>
<path d="M17.8492 61.5128C17.65 61.3784 17.6427 61.1852 17.6846 60.9766C17.7395 60.9939 17.7954 61.0036 17.8527 61.006C17.8517 61.1752 17.8506 61.3439 17.8492 61.5128Z" fill="#FFE3D5"/>
<path d="M4.21875 95.5547C4.27902 95.616 4.33902 95.6774 4.39929 95.7385C4.28848 95.7269 4.2228 95.6709 4.21875 95.5547Z" fill="#3F7BF0"/>
<path d="M11.9307 87.1719C12.8097 87.975 13.7136 88.7449 14.7835 89.2913C14.7667 89.3448 14.75 89.398 14.7362 89.4518C14.8851 90.3291 15.3563 91.0208 15.9785 91.6256C16.3078 91.9456 16.8154 92.2057 16.66 92.7571C16.4962 93.3384 15.8404 93.0007 15.4923 93.1883C16.5994 94.0972 17.5712 95.2466 19.1957 95.0125C19.5136 94.9663 19.5969 95.2142 19.7109 95.4239C19.7858 95.5615 19.8334 95.8151 19.9818 95.7792C20.1826 95.7308 20.0758 95.4229 20.2145 95.2758C20.3388 95.2545 20.4653 95.2412 20.5875 95.2107C21.2546 95.0439 21.2544 95.0425 21.5114 95.7956C21.3284 95.7702 21.0568 95.5688 21.0157 95.9116C20.9165 96.7375 21.1322 97.4836 21.6523 98.1537C22.0074 98.6111 22.4305 99.0409 22.5359 99.6508L22.5659 99.7262C22.3329 100.053 22.0169 100.242 21.6223 100.302C21.26 100.404 20.8951 100.494 20.5216 100.544C20.0926 100.598 19.669 100.783 19.229 100.608C17.865 99.607 17.4982 97.8169 16.2442 96.7545C14.2994 95.1066 13.3006 92.7853 11.828 90.8037C11.6758 90.5991 11.5458 90.3766 11.302 90.269C10.967 90.4661 11.176 90.854 10.9684 91.0744C10.5229 91.3623 10.3216 90.9219 10.025 90.7608C9.93366 90.6783 9.8569 90.5834 9.79122 90.4793C9.76986 90.4226 9.74958 90.365 9.7285 90.3082C9.71985 90.1874 9.74039 90.0703 9.78608 89.9584C10.1023 89.5335 9.93988 88.9163 10.3534 88.5292C10.4454 88.6171 10.5346 88.7082 10.63 88.792C11.0317 89.1442 11.15 89.1028 11.3914 88.5292C11.7674 88.394 11.8747 88.8247 12.185 88.8977C12.2045 88.3021 11.4106 87.8228 11.9307 87.1719Z" fill="#3E79EE"/>
<path d="M11.9327 87.1674C11.9862 87.8799 12.3836 88.4368 12.7539 89.0088C12.8158 89.1043 12.8569 89.2605 12.8226 89.3592C12.7771 89.4903 12.6204 89.4614 12.4909 89.4508C11.9024 89.4024 11.667 88.9421 11.3937 88.5241C10.9526 87.4961 10.502 86.4721 10.0762 85.4378C9.95514 85.1434 9.74998 84.9325 9.53563 84.723C9.28478 84.4776 9.08178 84.2048 8.95068 83.8783C8.85959 83.6515 8.88797 83.503 9.11935 83.3463C9.59833 83.0216 9.58455 83.0008 9.44588 82.555C9.31776 82.143 9.18098 81.737 8.88256 81.4066C8.28464 80.7443 8.03461 79.8466 7.33344 79.2319C6.99582 78.9358 6.72092 78.6682 6.25897 78.6247C5.98163 78.5985 5.79539 78.406 5.72944 78.1275C5.69889 77.9986 5.77674 77.7913 5.85891 77.8237C6.82418 78.207 7.99353 78.2516 8.51954 79.39C8.60793 79.5814 8.75227 79.7517 8.89067 79.9147C10.0078 81.2285 10.5368 82.5818 10.6141 84.3646C10.6274 84.6687 10.6055 84.9788 10.9377 85.1469C11.2696 85.8206 11.601 86.4942 11.9327 87.1674Z" fill="#3B74E8"/>
<path d="M10.3562 88.5255C10.35 88.8961 10.353 89.2673 10.3346 89.6374C10.3197 89.9412 10.1019 90.0442 9.83723 90.0821C9.49448 90.028 9.28743 89.7958 9.10632 89.5287C8.68789 88.5793 8.04915 87.8037 7.28905 87.1001C6.03158 85.9358 5.78263 84.6187 6.49543 83.2368C6.89143 82.9886 7.3723 83.4171 7.75749 83.0781C8.09645 83.3247 8.03266 83.6731 7.98401 84.0105C7.94671 84.2686 7.74073 84.3308 7.52016 84.3646C7.36338 84.3887 7.14092 84.3808 7.19985 84.6212C7.24499 84.8047 7.44636 84.8693 7.61747 84.8142C8.05158 84.6747 8.28161 84.9539 8.43569 85.2494C8.77465 85.899 9.10632 86.5302 9.80993 86.8741C10.0046 86.9692 10.0862 87.202 10.0829 87.4237C10.0775 87.8173 10.1562 88.1852 10.3562 88.5255Z" fill="#3B74E8"/>
<path d="M7.75693 83.0845C7.39368 83.512 6.89747 83.2788 6.46152 83.3455C6.18153 83.4688 6.04423 83.3131 5.94531 83.0818C6.17126 82.5774 6.29261 82.4947 6.61937 82.6691C6.90693 82.8226 7.13288 83.1026 7.50206 83.0809C7.58693 83.0826 7.67206 83.0836 7.75693 83.0845Z" fill="#3569D9"/>
<path d="M19.1774 79.4574C17.7288 79.0319 16.2468 79.1487 14.7695 79.1857C14.8041 79.1128 14.8331 79.0365 14.8744 78.9676C15.1928 78.4399 15.1936 78.4404 15.8056 78.6683C16.3733 79.116 17.0087 78.9065 17.624 78.8422C17.7553 78.8284 17.8024 78.6656 17.7526 78.5383C17.7078 78.4234 17.6369 78.3107 17.5521 78.2207C17.1628 77.8084 16.8928 77.3478 16.8271 76.7676C16.8047 76.57 16.6817 76.3759 16.5752 76.1981C16.4635 76.0115 16.317 75.8253 16.5346 75.6469C16.6676 75.5379 16.8566 75.5733 17.0182 75.6504C17.1334 75.7053 17.2485 75.7596 17.3637 75.8139C17.6253 76.393 17.8499 76.9726 18.2857 77.4783C18.7584 78.0279 18.9052 78.7838 19.1774 79.4574Z" fill="#4380F4"/>
<path d="M29.8164 86.7109C30.0261 86.8223 30.071 87.0161 30.0759 87.2299C29.8667 87.1182 29.8215 86.9247 29.8164 86.7109Z" fill="#3E79EE"/>
<path d="M30.0781 87.2266C30.2879 87.3379 30.3327 87.5317 30.3373 87.7455C30.1279 87.6341 30.083 87.4403 30.0781 87.2266Z" fill="#3E79EE"/>
<path d="M30.3382 82.3005C30.2854 82.8769 30.4114 83.4116 30.7682 83.8682C31.1234 84.3228 31.2761 84.8554 31.3599 85.3993C31.5034 86.3314 31.7143 87.2346 32.1687 88.0701C32.2235 88.1713 32.32 88.3335 32.1606 88.4035C31.98 88.483 31.8327 88.3429 31.7583 88.1932C31.6648 88.0045 31.6297 87.7874 31.5435 87.5944C31.4402 87.3635 31.3569 87.1121 31.1169 86.9726C30.8885 86.7604 31.1007 86.4011 30.8569 86.1941C30.7706 86.1076 30.6928 86.0124 30.5985 85.9338C30.2481 85.0506 29.4764 84.408 29.2004 83.4773C29.1583 83.3351 28.9855 83.2102 28.8455 83.1218C28.2511 82.7474 27.7708 82.2719 27.4107 81.6639C27.2815 81.4455 27.0742 81.2738 26.909 81.0757C26.772 80.9113 26.5798 80.7578 26.5236 80.5669C26.2917 79.7789 25.9776 79.0406 25.4507 78.4008C25.4037 78.3437 25.4202 78.2342 25.4072 78.1493C25.2515 77.7971 25.0956 77.4389 25.0431 77.0591C24.9723 76.5447 24.892 75.9424 25.531 75.7478C26.1979 75.5447 26.2079 76.2311 26.4452 76.5922C26.5312 76.8342 26.6628 77.0707 26.6931 77.3194C26.7474 77.7668 26.952 78.1312 27.188 78.4962C27.7224 79.3234 28.2725 80.1471 28.4501 81.1432C28.5317 81.6015 28.7369 81.9491 29.1934 82.1145C29.3399 82.1675 29.504 82.3243 29.6167 82.118C29.6521 82.0534 29.5153 81.8996 29.4675 81.7826C29.4364 81.7063 29.3961 81.6174 29.4102 81.5439C29.4229 81.4782 29.4986 81.4184 29.5586 81.3714C29.5854 81.3506 29.6491 81.3533 29.6843 81.37C30.0751 81.5571 30.1362 81.9786 30.3382 82.3005Z" fill="#3B73E7"/>
<path d="M26.4461 76.5903C26.3385 76.464 26.2323 76.3367 26.1231 76.2121C25.7606 75.7987 25.5062 75.8339 25.2984 76.3045C25.1905 76.5486 25.1305 76.7879 25.2497 77.0317C25.4243 77.3896 25.4079 77.7681 25.4081 78.1471C25.1608 77.7027 24.571 77.6002 24.3712 77.1082C24.5791 77.0666 24.8724 77.0296 24.7824 76.7527C24.6269 76.2743 24.6364 75.7609 24.3161 75.3068C24.0036 74.864 23.8355 74.3095 23.8528 73.7348C23.9452 73.8194 24.0336 73.9089 24.1307 73.9873C24.3556 74.1689 24.5623 74.1435 24.5958 73.9281C24.6986 73.2709 24.8151 72.6324 24.3228 72.0323C24.0666 71.72 23.8698 71.321 23.8522 70.8804C24.3066 71.0593 24.3923 71.5192 24.6159 71.8757C24.7288 72.0558 24.8553 72.2291 24.9927 72.391C25.0729 72.4856 25.2035 72.5456 25.3146 72.4529C25.3651 72.4107 25.3884 72.2899 25.3697 72.2188C25.2413 71.7235 25.0894 71.2342 24.9656 70.7377C24.9143 70.5322 24.9137 70.314 24.8899 70.1016C24.9648 70.1435 25.0405 70.1843 25.1146 70.2275C26.1293 70.8206 26.838 71.6335 26.981 72.8468C27.0246 73.2166 27.3638 73.4126 27.4846 73.7351C26.5394 73.531 26.5402 73.5307 26.6999 74.5236C26.7132 74.605 26.7048 74.6899 26.7064 74.7731C26.4742 74.7118 26.1625 74.5582 26.1993 74.9989C26.2439 75.5328 26.3604 76.0604 26.4461 76.5903Z" fill="#3E78ED"/>
<path d="M30.8555 86.1953C31.1617 86.3815 31.1063 86.6883 31.1155 86.9737C30.8093 86.7877 30.8649 86.4807 30.8555 86.1953Z" fill="#3E79EE"/>
<path d="M30.5977 85.9297C30.6839 86.0164 30.7701 86.1032 30.856 86.19C30.7698 86.1032 30.6836 86.0164 30.5977 85.9297Z" fill="#3E79EE"/>
<path d="M5.94631 83.0816C6.11849 83.1694 6.2904 83.2573 6.46259 83.3451C6.49773 83.5071 6.61775 83.756 6.55504 83.8174C6.02713 84.3326 6.41799 84.8763 6.51449 85.3756C6.63721 86.0106 6.99213 86.6148 7.55517 86.9151C8.20148 87.2598 8.285 88.0713 8.9405 88.3568C9.067 88.7609 9.1935 89.1651 9.32 89.5695C9.51165 89.8168 9.63707 90.1077 9.83818 90.3488C9.91981 90.4402 10.0152 90.5175 10.0977 90.6083C10.5042 90.5607 10.6018 90.9768 10.8762 91.1274C12.1366 91.6715 12.5575 92.8945 13.1519 93.9685C13.6238 94.8214 13.9028 95.8424 15.1373 95.9238C15.2968 95.9344 15.1635 95.8452 15.2449 95.9757C16.1925 97.4969 17.4995 98.7809 18.2117 100.458C18.0696 100.686 17.8517 100.81 17.6114 100.906C17.3635 100.985 17.1124 101.006 16.858 100.943C16.7396 100.904 16.6361 100.838 16.5483 100.752C16.3839 99.8568 15.4735 99.6565 14.9529 99.0902C14.6575 98.769 14.2115 98.5587 13.8379 98.1313C14.2355 99.2502 14.8478 100.037 15.8276 100.507C15.866 100.639 15.8379 100.752 15.7333 100.845C15.4387 101.024 15.1086 101.037 14.7783 101.053C14.6437 101.063 14.5093 101.062 14.3745 101.057C13.8211 101.027 13.2843 100.949 12.8675 100.53C12.6875 100.272 12.6156 99.9712 12.6386 99.6709C12.8732 96.5972 11.3549 94.264 9.45516 92.0895C9.28486 91.8946 9.0897 91.7048 8.99212 91.4707C8.20363 89.58 6.68992 88.1789 5.63383 86.4682C5.41029 85.3788 4.6537 84.3991 5.03564 83.1816C5.2254 82.5769 5.41515 82.7537 5.68735 83.0816C5.77331 83.0818 5.85981 83.0818 5.94631 83.0816Z" fill="#407EF3"/>
<path d="M5.68722 83.077C5.44583 83.0118 5.19472 82.8815 5.16363 83.3197C5.10579 84.1391 5.2104 84.912 5.6564 85.6245C5.81102 85.8719 5.94725 86.1417 5.94536 86.4512C5.9605 87.3347 6.2427 88.1829 6.27 89.0688C6.28865 89.6765 6.86413 89.6911 7.28391 89.8933C7.85994 90.1704 8.55625 90.477 7.81669 91.3001C7.50908 91.6423 7.66505 91.9059 8.07294 91.8675C8.9736 91.7829 9.15227 92.4233 9.33608 93.0432C9.56855 93.8266 9.76857 94.6179 10.0573 95.3861C10.2143 95.8043 10.5154 96.3558 9.94751 96.6524C9.32689 96.9765 9.01712 96.4834 8.78817 95.9825C8.71681 95.8262 8.66004 95.663 8.54003 95.534H8.54057C8.06429 94.935 7.84183 94.1453 7.15417 93.7009C7.05686 93.6379 6.99307 93.4946 6.9536 93.3757C6.71411 92.6507 6.57923 91.8665 5.80696 91.4615C5.9313 90.8919 5.25689 90.7295 5.19255 90.2648C5.10443 89.6287 4.83277 89.0296 4.89684 88.3595C4.96631 87.6358 4.84629 86.9037 5.10903 86.186C5.27986 85.7192 5.16255 85.2542 4.77304 84.8841C4.42245 84.5511 4.26 84.2015 4.69979 83.7866C5.0228 83.4817 4.91441 83.0586 4.87684 82.6815C4.84737 82.3863 4.71898 82.1019 4.67573 81.8064C4.64275 81.5815 4.72628 81.3693 4.98874 81.326C5.17444 81.2952 5.31446 81.3904 5.38636 81.5718C5.57855 82.0554 5.74479 82.5436 5.68722 83.077Z" fill="#3F7BF0"/>
<path d="M1.67157 82.3131C1.68887 82.3966 1.73833 82.4902 1.7159 82.561C1.67941 82.6762 1.61697 82.8019 1.52695 82.8767C1.41856 82.967 1.28071 82.9113 1.17826 82.8265C0.897682 82.5945 0.699815 82.3239 0.821993 81.9311C0.873081 81.767 0.950388 81.6094 0.986068 81.4426C1.04878 81.1493 1.04391 80.8025 1.44802 80.7682C1.95917 80.7249 2.50573 80.626 2.80226 81.2294C2.89606 81.4199 3.01607 81.6121 2.85065 81.8235C2.73387 81.9725 2.56655 82.0203 2.39085 82.0038C2.26516 81.9919 2.14542 81.9244 2.01945 81.903C1.64481 81.8395 1.644 81.8435 1.67157 82.3131Z" fill="#3C74E9"/>
<path d="M2.65651 82.3388C2.84787 82.3185 2.98462 82.4072 3.03786 82.5807C3.09678 82.7728 3.16165 83.0234 2.93949 83.1223C2.76057 83.202 2.66354 82.9842 2.59327 82.8385C2.54084 82.7293 2.50516 82.6042 2.50003 82.4845C2.49813 82.438 2.60138 82.3872 2.65651 82.3388Z" fill="#3C74E9"/>
<path d="M19.957 88.8019C20.0579 88.63 20.2057 88.5259 20.4033 88.4946C20.8317 88.2767 21.1672 88.4535 21.4251 88.7817C22.7788 90.5034 24.193 92.1819 25.321 94.069C25.4926 94.3564 25.7008 94.6721 25.4056 95.0157C25.3759 95.2174 25.377 95.4877 25.0596 95.2925C24.8123 95.1403 24.5958 94.9381 24.3655 94.7581C23.8294 94.7164 23.5162 94.3996 23.3483 93.9176C23.0704 93.1202 22.5766 92.4873 21.8251 92.1151C21.1002 91.7558 20.7109 91.1192 20.5774 90.4244C20.4617 89.8238 20.1976 89.3288 19.957 88.8019Z" fill="#3B72E6"/>
<path d="M25.4046 95.017C24.8857 93.9576 24.4659 92.8309 23.463 92.0956C23.2465 91.9369 23.1035 91.7344 22.9997 91.4965C22.671 90.7437 22.2296 90.0754 21.6114 89.5215C21.4263 89.3555 21.3046 89.1152 21.1665 88.9008C20.9854 88.62 20.7083 88.5343 20.4023 88.4962C20.7597 88.138 21.117 87.7801 21.4741 87.4219C22.1101 88.4486 22.9178 89.3466 23.7455 90.2076C24.1807 90.6604 24.4864 91.1086 24.6872 91.6944C24.8802 92.2575 25.1189 92.8287 25.5809 93.2475C26.1058 93.7232 26.0585 94.3066 25.9096 94.9054C25.8255 95.2444 25.5917 95.0603 25.4046 95.017Z" fill="#407DF2"/>
<path d="M23.5463 88.1594C23.5111 88.2159 23.4719 88.3386 23.3882 88.3983C23.2698 88.4823 23.1 88.2991 23.1141 88.1099C23.1238 87.9767 23.1927 87.8775 23.3284 87.8751C23.4663 87.8724 23.5382 87.9667 23.5463 88.1594Z" fill="#407DF2"/>
<path d="M20.217 95.2736C20.3727 95.6532 20.6773 96.0478 20.2932 96.4312C20.0781 96.6458 19.618 96.1911 19.4496 95.5553C19.3947 95.3479 19.3704 95.1449 19.179 95.0141C19.1182 95.0022 19.0571 94.9906 18.996 94.9798C18.8836 94.9273 18.7811 94.8586 18.6873 94.7775C16.8514 93.603 16.327 91.3844 14.8374 89.9308C14.6846 89.7819 14.6498 89.551 14.7422 89.331L14.7857 89.2891C15.5558 89.3902 16.3259 89.491 17.0958 89.5918C17.0287 89.7875 16.8314 89.9684 16.9341 90.1863C17.3128 90.9889 17.7123 91.7815 18.104 92.5779C18.1832 92.739 18.3292 92.9163 18.4851 92.8458C19.0917 92.5717 19.2352 93.0272 19.4096 93.4046C19.6942 94.0206 19.9494 94.65 20.217 95.2736Z" fill="#417FF4"/>
<path d="M14.5388 79.2122C14.4034 79.4008 14.2101 79.437 13.9961 79.4187C14.1253 79.2141 14.321 79.1838 14.5388 79.2122Z" fill="#407CF1"/>
<path d="M11.3935 100.174C11.1807 100.191 10.9964 100.141 10.8721 99.9509C10.9448 99.3754 10.7491 98.8472 10.5469 98.3319C10.3979 97.9518 9.89355 97.7913 9.86597 97.309C9.863 97.2558 9.74352 97.182 9.66757 97.1647C8.78988 96.966 8.54796 96.3323 8.53715 95.5354C8.89963 95.6654 9.00802 96.0195 9.21265 96.2912C9.31725 96.4299 9.46295 96.5169 9.64919 96.5386C9.81218 96.5572 10.0298 96.4018 9.99626 96.2539C9.94896 96.0449 9.90949 95.829 9.823 95.6354C9.45241 94.806 9.20508 93.9426 9.03235 93.0521C8.98424 92.8037 8.85962 92.5661 8.74582 92.3355C8.57985 91.9987 8.41687 91.9722 8.07817 92.3225C7.86463 92.5431 7.72487 92.5385 7.59026 92.3136C7.41348 92.0179 7.26833 91.7021 7.12507 91.388C6.98316 91.0771 7.07696 90.9749 7.47566 90.9882C7.51728 90.9895 7.55756 91.0171 7.59972 91.0239C7.7338 91.0449 7.86787 91.0285 7.91355 90.8857C7.93572 90.8162 7.90653 90.7095 7.86355 90.644C7.66649 90.3451 7.41132 90.122 7.03127 90.0977C6.81584 90.0839 6.59851 90.0864 6.3847 90.0599C6.14467 90.0301 5.95167 89.8717 5.97437 89.6408C6.03681 89.0018 5.59648 88.3984 5.88842 87.7383C6.02952 87.4196 5.70082 87.196 5.57297 86.9316C5.39186 86.5575 5.67406 86.5018 5.94221 86.4531C6.1944 87.0114 6.48417 87.5271 7.0756 87.8172C7.25238 87.9037 7.39132 88.1075 7.49998 88.2868C7.94491 89.021 8.39497 89.7541 8.79745 90.5121C9.10263 91.0868 9.39564 91.6778 9.90328 92.0852C10.9218 92.9026 11.4335 94.0318 11.9125 95.1848C12.0795 95.5867 12.2244 95.9958 12.5474 96.2985C12.8967 96.6256 12.958 97.0295 12.9523 97.4785C12.9399 98.4728 12.9499 99.4673 12.9504 100.462C12.8634 100.456 12.7761 100.451 12.6891 100.446C12.2279 99.9542 12.4458 99.3251 12.3382 98.7615C12.2763 98.4379 12.5207 97.8754 11.8168 97.9332C11.3905 97.2141 11.6389 96.1996 10.8704 95.7871C11.2245 96.6837 11.3802 97.7772 11.6524 98.8383C11.7687 99.2862 11.7752 99.7863 11.3935 100.174Z" fill="#3B74E8"/>
<path d="M18.1436 100.465C18.0082 100.197 17.8776 99.9276 17.7351 99.664C17.6576 99.5205 17.6116 99.3537 17.4075 99.308C16.569 99.1206 16.3842 98.3497 16.0798 97.7252C15.873 97.3013 15.6705 96.888 15.4019 96.4979C15.1818 96.1787 14.9669 95.9813 14.5609 96.1397C14.3228 96.2327 14.1644 96.0727 13.9992 95.9321C13.6638 95.6464 13.4686 95.2679 13.2705 94.8862C12.8572 94.0901 12.4815 93.278 11.9906 92.5173C11.6605 92.0059 11.1334 91.6728 10.8742 91.1205C10.8158 90.7861 10.7472 90.4531 10.7026 90.1168C10.6774 89.9273 10.7964 89.7935 10.958 89.7126C11.0786 89.6526 11.2175 89.6516 11.3097 89.7591C11.6068 90.1062 12.1301 90.2558 12.1966 90.8083C12.2287 91.0762 12.4398 91.2541 12.6204 91.4371C12.8921 91.7117 13.1553 91.9788 13.2481 92.3857C13.2921 92.5789 13.4389 92.7736 13.5892 92.9134C13.976 93.2729 14.2066 93.7054 14.399 94.1942C14.6017 94.7097 14.7201 95.3579 15.4832 95.4017C15.5535 95.4058 15.6367 95.4877 15.6838 95.5545C16.3144 96.4552 17.2407 97.1229 17.6843 98.1788C17.8627 98.6035 18.1636 98.9922 18.4709 99.3431C18.7593 99.6727 18.9659 100.039 19.1637 100.418C19.124 100.469 19.084 100.52 19.0445 100.571C18.7196 100.744 18.4231 100.677 18.1436 100.465Z" fill="#3B74E8"/>
<path d="M14.7425 89.3333C15.0339 89.9656 15.4996 90.4595 15.9986 90.9293C16.4338 91.3392 16.7784 91.7822 16.9871 92.3802C17.2328 93.0844 17.5201 93.8294 18.417 94.0476C18.7062 94.1179 18.7838 94.4944 18.9211 94.7567C19.0131 94.8378 19.0812 94.9424 19.1796 95.017V95.0164C19.1609 95.187 19.1979 95.3971 19.1114 95.5198C18.9528 95.7455 18.7238 95.5517 18.5262 95.5193C18.4438 95.5057 18.3411 95.479 18.2919 95.4206C18.0543 95.1378 17.7596 95.044 17.3936 94.9945C16.829 94.9183 16.3916 94.5485 16.0318 94.1284C15.5012 93.5088 15.5174 93.4948 14.6181 93.5848C15.0579 92.9825 15.5064 92.61 16.2513 92.8416C16.3073 92.8589 16.4257 92.7941 16.4581 92.7357C16.4919 92.6749 16.4873 92.5519 16.4454 92.4978C16.3151 92.3294 16.1878 92.1182 16.0081 92.0355C15.408 91.7595 15.0887 91.2175 14.8644 90.6847C14.6763 90.2381 14.3886 89.8805 14.1367 89.5066C14.3113 89.253 14.5362 89.3312 14.7425 89.3333Z" fill="#3B73E7"/>
<path d="M9.83842 90.3417C9.49355 90.1966 9.31977 89.9376 9.32031 89.5625C9.5668 89.6617 9.73977 89.8344 9.83842 90.0817C9.83842 90.1685 9.83842 90.2549 9.83842 90.3417Z" fill="#3E7AEF"/>
<path d="M11.3967 100.174C11.4451 99.3031 11.2891 98.4734 11.0407 97.6319C10.7985 96.8117 10.6536 95.9602 10.3836 95.1424C10.3481 95.0349 10.3952 94.8891 10.4373 94.7732C10.4503 94.7375 10.6317 94.7167 10.6379 94.7313C10.962 95.4874 11.5353 96.0824 11.9511 96.7777C12.0651 96.9685 11.887 97.0761 11.7883 97.2102C11.6005 97.4656 11.6662 97.6908 11.9132 97.8733C12.0116 97.9287 12.0935 98.0022 12.1614 98.0925C12.2576 98.2307 12.33 98.3804 12.3792 98.5413C12.4479 98.8643 12.4209 99.1928 12.4295 99.5193C12.4317 99.7315 12.4322 99.9443 12.4974 100.15C12.5414 100.258 12.519 100.349 12.4311 100.425C12.0865 100.341 11.7416 100.258 11.3967 100.174Z" fill="#407CF1"/>
<path d="M44.6094 34.5489C45.2235 34.1299 45.9425 33.9547 46.6261 33.7057C49.0632 32.8182 51.5395 32.0797 54.148 31.9091C54.581 31.8807 54.8964 31.7461 55.01 31.2903C55.0408 31.1668 55.1086 31.0516 55.1646 30.9351C55.882 29.4394 56.0331 29.5359 57.5914 29.617C58.1363 29.6454 58.6821 29.8492 59.2067 30.0328C59.9255 30.2842 60.2947 30.8613 60.4223 31.5839C60.4893 31.9637 60.4696 32.3584 60.5072 32.7444C60.6158 33.8698 60.0441 34.5459 59.0454 34.8962C58.2717 35.1677 57.4816 35.3745 56.6407 35.1463C55.7525 34.9054 55.0713 34.5067 54.8799 33.4951C54.7588 32.8547 54.6905 32.8347 53.9679 32.9726C52.9102 33.1742 51.8601 33.4167 50.8108 33.66C49.0448 34.0696 47.3608 34.7427 45.6368 35.2869C45.2505 35.1417 44.9559 34.8668 44.6588 34.5956L44.6094 34.5489Z" fill="#F96E2B"/>
<path d="M44.66 34.5982C45.2681 34.4293 45.4289 34.8933 45.6378 35.2893C45.5862 35.3533 45.5205 35.3752 45.4408 35.3552C45.2654 35.469 45.0211 35.4166 44.8708 35.5917H44.8711C44.507 35.3228 44.6146 34.9539 44.66 34.5982Z" fill="#E96025"/>
<path d="M44.8711 35.5876C44.9976 35.3557 45.2079 35.326 45.4411 35.3511C45.3003 35.5484 45.1 35.6025 44.8711 35.5876Z" fill="#F86F2D"/>
<path d="M20.9433 99.5263C20.9314 99.7077 20.8755 99.8599 20.6674 99.8864C20.4798 99.9101 20.3376 99.8442 20.2825 99.6491C20.2211 99.431 20.3857 99.2096 20.6055 99.2109C20.7701 99.212 20.9274 99.3588 20.9433 99.5263Z" fill="#376BDD"/>
<path d="M16.6183 100.648C16.328 100.648 16.0377 100.648 15.7468 100.648C15.6209 100.513 15.459 100.459 15.2827 100.469C14.8451 100.493 14.6334 100.321 14.4196 99.8946C14.1372 99.332 13.6666 98.8608 13.5295 98.2139C13.4944 98.0485 13.4973 97.8744 13.4922 97.7038C13.4911 97.6673 13.5252 97.6049 13.5541 97.5976C13.6263 97.5792 13.7355 97.5519 13.775 97.5881C13.9312 97.7311 14.0693 97.8947 14.2083 98.0558C14.3461 98.2156 14.4513 98.4862 14.6151 98.5262C15.2597 98.6838 15.6379 99.1014 15.9547 99.6423C16.1563 99.9865 16.5464 99.9354 16.887 99.9584C17.0665 99.9705 17.2346 100.029 17.2305 100.239C17.2273 100.393 17.0632 100.408 16.9481 100.461C16.8335 100.513 16.7278 100.585 16.6183 100.648Z" fill="#3B74E8"/>
<path d="M11.9121 98.1273C11.9112 98.0414 11.9107 97.9554 11.9102 97.8694C11.9475 97.6561 11.9831 97.3963 12.2818 97.6126C12.5745 97.8246 12.698 98.1387 12.6912 98.5109C12.6799 99.1543 12.6891 99.7979 12.6896 100.441C12.6023 100.435 12.5153 100.428 12.428 100.421C12.4288 100.348 12.4288 100.276 12.428 100.204C12.2718 100.066 12.338 99.818 12.1723 99.6847C12.1715 99.2527 12.1707 98.8207 12.1699 98.3887C12.0783 98.3071 12.0099 98.2027 11.9121 98.1273Z" fill="#3B74E8"/>
</svg>
